<svg width="14" height="14" viewBox="0 0 14 14" fill="none" xmlns="http://www.w3.org/2000/svg">
<path d="M6.99992 0.333313C7.88397 0.333313 8.73182 0.684502 9.35694 1.30962C9.98206 1.93474 10.3333 2.78259 10.3333 3.66665C10.3333 4.5507 9.98206 5.39855 9.35694 6.02367C8.73182 6.64879 7.88397 6.99998 6.99992 6.99998C6.11586 6.99998 5.26802 6.64879 4.6429 6.02367C4.01777 5.39855 3.66659 4.5507 3.66659 3.66665C3.66659 2.78259 4.01777 1.93474 4.6429 1.30962C5.26802 0.684502 6.11586 0.333313 6.99992 0.333313ZM6.99992 8.66665C10.6833 8.66665 13.6666 10.1583 13.6666 12V13.6666H0.333252V12C0.333252 10.1583 3.31659 8.66665 6.99992 8.66665Z" fill="#070822"/>
</svg>
