<svg width="27" height="27" viewBox="0 0 27 27" fill="none" xmlns="http://www.w3.org/2000/svg">
<path fill-rule="evenodd" clip-rule="evenodd" d="M23.1372 5.13721C23.2209 5.05354 23.2873 4.95419 23.3326 4.84486C23.3778 4.73553 23.4011 4.61835 23.4011 4.50001C23.4011 4.38167 23.3778 4.26449 23.3326 4.15516C23.2873 4.04583 23.2209 3.94649 23.1372 3.86281C23.0535 3.77914 22.9542 3.71276 22.8449 3.66747C22.7355 3.62219 22.6184 3.59888 22.5 3.59888C22.3817 3.59888 22.2645 3.62219 22.1552 3.66747C22.0458 3.71276 21.9465 3.77914 21.8628 3.86281L13.5 12.2274L5.13721 3.86281C5.05354 3.77914 4.95419 3.71276 4.84486 3.66747C4.73553 3.62219 4.61835 3.59888 4.50001 3.59888C4.38167 3.59888 4.26449 3.62219 4.15516 3.66747C4.04583 3.71276 3.94649 3.77914 3.86281 3.86281C3.77914 3.94649 3.71276 4.04583 3.66747 4.15516C3.62219 4.26449 3.59888 4.38167 3.59888 4.50001C3.59888 4.61835 3.62219 4.73553 3.66747 4.84486C3.71276 4.95419 3.77914 5.05354 3.86281 5.13721L12.2274 13.5L3.86281 21.8628C3.69382 22.0318 3.59888 22.261 3.59888 22.5C3.59888 22.739 3.69382 22.9682 3.86281 23.1372C4.03181 23.3062 4.26102 23.4011 4.50001 23.4011C4.73901 23.4011 4.96822 23.3062 5.13721 23.1372L13.5 14.7726L21.8628 23.1372C22.0318 23.3062 22.261 23.4011 22.5 23.4011C22.739 23.4011 22.9682 23.3062 23.1372 23.1372C23.3062 22.9682 23.4011 22.739 23.4011 22.5C23.4011 22.261 23.3062 22.0318 23.1372 21.8628L14.7726 13.5L23.1372 5.13721Z" fill="#E9FFFC"/>
</svg>
