<svg width="24" height="24" viewBox="0 0 24 24" fill="none" xmlns="http://www.w3.org/2000/svg">
<mask id="path-1-outside-1_182_928" maskUnits="userSpaceOnUse" x="1.3999" y="1.40002" width="22" height="21" fill="black">
<rect fill="white" x="1.3999" y="1.40002" width="22" height="21"/>
<path d="M16.1999 3.60002C15.844 3.59995 15.4925 3.67905 15.1709 3.83158C14.8493 3.98411 14.5657 4.20626 14.3405 4.48194C14.1154 4.75762 13.9544 5.07992 13.8692 5.4255C13.784 5.77108 13.7767 6.13129 13.8479 6.48002C13.8673 6.57239 13.8646 6.66803 13.84 6.75916C13.8155 6.85029 13.7698 6.93434 13.7066 7.00449C13.6435 7.07464 13.5647 7.1289 13.4767 7.16288C13.3886 7.19686 13.2938 7.20958 13.1999 7.20002C12.8039 7.20002 12.4295 7.29602 12.1007 7.46642C11.9209 7.1053 11.6963 6.76825 11.4323 6.46322C11.7948 6.25822 12.1904 6.11811 12.6011 6.04922V6.00002C12.6011 5.52727 12.6942 5.05914 12.8751 4.62236C13.0561 4.18559 13.3212 3.78873 13.6555 3.45444C13.9898 3.12015 14.3867 2.85498 14.8234 2.67406C15.2602 2.49314 15.7283 2.40002 16.2011 2.40002C16.6739 2.40002 17.142 2.49314 17.5788 2.67406C18.0155 2.85498 18.4124 3.12015 18.7467 3.45444C19.081 3.78873 19.3462 4.18559 19.5271 4.62236C19.708 5.05914 19.8011 5.52727 19.8011 6.00002L19.7999 6.04922C20.2713 6.1311 20.7217 6.30613 21.1247 6.56409C21.5277 6.82204 21.8752 7.15775 22.147 7.55158C22.4187 7.94541 22.6092 8.38946 22.7074 8.85777C22.8055 9.32608 22.8093 9.80926 22.7185 10.2791C22.6278 10.7488 22.4443 11.1958 22.1787 11.5939C21.9132 11.9919 21.571 12.3331 21.1721 12.5973C20.7732 12.8616 20.3256 13.0437 19.8555 13.1329C19.3855 13.2222 18.9023 13.2169 18.4343 13.1172L18.6983 14.2056C18.7732 14.5146 18.7769 14.8366 18.7092 15.1473C18.6414 15.4579 18.5041 15.7492 18.3074 15.999C18.1107 16.2488 17.8599 16.4507 17.5738 16.5895C17.2877 16.7283 16.9739 16.8002 16.6559 16.8H15.7415C15.4235 16.8 15.1096 16.7277 14.8237 16.5886C14.5377 16.4496 14.287 16.2474 14.0905 15.9973C13.8941 15.7472 13.757 15.4558 13.6896 15.145C13.6222 14.8342 13.6263 14.5122 13.7015 14.2032L14.2415 11.9808C14.2601 11.9042 14.2936 11.8321 14.3401 11.7684C14.3866 11.7048 14.4451 11.6509 14.5124 11.6099C14.5797 11.5689 14.6545 11.5416 14.7323 11.5294C14.8102 11.5173 14.8897 11.5206 14.9663 11.5392C15.0429 11.5578 15.1151 11.5913 15.1787 11.6378C15.2423 11.6843 15.2962 11.7429 15.3372 11.8102C15.3782 11.8775 15.4056 11.9522 15.4177 12.0301C15.4298 12.1079 15.4265 12.1874 15.4079 12.264L14.8679 14.4876C14.8358 14.62 14.8341 14.7579 14.863 14.8909C14.8918 15.024 14.9506 15.1488 15.0347 15.2559C15.1188 15.363 15.2261 15.4496 15.3485 15.5092C15.471 15.5688 15.6053 15.5999 15.7415 15.6H16.6559C16.7923 15.6002 16.9269 15.5695 17.0497 15.51C17.1724 15.4506 17.28 15.364 17.3644 15.2568C17.4488 15.1497 17.5077 15.0248 17.5367 14.8915C17.5657 14.7583 17.5641 14.6202 17.5319 14.4876L16.9919 12.2628C16.9639 12.1463 16.9715 12.0241 17.0136 11.9119C17.0557 11.7998 17.1305 11.7028 17.2282 11.6334C17.3259 11.5641 17.4422 11.5256 17.5619 11.523C17.6817 11.5203 17.7996 11.5535 17.9003 11.6184C18.2157 11.8212 18.5742 11.9472 18.947 11.9864C19.3199 12.0256 19.6968 11.977 20.0474 11.8443C20.3981 11.7116 20.7128 11.4986 20.9663 11.2224C21.2198 10.9462 21.4051 10.6144 21.5072 10.2537C21.6094 9.89297 21.6257 9.51332 21.5547 9.14518C21.4837 8.77705 21.3275 8.43066 21.0985 8.13379C20.8695 7.83692 20.5742 7.59782 20.2361 7.43567C19.8981 7.27351 19.5268 7.19281 19.1519 7.20002C19.0619 7.20185 18.9727 7.1834 18.8908 7.14605C18.8089 7.1087 18.7364 7.0534 18.6788 6.98426C18.6212 6.91511 18.5799 6.83389 18.5579 6.7466C18.5359 6.65932 18.5339 6.56821 18.5519 6.48002C18.6231 6.13129 18.6158 5.77108 18.5306 5.4255C18.4454 5.07992 18.2844 4.75762 18.0593 4.48194C17.8341 4.20626 17.5505 3.98411 17.2289 3.83158C16.9073 3.67905 16.5558 3.59995 16.1999 3.60002ZM5.3999 9.60002C5.3999 9.21974 5.49027 8.8449 5.66356 8.50639C5.83685 8.16788 6.08809 7.8754 6.3966 7.65304C6.7051 7.43069 7.06203 7.28482 7.43796 7.22747C7.8139 7.17012 8.19808 7.20293 8.55885 7.32318C8.91962 7.44344 9.24665 7.64771 9.51299 7.91915C9.77932 8.19059 9.97735 8.52144 10.0907 8.88442C10.2041 9.24741 10.2296 9.63214 10.1652 10.0069C10.1007 10.3817 9.94807 10.7358 9.7199 11.04C9.65305 11.1292 9.61233 11.2352 9.60233 11.3461C9.59232 11.4571 9.61342 11.5687 9.66325 11.6684C9.71308 11.768 9.78968 11.8518 9.88446 11.9104C9.97925 11.969 10.0885 12 10.1999 12H10.7999C10.959 12 11.1116 12.0632 11.2242 12.1758C11.3367 12.2883 11.3999 12.4409 11.3999 12.6C11.3999 12.7592 11.3367 12.9118 11.2242 13.0243C11.1116 13.1368 10.959 13.2 10.7999 13.2H9.4715C9.38667 13.2001 9.30282 13.2181 9.22548 13.253C9.14813 13.2878 9.07906 13.3387 9.02281 13.4022C8.96657 13.4657 8.92443 13.5404 8.89917 13.6214C8.87392 13.7024 8.86612 13.7878 8.8763 13.872C9.2387 16.836 10.8071 18.5376 11.6843 19.272C11.8943 19.4472 11.9999 19.668 11.9999 19.8588C11.9999 20.0024 11.9429 20.14 11.8414 20.2415C11.7399 20.343 11.6022 20.4 11.4587 20.4H4.1399C3.99658 20.3997 3.85923 20.3425 3.75799 20.2411C3.65676 20.1396 3.5999 20.0022 3.5999 19.8588C3.5999 19.6668 3.7055 19.4472 3.9143 19.272C4.7927 18.5376 6.3623 16.836 6.7235 13.872C6.73368 13.7878 6.72589 13.7024 6.70063 13.6214C6.67538 13.5404 6.63324 13.4657 6.57699 13.4022C6.52074 13.3387 6.45167 13.2878 6.37433 13.253C6.29699 13.2181 6.21313 13.2001 6.1283 13.2H4.7999C4.64077 13.2 4.48816 13.1368 4.37564 13.0243C4.26312 12.9118 4.1999 12.7592 4.1999 12.6C4.1999 12.4409 4.26312 12.2883 4.37564 12.1758C4.48816 12.0632 4.64077 12 4.7999 12H5.3999C5.51133 12 5.62056 11.969 5.71534 11.9104C5.81013 11.8518 5.88673 11.768 5.93656 11.6684C5.98639 11.5687 6.00748 11.4571 5.99748 11.3461C5.98747 11.2352 5.94676 11.1292 5.8799 11.04C5.56747 10.625 5.39894 10.1195 5.3999 9.60002ZM7.7999 6.00002C7.22022 5.99987 6.64908 6.13969 6.13503 6.40761C5.62098 6.67554 5.17923 7.06363 4.84734 7.5389C4.51546 8.01417 4.30325 8.56255 4.22876 9.13743C4.15427 9.7123 4.21971 10.2967 4.4195 10.8408C3.98542 10.9349 3.60142 11.1861 3.34137 11.5461C3.08131 11.9062 2.96357 12.3497 3.01077 12.7913C3.05797 13.233 3.26679 13.6415 3.59706 13.9385C3.92734 14.2355 4.35575 14.3999 4.7999 14.4H5.4239C4.9775 16.5576 3.8003 17.8032 3.1439 18.3516C2.7287 18.6996 2.3999 19.2348 2.3999 19.8588C2.3999 20.82 3.1799 21.6 4.1411 21.6H11.4599C12.4199 21.6 13.1999 20.82 13.1999 19.8588C13.1999 19.2348 12.8711 18.6996 12.4559 18.3516C11.7995 17.8032 10.6223 16.5576 10.1759 14.4H10.7999C11.2441 14.3999 11.6725 14.2355 12.0027 13.9385C12.333 13.6415 12.5418 13.233 12.589 12.7913C12.6362 12.3497 12.5185 11.9062 12.2584 11.5461C11.9984 11.1861 11.6144 10.9349 11.1803 10.8408C11.3801 10.2967 11.4455 9.7123 11.371 9.13743C11.2966 8.56255 11.0843 8.01417 10.7525 7.5389C10.4206 7.06363 9.97883 6.67554 9.46478 6.40761C8.95073 6.13969 8.37958 5.99987 7.7999 6.00002Z"/>
</mask>
<path d="M16.1999 3.60002C15.844 3.59995 15.4925 3.67905 15.1709 3.83158C14.8493 3.98411 14.5657 4.20626 14.3405 4.48194C14.1154 4.75762 13.9544 5.07992 13.8692 5.4255C13.784 5.77108 13.7767 6.13129 13.8479 6.48002C13.8673 6.57239 13.8646 6.66803 13.84 6.75916C13.8155 6.85029 13.7698 6.93434 13.7066 7.00449C13.6435 7.07464 13.5647 7.1289 13.4767 7.16288C13.3886 7.19686 13.2938 7.20958 13.1999 7.20002C12.8039 7.20002 12.4295 7.29602 12.1007 7.46642C11.9209 7.1053 11.6963 6.76825 11.4323 6.46322C11.7948 6.25822 12.1904 6.11811 12.6011 6.04922V6.00002C12.6011 5.52727 12.6942 5.05914 12.8751 4.62236C13.0561 4.18559 13.3212 3.78873 13.6555 3.45444C13.9898 3.12015 14.3867 2.85498 14.8234 2.67406C15.2602 2.49314 15.7283 2.40002 16.2011 2.40002C16.6739 2.40002 17.142 2.49314 17.5788 2.67406C18.0155 2.85498 18.4124 3.12015 18.7467 3.45444C19.081 3.78873 19.3462 4.18559 19.5271 4.62236C19.708 5.05914 19.8011 5.52727 19.8011 6.00002L19.7999 6.04922C20.2713 6.1311 20.7217 6.30613 21.1247 6.56409C21.5277 6.82204 21.8752 7.15775 22.147 7.55158C22.4187 7.94541 22.6092 8.38946 22.7074 8.85777C22.8055 9.32608 22.8093 9.80926 22.7185 10.2791C22.6278 10.7488 22.4443 11.1958 22.1787 11.5939C21.9132 11.9919 21.571 12.3331 21.1721 12.5973C20.7732 12.8616 20.3256 13.0437 19.8555 13.1329C19.3855 13.2222 18.9023 13.2169 18.4343 13.1172L18.6983 14.2056C18.7732 14.5146 18.7769 14.8366 18.7092 15.1473C18.6414 15.4579 18.5041 15.7492 18.3074 15.999C18.1107 16.2488 17.8599 16.4507 17.5738 16.5895C17.2877 16.7283 16.9739 16.8002 16.6559 16.8H15.7415C15.4235 16.8 15.1096 16.7277 14.8237 16.5886C14.5377 16.4496 14.287 16.2474 14.0905 15.9973C13.8941 15.7472 13.757 15.4558 13.6896 15.145C13.6222 14.8342 13.6263 14.5122 13.7015 14.2032L14.2415 11.9808C14.2601 11.9042 14.2936 11.8321 14.3401 11.7684C14.3866 11.7048 14.4451 11.6509 14.5124 11.6099C14.5797 11.5689 14.6545 11.5416 14.7323 11.5294C14.8102 11.5173 14.8897 11.5206 14.9663 11.5392C15.0429 11.5578 15.1151 11.5913 15.1787 11.6378C15.2423 11.6843 15.2962 11.7429 15.3372 11.8102C15.3782 11.8775 15.4056 11.9522 15.4177 12.0301C15.4298 12.1079 15.4265 12.1874 15.4079 12.264L14.8679 14.4876C14.8358 14.62 14.8341 14.7579 14.863 14.8909C14.8918 15.024 14.9506 15.1488 15.0347 15.2559C15.1188 15.363 15.2261 15.4496 15.3485 15.5092C15.471 15.5688 15.6053 15.5999 15.7415 15.6H16.6559C16.7923 15.6002 16.9269 15.5695 17.0497 15.51C17.1724 15.4506 17.28 15.364 17.3644 15.2568C17.4488 15.1497 17.5077 15.0248 17.5367 14.8915C17.5657 14.7583 17.5641 14.6202 17.5319 14.4876L16.9919 12.2628C16.9639 12.1463 16.9715 12.0241 17.0136 11.9119C17.0557 11.7998 17.1305 11.7028 17.2282 11.6334C17.3259 11.5641 17.4422 11.5256 17.5619 11.523C17.6817 11.5203 17.7996 11.5535 17.9003 11.6184C18.2157 11.8212 18.5742 11.9472 18.947 11.9864C19.3199 12.0256 19.6968 11.977 20.0474 11.8443C20.3981 11.7116 20.7128 11.4986 20.9663 11.2224C21.2198 10.9462 21.4051 10.6144 21.5072 10.2537C21.6094 9.89297 21.6257 9.51332 21.5547 9.14518C21.4837 8.77705 21.3275 8.43066 21.0985 8.13379C20.8695 7.83692 20.5742 7.59782 20.2361 7.43567C19.8981 7.27351 19.5268 7.19281 19.1519 7.20002C19.0619 7.20185 18.9727 7.1834 18.8908 7.14605C18.8089 7.1087 18.7364 7.0534 18.6788 6.98426C18.6212 6.91511 18.5799 6.83389 18.5579 6.7466C18.5359 6.65932 18.5339 6.56821 18.5519 6.48002C18.6231 6.13129 18.6158 5.77108 18.5306 5.4255C18.4454 5.07992 18.2844 4.75762 18.0593 4.48194C17.8341 4.20626 17.5505 3.98411 17.2289 3.83158C16.9073 3.67905 16.5558 3.59995 16.1999 3.60002ZM5.3999 9.60002C5.3999 9.21974 5.49027 8.8449 5.66356 8.50639C5.83685 8.16788 6.08809 7.8754 6.3966 7.65304C6.7051 7.43069 7.06203 7.28482 7.43796 7.22747C7.8139 7.17012 8.19808 7.20293 8.55885 7.32318C8.91962 7.44344 9.24665 7.64771 9.51299 7.91915C9.77932 8.19059 9.97735 8.52144 10.0907 8.88442C10.2041 9.24741 10.2296 9.63214 10.1652 10.0069C10.1007 10.3817 9.94807 10.7358 9.7199 11.04C9.65305 11.1292 9.61233 11.2352 9.60233 11.3461C9.59232 11.4571 9.61342 11.5687 9.66325 11.6684C9.71308 11.768 9.78968 11.8518 9.88446 11.9104C9.97925 11.969 10.0885 12 10.1999 12H10.7999C10.959 12 11.1116 12.0632 11.2242 12.1758C11.3367 12.2883 11.3999 12.4409 11.3999 12.6C11.3999 12.7592 11.3367 12.9118 11.2242 13.0243C11.1116 13.1368 10.959 13.2 10.7999 13.2H9.4715C9.38667 13.2001 9.30282 13.2181 9.22548 13.253C9.14813 13.2878 9.07906 13.3387 9.02281 13.4022C8.96657 13.4657 8.92443 13.5404 8.89917 13.6214C8.87392 13.7024 8.86612 13.7878 8.8763 13.872C9.2387 16.836 10.8071 18.5376 11.6843 19.272C11.8943 19.4472 11.9999 19.668 11.9999 19.8588C11.9999 20.0024 11.9429 20.14 11.8414 20.2415C11.7399 20.343 11.6022 20.4 11.4587 20.4H4.1399C3.99658 20.3997 3.85923 20.3425 3.75799 20.2411C3.65676 20.1396 3.5999 20.0022 3.5999 19.8588C3.5999 19.6668 3.7055 19.4472 3.9143 19.272C4.7927 18.5376 6.3623 16.836 6.7235 13.872C6.73368 13.7878 6.72589 13.7024 6.70063 13.6214C6.67538 13.5404 6.63324 13.4657 6.57699 13.4022C6.52074 13.3387 6.45167 13.2878 6.37433 13.253C6.29699 13.2181 6.21313 13.2001 6.1283 13.2H4.7999C4.64077 13.2 4.48816 13.1368 4.37564 13.0243C4.26312 12.9118 4.1999 12.7592 4.1999 12.6C4.1999 12.4409 4.26312 12.2883 4.37564 12.1758C4.48816 12.0632 4.64077 12 4.7999 12H5.3999C5.51133 12 5.62056 11.969 5.71534 11.9104C5.81013 11.8518 5.88673 11.768 5.93656 11.6684C5.98639 11.5687 6.00748 11.4571 5.99748 11.3461C5.98747 11.2352 5.94676 11.1292 5.8799 11.04C5.56747 10.625 5.39894 10.1195 5.3999 9.60002ZM7.7999 6.00002C7.22022 5.99987 6.64908 6.13969 6.13503 6.40761C5.62098 6.67554 5.17923 7.06363 4.84734 7.5389C4.51546 8.01417 4.30325 8.56255 4.22876 9.13743C4.15427 9.7123 4.21971 10.2967 4.4195 10.8408C3.98542 10.9349 3.60142 11.1861 3.34137 11.5461C3.08131 11.9062 2.96357 12.3497 3.01077 12.7913C3.05797 13.233 3.26679 13.6415 3.59706 13.9385C3.92734 14.2355 4.35575 14.3999 4.7999 14.4H5.4239C4.9775 16.5576 3.8003 17.8032 3.1439 18.3516C2.7287 18.6996 2.3999 19.2348 2.3999 19.8588C2.3999 20.82 3.1799 21.6 4.1411 21.6H11.4599C12.4199 21.6 13.1999 20.82 13.1999 19.8588C13.1999 19.2348 12.8711 18.6996 12.4559 18.3516C11.7995 17.8032 10.6223 16.5576 10.1759 14.4H10.7999C11.2441 14.3999 11.6725 14.2355 12.0027 13.9385C12.333 13.6415 12.5418 13.233 12.589 12.7913C12.6362 12.3497 12.5185 11.9062 12.2584 11.5461C11.9984 11.1861 11.6144 10.9349 11.1803 10.8408C11.3801 10.2967 11.4455 9.7123 11.371 9.13743C11.2966 8.56255 11.0843 8.01417 10.7525 7.5389C10.4206 7.06363 9.97883 6.67554 9.46478 6.40761C8.95073 6.13969 8.37958 5.99987 7.7999 6.00002Z" fill="#E9FFFC"/>
<path d="M16.1999 3.60002C15.844 3.59995 15.4925 3.67905 15.1709 3.83158C14.8493 3.98411 14.5657 4.20626 14.3405 4.48194C14.1154 4.75762 13.9544 5.07992 13.8692 5.4255C13.784 5.77108 13.7767 6.13129 13.8479 6.48002C13.8673 6.57239 13.8646 6.66803 13.84 6.75916C13.8155 6.85029 13.7698 6.93434 13.7066 7.00449C13.6435 7.07464 13.5647 7.1289 13.4767 7.16288C13.3886 7.19686 13.2938 7.20958 13.1999 7.20002C12.8039 7.20002 12.4295 7.29602 12.1007 7.46642C11.9209 7.1053 11.6963 6.76825 11.4323 6.46322C11.7948 6.25822 12.1904 6.11811 12.6011 6.04922V6.00002C12.6011 5.52727 12.6942 5.05914 12.8751 4.62236C13.0561 4.18559 13.3212 3.78873 13.6555 3.45444C13.9898 3.12015 14.3867 2.85498 14.8234 2.67406C15.2602 2.49314 15.7283 2.40002 16.2011 2.40002C16.6739 2.40002 17.142 2.49314 17.5788 2.67406C18.0155 2.85498 18.4124 3.12015 18.7467 3.45444C19.081 3.78873 19.3462 4.18559 19.5271 4.62236C19.708 5.05914 19.8011 5.52727 19.8011 6.00002L19.7999 6.04922C20.2713 6.1311 20.7217 6.30613 21.1247 6.56409C21.5277 6.82204 21.8752 7.15775 22.147 7.55158C22.4187 7.94541 22.6092 8.38946 22.7074 8.85777C22.8055 9.32608 22.8093 9.80926 22.7185 10.2791C22.6278 10.7488 22.4443 11.1958 22.1787 11.5939C21.9132 11.9919 21.571 12.3331 21.1721 12.5973C20.7732 12.8616 20.3256 13.0437 19.8555 13.1329C19.3855 13.2222 18.9023 13.2169 18.4343 13.1172L18.6983 14.2056C18.7732 14.5146 18.7769 14.8366 18.7092 15.1473C18.6414 15.4579 18.5041 15.7492 18.3074 15.999C18.1107 16.2488 17.8599 16.4507 17.5738 16.5895C17.2877 16.7283 16.9739 16.8002 16.6559 16.8H15.7415C15.4235 16.8 15.1096 16.7277 14.8237 16.5886C14.5377 16.4496 14.287 16.2474 14.0905 15.9973C13.8941 15.7472 13.757 15.4558 13.6896 15.145C13.6222 14.8342 13.6263 14.5122 13.7015 14.2032L14.2415 11.9808C14.2601 11.9042 14.2936 11.8321 14.3401 11.7684C14.3866 11.7048 14.4451 11.6509 14.5124 11.6099C14.5797 11.5689 14.6545 11.5416 14.7323 11.5294C14.8102 11.5173 14.8897 11.5206 14.9663 11.5392C15.0429 11.5578 15.1151 11.5913 15.1787 11.6378C15.2423 11.6843 15.2962 11.7429 15.3372 11.8102C15.3782 11.8775 15.4056 11.9522 15.4177 12.0301C15.4298 12.1079 15.4265 12.1874 15.4079 12.264L14.8679 14.4876C14.8358 14.62 14.8341 14.7579 14.863 14.8909C14.8918 15.024 14.9506 15.1488 15.0347 15.2559C15.1188 15.363 15.2261 15.4496 15.3485 15.5092C15.471 15.5688 15.6053 15.5999 15.7415 15.6H16.6559C16.7923 15.6002 16.9269 15.5695 17.0497 15.51C17.1724 15.4506 17.28 15.364 17.3644 15.2568C17.4488 15.1497 17.5077 15.0248 17.5367 14.8915C17.5657 14.7583 17.5641 14.6202 17.5319 14.4876L16.9919 12.2628C16.9639 12.1463 16.9715 12.0241 17.0136 11.9119C17.0557 11.7998 17.1305 11.7028 17.2282 11.6334C17.3259 11.5641 17.4422 11.5256 17.5619 11.523C17.6817 11.5203 17.7996 11.5535 17.9003 11.6184C18.2157 11.8212 18.5742 11.9472 18.947 11.9864C19.3199 12.0256 19.6968 11.977 20.0474 11.8443C20.3981 11.7116 20.7128 11.4986 20.9663 11.2224C21.2198 10.9462 21.4051 10.6144 21.5072 10.2537C21.6094 9.89297 21.6257 9.51332 21.5547 9.14518C21.4837 8.77705 21.3275 8.43066 21.0985 8.13379C20.8695 7.83692 20.5742 7.59782 20.2361 7.43567C19.8981 7.27351 19.5268 7.19281 19.1519 7.20002C19.0619 7.20185 18.9727 7.1834 18.8908 7.14605C18.8089 7.1087 18.7364 7.0534 18.6788 6.98426C18.6212 6.91511 18.5799 6.83389 18.5579 6.7466C18.5359 6.65932 18.5339 6.56821 18.5519 6.48002C18.6231 6.13129 18.6158 5.77108 18.5306 5.4255C18.4454 5.07992 18.2844 4.75762 18.0593 4.48194C17.8341 4.20626 17.5505 3.98411 17.2289 3.83158C16.9073 3.67905 16.5558 3.59995 16.1999 3.60002ZM5.3999 9.60002C5.3999 9.21974 5.49027 8.8449 5.66356 8.50639C5.83685 8.16788 6.08809 7.8754 6.3966 7.65304C6.7051 7.43069 7.06203 7.28482 7.43796 7.22747C7.8139 7.17012 8.19808 7.20293 8.55885 7.32318C8.91962 7.44344 9.24665 7.64771 9.51299 7.91915C9.77932 8.19059 9.97735 8.52144 10.0907 8.88442C10.2041 9.24741 10.2296 9.63214 10.1652 10.0069C10.1007 10.3817 9.94807 10.7358 9.7199 11.04C9.65305 11.1292 9.61233 11.2352 9.60233 11.3461C9.59232 11.4571 9.61342 11.5687 9.66325 11.6684C9.71308 11.768 9.78968 11.8518 9.88446 11.9104C9.97925 11.969 10.0885 12 10.1999 12H10.7999C10.959 12 11.1116 12.0632 11.2242 12.1758C11.3367 12.2883 11.3999 12.4409 11.3999 12.6C11.3999 12.7592 11.3367 12.9118 11.2242 13.0243C11.1116 13.1368 10.959 13.2 10.7999 13.2H9.4715C9.38667 13.2001 9.30282 13.2181 9.22548 13.253C9.14813 13.2878 9.07906 13.3387 9.02281 13.4022C8.96657 13.4657 8.92443 13.5404 8.89917 13.6214C8.87392 13.7024 8.86612 13.7878 8.8763 13.872C9.2387 16.836 10.8071 18.5376 11.6843 19.272C11.8943 19.4472 11.9999 19.668 11.9999 19.8588C11.9999 20.0024 11.9429 20.14 11.8414 20.2415C11.7399 20.343 11.6022 20.4 11.4587 20.4H4.1399C3.99658 20.3997 3.85923 20.3425 3.75799 20.2411C3.65676 20.1396 3.5999 20.0022 3.5999 19.8588C3.5999 19.6668 3.7055 19.4472 3.9143 19.272C4.7927 18.5376 6.3623 16.836 6.7235 13.872C6.73368 13.7878 6.72589 13.7024 6.70063 13.6214C6.67538 13.5404 6.63324 13.4657 6.57699 13.4022C6.52074 13.3387 6.45167 13.2878 6.37433 13.253C6.29699 13.2181 6.21313 13.2001 6.1283 13.2H4.7999C4.64077 13.2 4.48816 13.1368 4.37564 13.0243C4.26312 12.9118 4.1999 12.7592 4.1999 12.6C4.1999 12.4409 4.26312 12.2883 4.37564 12.1758C4.48816 12.0632 4.64077 12 4.7999 12H5.3999C5.51133 12 5.62056 11.969 5.71534 11.9104C5.81013 11.8518 5.88673 11.768 5.93656 11.6684C5.98639 11.5687 6.00748 11.4571 5.99748 11.3461C5.98747 11.2352 5.94676 11.1292 5.8799 11.04C5.56747 10.625 5.39894 10.1195 5.3999 9.60002ZM7.7999 6.00002C7.22022 5.99987 6.64908 6.13969 6.13503 6.40761C5.62098 6.67554 5.17923 7.06363 4.84734 7.5389C4.51546 8.01417 4.30325 8.56255 4.22876 9.13743C4.15427 9.7123 4.21971 10.2967 4.4195 10.8408C3.98542 10.9349 3.60142 11.1861 3.34137 11.5461C3.08131 11.9062 2.96357 12.3497 3.01077 12.7913C3.05797 13.233 3.26679 13.6415 3.59706 13.9385C3.92734 14.2355 4.35575 14.3999 4.7999 14.4H5.4239C4.9775 16.5576 3.8003 17.8032 3.1439 18.3516C2.7287 18.6996 2.3999 19.2348 2.3999 19.8588C2.3999 20.82 3.1799 21.6 4.1411 21.6H11.4599C12.4199 21.6 13.1999 20.82 13.1999 19.8588C13.1999 19.2348 12.8711 18.6996 12.4559 18.3516C11.7995 17.8032 10.6223 16.5576 10.1759 14.4H10.7999C11.2441 14.3999 11.6725 14.2355 12.0027 13.9385C12.333 13.6415 12.5418 13.233 12.589 12.7913C12.6362 12.3497 12.5185 11.9062 12.2584 11.5461C11.9984 11.1861 11.6144 10.9349 11.1803 10.8408C11.3801 10.2967 11.4455 9.7123 11.371 9.13743C11.2966 8.56255 11.0843 8.01417 10.7525 7.5389C10.4206 7.06363 9.97883 6.67554 9.46478 6.40761C8.95073 6.13969 8.37958 5.99987 7.7999 6.00002Z" stroke="#E9FFFC" stroke-width="0.6" mask="url(#path-1-outside-1_182_928)"/>
</svg>
