<svg width="54" height="40" viewBox="0 0 54 40" fill="none" xmlns="http://www.w3.org/2000/svg">
<g clip-path="url(#clip0_182_931)">
<path d="M1.63853 23.4612L0 0L2.9921 1.44017L3.84698 19.9293L4.97008 2.37205L7.19387 3.36876L8.37075 19.9293L9.19001 4.30561L12.2178 5.65113L10.5436 27.4977L6.8747 25.903L6.10887 17.49L5.37865 25.1405L1.63853 23.4612Z" fill="#E8FEFF"/>
<path d="M12.9822 28.6838V5.98999L15.9386 7.34047V30.0292L12.9822 28.6838Z" fill="#E8FEFF"/>
<path d="M17.1597 30.6222V7.92847L20.3121 9.36371L21.719 22.9038V10.0364L24.6755 11.3819V34.1703L21.6834 32.7302L20.1518 23.3564V31.9678L17.1597 30.6222Z" fill="#E8FEFF"/>
<path d="M26.8213 11.249L32.1501 8.96123C33.8842 8.2511 34.7782 8.94641 35.4935 9.8206C36.1787 10.6581 36.4287 11.782 36.4287 13.6756V14.7133C36.1252 16.9058 35.9648 17.7824 34.5659 19.3664C35.4264 19.6213 36.032 20.2131 36.3825 21.1416C36.7332 22.0701 36.9084 23.2991 36.9084 24.8285C36.9084 27.3228 36.5817 28.0351 35.9284 29.3279C35.2253 30.3587 34.6888 30.5829 32.7164 31.435L26.8213 34.1704V11.249ZM31.6736 17.8736C32.0347 17.6355 32.2681 17.4707 32.3956 17.1794C32.5231 16.8699 32.5819 16.608 32.5819 16.0619V13.7132C32.5819 12.9485 32.2753 12.5734 31.6976 12.8398L30.837 13.2958V18.3297L31.6736 17.8736ZM31.4732 27.9876C32.6764 27.3947 32.8449 27.2124 32.8449 26.3666V23.6268C32.8449 22.9167 32.9076 22.1071 32.7164 21.7429C32.5412 21.3788 32.1149 21.4663 31.6019 21.7429L30.837 22.1078V28.2696L31.4732 27.9876Z" fill="#02FEE1"/>
<path d="M38.2468 29.0552V5.77203L42.2147 3.94482V27.228L38.2468 29.0552Z" fill="#02FEE1"/>
<path d="M48.2729 24.7042C47.0698 24.9778 45.6699 24.4728 44.8642 23.336C44.1471 22.1344 43.865 20.463 43.865 18.0415V7.93674C43.865 5.77013 44.2872 4.22121 45.1318 3.11059C45.9764 1.99998 48.2328 1.11081 49.0998 0.894382C50.4607 0.554659 51.2877 0.719498 52.0826 1.25921C52.8045 1.74926 53.3948 2.66591 53.5665 3.94487C53.7381 5.22382 53.8071 5.86679 53.8071 7.72389L50.032 9.54802V7.44516C50.032 6.88075 49.9603 5.62291 49.8169 5.31339C49.6894 5.00388 49.4503 4.75792 49.0998 4.75792C48.3189 4.75792 47.9285 6.25261 47.9285 7.41785V18.3228C47.9285 19.033 48.0082 19.6612 48.1676 20.0253C48.3269 20.3895 48.6739 20.6339 49.0042 20.5716C49.476 20.4826 49.7166 20.0642 49.8369 19.6878C49.9572 19.3113 50.0775 18.08 50.0798 17.8669L50.1176 16.5751L48.9802 17.1527V14.4789L53.9999 11.9251V22.1994L52.3506 22.9306L51.6574 20.7864C51.2406 23.8833 49.4559 24.4351 48.2729 24.7042Z" fill="#02FEE1"/>
<path d="M0.0893555 25.0225L25.8377 36.7713V40L0.0893555 28.2512V25.0225Z" fill="#00FFE0"/>
<path d="M53.9999 23.9014L25.8376 36.7713V40L53.9999 27.1301V23.9014Z" fill="#00BAA4"/>
</g>
<defs>
<clipPath id="clip0_182_931">
<rect width="54" height="40" fill="white"/>
</clipPath>
</defs>
</svg>
