<svg width="45" height="45" viewBox="0 0 45 45" fill="none" xmlns="http://www.w3.org/2000/svg">
<path d="M35.625 15V11.25H31.875V7.5H35.625V3.75H39.375V7.5H43.125V11.25H39.375V15H35.625ZM5.625 41.25C4.59375 41.25 3.71125 40.8831 2.9775 40.1494C2.2425 39.4144 1.875 38.5312 1.875 37.5V15C1.875 13.9688 2.2425 13.0862 2.9775 12.3525C3.71125 11.6175 4.59375 11.25 5.625 11.25H11.5312L15 7.5H26.25V11.25H16.6406L13.2188 15H5.625V37.5H35.625V20.625H39.375V37.5C39.375 38.5312 39.0081 39.4144 38.2744 40.1494C37.5394 40.8831 36.6562 41.25 35.625 41.25H5.625ZM20.625 34.6875C22.9688 34.6875 24.9613 33.8675 26.6025 32.2275C28.2425 30.5863 29.0625 28.5938 29.0625 26.25C29.0625 23.9062 28.2425 21.9137 26.6025 20.2725C24.9613 18.6325 22.9688 17.8125 20.625 17.8125C18.2812 17.8125 16.2887 18.6325 14.6475 20.2725C13.0075 21.9137 12.1875 23.9062 12.1875 26.25C12.1875 28.5938 13.0075 30.5863 14.6475 32.2275C16.2887 33.8675 18.2812 34.6875 20.625 34.6875ZM20.625 30.9375C19.3125 30.9375 18.2031 30.4844 17.2969 29.5781C16.3906 28.6719 15.9375 27.5625 15.9375 26.25C15.9375 24.9375 16.3906 23.8281 17.2969 22.9219C18.2031 22.0156 19.3125 21.5625 20.625 21.5625C21.9375 21.5625 23.0469 22.0156 23.9531 22.9219C24.8594 23.8281 25.3125 24.9375 25.3125 26.25C25.3125 27.5625 24.8594 28.6719 23.9531 29.5781C23.0469 30.4844 21.9375 30.9375 20.625 30.9375Z" fill="#02FEE1"/>
</svg>
