<svg width="24" height="24" viewBox="0 0 24 24" fill="none" xmlns="http://www.w3.org/2000/svg">
<path d="M10.7547 13.6686L10.5969 13.7867C10.1628 14.1117 9.7791 14.4733 9.44986 14.8595L9.44983 14.8596C8.48359 15.9923 7.975 17.3457 7.975 18.6667V18.6685H7.97498C7.96678 19.1133 8.06491 19.5539 8.26181 19.956L8.33232 20.1H8.172H2.375C1.90182 20.1 1.52855 19.9855 1.27396 19.7386C1.0188 19.4912 0.9 19.1275 0.9 18.6667C0.9 17.9752 1.25294 16.6184 2.30007 15.4338C3.35125 14.2446 5.09777 13.2334 7.87487 13.2333L10.7547 13.6686ZM10.7547 13.6686L10.5662 13.611M10.7547 13.6686L10.5662 13.611M10.5662 13.611C10.0096 13.4411 9.43588 13.3293 8.85482 13.2777M10.5662 13.611L8.85482 13.2777M8.85482 13.2777C8.52914 13.2477 8.20215 13.2329 7.875 13.2333L8.85482 13.2777ZM11.7448 16.4343L11.7451 16.4341C12.484 15.5942 13.7898 14.7667 16.125 14.7667C18.4587 14.7667 19.7646 15.5954 20.505 16.4342L20.5052 16.4343C21.2377 17.2609 21.482 18.1693 21.5196 18.5667H10.73C10.7667 18.1692 11.0118 17.2614 11.7448 16.4343ZM2.48025 18.5667C2.51751 18.1694 2.76186 17.262 3.49486 16.4343L3.49493 16.4342C4.20396 15.6319 5.42734 14.8396 7.57449 14.7721C6.83683 15.9098 6.43098 17.2213 6.40149 18.5667H2.48025ZM21.625 20C21.625 20.1 21.6251 20.1 21.6251 20.1H21.6253L21.6256 20.1L21.6268 20.1L21.6305 20.0999L21.6437 20.0996C21.6549 20.0993 21.6709 20.0985 21.691 20.0972C21.7312 20.0944 21.7879 20.0889 21.8558 20.0779C21.991 20.056 22.173 20.0121 22.3561 19.9233C22.5396 19.8343 22.7266 19.6992 22.8676 19.4942C23.0091 19.2883 23.1 19.0181 23.1 18.6667C23.1 17.9752 22.7471 16.6184 21.6999 15.4338C20.6487 14.2445 18.9022 13.2333 16.125 13.2333C13.3478 13.2333 11.6013 14.2445 10.5501 15.4338C9.50294 16.6184 9.15 17.9752 9.15 18.6667C9.15 19.0181 9.24094 19.2883 9.38244 19.4942C9.5234 19.6992 9.71038 19.8343 9.89387 19.9233C10.077 20.0121 10.259 20.056 10.3942 20.0779C10.4621 20.0889 10.5188 20.0944 10.559 20.0972C10.5791 20.0985 10.5951 20.0993 10.6063 20.0996L10.6195 20.0999L10.6232 20.1L10.6244 20.1L10.6247 20.1H10.6249C10.6249 20.1 10.625 20.1 10.625 20V20.1H21.625V20ZM17.9999 9.81383C17.5032 10.2955 16.8288 10.5667 16.125 10.5667C15.4212 10.5667 14.7468 10.2955 14.2501 9.81383C13.7534 9.33223 13.475 8.67971 13.475 8C13.475 7.32029 13.7534 6.66777 14.2501 6.18617C14.7468 5.70447 15.4212 5.43333 16.125 5.43333C16.8288 5.43333 17.5032 5.70447 17.9999 6.18617C18.4966 6.66777 18.775 7.32029 18.775 8C18.775 8.67971 18.4966 9.33223 17.9999 9.81383ZM20.028 9.57002C20.2405 9.07236 20.35 8.53885 20.35 8C20.35 6.9116 19.9041 5.86843 19.1114 5.09978C18.3189 4.33124 17.2446 3.9 16.125 3.9C15.0054 3.9 13.9311 4.33124 13.1386 5.09978C12.3459 5.86843 11.9 6.9116 11.9 8C11.9 8.53885 12.0095 9.07236 12.222 9.57002C12.4346 10.0677 12.7461 10.5196 13.1386 10.9002C13.531 11.2808 13.9968 11.5825 14.5092 11.7883C15.0215 11.9941 15.5706 12.1 16.125 12.1C16.6794 12.1 17.2285 11.9941 17.7408 11.7883C18.2532 11.5825 18.719 11.2808 19.1114 10.9002C19.5039 10.5196 19.8154 10.0677 20.028 9.57002ZM4.20107 5.76645C3.4084 6.53509 2.9625 7.57827 2.9625 8.66667C2.9625 9.75506 3.4084 10.7982 4.20107 11.5669C4.99363 12.3354 6.06794 12.7667 7.1875 12.7667C8.30706 12.7667 9.38137 12.3354 10.1739 11.5669C10.9666 10.7982 11.4125 9.75506 11.4125 8.66667C11.4125 7.57827 10.9666 6.53509 10.1739 5.76645C9.38137 4.99791 8.30706 4.56667 7.1875 4.56667C6.06794 4.56667 4.99363 4.99791 4.20107 5.76645ZM5.31257 6.85284C5.80932 6.37114 6.4837 6.1 7.1875 6.1C7.8913 6.1 8.56568 6.37114 9.06243 6.85284C9.55908 7.33444 9.8375 7.98695 9.8375 8.66667C9.8375 9.34638 9.55908 9.9989 9.06243 10.4805C8.56568 10.9622 7.8913 11.2333 7.1875 11.2333C6.4837 11.2333 5.80932 10.9622 5.31257 10.4805C4.81592 9.9989 4.5375 9.34638 4.5375 8.66667C4.5375 7.98695 4.81592 7.33444 5.31257 6.85284Z" fill="#E9FFFC" stroke="#E9FFFC" stroke-width="0.2"/>
</svg>
