<svg width="28" height="25" viewBox="0 0 28 25" fill="none" xmlns="http://www.w3.org/2000/svg">
<path d="M27.1357 16.6163C26.9013 16.3819 26.5834 16.2503 26.252 16.2503C25.9205 16.2503 25.6026 16.3819 25.3682 16.6163L21.252 20.7325V1.25C21.252 0.918479 21.1203 0.600537 20.8859 0.366116C20.6514 0.131696 20.3335 0 20.002 0C19.6705 0 19.3525 0.131696 19.1181 0.366116C18.8837 0.600537 18.752 0.918479 18.752 1.25V20.7325L14.6357 16.6163C14.4 16.3886 14.0842 16.2626 13.7565 16.2654C13.4287 16.2683 13.1152 16.3997 12.8835 16.6315C12.6517 16.8632 12.5202 17.1768 12.5174 17.5045C12.5145 17.8322 12.6405 18.148 12.8682 18.3838L19.1182 24.6338C19.2343 24.7502 19.3723 24.8425 19.5241 24.9055C19.676 24.9685 19.8388 25.001 20.0032 25.001C20.1676 25.001 20.3304 24.9685 20.4823 24.9055C20.6342 24.8425 20.7721 24.7502 20.8882 24.6338L27.1382 18.3838C27.3722 18.149 27.5034 17.8309 27.503 17.4995C27.5025 17.168 27.3704 16.8503 27.1357 16.6163Z" fill="#E9FFFC"/>
<path d="M14.6357 6.61617L8.38569 0.366169C8.26928 0.24952 8.13073 0.1573 7.97819 0.0949192C7.67241 -0.031477 7.32898 -0.031477 7.02319 0.0949192C6.87066 0.1573 6.73211 0.24952 6.61569 0.366169L0.365695 6.61617C0.13131 6.85089 -0.000234108 7.1691 3.12777e-07 7.5008C0.000234733 7.83251 0.132229 8.15053 0.366945 8.38492C0.601662 8.6193 0.919874 8.75085 1.25158 8.75061C1.58328 8.75038 1.90131 8.61839 2.1357 8.38367L6.25195 4.26742V23.7499C6.25195 24.0814 6.38364 24.3994 6.61806 24.6338C6.85248 24.8682 7.17042 24.9999 7.50194 24.9999C7.83347 24.9999 8.15141 24.8682 8.38583 24.6338C8.62025 24.3994 8.75194 24.0814 8.75194 23.7499V4.26742L12.8682 8.38367C13.1039 8.61137 13.4197 8.73736 13.7474 8.73451C14.0752 8.73166 14.3887 8.6002 14.6205 8.36844C14.8522 8.13668 14.9837 7.82317 14.9865 7.49542C14.9894 7.16767 14.8634 6.85192 14.6357 6.61617Z" fill="#E9FFFC"/>
</svg>
