<svg width="40" height="40" viewBox="0 0 40 40" fill="none" xmlns="http://www.w3.org/2000/svg">
<path d="M19.3852 19.5244C21.2191 19.5244 22.8069 18.9072 24.1046 17.6897C25.4019 16.4723 26.0599 14.9828 26.0599 13.262C26.0599 11.5418 25.4021 10.052 24.1044 8.83428C22.8067 7.61711 21.2189 7 19.3852 7C17.5511 7 15.9635 7.61711 14.666 8.83448C13.3685 10.0518 12.7105 11.5416 12.7105 13.262C12.7105 14.9828 13.3685 16.4725 14.666 17.6899C15.9639 18.907 17.5517 19.5244 19.3852 19.5244ZM15.8145 9.9118C16.8101 8.9777 17.978 8.52364 19.3852 8.52364C20.7922 8.52364 21.9603 8.9777 22.9561 9.9118C23.9517 10.8461 24.4359 11.9421 24.4359 13.262C24.4359 14.5823 23.9517 15.6781 22.9561 16.6124C21.9603 17.5467 20.7922 18.0007 19.3852 18.0007C17.9784 18.0007 16.8105 17.5465 15.8145 16.6124C14.8186 15.6783 14.3345 14.5823 14.3345 13.262C14.3345 11.9421 14.8186 10.8461 15.8145 9.9118Z" fill="#E9FFFC"/>
<path d="M31.064 26.9927C31.0266 26.4861 30.9509 25.9334 30.8395 25.3498C30.727 24.7619 30.5822 24.2061 30.4088 23.698C30.2295 23.173 29.9862 22.6544 29.6849 22.1575C29.3726 21.6418 29.0056 21.1927 28.5938 20.8231C28.1631 20.4365 27.6358 20.1257 27.026 19.899C26.4184 19.6734 25.745 19.5592 25.0247 19.5592C24.7418 19.5592 24.4682 19.6681 23.9399 19.9908C23.6147 20.1898 23.2344 20.4199 22.8098 20.6744C22.4468 20.8914 21.955 21.0947 21.3476 21.2788C20.755 21.4587 20.1533 21.5499 19.5592 21.5499C18.9655 21.5499 18.3638 21.4587 17.7707 21.2788C17.164 21.0949 16.672 20.8916 16.3096 20.6746C15.8891 20.4224 15.5085 20.1923 15.1785 19.9906C14.6506 19.6679 14.377 19.559 14.0941 19.559C13.3736 19.559 12.7004 19.6734 12.093 19.8992C11.4836 20.1255 10.9561 20.4363 10.525 20.8233C10.1132 21.1931 9.74615 21.642 9.43409 22.1575C9.13323 22.6544 8.88967 23.1728 8.71038 23.6982C8.53723 24.2063 8.3924 24.7619 8.27993 25.3498C8.16829 25.9326 8.09282 26.4855 8.05539 26.9933C8.01861 27.4898 8 28.0065 8 28.5286C8 29.8858 8.45985 30.9846 9.36664 31.7949C10.2622 32.5945 11.4471 33 12.8883 33H26.2317C27.6726 33 28.8574 32.5945 29.7532 31.7949C30.6602 30.9852 31.1201 29.886 31.1201 28.5284C31.1199 28.0045 31.101 27.4878 31.064 26.9927ZM28.6335 30.691C28.0417 31.2194 27.2561 31.4763 26.2315 31.4763H12.8883C11.8636 31.4763 11.0779 31.2194 10.4863 30.6912C9.90599 30.1729 9.62395 29.4653 9.62395 28.5286C9.62395 28.0414 9.64107 27.5604 9.67532 27.0986C9.70873 26.6455 9.77702 26.1478 9.87829 25.619C9.97829 25.0967 10.1056 24.6066 10.257 24.1628C10.4022 23.7373 10.6003 23.316 10.846 22.9101C11.0804 22.5233 11.3502 22.1915 11.6479 21.9241C11.9264 21.6739 12.2773 21.4692 12.6909 21.3157C13.0733 21.1736 13.5032 21.0959 13.9698 21.0842C14.0266 21.1126 14.1279 21.1667 14.292 21.2671C14.6258 21.4712 15.0106 21.7041 15.436 21.959C15.9155 22.2458 16.5333 22.5049 17.2714 22.7284C18.0259 22.9573 18.7955 23.0736 19.5594 23.0736C20.3233 23.0736 21.0931 22.9573 21.8472 22.7286C22.5859 22.5047 23.2035 22.2458 23.6836 21.9586C24.119 21.6975 24.493 21.4714 24.8268 21.2671C24.9909 21.1669 25.0922 21.1126 25.149 21.0842C25.6158 21.0959 26.0457 21.1736 26.4284 21.3157C26.8417 21.4692 27.1926 21.6741 27.4711 21.9241C27.7688 22.1913 28.0386 22.5231 28.273 22.9103C28.5189 23.316 28.7172 23.7375 28.8623 24.1626C29.0139 24.6069 29.1413 25.0969 29.2411 25.6188C29.3422 26.1486 29.4107 26.6465 29.4441 27.0988V27.0992C29.4786 27.5592 29.4959 28.04 29.4961 28.5286C29.4959 29.4655 29.2139 30.1729 28.6335 30.691Z" fill="#E9FFFC"/>
</svg>
