<svg width="80" height="112" viewBox="0 0 80 112" fill="none" xmlns="http://www.w3.org/2000/svg">
<g clip-path="url(#clip0_276_372)">
<path d="M75 0H5C2.23858 0 0 2.23858 0 5V107C0 109.761 2.23858 112 5 112H75C77.7614 112 80 109.761 80 107V5C80 2.23858 77.7614 0 75 0Z" fill="white"/>
<path d="M9.48373 25.3891V27H4V25.3891L5.30152 24.9322C5.43342 24.9 5.55815 24.826 5.66594 24.7158C5.75895 24.5776 5.8299 24.4137 5.87419 24.235L10.6117 5H13.3362L18.2299 24.235C18.2696 24.4097 18.3414 24.5671 18.4382 24.6918C18.5404 24.819 18.6669 24.9025 18.8026 24.9322L20 25.3891V27H13.3362V25.3891L15.2972 24.8842L14.2213 20.4361H8.52928L7.50542 24.8842L9.48373 25.3891ZM13.8221 18.4885L11.3406 8.2459L8.98048 18.4885H13.8221Z" fill="#171717"/>
<path d="M70.5038 86.635V85H76V86.635L74.6914 87.0678C74.5588 87.1 74.4334 87.174 74.325 87.2841C74.2315 87.4224 74.1601 87.5863 74.1156 87.765L69.3522 107H66.7001L61.7797 87.765C61.746 87.5865 61.6728 87.4269 61.5703 87.3082C61.4676 87.181 61.3404 87.0975 61.2039 87.0678L60 86.635V85H66.6129V86.635L64.6412 87.1158L65.6532 91.612H71.446L72.4755 87.1639L70.5038 86.635ZM66.1243 93.5115L68.6194 103.754L70.9924 93.5115H66.1243Z" fill="#171717"/>
<path d="M9 34C8.16538 36.1192 4 36.8962 4 40.1538C4 40.8679 4.28365 41.5527 4.78856 42.0576C5.29346 42.5625 5.97826 42.8462 6.69231 42.8462C7.06391 42.8464 7.43146 42.7689 7.77128 42.6185C8.11111 42.4681 8.41568 42.2483 8.66538 41.9731C8.59924 43.0162 8.17385 44.0043 7.46154 44.7692V45.1538H10.5385V44.7692C9.82696 44.0038 9.4017 43.016 9.33462 41.9731C9.70197 42.3688 10.1798 42.6449 10.7061 42.7655C11.2324 42.8862 11.7828 42.8458 12.2858 42.6497C12.7889 42.4535 13.2213 42.1106 13.527 41.6655C13.8327 41.2205 13.9975 40.6938 14 40.1538C14 36.8962 9.83462 36.1192 9 34Z" fill="#171717"/>
<rect opacity="0.5" x="25.25" y="31.25" width="29.2297" height="49.5" stroke="#171717" stroke-width="0.5"/>
<path d="M40.0978 45.1892C38.48 49.2973 30.4054 50.8034 30.4054 57.1184C30.4054 58.5025 30.9553 59.83 31.934 60.8088C32.9128 61.7875 34.2402 62.3374 35.6244 62.3374C36.3448 62.3379 37.0572 62.1876 37.716 61.8961C38.3747 61.6046 38.9651 61.1784 39.4492 60.6449C39.321 62.6671 38.4964 64.5824 37.1156 66.0653V66.8108H43.0801V66.0653C41.7009 64.5814 40.8765 62.6666 40.7465 60.6449C41.4586 61.412 42.3849 61.9472 43.4051 62.1811C44.4253 62.415 45.4923 62.3367 46.4674 61.9565C47.4425 61.5762 48.2808 60.9116 48.8734 60.0488C49.466 59.186 49.7854 58.165 49.7903 57.1184C49.7903 50.8034 41.7157 49.2973 40.0978 45.1892Z" fill="#171717"/>
<path d="M70.9655 78C71.8001 75.8808 75.9655 75.1038 75.9655 71.8462C75.9655 71.1321 75.6819 70.4473 75.177 69.9424C74.6721 69.4375 73.9873 69.1538 73.2732 69.1538C72.9016 69.1536 72.5341 69.2311 72.1942 69.3815C71.8544 69.5319 71.5498 69.7517 71.3001 70.0269C71.3663 68.9838 71.7917 67.9957 72.504 67.2308L72.504 66.8462L69.4271 66.8462L69.4271 67.2308C70.1386 67.9962 70.5638 68.984 70.6309 70.0269C70.2635 69.6312 69.7857 69.3551 69.2594 69.2345C68.7331 69.1138 68.1827 69.1542 67.6797 69.3503C67.1766 69.5465 66.7442 69.8894 66.4385 70.3344C66.1328 70.7795 65.968 71.3062 65.9655 71.8462C65.9655 75.1038 70.1309 75.8808 70.9655 78Z" fill="#171717"/>
</g>
<rect x="0.5" y="0.5" width="79" height="111" rx="4.5" stroke="#DADADA"/>
<defs>
<clipPath id="clip0_276_372">
<rect width="80" height="112" rx="5" fill="white"/>
</clipPath>
</defs>
</svg>
