<svg width="80" height="112" viewBox="0 0 80 112" fill="none" xmlns="http://www.w3.org/2000/svg">
<g clip-path="url(#clip0_276_1271)">
<path d="M75 0H5C2.23858 0 0 2.23858 0 5V107C0 109.761 2.23858 112 5 112H75C77.7614 112 80 109.761 80 107V5C80 2.23858 77.7614 0 75 0Z" fill="white"/>
<path d="M11.8582 26.9983C10.8119 27.0034 9.76868 26.8792 8.7511 26.6286C7.83985 26.4123 6.97134 26.0372 6.18322 25.5195C5.527 25.0638 4.98211 24.4583 4.59114 23.7502C4.19203 23.0262 3.98814 22.2058 4.00053 21.3736C4.00607 20.127 4.45343 18.9253 5.25879 17.9935C6.08515 16.9778 7.18344 16.234 8.41728 15.8546C7.53821 15.2872 6.75716 14.5733 6.10619 13.7421C5.45114 12.8665 5.11498 11.7827 5.15608 10.6789C5.14398 9.88662 5.31452 9.10269 5.65373 8.39126C5.99295 7.67983 6.49119 7.06114 7.10766 6.58582C7.80076 6.03767 8.5962 5.64215 9.44442 5.42393C10.3839 5.12663 11.3633 4.98403 12.3461 5.00142C13.2654 4.99883 14.1809 5.12317 15.0681 5.37111C15.8098 5.58704 16.5124 5.92598 17.148 6.37457C17.7198 6.78931 18.1936 7.33076 18.5347 7.95898C18.8662 8.57216 19.0345 9.26443 19.0226 9.96589C19.0271 11.0907 18.6348 12.1791 17.9184 13.0291C17.1806 13.936 16.2243 14.628 15.1451 15.036C15.7871 15.3793 16.4034 15.7226 16.994 16.1187C17.5603 16.4685 18.0785 16.8948 18.5347 17.3862C18.9742 17.846 19.3307 18.3825 19.5875 18.9706C19.8762 19.6063 20.0169 20.3025 19.9984 21.0039C20.0021 21.8686 19.7993 22.7209 19.4078 23.4862C18.996 24.2316 18.436 24.8795 17.7643 25.3874C16.9866 25.9424 16.1161 26.3452 15.1965 26.5757C14.1082 26.8754 12.9847 27.0176 11.8582 26.9983ZM12.115 25.0442C13.0955 25.1008 14.0599 24.7702 14.8113 24.1199C15.1304 23.8362 15.3837 23.4826 15.5526 23.0851C15.7215 22.6875 15.8016 22.2561 15.7871 21.8225C15.7971 21.277 15.664 20.7389 15.4019 20.2645C15.1138 19.8216 14.7584 19.4293 14.3491 19.1026C13.8696 18.7232 13.3533 18.3958 12.8083 18.1256L10.2405 16.8052C9.50563 17.2464 8.90187 17.8856 8.49431 18.6537C8.10725 19.3731 7.90404 20.1818 7.9037 21.0039C7.89554 21.6137 8.01829 22.2178 8.2632 22.7732C8.4824 23.2643 8.80729 23.6977 9.21331 24.0407C9.61694 24.3742 10.0789 24.6252 10.5743 24.7801C11.0389 24.9381 11.5232 25.027 12.0123 25.0442H12.115ZM8.80246 9.70182C8.7854 10.1911 8.90098 10.6757 9.13628 11.1014C9.37935 11.539 9.7019 11.9244 10.0864 12.2369C10.5197 12.6164 10.9935 12.9442 11.4987 13.2139C12.038 13.5308 12.6286 13.8213 13.2449 14.1118C13.9287 13.685 14.4946 13.0849 14.8883 12.3689C15.2124 11.7337 15.3799 11.0265 15.3762 10.3092C15.4216 9.85703 15.3742 9.40011 15.2371 8.96798C15.1 8.53585 14.8762 8.13813 14.5802 7.80054C14.232 7.48234 13.8255 7.23899 13.3845 7.0848C12.9435 6.93061 12.4769 6.86869 12.0123 6.90271C11.163 6.8457 10.3253 7.12969 9.67553 7.69491C9.39835 7.9453 9.17689 8.25416 9.02623 8.60048C8.87557 8.9468 8.79925 9.32244 8.80246 9.70182Z" fill="#171717"/>
<path d="M68.0391 85.0001C69.0956 84.9965 70.1488 85.1206 71.1766 85.3698C72.0959 85.5886 72.9725 85.9635 73.7695 86.479C74.4467 86.9253 75.0074 87.5326 75.4031 88.2485C75.8061 88.9725 76.012 89.7931 75.9995 90.6253C76.0079 91.8685 75.5856 93.0749 74.8067 94.0321C73.9723 95.048 72.8633 95.7918 71.6174 96.1713C72.4979 96.7383 73.2781 97.4526 73.9251 98.2841C74.5939 99.1572 74.9423 100.241 74.9104 101.348C74.9226 102.14 74.7504 102.924 74.4079 103.635C74.0654 104.347 73.5623 104.966 72.9398 105.441C72.2621 105.963 71.498 106.356 70.6839 106.603C69.74 106.878 68.7616 107.012 67.7798 106.999C66.8514 107.004 65.9267 106.879 65.0313 106.629C64.2642 106.419 63.5369 106.08 62.8791 105.626C62.2949 105.219 61.8148 104.676 61.479 104.041C61.1352 103.431 60.9563 102.738 60.9604 102.034C60.9558 100.909 61.3519 99.8208 62.0753 98.9707C62.8306 98.0751 63.793 97.3852 64.8757 96.9636C64.2275 96.6203 63.6052 96.2769 63.0088 95.8808C62.4369 95.5309 61.9137 95.1046 61.453 94.6132C61.0178 94.1463 60.6588 93.6113 60.3899 93.0286C60.1198 92.3866 59.9872 91.6933 60.001 90.9951C59.9972 90.1303 60.202 89.2779 60.5974 88.5126C60.9976 87.7558 61.5659 87.1046 62.2568 86.6111C63.0365 86.0459 63.9175 85.6422 64.8498 85.4227C65.8897 85.138 66.9623 84.9959 68.0391 85.0001ZM67.7539 86.9544C66.8083 86.9334 65.8873 87.2618 65.1609 87.8787C64.8442 88.1671 64.5923 88.5216 64.4223 88.9181C64.2523 89.3146 64.1681 89.7438 64.1756 90.1764C64.1746 90.7242 64.3179 91.2622 64.5905 91.7345C64.8738 92.1835 65.2339 92.5771 65.6536 92.8965C66.1378 93.276 66.6591 93.6034 67.2094 93.8737L69.8023 95.1941C70.5388 94.7458 71.1468 94.1083 71.5655 93.3455C71.9484 92.624 72.1447 91.8151 72.136 90.9951C72.1513 90.423 72.0432 89.8545 71.8192 89.3298C71.5951 88.805 71.2607 88.3367 70.8395 87.958C70.4225 87.6242 69.9475 87.3733 69.4393 87.2185C68.9379 87.0464 68.4127 86.9572 67.8835 86.9544H67.7539ZM71.1247 102.298C71.1341 101.806 71.0084 101.322 70.7617 100.899C70.5245 100.463 70.2076 100.077 69.8282 99.763C69.3863 99.3893 68.9085 99.062 68.4021 98.7858C67.8576 98.4953 67.2612 98.1784 66.6389 97.8879C65.9423 98.3069 65.3692 98.9089 64.9794 99.6309C64.6452 100.265 64.4672 100.972 64.4608 101.691C64.4101 102.177 64.4703 102.668 64.6367 103.126C64.8032 103.584 65.0713 103.997 65.4202 104.332C65.7693 104.654 66.1795 104.9 66.6254 105.054C67.0714 105.209 67.5437 105.268 68.0132 105.23C68.8701 105.281 69.714 104.998 70.3728 104.437C70.6465 104.16 70.8561 103.825 70.9862 103.454C71.1163 103.084 71.1636 102.689 71.1247 102.298Z" fill="#171717"/>
<path d="M9 34C8.16538 36.1192 4 36.8962 4 40.1538C4 40.8679 4.28365 41.5527 4.78856 42.0576C5.29346 42.5625 5.97826 42.8462 6.69231 42.8462C7.06391 42.8464 7.43146 42.7689 7.77128 42.6185C8.11111 42.4681 8.41568 42.2483 8.66538 41.9731C8.59924 43.0162 8.17385 44.0043 7.46154 44.7692V45.1538H10.5385V44.7692C9.82696 44.0038 9.4017 43.016 9.33462 41.9731C9.70197 42.3688 10.1798 42.6449 10.7061 42.7655C11.2324 42.8862 11.7828 42.8458 12.2858 42.6497C12.7889 42.4535 13.2213 42.1106 13.527 41.6655C13.8327 41.2205 13.9975 40.6938 14 40.1538C14 36.8962 9.83462 36.1192 9 34Z" fill="#171717"/>
<path d="M70.9655 78C71.8001 75.8808 75.9655 75.1038 75.9655 71.8462C75.9655 71.1321 75.6819 70.4473 75.177 69.9424C74.6721 69.4375 73.9873 69.1538 73.2732 69.1538C72.9016 69.1536 72.5341 69.2311 72.1942 69.3815C71.8544 69.5319 71.5498 69.7517 71.3001 70.0269C71.3663 68.9838 71.7917 67.9957 72.504 67.2308L72.504 66.8462L69.4271 66.8462L69.4271 67.2308C70.1386 67.9962 70.5638 68.984 70.6309 70.0269C70.2635 69.6312 69.7857 69.3551 69.2594 69.2345C68.7331 69.1138 68.1827 69.1542 67.6797 69.3503C67.1766 69.5465 66.7442 69.8894 66.4385 70.3344C66.1328 70.7795 65.968 71.3062 65.9655 71.8462C65.9655 75.1038 70.1309 75.8808 70.9655 78Z" fill="#171717"/>
<rect opacity="0.5" x="25.25" y="31.25" width="29.2297" height="49.5" stroke="#171717" stroke-width="0.5"/>
<path d="M31.9431 35.0541C31.2353 36.8514 27.7027 37.5103 27.7027 40.2731C27.7027 40.8787 27.9433 41.4594 28.3715 41.8876C28.7997 42.3158 29.3804 42.5564 29.986 42.5564C30.3012 42.5566 30.6129 42.4909 30.9011 42.3634C31.1893 42.2358 31.4476 42.0494 31.6594 41.816C31.6033 42.7006 31.2425 43.5386 30.6384 44.1873V44.5135H33.2479V44.1873C32.6445 43.5382 32.2838 42.7005 32.2269 41.816C32.5385 42.1516 32.9437 42.3857 33.3901 42.488C33.8364 42.5904 34.3032 42.5561 34.7298 42.3898C35.1565 42.2234 35.5232 41.9326 35.7825 41.5551C36.0417 41.1777 36.1815 40.731 36.1836 40.2731C36.1836 37.5103 32.651 36.8514 31.9431 35.0541Z" fill="#171717"/>
<path d="M31.9431 51.2703C31.2353 53.0676 27.7027 53.7265 27.7027 56.4893C27.7027 57.0948 27.9433 57.6756 28.3715 58.1038C28.7997 58.532 29.3804 58.7726 29.986 58.7726C30.3012 58.7728 30.6129 58.7071 30.9011 58.5795C31.1893 58.452 31.4476 58.2655 31.6594 58.0321C31.6033 58.9168 31.2425 59.7548 30.6384 60.4035V60.7297H33.2479V60.4035C32.6445 59.7543 32.2838 58.9166 32.2269 58.0321C32.5385 58.3677 32.9437 58.6019 33.3901 58.7042C33.8364 58.8065 34.3032 58.7723 34.7298 58.6059C35.1565 58.4396 35.5232 58.1488 35.7825 57.7713C36.0417 57.3939 36.1815 56.9472 36.1836 56.4893C36.1836 53.7265 32.651 53.0676 31.9431 51.2703Z" fill="#171717"/>
<path d="M47.4837 76.9459C48.1915 75.1486 51.7241 74.4897 51.7241 71.7269C51.7241 71.1213 51.4836 70.5406 51.0554 70.1124C50.6272 69.6842 50.0464 69.4436 49.4408 69.4436C49.1257 69.4434 48.814 69.5091 48.5258 69.6366C48.2376 69.7642 47.9793 69.9506 47.7675 70.184C47.8236 69.2994 48.1843 68.4614 48.7884 67.8127L48.7884 67.4865L46.1789 67.4865L46.1789 67.8127C46.7824 68.4618 47.143 69.2995 47.1999 70.184C46.8884 69.8484 46.4831 69.6143 46.0368 69.512C45.5904 69.4096 45.1236 69.4439 44.697 69.6102C44.2704 69.7766 43.9036 70.0674 43.6444 70.4448C43.3851 70.8223 43.2454 71.269 43.2432 71.7269C43.2432 74.4897 46.7759 75.1486 47.4837 76.9459Z" fill="#171717"/>
<path d="M40.0513 70.1892C40.7591 68.3919 44.2917 67.733 44.2917 64.9702C44.2917 64.3646 44.0511 63.7839 43.6229 63.3556C43.1947 62.9274 42.614 62.6869 42.0084 62.6869C41.6932 62.6866 41.3815 62.7524 41.0933 62.8799C40.8051 63.0075 40.5468 63.1939 40.335 63.4273C40.3911 62.5426 40.7519 61.7047 41.356 61.0559L41.356 60.7297L38.7465 60.7297L38.7465 61.0559C39.3499 61.7051 39.7106 62.5428 39.7675 63.4273C39.4559 63.0917 39.0507 62.8576 38.6043 62.7552C38.158 62.6529 37.6912 62.6872 37.2646 62.8535C36.8379 63.0199 36.4712 63.3107 36.212 63.6881C35.9527 64.0656 35.8129 64.5123 35.8108 64.9702C35.8108 67.733 39.3434 68.3919 40.0513 70.1892Z" fill="#171717"/>
<path d="M40.0513 44.5135C39.3434 46.3108 35.8108 46.9697 35.8108 49.7326C35.8108 50.3381 36.0514 50.9189 36.4796 51.3471C36.9078 51.7753 37.4886 52.0159 38.0941 52.0159C38.4093 52.0161 38.721 51.9504 39.0092 51.8228C39.2974 51.6953 39.5557 51.5088 39.7675 51.2754C39.7114 52.1601 39.3506 52.9981 38.7465 53.6468V53.973H41.356V53.6468C40.7526 52.9976 40.3919 52.1599 40.335 51.2754C40.6466 51.611 41.0519 51.8452 41.4982 51.9475C41.9445 52.0498 42.4113 52.0156 42.8379 51.8492C43.2646 51.6829 43.6313 51.3921 43.8906 51.0146C44.1498 50.6372 44.2896 50.1905 44.2917 49.7326C44.2917 46.9697 40.7591 46.3108 40.0513 44.5135Z" fill="#171717"/>
<path d="M47.4837 35.0541C46.7759 36.8514 43.2432 37.5103 43.2432 40.2731C43.2432 40.8787 43.4838 41.4594 43.912 41.8876C44.3402 42.3158 44.921 42.5564 45.5266 42.5564C45.8417 42.5566 46.1534 42.4909 46.4416 42.3634C46.7298 42.2358 46.9881 42.0494 47.1999 41.816C47.1438 42.7006 46.783 43.5386 46.1789 44.1873V44.5135H48.7884V44.1873C48.185 43.5382 47.8244 42.7005 47.7675 41.816C48.079 42.1516 48.4843 42.3857 48.9306 42.488C49.377 42.5904 49.8437 42.5561 50.2704 42.3898C50.697 42.2234 51.0637 41.9326 51.323 41.5551C51.5822 41.1777 51.722 40.731 51.7241 40.2731C51.7241 37.5103 48.1915 36.8514 47.4837 35.0541Z" fill="#171717"/>
<path d="M47.4837 51.2703C46.7759 53.0676 43.2432 53.7265 43.2432 56.4893C43.2432 57.0948 43.4838 57.6756 43.912 58.1038C44.3402 58.532 44.921 58.7726 45.5266 58.7726C45.8417 58.7728 46.1534 58.7071 46.4416 58.5795C46.7298 58.452 46.9881 58.2655 47.1999 58.0321C47.1438 58.9168 46.783 59.7548 46.1789 60.4035V60.7297H48.7884V60.4035C48.185 59.7543 47.8244 58.9166 47.7675 58.0321C48.079 58.3677 48.4843 58.6019 48.9306 58.7042C49.377 58.8065 49.8437 58.7723 50.2704 58.6059C50.697 58.4396 51.0637 58.1488 51.323 57.7713C51.5822 57.3939 51.722 56.9472 51.7241 56.4893C51.7241 53.7265 48.1915 53.0676 47.4837 51.2703Z" fill="#171717"/>
<path d="M31.9432 76.9459C32.651 75.1486 36.1836 74.4897 36.1836 71.7269C36.1836 71.1213 35.943 70.5406 35.5148 70.1124C35.0866 69.6842 34.5059 69.4436 33.9003 69.4436C33.5851 69.4434 33.2734 69.5091 32.9852 69.6366C32.697 69.7642 32.4387 69.9506 32.2269 70.184C32.283 69.2994 32.6438 68.4614 33.2479 67.8127L33.2479 67.4865L30.6384 67.4865L30.6384 67.8127C31.2418 68.4618 31.6025 69.2995 31.6594 70.184C31.3478 69.8484 30.9426 69.6143 30.4962 69.512C30.0499 69.4096 29.5831 69.4439 29.1565 69.6102C28.7298 69.7766 28.3631 70.0674 28.1039 70.4448C27.8446 70.8223 27.7048 71.269 27.7027 71.7269C27.7027 74.4897 31.2353 75.1486 31.9432 76.9459Z" fill="#171717"/>
</g>
<rect x="0.5" y="0.5" width="79" height="111" rx="4.5" stroke="#DADADA"/>
<defs>
<clipPath id="clip0_276_1271">
<rect width="80" height="112" rx="5" fill="white"/>
</clipPath>
</defs>
</svg>
