<svg width="80" height="112" viewBox="0 0 80 112" fill="none" xmlns="http://www.w3.org/2000/svg">
<g clip-path="url(#clip0_276_800)">
<path d="M75 0H5C2.23858 0 0 2.23858 0 5V107C0 109.761 2.23858 112 5 112H75C77.7614 112 80 109.761 80 107V5C80 2.23858 77.7614 0 75 0Z" fill="white"/>
<path d="M5.17032 22.5396C5.86703 23.0716 6.63587 23.5081 7.45524 23.8369C8.33706 24.1972 9.28484 24.381 10.2417 24.3774C11.5617 24.4461 12.8585 24.0204 13.8641 23.1883C14.3397 22.7375 14.7102 22.193 14.9505 21.5916C15.1908 20.9902 15.2955 20.3459 15.2574 19.702C15.2994 18.538 14.892 17.4008 14.1149 16.5129C13.6877 16.0949 13.1733 15.7702 12.6063 15.5605C12.0393 15.3507 11.4326 15.2608 10.8269 15.2968C10.2031 15.2939 9.58268 15.3851 8.9878 15.567C8.31976 15.7488 7.67483 16.0026 7.06513 16.3237L5.56043 15.2968L6.28491 5H18.8241L18.434 8.0539H8.93207L8.31904 13.8644C8.97189 13.3784 9.72138 13.0288 10.5204 12.8374C11.2675 12.656 12.035 12.5652 12.8053 12.5672C14.7294 12.4768 16.6124 13.1276 18.0439 14.3779C18.6965 15.0094 19.2069 15.7654 19.5426 16.5981C19.8784 17.4309 20.0322 18.3221 19.9944 19.2155C20.0099 20.3127 19.7819 21.4004 19.3256 22.4045C18.9122 23.3416 18.2943 24.1806 17.5144 24.8639C16.7083 25.5752 15.7597 26.1179 14.7279 26.4584C13.5965 26.8257 12.4101 27.0083 11.217 26.9989C9.76214 27.0199 8.31903 26.7437 6.98153 26.1881C5.83713 25.724 4.8173 25.0122 4 24.1071L5.17032 22.5396Z" fill="#171717"/>
<path d="M74.8299 89.3795C74.1334 88.8476 73.3647 88.4111 72.5455 88.0823C71.6639 87.722 70.7163 87.5382 69.7597 87.5418C68.4286 87.4953 67.1307 87.9505 66.1381 88.812C65.2876 89.7154 64.7956 90.8824 64.7496 92.105C64.7037 93.3276 65.1069 94.5262 65.8873 95.4872C66.3103 95.9031 66.8198 96.2267 67.3818 96.4364C67.9439 96.6461 68.5456 96.7371 69.1468 96.7034C69.7797 96.7082 70.4095 96.617 71.0133 96.4331C71.6722 96.251 72.3077 95.9972 72.9077 95.6764L74.4399 96.7034L73.7156 107H61.1793L61.5693 103.865H71.0412L71.6819 98.1898C71.0292 98.6757 70.2799 99.0254 69.4811 99.2167C68.7316 99.3848 67.9659 99.4754 67.1967 99.487C65.273 99.5774 63.3905 98.9265 61.9593 97.6763C61.2968 97.0406 60.7806 96.2761 60.4445 95.433C60.1084 94.5899 59.96 93.6874 60.0092 92.7847C59.9937 91.6875 60.2217 90.5999 60.6778 89.5957C61.0839 88.6547 61.7028 87.8143 62.4886 87.1364C63.2946 86.4251 64.2429 85.8824 65.2745 85.5419C66.3965 85.1766 67.5732 84.994 68.7568 85.0014C70.2206 84.9774 71.6731 85.2537 73.0191 85.8122C74.1633 86.2763 75.1829 86.9881 76 87.8931L74.8299 89.3795Z" fill="#171717"/>
<path d="M9 34C8.16538 36.1192 4 36.8962 4 40.1538C4 40.8679 4.28365 41.5527 4.78856 42.0576C5.29346 42.5625 5.97826 42.8462 6.69231 42.8462C7.06391 42.8464 7.43146 42.7689 7.77128 42.6185C8.11111 42.4681 8.41568 42.2483 8.66538 41.9731C8.59924 43.0162 8.17385 44.0043 7.46154 44.7692V45.1538H10.5385V44.7692C9.82696 44.0038 9.4017 43.016 9.33462 41.9731C9.70197 42.3688 10.1798 42.6449 10.7061 42.7655C11.2324 42.8862 11.7828 42.8458 12.2858 42.6497C12.7889 42.4535 13.2213 42.1106 13.527 41.6655C13.8327 41.2205 13.9975 40.6938 14 40.1538C14 36.8962 9.83462 36.1192 9 34Z" fill="#171717"/>
<path d="M70.9655 78C71.8001 75.8808 75.9655 75.1038 75.9655 71.8462C75.9655 71.1321 75.6819 70.4473 75.177 69.9424C74.6721 69.4375 73.9873 69.1538 73.2732 69.1538C72.9016 69.1536 72.5341 69.2311 72.1942 69.3815C71.8544 69.5319 71.5498 69.7517 71.3001 70.0269C71.3663 68.9838 71.7917 67.9957 72.504 67.2308L72.504 66.8462L69.4271 66.8462L69.4271 67.2308C70.1386 67.9962 70.5638 68.984 70.6309 70.0269C70.2635 69.6312 69.7857 69.3551 69.2594 69.2345C68.7331 69.1138 68.1827 69.1542 67.6797 69.3503C67.1766 69.5465 66.7442 69.8894 66.4385 70.3344C66.1328 70.7795 65.968 71.3062 65.9655 71.8462C65.9655 75.1038 70.1309 75.8808 70.9655 78Z" fill="#171717"/>
<rect opacity="0.5" x="25.25" y="31.25" width="29.2297" height="49.5" stroke="#171717" stroke-width="0.5"/>
<path d="M32.6188 37.7567C31.911 39.554 28.3784 40.2129 28.3784 42.9757C28.3784 43.5813 28.619 44.1621 29.0472 44.5903C29.4754 45.0185 30.0561 45.259 30.6617 45.259C30.9769 45.2593 31.2886 45.1935 31.5768 45.066C31.865 44.9385 32.1233 44.752 32.3351 44.5186C32.279 45.4033 31.9182 46.2412 31.3141 46.89V47.2162H33.9236V46.89C33.3202 46.2408 32.9595 45.4031 32.9026 44.5186C33.2142 44.8542 33.6194 45.0884 34.0658 45.1907C34.5121 45.293 34.9789 45.2588 35.4055 45.0924C35.8321 44.926 36.1989 44.6352 36.4581 44.2578C36.7174 43.8803 36.8571 43.4336 36.8593 42.9757C36.8593 40.2129 33.3267 39.554 32.6188 37.7567Z" fill="#171717"/>
<path d="M40.0513 51.2703C39.3434 53.0676 35.8108 53.7265 35.8108 56.4893C35.8108 57.0948 36.0514 57.6756 36.4796 58.1038C36.9078 58.532 37.4886 58.7726 38.0941 58.7726C38.4093 58.7728 38.721 58.7071 39.0092 58.5795C39.2974 58.452 39.5557 58.2655 39.7675 58.0321C39.7114 58.9168 39.3506 59.7548 38.7465 60.4035V60.7297H41.356V60.4035C40.7526 59.7543 40.3919 58.9166 40.3351 58.0321C40.6466 58.3677 41.0519 58.6019 41.4982 58.7042C41.9445 58.8065 42.4113 58.7723 42.8379 58.6059C43.2646 58.4396 43.6313 58.1488 43.8906 57.7713C44.1498 57.3939 44.2896 56.9472 44.2917 56.4893C44.2917 53.7265 40.7591 53.0676 40.0513 51.2703Z" fill="#171717"/>
<path d="M46.808 74.2433C47.5158 72.446 51.0485 71.7871 51.0485 69.0243C51.0485 68.4187 50.8079 67.8379 50.3797 67.4097C49.9515 66.9815 49.3707 66.741 48.7651 66.741C48.45 66.7407 48.1383 66.8065 47.8501 66.934C47.5619 67.0615 47.3036 67.248 47.0918 67.4814C47.1479 66.5967 47.5087 65.7588 48.1128 65.11L48.1128 64.7838L45.5033 64.7838L45.5033 65.11C46.1067 65.7592 46.4673 66.5969 46.5242 67.4814C46.2127 67.1458 45.8074 66.9116 45.3611 66.8093C44.9148 66.707 44.448 66.7412 44.0213 66.9076C43.5947 67.074 43.228 67.3648 42.9687 67.7422C42.7095 68.1197 42.5697 68.5664 42.5676 69.0243C42.5676 71.7871 46.1002 72.446 46.808 74.2433Z" fill="#171717"/>
<path d="M46.808 37.7567C46.1002 39.554 42.5676 40.2129 42.5676 42.9757C42.5676 43.5813 42.8081 44.1621 43.2363 44.5903C43.6645 45.0185 44.2453 45.259 44.8509 45.259C45.166 45.2593 45.4778 45.1935 45.766 45.066C46.0542 44.9385 46.3125 44.752 46.5242 44.5186C46.4681 45.4033 46.1074 46.2412 45.5033 46.89V47.2162H48.1128V46.89C47.5093 46.2408 47.1487 45.4031 47.0918 44.5186C47.4033 44.8542 47.8086 45.0884 48.2549 45.1907C48.7013 45.293 49.1681 45.2588 49.5947 45.0924C50.0213 44.926 50.3881 44.6352 50.6473 44.2578C50.9066 43.8803 51.0463 43.4336 51.0485 42.9757C51.0485 40.2129 47.5158 39.554 46.808 37.7567Z" fill="#171717"/>
<path d="M32.6188 74.2433C33.3267 72.446 36.8593 71.7871 36.8593 69.0243C36.8593 68.4187 36.6187 67.8379 36.1905 67.4097C35.7623 66.9815 35.1815 66.741 34.576 66.741C34.2608 66.7407 33.9491 66.8065 33.6609 66.934C33.3727 67.0615 33.1144 67.248 32.9026 67.4814C32.9587 66.5967 33.3195 65.7588 33.9236 65.11L33.9236 64.7838L31.3141 64.7838L31.3141 65.11C31.9175 65.7592 32.2782 66.5969 32.3351 67.4814C32.0235 67.1458 31.6182 66.9116 31.1719 66.8093C30.7256 66.707 30.2588 66.7412 29.8322 66.9076C29.4055 67.074 29.0388 67.3648 28.7795 67.7422C28.5203 68.1197 28.3805 68.5664 28.3784 69.0243C28.3784 71.7871 31.911 72.446 32.6188 74.2433Z" fill="#171717"/>
</g>
<rect x="0.5" y="0.5" width="79" height="111" rx="4.5" stroke="#DADADA"/>
<defs>
<clipPath id="clip0_276_800">
<rect width="80" height="112" rx="5" fill="white"/>
</clipPath>
</defs>
</svg>
