<svg width="80" height="112" viewBox="0 0 80 112" fill="none" xmlns="http://www.w3.org/2000/svg">
<g clip-path="url(#clip0_276_670)">
<path d="M75 0H5C2.23858 0 0 2.23858 0 5V107C0 109.761 2.23858 112 5 112H75C77.7614 112 80 109.761 80 107V5C80 2.23858 77.7614 0 75 0Z" fill="white"/>
<path d="M19.8797 23.7302H16.9684V28H13.3594V23.7302H4.93835L4 21.5953C5.37143 19.005 6.69474 16.3007 7.96993 13.5396C9.24511 10.7785 10.4962 7.84653 11.6752 5H15.0436L15.5489 5.96782C14.6586 7.93193 13.8406 9.72525 13.1429 11.2908C12.4451 12.8564 11.6752 14.3082 11.0015 15.5891C10.3929 16.7388 9.73435 17.8504 9.02857 18.9196C8.43265 19.8461 7.77274 20.7125 7.05564 21.5099L13.4797 21.1968L13.7684 15.9022L16.9684 15.6176V20.9691H20L19.8797 23.7302Z" fill="#171717"/>
<path d="M60.0723 89.0791H63.1325V85H66.6265V89.0791H75.0602L76 91.1459C74.6265 93.6205 73.3012 96.2039 72.0241 98.8418C70.747 101.48 69.6145 104.281 68.2892 107H64.9398L64.4337 106.075C65.3253 104.199 66.1446 102.486 66.8434 100.963C67.5422 99.4401 68.3133 98.1076 68.988 96.8838C69.5975 95.7855 70.257 94.7235 70.9639 93.7021C71.5607 92.8169 72.2216 91.9892 72.9398 91.2274L66.506 91.5266L66.1446 96.6391L63.0602 96.8294V91.7169H60L60.0723 89.0791Z" fill="#171717"/>
<path d="M9 34C8.16538 36.1192 4 36.8962 4 40.1538C4 40.8679 4.28365 41.5527 4.78856 42.0576C5.29346 42.5625 5.97826 42.8462 6.69231 42.8462C7.06391 42.8464 7.43146 42.7689 7.77128 42.6185C8.11111 42.4681 8.41568 42.2483 8.66538 41.9731C8.59924 43.0162 8.17385 44.0043 7.46154 44.7692V45.1538H10.5385V44.7692C9.82696 44.0038 9.4017 43.016 9.33462 41.9731C9.70197 42.3688 10.1798 42.6449 10.7061 42.7655C11.2324 42.8862 11.7828 42.8458 12.2858 42.6497C12.7889 42.4535 13.2213 42.1106 13.527 41.6655C13.8327 41.2205 13.9975 40.6938 14 40.1538C14 36.8962 9.83462 36.1192 9 34Z" fill="#171717"/>
<rect opacity="0.5" x="25.25" y="31.25" width="29.2297" height="49.5" stroke="#171717" stroke-width="0.5"/>
<path d="M32.6188 41.1351C31.911 42.9324 28.3784 43.5913 28.3784 46.3541C28.3784 46.9597 28.619 47.5405 29.0472 47.9687C29.4754 48.3969 30.0561 48.6375 30.6617 48.6375C30.9769 48.6377 31.2886 48.5719 31.5768 48.4444C31.865 48.3169 32.1233 48.1304 32.3351 47.897C32.279 48.7817 31.9182 49.6197 31.3141 50.2684V50.5946H33.9236V50.2684C33.3202 49.6192 32.9595 48.7815 32.9026 47.897C33.2142 48.2326 33.6194 48.4668 34.0658 48.5691C34.5121 48.6714 34.9789 48.6372 35.4055 48.4708C35.8321 48.3045 36.1989 48.0137 36.4581 47.6362C36.7174 47.2587 36.8571 46.8121 36.8593 46.3541C36.8593 43.5913 33.3267 42.9324 32.6188 41.1351Z" fill="#171717"/>
<path d="M46.808 70.8649C47.5158 69.0676 51.0485 68.4087 51.0485 65.6459C51.0485 65.0403 50.8079 64.4595 50.3797 64.0313C49.9515 63.6031 49.3707 63.3625 48.7651 63.3625C48.45 63.3623 48.1383 63.4281 47.8501 63.5556C47.5619 63.6831 47.3036 63.8696 47.0918 64.103C47.1479 63.2183 47.5087 62.3803 48.1128 61.7316L48.1128 61.4054L45.5033 61.4054L45.5033 61.7316C46.1067 62.3808 46.4673 63.2185 46.5242 64.103C46.2127 63.7674 45.8074 63.5332 45.3611 63.4309C44.9148 63.3286 44.448 63.3628 44.0213 63.5292C43.5947 63.6955 43.228 63.9863 42.9687 64.3638C42.7095 64.7413 42.5697 65.1879 42.5676 65.6459C42.5676 68.4087 46.1002 69.0676 46.808 70.8649Z" fill="#171717"/>
<path d="M46.808 41.1351C46.1002 42.9324 42.5676 43.5913 42.5676 46.3541C42.5676 46.9597 42.8081 47.5405 43.2363 47.9687C43.6645 48.3969 44.2453 48.6375 44.8509 48.6375C45.166 48.6377 45.4778 48.5719 45.766 48.4444C46.0542 48.3169 46.3125 48.1304 46.5242 47.897C46.4681 48.7817 46.1074 49.6197 45.5033 50.2684V50.5946H48.1128V50.2684C47.5093 49.6192 47.1487 48.7815 47.0918 47.897C47.4033 48.2326 47.8086 48.4668 48.2549 48.5691C48.7013 48.6714 49.1681 48.6372 49.5947 48.4708C50.0213 48.3045 50.3881 48.0137 50.6473 47.6362C50.9066 47.2587 51.0463 46.8121 51.0485 46.3541C51.0485 43.5913 47.5158 42.9324 46.808 41.1351Z" fill="#171717"/>
<path d="M32.6188 70.8649C33.3267 69.0676 36.8593 68.4087 36.8593 65.6459C36.8593 65.0403 36.6187 64.4595 36.1905 64.0313C35.7623 63.6031 35.1815 63.3625 34.576 63.3625C34.2608 63.3623 33.9491 63.4281 33.6609 63.5556C33.3727 63.6831 33.1144 63.8696 32.9026 64.103C32.9587 63.2183 33.3195 62.3803 33.9236 61.7316L33.9236 61.4054L31.3141 61.4054L31.3141 61.7316C31.9175 62.3808 32.2782 63.2185 32.3351 64.103C32.0235 63.7674 31.6182 63.5332 31.1719 63.4309C30.7256 63.3286 30.2588 63.3628 29.8322 63.5292C29.4055 63.6955 29.0388 63.9863 28.7795 64.3638C28.5203 64.7413 28.3805 65.1879 28.3784 65.6459C28.3784 68.4087 31.911 69.0676 32.6188 70.8649Z" fill="#171717"/>
<path d="M70.9655 78C71.8001 75.8808 75.9655 75.1038 75.9655 71.8462C75.9655 71.1321 75.6819 70.4473 75.177 69.9424C74.6721 69.4375 73.9873 69.1538 73.2732 69.1538C72.9016 69.1536 72.5341 69.2311 72.1942 69.3815C71.8544 69.5319 71.5498 69.7517 71.3001 70.0269C71.3663 68.9838 71.7917 67.9957 72.504 67.2308L72.504 66.8462L69.4271 66.8462L69.4271 67.2308C70.1386 67.9962 70.5638 68.984 70.6309 70.0269C70.2635 69.6312 69.7857 69.3551 69.2594 69.2345C68.7331 69.1138 68.1827 69.1542 67.6797 69.3503C67.1766 69.5465 66.7442 69.8894 66.4385 70.3344C66.1328 70.7795 65.968 71.3062 65.9655 71.8462C65.9655 75.1038 70.1309 75.8808 70.9655 78Z" fill="#171717"/>
</g>
<rect x="0.5" y="0.5" width="79" height="111" rx="4.5" stroke="#DADADA"/>
<defs>
<clipPath id="clip0_276_670">
<rect width="80" height="112" rx="5" fill="white"/>
</clipPath>
</defs>
</svg>
