<svg width="80" height="112" viewBox="0 0 80 112" fill="none" xmlns="http://www.w3.org/2000/svg">
<g clip-path="url(#clip0_276_1832)">
<path d="M75 0H5C2.23858 0 0 2.23858 0 5V107C0 109.761 2.23858 112 5 112H75C77.7614 112 80 109.761 80 107V5C80 2.23858 77.7614 0 75 0Z" fill="white"/>
<path d="M17.1723 6.62963C16.8668 6.65361 16.5874 6.73622 16.3848 6.86243C16.1974 6.98787 16.1076 7.14791 16.1342 7.30864V18.037C16.1517 19.1595 16.0201 20.2811 15.7405 21.3933C15.5338 22.2463 14.9971 23.0661 14.1655 23.7989C13.298 24.5081 12.1636 25.1097 10.8367 25.5644C9.04437 26.1437 7.14982 26.6247 5.18121 27L4 25.6808C5.16622 25.2878 6.25736 24.8329 7.25727 24.3228C8.07719 23.917 8.74554 23.4296 9.22595 22.8871C9.70907 22.2685 10.0226 21.6149 10.1566 20.9471C10.3434 20.1104 10.4271 19.2678 10.4072 18.425V7.38624C10.4106 7.22102 10.3234 7.05896 10.1566 6.92063C10.0698 6.84514 9.955 6.78028 9.81942 6.73017C9.68384 6.68007 9.53048 6.64583 9.36913 6.62963L6.00448 6.33862V5H20V6.33862L17.1723 6.62963Z" fill="#171717"/>
<path d="M62.8572 105.048C63.1619 105.023 63.4407 104.938 63.6428 104.807C63.8426 104.68 63.9453 104.513 63.9286 104.344V93.2161C63.9012 92.0524 64.0206 90.8891 64.2857 89.7349C64.5198 88.851 65.0663 88.0025 65.8929 87.2397C66.7386 86.495 67.8745 85.8688 69.2143 85.4086C71.0047 84.8315 72.8956 84.3595 74.8571 84L76 85.3683C74.8491 85.7862 73.762 86.2573 72.75 86.7769C71.9427 87.1985 71.2878 87.7042 70.8214 88.266C70.3035 88.9006 69.9891 89.5818 69.8928 90.2782C69.6916 91.1455 69.5962 92.0195 69.6071 92.8941V104.525C69.5956 104.7 69.697 104.872 69.8928 105.008C69.9901 105.073 70.1099 105.126 70.2451 105.164C70.3802 105.202 70.5277 105.224 70.6786 105.229L73.9286 105.591V107H60V105.591L62.8572 105.048Z" fill="#171717"/>
<path d="M45.1813 37.4706V40.4353L49.9412 43.2353L45.1813 46.0353L45.8373 77H41.2449V46.0353C37.0461 46.0353 34.6842 49 34.6842 51.4706C28.3691 46.0353 31.4039 36.8118 34.6842 35C34.6842 38.5576 39.058 40.1059 41.2449 40.4353V37.4706H45.1813Z" fill="#171717"/>
<path d="M36.1385 37.4706C35.3274 38.5651 34.3272 40.642 34.2949 42.9875M36.1385 48.1765C34.7448 46.4837 34.2718 44.6668 34.2949 42.9875M34.2949 42.9875L41.7059 43.1053" stroke="white"/>
<path d="M9 34C8.16538 36.1192 4 36.8962 4 40.1538C4 40.8679 4.28365 41.5527 4.78856 42.0576C5.29346 42.5625 5.97826 42.8462 6.69231 42.8462C7.06391 42.8464 7.43146 42.7689 7.77128 42.6185C8.11111 42.4681 8.41568 42.2483 8.66538 41.9731C8.59924 43.0162 8.17385 44.0043 7.46154 44.7692V45.1538H10.5385V44.7692C9.82696 44.0038 9.4017 43.016 9.33462 41.9731C9.70197 42.3688 10.1798 42.6449 10.7061 42.7655C11.2324 42.8862 11.7828 42.8458 12.2858 42.6497C12.7889 42.4535 13.2213 42.1106 13.527 41.6655C13.8327 41.2205 13.9975 40.6938 14 40.1538C14 36.8962 9.83462 36.1192 9 34Z" fill="#171717"/>
<path d="M12.5172 96C11.0955 92.39 4 91.0666 4 85.5172C4 84.3009 4.48319 83.1344 5.34327 82.2743C6.20335 81.4142 7.36987 80.931 8.58621 80.931C9.21922 80.9306 9.84532 81.0627 10.4242 81.3188C11.0031 81.5749 11.5219 81.9495 11.9472 82.4183C11.8346 80.6413 11.1099 78.9582 9.89655 77.6552V77H15.1379V77.6552C13.9259 78.9591 13.2015 80.6417 13.0872 82.4183C13.713 81.7442 14.527 81.2739 15.4235 81.0684C16.32 80.8628 17.2576 80.9316 18.1145 81.2658C18.9714 81.5999 19.708 82.184 20.2288 82.9421C20.7495 83.7003 21.0302 84.5975 21.0345 85.5172C21.0345 91.0666 13.939 92.39 12.5172 96Z" fill="#171717"/>
<path d="M67.5172 15C66.0955 18.61 59 19.9334 59 25.4828C59 26.6991 59.4832 27.8656 60.3433 28.7257C61.2033 29.5858 62.3699 30.069 63.5862 30.069C64.2192 30.0694 64.8453 29.9373 65.4242 29.6812C66.0031 29.4251 66.5219 29.0505 66.9472 28.5817C66.8346 30.3587 66.1099 32.0418 64.8966 33.3448V34H70.1379V33.3448C68.9259 32.0409 68.2015 30.3583 68.0872 28.5817C68.713 29.2558 69.527 29.7261 70.4235 29.9316C71.32 30.1372 72.2576 30.0684 73.1145 29.7342C73.9714 29.4001 74.708 28.816 75.2288 28.0579C75.7495 27.2997 76.0302 26.4025 76.0345 25.4828C76.0345 19.9334 68.939 18.61 67.5172 15Z" fill="#171717"/>
<path d="M70.9655 78C71.8001 75.8808 75.9655 75.1038 75.9655 71.8462C75.9655 71.1321 75.6819 70.4473 75.177 69.9424C74.6721 69.4375 73.9873 69.1538 73.2732 69.1538C72.9016 69.1536 72.5341 69.2311 72.1942 69.3815C71.8544 69.5319 71.5498 69.7517 71.3001 70.0269C71.3663 68.9838 71.7917 67.9957 72.504 67.2308L72.504 66.8462L69.4271 66.8462L69.4271 67.2308C70.1386 67.9962 70.5638 68.984 70.6309 70.0269C70.2635 69.6312 69.7857 69.3551 69.2594 69.2345C68.7331 69.1138 68.1827 69.1542 67.6797 69.3503C67.1766 69.5465 66.7442 69.8894 66.4385 70.3344C66.1328 70.7795 65.968 71.3062 65.9655 71.8462C65.9655 75.1038 70.1309 75.8808 70.9655 78Z" fill="#171717"/>
</g>
<rect x="0.5" y="0.5" width="79" height="111" rx="4.5" stroke="#DADADA"/>
<defs>
<clipPath id="clip0_276_1832">
<rect width="80" height="112" rx="5" fill="white"/>
</clipPath>
</defs>
</svg>
