<svg width="80" height="112" viewBox="0 0 80 112" fill="none" xmlns="http://www.w3.org/2000/svg">
<g clip-path="url(#clip0_276_1460)">
<path d="M75 0H5C2.23858 0 0 2.23858 0 5V107C0 109.761 2.23858 112 5 112H75C77.7614 112 80 109.761 80 107V5C80 2.23858 77.7614 0 75 0Z" fill="white"/>
<path d="M10.3462 26.998C9.34318 27.0057 8.34455 26.8634 7.38308 26.5755C6.52718 26.345 5.731 25.9306 5.04927 25.3608L5.7835 23.618C6.31523 23.8906 6.86764 24.1201 7.43553 24.3045C8.12706 24.4985 8.8417 24.5962 9.55956 24.595C10.33 24.5962 11.0913 24.4265 11.7893 24.0979C12.4872 23.7693 13.1047 23.2899 13.5978 22.6937C14.8121 21.1276 15.5008 19.2135 15.5645 17.2276C14.9261 17.845 14.167 18.3216 13.3356 18.6272C12.4045 18.977 11.4187 19.1559 10.4249 19.1553C9.52701 19.1583 8.63688 18.988 7.80264 18.6536C7.0439 18.3658 6.36173 17.9048 5.80973 17.3069C5.22455 16.7586 4.76003 16.093 4.44615 15.3528C4.1425 14.5064 3.99153 13.6121 4.00037 12.7122C3.99292 11.6741 4.17973 10.6439 4.55104 9.67544C4.88725 8.73968 5.41426 7.88515 6.09817 7.16684C6.8042 6.47532 7.64296 5.9362 8.5631 5.58247C9.60826 5.17771 10.7213 4.98044 11.8409 5.00153C12.9906 4.98474 14.1319 5.20024 15.1974 5.63528C16.2112 6.04644 17.1109 6.6988 17.8197 7.53653C18.5746 8.45155 19.1367 9.51171 19.4717 10.6525C19.8523 12.0541 20.0289 13.504 19.9961 14.9567C20.0191 16.6646 19.7803 18.3658 19.2881 20.0003C18.8953 21.3705 18.2455 22.6523 17.3739 23.7764C16.5449 24.7899 15.507 25.6099 14.3321 26.1794C13.0804 26.7473 11.7188 27.027 10.3462 26.998ZM11.9196 16.6731C12.5676 16.6615 13.2112 16.5638 13.8338 16.3826C14.4755 16.2061 15.086 15.93 15.6432 15.564V14.1645C15.6519 13.2249 15.564 12.2869 15.381 11.3654C15.2773 10.5826 15.0654 9.81826 14.7516 9.0945C14.4473 8.49772 14.007 7.98194 13.4667 7.58934C12.9561 7.21793 12.3396 7.02335 11.7098 7.03481C11.1801 7.02827 10.6573 7.15536 10.1889 7.4045C9.7508 7.66171 9.37468 8.01341 9.08755 8.43434C8.7873 8.91481 8.56594 9.44089 8.43199 9.99231C8.2917 10.6251 8.22134 11.2716 8.22221 11.92C8.11735 13.1335 8.43233 14.3463 9.11377 15.3528C9.44327 15.7819 9.86979 16.1256 10.3578 16.3553C10.8459 16.5849 11.3813 16.6939 11.9196 16.6731Z" fill="#171717"/>
<path d="M69.6731 85.0024C70.6771 84.9966 71.6766 85.1386 72.6395 85.424C73.4943 85.6592 74.2902 86.0721 74.9758 86.6358L74.2408 88.3746C73.6993 88.103 73.1376 87.8739 72.5607 87.6896C71.8948 87.4987 71.2057 87.4012 70.5132 87.3998C69.7419 87.3986 68.9797 87.5679 68.281 87.8957C67.5823 88.2236 66.9641 88.7019 66.4705 89.2967C65.2549 90.8592 64.5655 92.7689 64.5017 94.7502C65.1349 94.1397 65.8851 93.6646 66.7068 93.3539C67.6485 93.0066 68.6436 92.8283 69.6469 92.8269C70.5463 92.8179 71.4386 92.988 72.272 93.3275C73.0344 93.6239 73.724 94.0822 74.2933 94.6711C74.8391 95.2799 75.2665 95.9858 75.5534 96.7524C75.8574 97.5969 76.0085 98.4891 75.9996 99.3869C76.0071 100.423 75.8201 101.45 75.4484 102.417C75.0901 103.327 74.545 104.152 73.8485 104.837C73.1521 105.522 72.3198 106.053 71.4057 106.395C69.2739 107.202 66.9222 107.202 64.7904 106.395C63.7714 105.992 62.8689 105.34 62.1653 104.498C61.4149 103.581 60.8529 102.525 60.5115 101.389C60.1185 99.9665 59.9502 98.4908 60.0127 97.0158C59.9898 95.3119 60.2288 93.6147 60.7215 91.9839C61.1098 90.6069 61.7606 89.3185 62.6378 88.1902C63.4755 87.1938 64.5131 86.3859 65.683 85.8191C66.9351 85.2499 68.2989 84.9708 69.6731 85.0024ZM68.0718 95.3034C67.4234 95.3188 66.7796 95.4162 66.1555 95.5932C65.5232 95.7745 64.9215 96.0498 64.3704 96.4099V97.9379C64.3617 98.8754 64.4497 99.8112 64.6329 100.731C64.7707 101.52 65.0274 102.284 65.3942 102.996C65.6898 103.59 66.1216 104.105 66.6543 104.498C67.1768 104.865 67.8012 105.059 68.4393 105.051C68.9696 105.058 69.493 104.931 69.9619 104.682C70.3875 104.418 70.754 104.068 71.0382 103.655C71.3504 103.182 71.5729 102.655 71.6945 102.1C71.8568 101.473 71.9363 100.826 71.9307 100.177C71.9947 98.9348 71.6335 97.7077 70.9069 96.6997C70.5799 96.2566 70.1518 95.8985 69.6585 95.6556C69.1653 95.4127 68.6212 95.2919 68.0718 95.3034Z" fill="#171717"/>
<path d="M9 34C8.16538 36.1192 4 36.8962 4 40.1538C4 40.8679 4.28365 41.5527 4.78856 42.0576C5.29346 42.5625 5.97826 42.8462 6.69231 42.8462C7.06391 42.8464 7.43146 42.7689 7.77128 42.6185C8.11111 42.4681 8.41568 42.2483 8.66538 41.9731C8.59924 43.0162 8.17385 44.0043 7.46154 44.7692V45.1538H10.5385V44.7692C9.82696 44.0038 9.4017 43.016 9.33462 41.9731C9.70197 42.3688 10.1798 42.6449 10.7061 42.7655C11.2324 42.8862 11.7828 42.8458 12.2858 42.6497C12.7889 42.4535 13.2213 42.1106 13.527 41.6655C13.8327 41.2205 13.9975 40.6938 14 40.1538C14 36.8962 9.83462 36.1192 9 34Z" fill="#171717"/>
<path d="M70.9655 78C71.8001 75.8808 75.9655 75.1038 75.9655 71.8462C75.9655 71.1321 75.6819 70.4473 75.177 69.9424C74.6721 69.4375 73.9873 69.1538 73.2732 69.1538C72.9016 69.1536 72.5341 69.2311 72.1942 69.3815C71.8544 69.5319 71.5498 69.7517 71.3001 70.0269C71.3663 68.9838 71.7917 67.9957 72.504 67.2308L72.504 66.8462L69.4271 66.8462L69.4271 67.2308C70.1386 67.9962 70.5638 68.984 70.6309 70.0269C70.2635 69.6312 69.7857 69.3551 69.2594 69.2345C68.7331 69.1138 68.1827 69.1542 67.6797 69.3503C67.1766 69.5465 66.7442 69.8894 66.4385 70.3344C66.1328 70.7795 65.968 71.3062 65.9655 71.8462C65.9655 75.1038 70.1309 75.8808 70.9655 78Z" fill="#171717"/>
<rect opacity="0.5" x="25.25" y="31.25" width="29.2297" height="49.5" stroke="#171717" stroke-width="0.5"/>
<path d="M33.1827 33.027C32.6063 34.4905 29.7297 35.027 29.7297 37.2767C29.7297 37.7699 29.9256 38.2428 30.2743 38.5914C30.623 38.9401 31.0959 39.136 31.589 39.136C31.8456 39.1362 32.0995 39.0827 32.3341 38.9788C32.5688 38.875 32.7791 38.7231 32.9516 38.5331C32.9059 39.2535 32.6121 39.9358 32.1202 40.4641V40.7297H34.2451V40.4641C33.7538 39.9354 33.4601 39.2533 33.4137 38.5331C33.6674 38.8063 33.9974 38.997 34.3609 39.0803C34.7243 39.1637 35.1044 39.1358 35.4518 39.0003C35.7992 38.8649 36.0979 38.6281 36.309 38.3207C36.5201 38.0133 36.6339 37.6496 36.6356 37.2767C36.6356 35.027 33.759 34.4905 33.1827 33.027Z" fill="#171717"/>
<path d="M46.0205 33.027C45.4441 34.4905 42.5676 35.027 42.5676 37.2767C42.5676 37.7699 42.7635 38.2428 43.1121 38.5914C43.4608 38.9401 43.9337 39.136 44.4268 39.136C44.6835 39.1362 44.9373 39.0827 45.172 38.9788C45.4066 38.875 45.617 38.7231 45.7894 38.5331C45.7437 39.2535 45.45 39.9358 44.9581 40.4641V40.7297H47.0829V40.4641C46.5916 39.9354 46.2979 39.2533 46.2516 38.5331C46.5053 38.8063 46.8353 38.997 47.1987 39.0803C47.5622 39.1637 47.9423 39.1358 48.2897 39.0003C48.6371 38.8649 48.9357 38.6281 49.1468 38.3207C49.3579 38.0133 49.4717 37.6496 49.4734 37.2767C49.4734 35.027 46.5969 34.4905 46.0205 33.027Z" fill="#171717"/>
<path d="M33.1827 45.8649C32.6063 47.3284 29.7297 47.8649 29.7297 50.1146C29.7297 50.6077 29.9256 51.0807 30.2743 51.4293C30.623 51.778 31.0959 51.9739 31.589 51.9739C31.8456 51.9741 32.0995 51.9205 32.3341 51.8167C32.5688 51.7129 32.7791 51.561 32.9516 51.371C32.9059 52.0914 32.6121 52.7737 32.1202 53.302V53.5676H34.2451V53.302C33.7538 52.7733 33.4601 52.0912 33.4137 51.371C33.6674 51.6442 33.9974 51.8349 34.3609 51.9182C34.7243 52.0016 35.1044 51.9737 35.4518 51.8382C35.7992 51.7027 36.0979 51.466 36.309 51.1586C36.5201 50.8512 36.6339 50.4875 36.6356 50.1146C36.6356 47.8649 33.759 47.3284 33.1827 45.8649Z" fill="#171717"/>
<path d="M46.0205 45.8649C45.4441 47.3284 42.5676 47.8649 42.5676 50.1146C42.5676 50.6077 42.7635 51.0807 43.1121 51.4293C43.4608 51.778 43.9337 51.9739 44.4268 51.9739C44.6835 51.9741 44.9373 51.9205 45.172 51.8167C45.4066 51.7129 45.617 51.561 45.7894 51.371C45.7437 52.0914 45.45 52.7737 44.9581 53.302V53.5676H47.0829V53.302C46.5916 52.7733 46.2979 52.0912 46.2516 51.371C46.5053 51.6442 46.8353 51.8349 47.1987 51.9182C47.5622 52.0016 47.9423 51.9737 48.2897 51.8382C48.6371 51.7027 48.9357 51.466 49.1468 51.1586C49.3579 50.8512 49.4717 50.4875 49.4734 50.1146C49.4734 47.8649 46.5969 47.3284 46.0205 45.8649Z" fill="#171717"/>
<path d="M39.9394 51.9459C39.363 53.4094 36.4865 53.946 36.4865 56.1957C36.4865 56.6888 36.6824 57.1617 37.0311 57.5104C37.3797 57.8591 37.8527 58.055 38.3458 58.055C38.6024 58.0552 38.8562 58.0016 39.0909 57.8978C39.3256 57.7939 39.5359 57.6421 39.7083 57.452C39.6627 58.1724 39.3689 58.8547 38.877 59.383V59.6486H41.0019V59.383C40.5105 58.8544 40.2168 58.1723 40.1705 57.452C40.4242 57.7253 40.7542 57.916 41.1176 57.9993C41.4811 58.0826 41.8612 58.0547 42.2086 57.9193C42.556 57.7838 42.8546 57.547 43.0657 57.2397C43.2768 56.9323 43.3906 56.5686 43.3924 56.1957C43.3924 53.946 40.5158 53.4094 39.9394 51.9459Z" fill="#171717"/>
<path d="M46.0205 78.5676C46.5969 77.1041 49.4734 76.5676 49.4734 74.3179C49.4734 73.8248 49.2776 73.3518 48.9289 73.0032C48.5802 72.6545 48.1073 72.4586 47.6142 72.4586C47.3575 72.4584 47.1037 72.5119 46.869 72.6158C46.6344 72.7196 46.424 72.8715 46.2516 73.0615C46.2973 72.3411 46.591 71.6588 47.0829 71.1305L47.0829 70.8649L44.9581 70.8649L44.9581 71.1305C45.4494 71.6592 45.7431 72.3413 45.7894 73.0615C45.5357 72.7883 45.2057 72.5976 44.8423 72.5143C44.4788 72.4309 44.0987 72.4588 43.7513 72.5943C43.404 72.7297 43.1053 72.9665 42.8942 73.2739C42.6831 73.5813 42.5693 73.945 42.5676 74.3179C42.5676 76.5676 45.4441 77.1041 46.0205 78.5676Z" fill="#171717"/>
<path d="M33.1827 78.5676C33.759 77.1041 36.6356 76.5676 36.6356 74.3179C36.6356 73.8248 36.4397 73.3518 36.091 73.0032C35.7424 72.6545 35.2694 72.4586 34.7763 72.4586C34.5197 72.4584 34.2659 72.5119 34.0312 72.6158C33.7965 72.7196 33.5862 72.8715 33.4137 73.0615C33.4594 72.3411 33.7532 71.6588 34.2451 71.1305L34.2451 70.8649L32.1202 70.8649L32.1202 71.1305C32.6116 71.6592 32.9053 72.3413 32.9516 73.0615C32.6979 72.7883 32.3679 72.5976 32.0045 72.5143C31.641 72.4309 31.2609 72.4588 30.9135 72.5943C30.5661 72.7297 30.2675 72.9665 30.0564 73.2739C29.8453 73.5813 29.7315 73.945 29.7297 74.3179C29.7297 76.5676 32.6063 77.1041 33.1827 78.5676Z" fill="#171717"/>
<path d="M46.0205 65.7297C46.5969 64.2662 49.4734 63.7297 49.4734 61.48C49.4734 60.9869 49.2776 60.5139 48.9289 60.1653C48.5802 59.8166 48.1073 59.6207 47.6142 59.6207C47.3575 59.6205 47.1037 59.6741 46.869 59.7779C46.6344 59.8817 46.424 60.0336 46.2516 60.2236C46.2973 59.5032 46.591 58.8209 47.0829 58.2926L47.0829 58.027L44.9581 58.027L44.9581 58.2926C45.4494 58.8213 45.7431 59.5034 45.7894 60.2236C45.5357 59.9504 45.2057 59.7597 44.8423 59.6764C44.4788 59.593 44.0987 59.6209 43.7513 59.7564C43.404 59.8919 43.1053 60.1286 42.8942 60.436C42.6831 60.7434 42.5693 61.1071 42.5676 61.48C42.5676 63.7297 45.4441 64.2662 46.0205 65.7297Z" fill="#171717"/>
<path d="M33.1827 65.7297C33.759 64.2662 36.6356 63.7297 36.6356 61.48C36.6356 60.9869 36.4397 60.5139 36.091 60.1653C35.7424 59.8166 35.2694 59.6207 34.7763 59.6207C34.5197 59.6205 34.2659 59.6741 34.0312 59.7779C33.7965 59.8817 33.5862 60.0336 33.4137 60.2236C33.4594 59.5032 33.7532 58.8209 34.2451 58.2926L34.2451 58.027L32.1202 58.027L32.1202 58.2926C32.6116 58.8213 32.9053 59.5034 32.9516 60.2236C32.6979 59.9504 32.3679 59.7597 32.0045 59.6764C31.641 59.593 31.2609 59.6209 30.9135 59.7564C30.5661 59.8919 30.2675 60.1286 30.0564 60.436C29.8453 60.7434 29.7315 61.1071 29.7297 61.48C29.7297 63.7297 32.6063 64.2662 33.1827 65.7297Z" fill="#171717"/>
</g>
<rect x="0.5" y="0.5" width="79" height="111" rx="4.5" stroke="#DADADA"/>
<defs>
<clipPath id="clip0_276_1460">
<rect width="80" height="112" rx="5" fill="white"/>
</clipPath>
</defs>
</svg>
