<svg width="80" height="112" viewBox="0 0 80 112" fill="none" xmlns="http://www.w3.org/2000/svg">
<g clip-path="url(#clip0_276_1100)">
<path d="M75 0H5C2.23858 0 0 2.23858 0 5V107C0 109.761 2.23858 112 5 112H75C77.7614 112 80 109.761 80 107V5C80 2.23858 77.7614 0 75 0Z" fill="white"/>
<path d="M17.0099 7.87077H12.3738C11.5782 7.87077 10.8376 7.87077 10.1792 7.87077C9.63462 7.90015 9.09333 7.974 8.56066 8.0916C8.31343 8.12718 8.07826 8.22183 7.87485 8.36763C7.68238 8.52591 7.53948 8.7368 7.46336 8.97491L6.3112 12.6462H4.06173C3.97942 11.3317 3.97942 10.0133 4.06173 8.69887C4.13391 7.45947 4.27127 6.22478 4.47322 5H18.9301L20 7.3463C17.9828 9.98962 16.3138 12.8844 15.0347 15.9586C13.6201 19.4793 12.7861 23.2089 12.5658 27H8.78012L8.03944 26.4479C8.18799 24.6746 8.53774 22.9242 9.08188 21.2309C9.60644 19.5199 10.2764 17.8575 11.0844 16.2622C11.8816 14.6932 12.7988 13.1889 13.8277 11.7629C14.7693 10.3714 15.8344 9.0687 17.0099 7.87077Z" fill="#171717"/>
<path d="M62.9679 104.046H67.6784C68.468 104.046 69.2032 104.046 69.8567 104.046C70.3884 104.019 70.9168 103.946 71.4359 103.826C71.6908 103.794 71.934 103.7 72.1439 103.55C72.3343 103.396 72.4685 103.182 72.525 102.942L73.6959 99.3538H75.9286C76.0238 100.668 76.0238 101.987 75.9286 103.301C75.9286 104.626 75.7108 105.868 75.5474 107H61.0347L60 104.654C61.9927 102.009 63.64 99.1141 64.9011 96.0414C66.3052 92.5207 67.133 88.7911 67.3517 85H71.1364L71.7899 85.8005C71.6292 87.5719 71.2823 89.3209 70.7552 91.0176C70.237 92.7335 69.5625 94.3969 68.7403 95.9862C67.9496 97.5556 67.0392 99.0599 66.0175 100.486C65.0949 101.752 64.0752 102.943 62.9679 104.046Z" fill="#171717"/>
<path d="M9 34C8.16538 36.1192 4 36.8962 4 40.1538C4 40.8679 4.28365 41.5527 4.78856 42.0576C5.29346 42.5625 5.97826 42.8462 6.69231 42.8462C7.06391 42.8464 7.43146 42.7689 7.77128 42.6185C8.11111 42.4681 8.41568 42.2483 8.66538 41.9731C8.59924 43.0162 8.17385 44.0043 7.46154 44.7692V45.1538H10.5385V44.7692C9.82696 44.0038 9.4017 43.016 9.33462 41.9731C9.70197 42.3688 10.1798 42.6449 10.7061 42.7655C11.2324 42.8862 11.7828 42.8458 12.2858 42.6497C12.7889 42.4535 13.2213 42.1106 13.527 41.6655C13.8327 41.2205 13.9975 40.6938 14 40.1538C14 36.8962 9.83462 36.1192 9 34Z" fill="#171717"/>
<path d="M70.9655 78C71.8001 75.8808 75.9655 75.1038 75.9655 71.8462C75.9655 71.1321 75.6819 70.4473 75.177 69.9424C74.6721 69.4375 73.9873 69.1538 73.2732 69.1538C72.9016 69.1536 72.5341 69.2311 72.1942 69.3815C71.8544 69.5319 71.5498 69.7517 71.3001 70.0269C71.3663 68.9838 71.7917 67.9957 72.504 67.2308L72.504 66.8462L69.4271 66.8462L69.4271 67.2308C70.1386 67.9962 70.5638 68.984 70.6309 70.0269C70.2635 69.6312 69.7857 69.3551 69.2594 69.2345C68.7331 69.1138 68.1827 69.1542 67.6797 69.3503C67.1766 69.5465 66.7442 69.8894 66.4385 70.3344C66.1328 70.7795 65.968 71.3062 65.9655 71.8462C65.9655 75.1038 70.1309 75.8808 70.9655 78Z" fill="#171717"/>
<rect opacity="0.5" x="25.25" y="31.25" width="29.2297" height="49.5" stroke="#171717" stroke-width="0.5"/>
<path d="M31.9431 35.0541C31.2353 36.8514 27.7027 37.5103 27.7027 40.2731C27.7027 40.8787 27.9433 41.4594 28.3715 41.8876C28.7997 42.3158 29.3804 42.5564 29.986 42.5564C30.3012 42.5566 30.6129 42.4909 30.9011 42.3634C31.1893 42.2358 31.4476 42.0494 31.6594 41.816C31.6033 42.7006 31.2425 43.5386 30.6384 44.1873V44.5135H33.2479V44.1873C32.6445 43.5382 32.2838 42.7005 32.2269 41.816C32.5385 42.1516 32.9437 42.3857 33.3901 42.488C33.8364 42.5904 34.3032 42.5561 34.7298 42.3898C35.1565 42.2234 35.5232 41.9326 35.7824 41.5551C36.0417 41.1777 36.1815 40.731 36.1836 40.2731C36.1836 37.5103 32.651 36.8514 31.9431 35.0541Z" fill="#171717"/>
<path d="M31.9431 51.2703C31.2353 53.0676 27.7027 53.7265 27.7027 56.4893C27.7027 57.0948 27.9433 57.6756 28.3715 58.1038C28.7997 58.532 29.3804 58.7726 29.986 58.7726C30.3012 58.7728 30.6129 58.7071 30.9011 58.5795C31.1893 58.452 31.4476 58.2655 31.6594 58.0321C31.6033 58.9168 31.2425 59.7548 30.6384 60.4035V60.7297H33.2479V60.4035C32.6445 59.7543 32.2838 58.9166 32.2269 58.0321C32.5385 58.3677 32.9437 58.6019 33.3901 58.7042C33.8364 58.8065 34.3032 58.7723 34.7298 58.6059C35.1565 58.4396 35.5232 58.1488 35.7824 57.7713C36.0417 57.3939 36.1815 56.9472 36.1836 56.4893C36.1836 53.7265 32.651 53.0676 31.9431 51.2703Z" fill="#171717"/>
<path d="M47.4837 76.9459C48.1915 75.1486 51.7241 74.4897 51.7241 71.7269C51.7241 71.1213 51.4836 70.5406 51.0554 70.1124C50.6272 69.6842 50.0464 69.4436 49.4408 69.4436C49.1257 69.4434 48.814 69.5091 48.5258 69.6366C48.2375 69.7642 47.9792 69.9506 47.7675 70.184C47.8236 69.2994 48.1843 68.4614 48.7884 67.8127L48.7884 67.4865L46.1789 67.4865L46.1789 67.8127C46.7824 68.4618 47.143 69.2995 47.1999 70.184C46.8884 69.8484 46.4831 69.6143 46.0368 69.512C45.5904 69.4096 45.1236 69.4439 44.697 69.6102C44.2704 69.7766 43.9036 70.0674 43.6444 70.4448C43.3851 70.8223 43.2454 71.269 43.2432 71.7269C43.2432 74.4897 46.7759 75.1486 47.4837 76.9459Z" fill="#171717"/>
<path d="M40.0513 44.5135C39.3434 46.3108 35.8108 46.9697 35.8108 49.7326C35.8108 50.3381 36.0514 50.9189 36.4796 51.3471C36.9078 51.7753 37.4886 52.0159 38.0941 52.0159C38.4093 52.0161 38.721 51.9504 39.0092 51.8228C39.2974 51.6953 39.5557 51.5088 39.7675 51.2754C39.7114 52.1601 39.3506 52.9981 38.7465 53.6468V53.973H41.356V53.6468C40.7526 52.9976 40.3919 52.1599 40.335 51.2754C40.6466 51.611 41.0518 51.8452 41.4982 51.9475C41.9445 52.0498 42.4113 52.0156 42.8379 51.8492C43.2646 51.6829 43.6313 51.3921 43.8906 51.0146C44.1498 50.6372 44.2896 50.1905 44.2917 49.7326C44.2917 46.9697 40.7591 46.3108 40.0513 44.5135Z" fill="#171717"/>
<path d="M47.4837 35.0541C46.7759 36.8514 43.2432 37.5103 43.2432 40.2731C43.2432 40.8787 43.4838 41.4594 43.912 41.8876C44.3402 42.3158 44.921 42.5564 45.5266 42.5564C45.8417 42.5566 46.1534 42.4909 46.4416 42.3634C46.7298 42.2358 46.9881 42.0494 47.1999 41.816C47.1438 42.7006 46.783 43.5386 46.1789 44.1873V44.5135H48.7884V44.1873C48.185 43.5382 47.8244 42.7005 47.7675 41.816C48.079 42.1516 48.4843 42.3857 48.9306 42.488C49.377 42.5904 49.8437 42.5561 50.2704 42.3898C50.697 42.2234 51.0637 41.9326 51.323 41.5551C51.5822 41.1777 51.722 40.731 51.7241 40.2731C51.7241 37.5103 48.1915 36.8514 47.4837 35.0541Z" fill="#171717"/>
<path d="M47.4837 51.2703C46.7759 53.0676 43.2432 53.7265 43.2432 56.4893C43.2432 57.0948 43.4838 57.6756 43.912 58.1038C44.3402 58.532 44.921 58.7726 45.5266 58.7726C45.8417 58.7728 46.1534 58.7071 46.4416 58.5795C46.7298 58.452 46.9881 58.2655 47.1999 58.0321C47.1438 58.9168 46.783 59.7548 46.1789 60.4035V60.7297H48.7884V60.4035C48.185 59.7543 47.8244 58.9166 47.7675 58.0321C48.079 58.3677 48.4843 58.6019 48.9306 58.7042C49.377 58.8065 49.8437 58.7723 50.2704 58.6059C50.697 58.4396 51.0637 58.1488 51.323 57.7713C51.5822 57.3939 51.722 56.9472 51.7241 56.4893C51.7241 53.7265 48.1915 53.0676 47.4837 51.2703Z" fill="#171717"/>
<path d="M31.9431 76.9459C32.651 75.1486 36.1836 74.4897 36.1836 71.7269C36.1836 71.1213 35.943 70.5406 35.5148 70.1124C35.0866 69.6842 34.5059 69.4436 33.9003 69.4436C33.5851 69.4434 33.2734 69.5091 32.9852 69.6366C32.697 69.7642 32.4387 69.9506 32.2269 70.184C32.283 69.2994 32.6438 68.4614 33.2479 67.8127L33.2479 67.4865L30.6384 67.4865L30.6384 67.8127C31.2418 68.4618 31.6025 69.2995 31.6594 70.184C31.3478 69.8484 30.9426 69.6143 30.4962 69.512C30.0499 69.4096 29.5831 69.4439 29.1565 69.6102C28.7298 69.7766 28.3631 70.0674 28.1038 70.4448C27.8446 70.8223 27.7048 71.269 27.7027 71.7269C27.7027 74.4897 31.2353 75.1486 31.9431 76.9459Z" fill="#171717"/>
</g>
<rect x="0.5" y="0.5" width="79" height="111" rx="4.5" stroke="#DADADA"/>
<defs>
<clipPath id="clip0_276_1100">
<rect width="80" height="112" rx="5" fill="white"/>
</clipPath>
</defs>
</svg>
