<svg width="80" height="112" viewBox="0 0 80 112" fill="none" xmlns="http://www.w3.org/2000/svg">
<g clip-path="url(#clip0_276_943)">
<path d="M75 0H5C2.23858 0 0 2.23858 0 5V107C0 109.761 2.23858 112 5 112H75C77.7614 112 80 109.761 80 107V5C80 2.23858 77.7614 0 75 0Z" fill="white"/>
<path d="M19.9987 19.4037C20.0113 20.4326 19.824 21.454 19.4473 22.4108C19.0978 23.308 18.5708 24.1246 17.8981 24.8113C17.1883 25.5112 16.3378 26.0509 15.4037 26.394C13.2714 27.202 10.9191 27.202 8.78678 26.394C7.77441 25.9908 6.87371 25.3483 6.16103 24.5211C5.40943 23.628 4.85461 22.5852 4.53307 21.4612C4.13635 20.0912 3.95908 18.6666 4.00792 17.2407C3.99445 15.5572 4.25158 13.8826 4.76939 12.2815C5.21413 10.8704 5.91767 9.55522 6.84373 8.40392C7.73154 7.34832 8.83238 6.49417 10.0734 5.89797C11.3796 5.28573 12.8071 4.97908 14.2483 5.00111C15.088 5.00346 15.9248 5.1008 16.7428 5.29127C17.4971 5.47998 18.2217 5.77293 18.8959 6.16176L18.2657 8.00824C17.7578 7.79711 17.23 7.63803 16.6903 7.53343C16.2139 7.44732 15.7299 7.41196 15.2461 7.42792C14.381 7.40527 13.5215 7.57298 12.7277 7.91929C11.9339 8.2656 11.2251 8.78213 10.6511 9.43267C9.41046 10.9321 8.6426 12.7687 8.44543 14.7084C9.07096 14.0424 9.85823 13.5515 10.7298 13.2839C11.6648 12.9472 12.6512 12.7776 13.6444 12.7827C14.5416 12.7733 15.4325 12.9344 16.2702 13.2575C17.0213 13.5737 17.7003 14.0404 18.2657 14.6292C18.8293 15.2253 19.2591 15.936 19.5261 16.7131C19.8556 17.5707 20.0162 18.4845 19.9987 19.4037ZM12.3841 24.9432C12.9005 24.9682 13.4144 24.8572 13.875 24.6212C14.3355 24.3853 14.7267 24.0325 15.0098 23.5979C15.6575 22.5466 15.9776 21.3249 15.9288 20.0895C16.0071 18.8316 15.6345 17.5871 14.8785 16.5812C14.5445 16.1691 14.1183 15.842 13.6346 15.6265C13.151 15.4111 12.6235 15.3134 12.0952 15.3414C11.4467 15.3569 10.8027 15.4543 10.1784 15.6316C9.51713 15.7908 8.8929 16.0774 8.3404 16.4757V17.9793C8.34247 18.9611 8.43033 19.9409 8.60298 20.9073C8.75685 21.6888 9.02215 22.444 9.3907 23.1494C9.69567 23.7157 10.1271 24.2032 10.6511 24.5739C11.1784 24.8698 11.7825 24.9985 12.3841 24.9432Z" fill="#171717"/>
<path d="M60.0135 92.5712C60.0165 91.5438 60.2029 90.5252 60.5638 89.5642C60.912 88.6605 61.448 87.8422 62.1358 87.1639C62.8398 86.4648 63.6778 85.9174 64.5988 85.5549C65.6482 85.1723 66.7579 84.9846 67.8739 85.001C69.0222 84.9891 70.1617 85.2042 71.2277 85.634C72.2341 86.0443 73.1313 86.6856 73.8478 87.5068C74.5884 88.4062 75.1409 89.4469 75.4723 90.5665C75.8515 91.8858 76.0282 93.2556 75.9963 94.6286C76.0182 96.3105 75.7705 97.985 75.2627 99.5874C74.8189 100.999 74.1169 102.314 73.1928 103.465C72.3285 104.576 71.2271 105.478 69.97 106.103C68.6624 106.702 67.2409 107.008 65.804 106.999C64.9223 107.009 64.0425 106.912 63.1839 106.709C62.4312 106.521 61.7081 106.228 61.0354 105.839L61.6642 104.019C62.1704 104.225 62.6976 104.376 63.2363 104.467C63.6926 104.568 64.1579 104.621 64.625 104.625C65.4921 104.648 66.3538 104.481 67.1501 104.135C67.9465 103.789 68.6584 103.272 69.2364 102.621C70.4747 101.124 71.233 99.2848 71.4111 97.3454C70.7998 98.0142 70.0217 98.506 69.1578 98.7697C68.2248 99.1064 67.2405 99.2761 66.2495 99.2709C65.3539 99.283 64.4645 99.1218 63.6293 98.7961C62.8798 98.48 62.2022 98.0133 61.638 97.4245C61.0765 96.8229 60.64 96.1145 60.3542 95.3408C60.0735 94.4463 59.958 93.5076 60.0135 92.5712ZM67.6381 87.032C67.1224 87.0043 66.6086 87.1141 66.1486 87.3503C65.6885 87.5865 65.2985 87.9408 65.018 88.3773C64.3716 89.4284 64.0523 90.6501 64.1009 91.8854C64.066 93.0808 64.4355 94.2527 65.149 95.2089C65.4659 95.6014 65.8652 95.9185 66.3182 96.1374C66.7712 96.3563 67.2667 96.4715 67.7691 96.475C68.4249 96.4601 69.0763 96.3626 69.708 96.1848C70.3587 96.0225 70.9725 95.7359 71.5159 95.3408V93.9428C71.523 92.9617 71.4441 91.982 71.2801 91.0149C71.1266 90.2334 70.8618 89.4783 70.4941 88.7729C70.1898 88.2067 69.7593 87.7192 69.2364 87.3485C68.7496 87.0693 68.1984 86.9237 67.6381 86.9265V87.032Z" fill="#171717"/>
<path d="M9 34C8.16538 36.1192 4 36.8962 4 40.1538C4 40.8679 4.28365 41.5527 4.78856 42.0576C5.29346 42.5625 5.97826 42.8462 6.69231 42.8462C7.06391 42.8464 7.43146 42.7689 7.77128 42.6185C8.11111 42.4681 8.41568 42.2483 8.66538 41.9731C8.59924 43.0162 8.17385 44.0043 7.46154 44.7692V45.1538H10.5385V44.7692C9.82696 44.0038 9.4017 43.016 9.33462 41.9731C9.70197 42.3688 10.1798 42.6449 10.7061 42.7655C11.2324 42.8862 11.7828 42.8458 12.2858 42.6497C12.7889 42.4535 13.2213 42.1106 13.527 41.6655C13.8327 41.2205 13.9975 40.6938 14 40.1538C14 36.8962 9.83462 36.1192 9 34Z" fill="#171717"/>
<path d="M70.9655 78C71.8001 75.8808 75.9655 75.1038 75.9655 71.8462C75.9655 71.1321 75.6819 70.4473 75.177 69.9424C74.6721 69.4375 73.9873 69.1538 73.2732 69.1538C72.9016 69.1536 72.5341 69.2311 72.1942 69.3815C71.8544 69.5319 71.5498 69.7517 71.3001 70.0269C71.3663 68.9838 71.7917 67.9957 72.504 67.2308L72.504 66.8462L69.4271 66.8462L69.4271 67.2308C70.1386 67.9962 70.5638 68.984 70.6309 70.0269C70.2635 69.6312 69.7857 69.3551 69.2594 69.2345C68.7331 69.1138 68.1827 69.1542 67.6797 69.3503C67.1766 69.5465 66.7442 69.8894 66.4385 70.3344C66.1328 70.7795 65.968 71.3062 65.9655 71.8462C65.9655 75.1038 70.1309 75.8808 70.9655 78Z" fill="#171717"/>
<rect opacity="0.5" x="25.25" y="31.25" width="29.2297" height="49.5" stroke="#171717" stroke-width="0.5"/>
<path d="M32.6188 37.7567C31.911 39.554 28.3784 40.2129 28.3784 42.9757C28.3784 43.5813 28.619 44.1621 29.0472 44.5903C29.4754 45.0185 30.0561 45.259 30.6617 45.259C30.9769 45.2593 31.2886 45.1935 31.5768 45.066C31.865 44.9385 32.1233 44.752 32.3351 44.5186C32.279 45.4033 31.9182 46.2412 31.3141 46.89V47.2162H33.9236V46.89C33.3202 46.2408 32.9595 45.4031 32.9026 44.5186C33.2142 44.8542 33.6194 45.0884 34.0658 45.1907C34.5121 45.293 34.9789 45.2588 35.4055 45.0924C35.8321 44.926 36.1989 44.6352 36.4581 44.2578C36.7174 43.8803 36.8571 43.4336 36.8593 42.9757C36.8593 40.2129 33.3267 39.554 32.6188 37.7567Z" fill="#171717"/>
<path d="M32.6188 51.2703C31.911 53.0676 28.3784 53.7265 28.3784 56.4893C28.3784 57.0948 28.619 57.6756 29.0472 58.1038C29.4754 58.532 30.0561 58.7726 30.6617 58.7726C30.9769 58.7728 31.2886 58.7071 31.5768 58.5795C31.865 58.452 32.1233 58.2655 32.3351 58.0321C32.279 58.9168 31.9182 59.7548 31.3141 60.4035V60.7297H33.9236V60.4035C33.3202 59.7543 32.9595 58.9166 32.9026 58.0321C33.2142 58.3677 33.6194 58.6019 34.0658 58.7042C34.5121 58.8065 34.9789 58.7723 35.4055 58.6059C35.8321 58.4396 36.1989 58.1488 36.4581 57.7713C36.7174 57.3939 36.8571 56.9472 36.8593 56.4893C36.8593 53.7265 33.3267 53.0676 32.6188 51.2703Z" fill="#171717"/>
<path d="M46.808 74.2433C47.5158 72.446 51.0485 71.7871 51.0485 69.0243C51.0485 68.4187 50.8079 67.8379 50.3797 67.4097C49.9515 66.9815 49.3707 66.741 48.7651 66.741C48.45 66.7407 48.1383 66.8065 47.8501 66.934C47.5619 67.0615 47.3036 67.248 47.0918 67.4814C47.1479 66.5967 47.5087 65.7588 48.1128 65.11L48.1128 64.7838L45.5033 64.7838L45.5033 65.11C46.1067 65.7592 46.4673 66.5969 46.5242 67.4814C46.2127 67.1458 45.8074 66.9116 45.3611 66.8093C44.9148 66.707 44.448 66.7412 44.0213 66.9076C43.5947 67.074 43.228 67.3648 42.9687 67.7422C42.7095 68.1197 42.5697 68.5664 42.5676 69.0243C42.5676 71.7871 46.1002 72.446 46.808 74.2433Z" fill="#171717"/>
<path d="M46.808 37.7567C46.1002 39.554 42.5676 40.2129 42.5676 42.9757C42.5676 43.5813 42.8081 44.1621 43.2363 44.5903C43.6645 45.0185 44.2453 45.259 44.8509 45.259C45.166 45.2593 45.4778 45.1935 45.766 45.066C46.0542 44.9385 46.3125 44.752 46.5242 44.5186C46.4681 45.4033 46.1074 46.2412 45.5033 46.89V47.2162H48.1128V46.89C47.5093 46.2408 47.1487 45.4031 47.0918 44.5186C47.4033 44.8542 47.8086 45.0884 48.2549 45.1907C48.7013 45.293 49.1681 45.2588 49.5947 45.0924C50.0213 44.926 50.3881 44.6352 50.6473 44.2578C50.9066 43.8803 51.0463 43.4336 51.0485 42.9757C51.0485 40.2129 47.5158 39.554 46.808 37.7567Z" fill="#171717"/>
<path d="M46.808 51.2703C46.1002 53.0676 42.5676 53.7265 42.5676 56.4893C42.5676 57.0948 42.8081 57.6756 43.2363 58.1038C43.6645 58.532 44.2453 58.7726 44.8509 58.7726C45.166 58.7728 45.4778 58.7071 45.766 58.5795C46.0542 58.452 46.3125 58.2655 46.5242 58.0321C46.4681 58.9168 46.1074 59.7548 45.5033 60.4035V60.7297H48.1128V60.4035C47.5093 59.7543 47.1487 58.9166 47.0918 58.0321C47.4033 58.3677 47.8086 58.6019 48.2549 58.7042C48.7013 58.8065 49.1681 58.7723 49.5947 58.6059C50.0213 58.4396 50.3881 58.1488 50.6473 57.7713C50.9066 57.3939 51.0463 56.9472 51.0485 56.4893C51.0485 53.7265 47.5158 53.0676 46.808 51.2703Z" fill="#171717"/>
<path d="M32.6188 74.2433C33.3267 72.446 36.8593 71.7871 36.8593 69.0243C36.8593 68.4187 36.6187 67.8379 36.1905 67.4097C35.7623 66.9815 35.1815 66.741 34.576 66.741C34.2608 66.7407 33.9491 66.8065 33.6609 66.934C33.3727 67.0615 33.1144 67.248 32.9026 67.4814C32.9587 66.5967 33.3195 65.7588 33.9236 65.11L33.9236 64.7838L31.3141 64.7838L31.3141 65.11C31.9175 65.7592 32.2782 66.5969 32.3351 67.4814C32.0235 67.1458 31.6182 66.9116 31.1719 66.8093C30.7256 66.707 30.2588 66.7412 29.8322 66.9076C29.4055 67.074 29.0388 67.3648 28.7795 67.7422C28.5203 68.1197 28.3805 68.5664 28.3784 69.0243C28.3784 71.7871 31.911 72.446 32.6188 74.2433Z" fill="#171717"/>
</g>
<rect x="0.5" y="0.5" width="79" height="111" rx="4.5" stroke="#DADADA"/>
<defs>
<clipPath id="clip0_276_943">
<rect width="80" height="112" rx="5" fill="white"/>
</clipPath>
</defs>
</svg>
