<svg width="80" height="112" viewBox="0 0 80 112" fill="none" xmlns="http://www.w3.org/2000/svg">
<g clip-path="url(#clip0_276_1662)">
<path d="M75 0H5C2.23858 0 0 2.23858 0 5V107C0 109.761 2.23858 112 5 112H75C77.7614 112 80 109.761 80 107V5C80 2.23858 77.7614 0 75 0Z" fill="white"/>
<path d="M8.35655 5.52895V24.5713C8.34878 24.8057 8.39646 25.0358 8.48922 25.2116C8.58564 25.3824 8.7148 25.4908 8.85406 25.5178L10.8109 26.0468V27.912H3.0995V26.0468L5.33831 25.5178C5.48623 25.4848 5.62487 25.3781 5.73632 25.2116C5.79171 25.1338 5.83554 25.0355 5.86433 24.9243C5.89312 24.8132 5.90607 24.6923 5.90216 24.5713V9.5657L5.35489 9.81625L4.64179 10.0947L3.89552 10.3174H3.23217L3 8.34075C3.37245 8.18858 3.73817 7.99324 4.09453 7.75612C4.47595 7.5334 4.8408 7.25501 5.20564 6.97661C5.57048 6.69821 5.90216 6.36414 6.21725 6.03007C6.50799 5.72052 6.78511 5.37628 7.04643 5L8.35655 5.52895Z" fill="#171717"/>
<path d="M17.5274 28.3296C16.687 28.3717 15.854 28.0557 15.1061 27.4109C14.4363 26.862 13.8643 26.0266 13.4478 24.9889C13.0449 23.8723 12.7589 22.6483 12.602 21.3697C12.4324 19.921 12.3491 18.4475 12.3532 16.9711C12.34 15.2148 12.4683 13.4636 12.7347 11.7651C12.9565 10.4341 13.328 9.18671 13.8292 8.09023C14.2713 7.1485 14.8395 6.39501 15.4876 5.8909C16.1917 5.40067 16.9476 5.15446 17.7098 5.16707C18.5481 5.12694 19.3795 5.43284 20.131 6.05794C20.7658 6.62746 21.3026 7.46154 21.6899 8.47999C22.1068 9.58469 22.3939 10.8132 22.5357 12.0991C22.7787 13.5352 22.9343 15.009 23 16.4978C22.991 18.2428 22.8347 19.9768 22.5357 21.6481C22.3277 22.988 21.9549 24.2398 21.4411 25.323C21.0003 26.2669 20.4318 27.0209 19.7827 27.5223C19.072 28.0486 18.3042 28.3234 17.5274 28.3296ZM17.5274 7.28288C17.1269 7.2692 16.7345 7.47326 16.4087 7.8646C16.0829 8.25594 15.8413 8.81359 15.7197 9.45437C15.3308 11.5988 15.1735 13.8428 15.2554 16.0802C15.2058 18.598 15.3848 21.1138 15.7861 23.5412C15.8679 24.3205 16.1105 25.0265 16.4713 25.5355C16.8321 26.0446 17.2882 26.3241 17.7595 26.3252C18.1621 26.3371 18.5561 26.129 18.8821 25.7323C19.2082 25.3356 19.4486 24.7718 19.5672 24.1259C19.9952 21.9943 20.1808 19.7467 20.1144 17.5C20.1696 14.9891 19.9849 12.4796 19.5672 10.0668C19.4917 9.28272 19.2508 8.57024 18.8886 8.05923C18.5264 7.54822 18.0668 7.2727 17.5937 7.28288H17.5274Z" fill="#171717"/>
<path d="M71.4612 106.455V86.8477C71.4716 86.6018 71.4292 86.3578 71.3419 86.1598C71.23 86.0037 71.0941 85.9043 70.9499 85.8731L68.9559 85.3285V83.4078H76.8807V85.3285L74.58 85.8731C74.4279 85.9071 74.2855 86.0169 74.1709 86.1884C74.119 86.2737 74.0785 86.3766 74.052 86.4903C74.0256 86.604 74.0138 86.7258 74.0176 86.8477V102.299L74.58 102.041L75.2957 101.754L76.0797 101.525H76.7614L77 103.56C76.6109 103.712 76.2293 103.914 75.8581 104.162C75.4832 104.391 75.0912 104.678 74.7333 104.965C74.3774 105.26 74.0304 105.586 73.6937 105.939C73.3699 106.312 73.0802 106.656 72.8246 107L71.4612 106.455Z" fill="#171717"/>
<path d="M62.0367 83.0066C62.9045 82.9495 63.7667 83.2652 64.5419 83.9239C65.1943 84.5104 65.7459 85.3692 66.1439 86.4179C66.5724 87.5554 66.8674 88.8203 67.0131 90.1445C67.1874 91.6362 67.273 93.1534 67.2687 94.6737C67.2924 96.483 67.1603 98.2885 66.8768 100.034C66.6631 101.414 66.2799 102.703 65.752 103.818C65.299 104.79 64.7147 105.566 64.0477 106.083C63.3237 106.585 62.5472 106.839 61.764 106.828C60.9023 106.873 60.0474 106.558 59.2758 105.911C58.6186 105.325 58.0613 104.467 57.6568 103.417C57.2283 102.279 56.9333 101.014 56.7876 99.6902C56.5781 98.2046 56.4582 96.6871 56.4297 95.161C56.4146 93.343 56.5465 91.53 56.8217 89.7718C57.0497 88.4013 57.4315 87.1169 57.9465 85.9879C58.3971 85.0119 58.982 84.2347 59.6508 83.7233C60.4064 83.1999 61.2201 82.9555 62.0367 83.0066ZM62.0367 104.649C62.4489 104.668 62.8535 104.46 63.1888 104.056C63.5241 103.653 63.7719 103.076 63.8943 102.413C64.333 100.218 64.5238 97.9042 64.4567 95.591C64.5121 92.9962 64.3223 90.4032 63.8943 87.9085C63.7958 87.13 63.5398 86.4331 63.17 85.9365C62.8002 85.4399 62.3394 85.1744 61.8663 85.1853C61.4541 85.1698 61.0505 85.3833 60.7177 85.7927C60.385 86.2021 60.1418 86.7845 60.0257 87.4499C59.5711 89.6011 59.3573 91.8754 59.3951 94.1577C59.3427 96.7409 59.5266 99.3223 59.9405 101.811C60.025 102.611 60.2749 103.335 60.6461 103.854C61.0173 104.373 61.4857 104.655 61.9685 104.649H62.0367Z" fill="#171717"/>
<path d="M9 34C8.16538 36.1192 4 36.8962 4 40.1538C4 40.8679 4.28365 41.5527 4.78856 42.0576C5.29346 42.5625 5.97826 42.8462 6.69231 42.8462C7.06391 42.8464 7.43146 42.7689 7.77128 42.6185C8.11111 42.4681 8.41568 42.2483 8.66538 41.9731C8.59924 43.0162 8.17385 44.0043 7.46154 44.7692V45.1538H10.5385V44.7692C9.82696 44.0038 9.4017 43.016 9.33462 41.9731C9.70197 42.3688 10.1798 42.6449 10.7061 42.7655C11.2324 42.8862 11.7828 42.8458 12.2858 42.6497C12.7889 42.4535 13.2213 42.1106 13.527 41.6655C13.8327 41.2205 13.9975 40.6938 14 40.1538C14 36.8962 9.83462 36.1192 9 34Z" fill="#171717"/>
<path d="M70.9655 78C71.8001 75.8808 75.9655 75.1038 75.9655 71.8462C75.9655 71.1321 75.6819 70.4473 75.177 69.9424C74.6721 69.4375 73.9873 69.1538 73.2732 69.1538C72.9016 69.1536 72.5341 69.2311 72.1942 69.3815C71.8544 69.5319 71.5498 69.7517 71.3001 70.0269C71.3663 68.9838 71.7917 67.9957 72.504 67.2308L72.504 66.8462L69.4271 66.8462L69.4271 67.2308C70.1386 67.9962 70.5638 68.984 70.6309 70.0269C70.2635 69.6312 69.7857 69.3551 69.2594 69.2345C68.7331 69.1138 68.1827 69.1542 67.6797 69.3503C67.1766 69.5465 66.7442 69.8894 66.4385 70.3344C66.1328 70.7795 65.968 71.3062 65.9655 71.8462C65.9655 75.1038 70.1309 75.8808 70.9655 78Z" fill="#171717"/>
<rect opacity="0.5" x="25.25" y="31.25" width="29.2297" height="49.5" stroke="#171717" stroke-width="0.5"/>
<path d="M32.507 33.027C31.9306 34.4905 29.054 35.027 29.054 37.2767C29.054 37.7699 29.2499 38.2428 29.5986 38.5914C29.9473 38.9401 30.4202 39.136 30.9133 39.136C31.1699 39.1362 31.4238 39.0827 31.6584 38.9788C31.8931 38.875 32.1035 38.7231 32.2759 38.5331C32.2302 39.2535 31.9365 39.9358 31.4445 40.4641V40.7297H33.5694V40.4641C33.0781 39.9354 32.7844 39.2533 32.7381 38.5331C32.9918 38.8063 33.3218 38.997 33.6852 39.0803C34.0486 39.1637 34.4287 39.1358 34.7761 39.0003C35.1235 38.8649 35.4222 38.6281 35.6333 38.3207C35.8444 38.0133 35.9582 37.6496 35.9599 37.2767C35.9599 35.027 33.0834 34.4905 32.507 33.027Z" fill="#171717"/>
<path d="M48.0475 33.027C47.4712 34.4905 44.5946 35.027 44.5946 37.2767C44.5946 37.7699 44.7905 38.2428 45.1392 38.5914C45.4878 38.9401 45.9608 39.136 46.4539 39.136C46.7105 39.1362 46.9643 39.0827 47.199 38.9788C47.4337 38.875 47.644 38.7231 47.8164 38.5331C47.7708 39.2535 47.477 39.9358 46.9851 40.4641V40.7297H49.11V40.4641C48.6186 39.9354 48.3249 39.2533 48.2786 38.5331C48.5323 38.8063 48.8623 38.997 49.2257 39.0803C49.5892 39.1637 49.9693 39.1358 50.3167 39.0003C50.6641 38.8649 50.9627 38.6281 51.1738 38.3207C51.3849 38.0133 51.4987 37.6496 51.5005 37.2767C51.5005 35.027 48.6239 34.4905 48.0475 33.027Z" fill="#171717"/>
<path d="M32.507 45.8649C31.9306 47.3284 29.054 47.8649 29.054 50.1146C29.054 50.6077 29.2499 51.0807 29.5986 51.4293C29.9473 51.778 30.4202 51.9739 30.9133 51.9739C31.1699 51.9741 31.4238 51.9205 31.6584 51.8167C31.8931 51.7129 32.1035 51.561 32.2759 51.371C32.2302 52.0914 31.9365 52.7737 31.4445 53.302V53.5676H33.5694V53.302C33.0781 52.7733 32.7844 52.0912 32.7381 51.371C32.9918 51.6442 33.3218 51.8349 33.6852 51.9182C34.0486 52.0016 34.4287 51.9737 34.7761 51.8382C35.1235 51.7027 35.4222 51.466 35.6333 51.1586C35.8444 50.8512 35.9582 50.4875 35.9599 50.1146C35.9599 47.8649 33.0834 47.3284 32.507 45.8649Z" fill="#171717"/>
<path d="M48.0475 45.8649C47.4712 47.3284 44.5946 47.8649 44.5946 50.1146C44.5946 50.6077 44.7905 51.0807 45.1392 51.4293C45.4878 51.778 45.9608 51.9739 46.4539 51.9739C46.7105 51.9741 46.9643 51.9205 47.199 51.8167C47.4337 51.7129 47.644 51.561 47.8164 51.371C47.7708 52.0914 47.477 52.7737 46.9851 53.302V53.5676H49.11V53.302C48.6186 52.7733 48.3249 52.0912 48.2786 51.371C48.5323 51.6442 48.8623 51.8349 49.2257 51.9182C49.5892 52.0016 49.9693 51.9737 50.3167 51.8382C50.6641 51.7027 50.9627 51.466 51.1738 51.1586C51.3849 50.8512 51.4987 50.4875 51.5005 50.1146C51.5005 47.8649 48.6239 47.3284 48.0475 45.8649Z" fill="#171717"/>
<path d="M39.9394 40.4595C39.363 41.923 36.4865 42.4595 36.4865 44.7092C36.4865 45.2023 36.6824 45.6753 37.031 46.0239C37.3797 46.3726 37.8526 46.5685 38.3458 46.5685C38.6024 46.5687 38.8562 46.5152 39.0909 46.4113C39.3256 46.3075 39.5359 46.1556 39.7083 45.9656C39.6627 46.686 39.3689 47.3683 38.877 47.8966V48.1622H41.0019V47.8966C40.5105 47.3679 40.2168 46.6858 40.1705 45.9656C40.4242 46.2388 40.7542 46.4295 41.1176 46.5128C41.4811 46.5962 41.8612 46.5683 42.2086 46.4328C42.556 46.2974 42.8546 46.0606 43.0657 45.7532C43.2768 45.4458 43.3906 45.0821 43.3924 44.7092C43.3924 42.4595 40.5158 41.923 39.9394 40.4595Z" fill="#171717"/>
<path d="M48.0475 78.5676C48.6239 77.1041 51.5005 76.5676 51.5005 74.3179C51.5005 73.8248 51.3046 73.3518 50.9559 73.0032C50.6072 72.6545 50.1343 72.4586 49.6412 72.4586C49.3846 72.4584 49.1307 72.5119 48.8961 72.6158C48.6614 72.7196 48.451 72.8715 48.2786 73.0615C48.3243 72.3411 48.6181 71.6588 49.11 71.1305L49.11 70.8649L46.9851 70.8649L46.9851 71.1305C47.4764 71.6592 47.7701 72.3413 47.8164 73.0615C47.5627 72.7883 47.2328 72.5976 46.8693 72.5143C46.5059 72.4309 46.1258 72.4588 45.7784 72.5943C45.431 72.7297 45.1323 72.9665 44.9212 73.2739C44.7101 73.5813 44.5963 73.945 44.5946 74.3179C44.5946 76.5676 47.4711 77.1041 48.0475 78.5676Z" fill="#171717"/>
<path d="M32.507 78.5676C33.0834 77.1041 35.9599 76.5676 35.9599 74.3179C35.9599 73.8248 35.764 73.3518 35.4154 73.0032C35.0667 72.6545 34.5938 72.4586 34.1007 72.4586C33.844 72.4584 33.5902 72.5119 33.3555 72.6158C33.1209 72.7196 32.9105 72.8715 32.7381 73.0615C32.7838 72.3411 33.0775 71.6588 33.5694 71.1305L33.5694 70.8649L31.4446 70.8649L31.4446 71.1305C31.9359 71.6592 32.2296 72.3413 32.2759 73.0615C32.0222 72.7883 31.6922 72.5976 31.3288 72.5143C30.9653 72.4309 30.5852 72.4588 30.2378 72.5943C29.8904 72.7297 29.5918 72.9665 29.3807 73.2739C29.1696 73.5813 29.0558 73.945 29.0541 74.3179C29.0541 76.5676 31.9306 77.1041 32.507 78.5676Z" fill="#171717"/>
<path d="M48.0475 65.7297C48.6239 64.2662 51.5005 63.7297 51.5005 61.48C51.5005 60.9869 51.3046 60.5139 50.9559 60.1653C50.6072 59.8166 50.1343 59.6207 49.6412 59.6207C49.3846 59.6205 49.1307 59.6741 48.8961 59.7779C48.6614 59.8817 48.451 60.0336 48.2786 60.2236C48.3243 59.5032 48.6181 58.8209 49.11 58.2926L49.11 58.027L46.9851 58.027L46.9851 58.2926C47.4764 58.8213 47.7701 59.5034 47.8164 60.2236C47.5627 59.9504 47.2328 59.7597 46.8693 59.6764C46.5059 59.593 46.1258 59.6209 45.7784 59.7564C45.431 59.8919 45.1323 60.1286 44.9212 60.436C44.7101 60.7434 44.5963 61.1071 44.5946 61.48C44.5946 63.7297 47.4711 64.2662 48.0475 65.7297Z" fill="#171717"/>
<path d="M39.7903 71.8108C40.3667 70.3473 43.2432 69.8107 43.2432 67.561C43.2432 67.0679 43.0474 66.595 42.6987 66.2463C42.35 65.8976 41.8771 65.7018 41.384 65.7018C41.1273 65.7016 40.8735 65.7551 40.6388 65.859C40.4042 65.9628 40.1938 66.1146 40.0214 66.3047C40.0671 65.5843 40.3608 64.902 40.8527 64.3737L40.8527 64.1081L38.7279 64.1081L38.7279 64.3737C39.2192 64.9023 39.5129 65.5845 39.5592 66.3047C39.3055 66.0314 38.9755 65.8407 38.6121 65.7574C38.2486 65.6741 37.8685 65.702 37.5212 65.8374C37.1738 65.9729 36.8751 66.2097 36.664 66.5171C36.4529 66.8244 36.3391 67.1882 36.3374 67.561C36.3374 69.8107 39.2139 70.3473 39.7903 71.8108Z" fill="#171717"/>
<path d="M32.507 65.7297C33.0834 64.2662 35.9599 63.7297 35.9599 61.48C35.9599 60.9869 35.764 60.5139 35.4154 60.1653C35.0667 59.8166 34.5938 59.6207 34.1007 59.6207C33.844 59.6205 33.5902 59.6741 33.3555 59.7779C33.1209 59.8817 32.9105 60.0336 32.7381 60.2236C32.7838 59.5032 33.0775 58.8209 33.5694 58.2926L33.5694 58.027L31.4446 58.027L31.4446 58.2926C31.9359 58.8213 32.2296 59.5034 32.2759 60.2236C32.0222 59.9504 31.6922 59.7597 31.3288 59.6764C30.9653 59.593 30.5852 59.6209 30.2378 59.7564C29.8904 59.8919 29.5918 60.1286 29.3807 60.436C29.1696 60.7434 29.0558 61.1071 29.0541 61.48C29.0541 63.7297 31.9306 64.2662 32.507 65.7297Z" fill="#171717"/>
</g>
<rect x="0.5" y="0.5" width="79" height="111" rx="4.5" stroke="#DADADA"/>
<defs>
<clipPath id="clip0_276_1662">
<rect width="80" height="112" rx="5" fill="white"/>
</clipPath>
</defs>
</svg>
