<svg width="80" height="112" viewBox="0 0 80 112" fill="none" xmlns="http://www.w3.org/2000/svg">
<g clip-path="url(#clip0_276_458)">
<path d="M75 0H5C2.23858 0 0 2.23858 0 5V107C0 109.761 2.23858 112 5 112H75C77.7614 112 80 109.761 80 107V5C80 2.23858 77.7614 0 75 0Z" fill="white"/>
<path d="M19.302 27H4.83222L4 24.6603C5.93289 22.9391 7.57047 21.46 8.88591 20.196C10.0588 19.1688 11.1704 18.0732 12.2148 16.9151C12.9025 16.0979 13.4802 15.1937 13.9329 14.2258C14.2727 13.5014 14.4557 12.7132 14.4698 11.913C14.4896 11.4118 14.4016 10.9123 14.2117 10.4483C14.0218 9.98427 13.7344 9.56661 13.3691 9.22366C12.6196 8.59103 11.6643 8.25608 10.6846 8.2824C9.8077 8.2742 8.94814 8.52691 8.21477 9.00851C7.42229 9.58205 6.74776 10.3034 6.22819 11.1331L4.83222 9.97666C5.0569 9.31189 5.3829 8.68594 5.79866 8.12104C6.2261 7.50918 6.75232 6.97294 7.35571 6.53435C8.00312 6.04606 8.72961 5.67307 9.50336 5.43173C10.3662 5.13221 11.2748 4.98658 12.1879 5.00144C13.1012 4.98375 14.0103 5.12946 14.8725 5.43173C15.6607 5.70288 16.3897 6.12281 17.0201 6.66881C17.6198 7.21607 18.0958 7.88542 18.4161 8.63201C18.7869 9.47905 18.9701 10.3965 18.953 11.3213C18.9489 12.3909 18.7106 13.4466 18.255 14.414C17.7356 15.5183 17.0472 16.5346 16.2148 17.4261C15.1493 18.5676 14.0008 19.6283 12.7785 20.5994C11.3826 21.7021 9.74497 22.9122 7.89262 24.2031H11.8926C12.6443 24.2031 13.3423 24.2031 13.9866 24.2031L15.4631 24.0418C15.7527 23.9976 16.0283 23.8872 16.2685 23.719C16.4385 23.5592 16.5753 23.3672 16.6711 23.1543L17.8524 20.465L20 20.7339C20 21.729 20 22.8316 19.8389 23.988C19.6779 25.1444 19.4899 26.005 19.302 27Z" fill="#171717"/>
<path d="M60.6206 85H75.1636L76 87.3397C74.0573 89.0609 72.4115 90.54 71.0894 91.804C69.9105 92.8312 68.7934 93.9268 67.7437 95.0849C67.063 95.9098 66.4833 96.8126 66.0169 97.7742C65.6754 98.4986 65.4915 99.2868 65.4773 100.087C65.4573 100.588 65.5458 101.088 65.7367 101.552C65.9276 102.016 66.2164 102.433 66.5835 102.776C67.3368 103.409 68.2969 103.744 69.2816 103.718C70.1629 103.726 71.0268 103.473 71.7639 102.991C72.567 102.425 73.2463 101.703 73.7606 100.867L75.1636 102.023C74.9378 102.688 74.6101 103.314 74.1922 103.879C73.7563 104.493 73.2286 105.037 72.6273 105.493C71.9675 105.966 71.2398 106.338 70.4688 106.595C69.5968 106.872 68.6859 107.008 67.7707 106.999C66.8528 107.016 65.9391 106.871 65.0725 106.568C64.2803 106.297 63.5476 105.877 62.914 105.331C62.3033 104.791 61.8236 104.12 61.511 103.368C61.1383 102.521 60.9541 101.603 60.9713 100.679C60.9755 99.6091 61.215 98.5534 61.6729 97.586C62.1949 96.4817 62.8868 95.4654 63.7235 94.5739C64.7973 93.4258 65.9612 92.3646 67.2041 91.4006C68.5801 90.2979 70.226 89.0878 72.0877 87.7969H68.1484C67.3929 87.7969 66.6914 87.7969 66.0439 87.7969L64.5599 87.9582C64.2688 88.0024 63.9918 88.1128 63.7504 88.281C63.5795 88.4408 63.442 88.6328 63.3457 88.8457L62.1585 91.6695L60 91.4006C60 90.4055 60 89.3029 60.1619 88.1465C60.3238 86.9901 60.4317 85.995 60.6206 85Z" fill="#171717"/>
<path d="M9 34C8.16538 36.1192 4 36.8962 4 40.1538C4 40.8679 4.28365 41.5527 4.78856 42.0576C5.29346 42.5625 5.97826 42.8462 6.69231 42.8462C7.06391 42.8464 7.43146 42.7689 7.77128 42.6185C8.11111 42.4681 8.41568 42.2483 8.66538 41.9731C8.59924 43.0162 8.17385 44.0043 7.46154 44.7692V45.1538H10.5385V44.7692C9.82696 44.0038 9.4017 43.016 9.33462 41.9731C9.70197 42.3688 10.1798 42.6449 10.7061 42.7655C11.2324 42.8862 11.7828 42.8458 12.2858 42.6497C12.7889 42.4535 13.2213 42.1106 13.527 41.6655C13.8327 41.2205 13.9975 40.6938 14 40.1538C14 36.8962 9.83462 36.1192 9 34Z" fill="#171717"/>
<rect opacity="0.5" x="25.25" y="31.25" width="29.2297" height="49.5" stroke="#171717" stroke-width="0.5"/>
<path d="M39.8416 41.1351C38.8304 43.7027 33.7838 44.644 33.7838 48.5909C33.7838 49.456 34.1275 50.2856 34.7392 50.8974C35.3509 51.5091 36.1806 51.8527 37.0457 51.8527C37.4959 51.8531 37.9412 51.7591 38.3529 51.577C38.7647 51.3948 39.1337 51.1284 39.4362 50.795C39.3561 52.0588 38.8407 53.2559 37.9777 54.1827V54.6486H41.7055V54.1827C40.8435 53.2552 40.3283 52.0585 40.247 50.795C40.6921 51.2744 41.271 51.6089 41.9086 51.7551C42.5463 51.9013 43.2131 51.8523 43.8226 51.6147C44.432 51.377 44.956 50.9616 45.3263 50.4224C45.6967 49.8831 45.8963 49.245 45.8994 48.5909C45.8994 44.644 40.8528 43.7027 39.8416 41.1351Z" fill="#171717"/>
<path d="M39.8416 70.8649C38.8304 68.2973 33.7838 67.356 33.7838 63.4091C33.7838 62.544 34.1275 61.7144 34.7392 61.1026C35.3509 60.4909 36.1806 60.1473 37.0457 60.1473C37.4959 60.1469 37.9412 60.2409 38.3529 60.423C38.7647 60.6052 39.1337 60.8716 39.4362 61.205C39.3561 59.9412 38.8407 58.7441 37.9777 57.8173V57.3514H41.7055V57.8173C40.8435 58.7448 40.3283 59.9415 40.247 61.205C40.6921 60.7256 41.271 60.3911 41.9086 60.2449C42.5463 60.0987 43.2131 60.1477 43.8226 60.3853C44.432 60.623 44.956 61.0384 45.3263 61.5776C45.6967 62.1169 45.8963 62.755 45.8994 63.4091C45.8994 67.356 40.8528 68.2973 39.8416 70.8649Z" fill="#171717"/>
<path d="M70.9655 78C71.8001 75.8808 75.9655 75.1038 75.9655 71.8462C75.9655 71.1321 75.6819 70.4473 75.177 69.9424C74.6721 69.4375 73.9873 69.1538 73.2732 69.1538C72.9016 69.1536 72.5341 69.2311 72.1942 69.3815C71.8544 69.5319 71.5498 69.7517 71.3001 70.0269C71.3663 68.9838 71.7917 67.9957 72.504 67.2308L72.504 66.8462L69.4271 66.8462L69.4271 67.2308C70.1386 67.9962 70.5638 68.984 70.6309 70.0269C70.2635 69.6312 69.7857 69.3551 69.2594 69.2345C68.7331 69.1138 68.1827 69.1542 67.6797 69.3503C67.1766 69.5465 66.7442 69.8894 66.4385 70.3344C66.1328 70.7795 65.968 71.3062 65.9655 71.8462C65.9655 75.1038 70.1309 75.8808 70.9655 78Z" fill="#171717"/>
</g>
<rect x="0.5" y="0.5" width="79" height="111" rx="4.5" stroke="#DADADA"/>
<defs>
<clipPath id="clip0_276_458">
<rect width="80" height="112" rx="5" fill="white"/>
</clipPath>
</defs>
</svg>
