<svg width="80" height="112" viewBox="0 0 80 112" fill="none" xmlns="http://www.w3.org/2000/svg">
<g clip-path="url(#clip0_276_353)">
<path d="M75 0H5C2.23858 0 0 2.23858 0 5V107C0 109.761 2.23858 112 5 112H75C77.7614 112 80 109.761 80 107V5C80 2.23858 77.7614 0 75 0Z" fill="white"/>
<path d="M9.48373 25.3891V27H4V25.3891L5.30152 24.9322C5.43342 24.9 5.55815 24.826 5.66594 24.7158C5.75895 24.5776 5.8299 24.4137 5.87419 24.235L10.6117 5H13.3362L18.2299 24.235C18.2696 24.4097 18.3414 24.5671 18.4382 24.6918C18.5404 24.819 18.6669 24.9025 18.8026 24.9322L20 25.3891V27H13.3362V25.3891L15.2972 24.8842L14.2213 20.4361H8.52928L7.50542 24.8842L9.48373 25.3891ZM13.8221 18.4885L11.3406 8.2459L8.98048 18.4885H13.8221Z" fill="#C93112"/>
<path d="M70.5038 85.7093V84H76V85.7093L74.6914 86.1617C74.5588 86.1954 74.4334 86.2728 74.325 86.388C74.2315 86.5325 74.1601 86.7038 74.1156 86.8907L69.3522 107H66.7001L61.7797 86.8907C61.746 86.7041 61.6728 86.5372 61.5703 86.4131C61.4676 86.2801 61.3404 86.1928 61.2039 86.1617L60 85.7093V84H66.6129V85.7093L64.6412 86.212L65.6532 90.9126H71.446L72.4755 86.2623L70.5038 85.7093ZM66.1243 92.8984L68.6194 103.607L70.9924 92.8984H66.1243Z" fill="#C93112"/>
<path d="M11.3214 34C10.8483 34.0011 10.3839 34.128 9.97597 34.3678C9.56804 34.6075 9.2312 34.9514 9 35.3643C8.7103 34.849 8.25788 34.4444 7.71362 34.2138C7.16935 33.9832 6.56398 33.9397 5.99229 34.0899C5.42061 34.2402 4.91491 34.5758 4.55439 35.0443C4.19388 35.5127 3.9989 36.0875 4 36.6786C4 39.6357 8.21429 41.225 9 43.1071C9.78572 41.225 14 39.6357 14 36.6786C14 35.9682 13.7178 35.2869 13.2155 34.7845C12.7131 34.2822 12.0318 34 11.3214 34V34Z" fill="#C93112"/>
<rect opacity="0.5" x="25.25" y="31.25" width="29.2297" height="49.5" stroke="#C93112" stroke-width="0.5"/>
<path d="M44.8842 45.8649C43.8611 45.8673 42.8571 46.1417 41.9751 46.6601C41.0931 47.1784 40.3648 47.9221 39.8649 48.8147C39.2385 47.7006 38.2603 46.8258 37.0835 46.3272C35.9067 45.8286 34.5978 45.7344 33.3617 46.0593C32.1257 46.3842 31.0323 47.1099 30.2528 48.1227C29.4733 49.1356 29.0517 50.3783 29.0541 51.6564C29.0541 58.0502 38.1661 61.4865 39.8649 65.556C41.5637 61.4865 50.6757 58.0502 50.6757 51.6564C50.6757 50.1204 50.0655 48.6473 48.9794 47.5612C47.8933 46.475 46.4202 45.8649 44.8842 45.8649V45.8649Z" fill="#C93112"/>
<path d="M68.6786 78.1072C69.1517 78.1061 69.6161 77.9791 70.024 77.7394C70.432 77.4997 70.7688 77.1557 71 76.7429C71.2897 77.2581 71.7421 77.6627 72.2864 77.8933C72.8306 78.1239 73.436 78.1675 74.0077 78.0173C74.5794 77.867 75.0851 77.5313 75.4456 77.0629C75.8061 76.5945 76.0011 76.0197 76 75.4286C76 72.4715 71.7857 70.8822 71 69C70.2143 70.8822 66 72.4715 66 75.4286C66 76.139 66.2822 76.8203 66.7845 77.3226C67.2869 77.825 67.9682 78.1072 68.6786 78.1072V78.1072Z" fill="#C93112"/>
</g>
<rect x="0.5" y="0.5" width="79" height="111" rx="4.5" stroke="#DADADA"/>
<defs>
<clipPath id="clip0_276_353">
<rect width="80" height="112" rx="5" fill="white"/>
</clipPath>
</defs>
</svg>
