<svg width="80" height="112" viewBox="0 0 80 112" fill="none" xmlns="http://www.w3.org/2000/svg">
<g clip-path="url(#clip0_276_1220)">
<path d="M75 0H5C2.23858 0 0 2.23858 0 5V107C0 109.761 2.23858 112 5 112H75C77.7614 112 80 109.761 80 107V5C80 2.23858 77.7614 0 75 0Z" fill="white"/>
<path d="M11.8582 26.9983C10.8119 27.0034 9.76868 26.8792 8.7511 26.6286C7.83985 26.4123 6.97134 26.0372 6.18322 25.5195C5.527 25.0638 4.98211 24.4583 4.59114 23.7502C4.19203 23.0262 3.98814 22.2058 4.00053 21.3736C4.00607 20.127 4.45343 18.9253 5.25879 17.9935C6.08515 16.9778 7.18344 16.234 8.41728 15.8546C7.53821 15.2872 6.75716 14.5733 6.10619 13.7421C5.45114 12.8665 5.11498 11.7827 5.15608 10.6789C5.14398 9.88662 5.31452 9.10269 5.65373 8.39126C5.99295 7.67983 6.49119 7.06114 7.10766 6.58582C7.80076 6.03767 8.5962 5.64215 9.44442 5.42393C10.3839 5.12663 11.3633 4.98403 12.3461 5.00142C13.2654 4.99883 14.1809 5.12317 15.0681 5.37111C15.8098 5.58704 16.5124 5.92598 17.148 6.37457C17.7198 6.78931 18.1936 7.33076 18.5347 7.95898C18.8662 8.57216 19.0345 9.26443 19.0226 9.96589C19.0271 11.0907 18.6348 12.1791 17.9184 13.0291C17.1806 13.936 16.2243 14.628 15.1451 15.036C15.7871 15.3793 16.4034 15.7226 16.994 16.1187C17.5603 16.4685 18.0785 16.8948 18.5347 17.3862C18.9742 17.846 19.3307 18.3825 19.5875 18.9706C19.8762 19.6063 20.0169 20.3025 19.9984 21.0039C20.0021 21.8686 19.7993 22.7209 19.4078 23.4862C18.996 24.2316 18.436 24.8795 17.7643 25.3874C16.9866 25.9424 16.1161 26.3452 15.1965 26.5757C14.1082 26.8754 12.9847 27.0176 11.8582 26.9983ZM12.115 25.0442C13.0955 25.1008 14.0599 24.7702 14.8113 24.1199C15.1304 23.8362 15.3837 23.4826 15.5526 23.0851C15.7215 22.6875 15.8016 22.2561 15.7871 21.8225C15.7971 21.277 15.664 20.7389 15.4019 20.2645C15.1138 19.8216 14.7584 19.4293 14.3491 19.1026C13.8696 18.7232 13.3533 18.3958 12.8083 18.1256L10.2405 16.8052C9.50563 17.2464 8.90187 17.8856 8.49431 18.6537C8.10725 19.3731 7.90404 20.1818 7.9037 21.0039C7.89554 21.6137 8.01829 22.2178 8.2632 22.7732C8.4824 23.2643 8.80729 23.6977 9.21331 24.0407C9.61694 24.3742 10.0789 24.6252 10.5743 24.7801C11.0389 24.9381 11.5232 25.027 12.0123 25.0442H12.115ZM8.80246 9.70182C8.7854 10.1911 8.90098 10.6757 9.13628 11.1014C9.37935 11.539 9.7019 11.9244 10.0864 12.2369C10.5197 12.6164 10.9935 12.9442 11.4987 13.2139C12.038 13.5308 12.6286 13.8213 13.2449 14.1118C13.9287 13.685 14.4946 13.0849 14.8883 12.3689C15.2124 11.7337 15.3799 11.0265 15.3762 10.3092C15.4216 9.85703 15.3742 9.40011 15.2371 8.96798C15.1 8.53585 14.8762 8.13813 14.5802 7.80054C14.232 7.48234 13.8255 7.23899 13.3845 7.0848C12.9435 6.93061 12.4769 6.86869 12.0123 6.90271C11.163 6.8457 10.3253 7.12969 9.67553 7.69491C9.39835 7.9453 9.17689 8.25416 9.02623 8.60048C8.87557 8.9468 8.79925 9.32244 8.80246 9.70182Z" fill="#C93112"/>
<path d="M68.0391 85.0001C69.0956 84.9965 70.1488 85.1206 71.1766 85.3698C72.0959 85.5886 72.9725 85.9635 73.7695 86.479C74.4467 86.9253 75.0074 87.5326 75.4031 88.2485C75.8061 88.9725 76.012 89.7931 75.9995 90.6253C76.0079 91.8685 75.5856 93.0749 74.8067 94.0321C73.9723 95.048 72.8633 95.7918 71.6174 96.1713C72.4979 96.7383 73.2781 97.4526 73.9251 98.2841C74.5939 99.1572 74.9423 100.241 74.9104 101.348C74.9226 102.14 74.7504 102.924 74.4079 103.635C74.0654 104.347 73.5623 104.966 72.9398 105.441C72.2621 105.963 71.498 106.356 70.6839 106.603C69.74 106.878 68.7616 107.012 67.7798 106.999C66.8514 107.004 65.9267 106.879 65.0313 106.629C64.2642 106.419 63.5369 106.08 62.8791 105.626C62.2949 105.219 61.8148 104.676 61.479 104.041C61.1352 103.431 60.9563 102.738 60.9604 102.034C60.9558 100.909 61.3519 99.8208 62.0753 98.9707C62.8306 98.0751 63.793 97.3852 64.8757 96.9636C64.2275 96.6203 63.6052 96.2769 63.0088 95.8808C62.4369 95.5309 61.9137 95.1046 61.453 94.6132C61.0178 94.1463 60.6588 93.6113 60.3899 93.0286C60.1198 92.3866 59.9872 91.6933 60.001 90.9951C59.9972 90.1303 60.202 89.2779 60.5974 88.5126C60.9976 87.7558 61.5659 87.1046 62.2568 86.6111C63.0365 86.0459 63.9175 85.6422 64.8498 85.4227C65.8897 85.138 66.9623 84.9959 68.0391 85.0001ZM67.7539 86.9544C66.8083 86.9334 65.8873 87.2618 65.1609 87.8787C64.8442 88.1671 64.5923 88.5216 64.4223 88.9181C64.2523 89.3146 64.1681 89.7438 64.1756 90.1764C64.1746 90.7242 64.3179 91.2622 64.5905 91.7345C64.8738 92.1835 65.2339 92.5771 65.6536 92.8965C66.1378 93.276 66.6591 93.6034 67.2094 93.8737L69.8023 95.1941C70.5388 94.7458 71.1468 94.1083 71.5655 93.3455C71.9484 92.624 72.1447 91.8151 72.136 90.9951C72.1513 90.423 72.0432 89.8545 71.8192 89.3298C71.5951 88.805 71.2607 88.3367 70.8395 87.958C70.4225 87.6242 69.9475 87.3733 69.4393 87.2185C68.9379 87.0464 68.4127 86.9572 67.8835 86.9544H67.7539ZM71.1247 102.298C71.1341 101.806 71.0084 101.322 70.7617 100.899C70.5245 100.463 70.2076 100.077 69.8282 99.763C69.3863 99.3893 68.9085 99.062 68.4021 98.7858C67.8576 98.4953 67.2612 98.1784 66.6389 97.8879C65.9423 98.3069 65.3692 98.9089 64.9794 99.6309C64.6452 100.265 64.4672 100.972 64.4608 101.691C64.4101 102.177 64.4703 102.668 64.6367 103.126C64.8032 103.584 65.0713 103.997 65.4202 104.332C65.7693 104.654 66.1795 104.9 66.6254 105.054C67.0714 105.209 67.5437 105.268 68.0132 105.23C68.8701 105.281 69.714 104.998 70.3728 104.437C70.6465 104.16 70.8561 103.825 70.9862 103.454C71.1163 103.084 71.1636 102.689 71.1247 102.298Z" fill="#C93112"/>
<path d="M11.3214 34C10.8483 34.0011 10.3839 34.128 9.97597 34.3678C9.56804 34.6075 9.2312 34.9514 9 35.3643C8.7103 34.849 8.25788 34.4444 7.71362 34.2138C7.16935 33.9832 6.56398 33.9397 5.99229 34.0899C5.42061 34.2402 4.91491 34.5758 4.55439 35.0443C4.19388 35.5127 3.9989 36.0875 4 36.6786C4 39.6357 8.21429 41.225 9 43.1071C9.78572 41.225 14 39.6357 14 36.6786C14 35.9682 13.7178 35.2869 13.2155 34.7845C12.7131 34.2822 12.0318 34 11.3214 34V34Z" fill="#C93112"/>
<path d="M68.6786 78.1072C69.1517 78.1061 69.6161 77.9791 70.024 77.7394C70.432 77.4997 70.7688 77.1557 71 76.7429C71.2897 77.2581 71.7421 77.6627 72.2864 77.8933C72.8306 78.1239 73.436 78.1675 74.0077 78.0173C74.5794 77.867 75.0851 77.5313 75.4456 77.0629C75.8061 76.5945 76.0011 76.0197 76 75.4286C76 72.4715 71.7857 70.8822 71 69C70.2143 70.8822 66 72.4715 66 75.4286C66 76.139 66.2822 76.8203 66.7845 77.3226C67.2869 77.825 67.9682 78.1072 68.6786 78.1072V78.1072Z" fill="#C93112"/>
<rect opacity="0.5" x="25.25" y="31.25" width="29.2297" height="49.5" stroke="#C93112" stroke-width="0.5"/>
<path d="M34.6284 35.0541C34.1808 35.0551 33.7415 35.1752 33.3556 35.402C32.9698 35.6288 32.6511 35.9541 32.4324 36.3446C32.1584 35.8572 31.7304 35.4745 31.2156 35.2564C30.7007 35.0382 30.1281 34.997 29.5873 35.1391C29.0465 35.2813 28.5682 35.5988 28.2271 36.0419C27.8861 36.485 27.7017 37.0287 27.7027 37.5879C27.7027 40.3852 31.6892 41.8885 32.4324 43.6689C33.1757 41.8885 37.1622 40.3852 37.1622 37.5879C37.1622 36.9159 36.8952 36.2714 36.42 35.7962C35.9449 35.321 35.3004 35.0541 34.6284 35.0541V35.0541Z" fill="#C93112"/>
<path d="M30.2365 76.777C30.6841 76.7759 31.1233 76.6559 31.5092 76.4291C31.8951 76.2023 32.2137 75.877 32.4324 75.4864C32.7065 75.9738 33.1344 76.3566 33.6493 76.5747C34.1641 76.7928 34.7368 76.8341 35.2776 76.6919C35.8183 76.5498 36.2967 76.2323 36.6377 75.7892C36.9788 75.3461 37.1632 74.8023 37.1622 74.2432C37.1622 71.4459 33.1757 69.9425 32.4324 68.1621C31.6892 69.9425 27.7027 71.4459 27.7027 74.2432C27.7027 74.9152 27.9697 75.5597 28.4448 76.0348C28.92 76.51 29.5645 76.777 30.2365 76.777V76.777Z" fill="#C93112"/>
<path d="M34.6284 51.9459C34.1808 51.947 33.7415 52.067 33.3556 52.2938C32.9698 52.5206 32.6511 52.8459 32.4324 53.2365C32.1584 52.7491 31.7304 52.3663 31.2156 52.1482C30.7007 51.9301 30.1281 51.8888 29.5873 52.031C29.0465 52.1731 28.5682 52.4906 28.2271 52.9337C27.8861 53.3768 27.7017 53.9206 27.7027 54.4797C27.7027 57.277 31.6892 58.7804 32.4324 60.5608C33.1757 58.7804 37.1622 57.277 37.1622 54.4797C37.1622 53.8077 36.8952 53.1632 36.42 52.6881C35.9449 52.2129 35.3004 51.9459 34.6284 51.9459V51.9459Z" fill="#C93112"/>
<path d="M49.4932 35.0541C49.0457 35.0551 48.6064 35.1752 48.2205 35.402C47.8346 35.6288 47.516 35.9541 47.2973 36.3446C47.0233 35.8572 46.5953 35.4745 46.0804 35.2564C45.5656 35.0382 44.9929 34.997 44.4522 35.1391C43.9114 35.2813 43.433 35.5988 43.092 36.0419C42.751 36.485 42.5665 37.0287 42.5676 37.5879C42.5676 40.3852 46.5541 41.8885 47.2973 43.6689C48.0405 41.8885 52.027 40.3852 52.027 37.5879C52.027 36.9159 51.7601 36.2714 51.2849 35.7962C50.8097 35.321 50.1652 35.0541 49.4932 35.0541V35.0541Z" fill="#C93112"/>
<path d="M49.4932 76.777C49.0457 76.7759 48.6064 76.6559 48.2205 76.4291C47.8346 76.2023 47.516 75.877 47.2973 75.4864C47.0233 75.9738 46.5953 76.3566 46.0804 76.5747C45.5656 76.7928 44.9929 76.8341 44.4522 76.6919C43.9114 76.5498 43.433 76.2323 43.092 75.7892C42.751 75.3461 42.5665 74.8023 42.5676 74.2432C42.5676 71.4459 46.5541 69.9425 47.2973 68.1621C48.0405 69.9425 52.027 71.4459 52.027 74.2432C52.027 74.9152 51.7601 75.5597 51.2849 76.0348C50.8097 76.51 50.1652 76.777 49.4932 76.777V76.777Z" fill="#C93112"/>
<path d="M49.4932 51.9459C49.0457 51.947 48.6064 52.067 48.2205 52.2938C47.8346 52.5206 47.516 52.8459 47.2973 53.2365C47.0233 52.7491 46.5953 52.3663 46.0804 52.1482C45.5656 51.9301 44.9929 51.8888 44.4522 52.031C43.9114 52.1731 43.433 52.4906 43.092 52.9337C42.751 53.3768 42.5665 53.9206 42.5676 54.4797C42.5676 57.277 46.5541 58.7804 47.2973 60.5608C48.0405 58.7804 52.027 57.277 52.027 54.4797C52.027 53.8077 51.7601 53.1632 51.2849 52.6881C50.8097 52.2129 50.1652 51.9459 49.4932 51.9459V51.9459Z" fill="#C93112"/>
<path d="M42.0608 43.1621C41.6132 43.1632 41.174 43.2832 40.7881 43.51C40.4022 43.7368 40.0836 44.0621 39.8649 44.4526C39.5908 43.9653 39.1629 43.5825 38.648 43.3644C38.1332 43.1462 37.5605 43.105 37.0197 43.2472C36.479 43.3893 36.0006 43.7068 35.6596 44.1499C35.3185 44.593 35.1341 45.1367 35.1351 45.6959C35.1351 48.4932 39.1216 49.9966 39.8649 51.777C40.6081 49.9966 44.5946 48.4932 44.5946 45.6959C44.5946 45.0239 44.3276 44.3794 43.8525 43.9042C43.3773 43.4291 42.7328 43.1621 42.0608 43.1621V43.1621Z" fill="#C93112"/>
<path d="M42.0608 69.3446C41.6132 69.3436 41.174 69.2235 40.7881 68.9967C40.4022 68.7699 40.0836 68.4446 39.8649 68.0541C39.5908 68.5415 39.1629 68.9242 38.648 69.1423C38.1332 69.3605 37.5605 69.4017 37.0197 69.2595C36.479 69.1174 36.0006 68.7999 35.6596 68.3568C35.3185 67.9137 35.1341 67.37 35.1351 66.8108C35.1351 64.0135 39.1216 62.5101 39.8649 60.7297C40.6081 62.5101 44.5946 64.0135 44.5946 66.8108C44.5946 67.4828 44.3276 68.1273 43.8525 68.6025C43.3773 69.0777 42.7328 69.3446 42.0608 69.3446V69.3446Z" fill="#C93112"/>
</g>
<rect x="0.5" y="0.5" width="79" height="111" rx="4.5" stroke="#DADADA"/>
<defs>
<clipPath id="clip0_276_1220">
<rect width="80" height="112" rx="5" fill="white"/>
</clipPath>
</defs>
</svg>
