<svg width="80" height="112" viewBox="0 0 80 112" fill="none" xmlns="http://www.w3.org/2000/svg">
<g clip-path="url(#clip0_276_761)">
<path d="M75 0H5C2.23858 0 0 2.23858 0 5V107C0 109.761 2.23858 112 5 112H75C77.7614 112 80 109.761 80 107V5C80 2.23858 77.7614 0 75 0Z" fill="white"/>
<path d="M5.17032 23.3369C5.86703 23.8931 6.63587 24.3494 7.45524 24.6931C8.33706 25.0698 9.28484 25.262 10.2417 25.2582C11.5617 25.3301 12.8585 24.885 13.8641 24.015C14.3397 23.5437 14.7102 22.9745 14.9505 22.3458C15.1908 21.7171 15.2955 21.0434 15.2574 20.3702C15.2994 19.1534 14.892 17.9645 14.1149 17.0362C13.6877 16.5992 13.1733 16.2598 12.6063 16.0405C12.0393 15.8212 11.4326 15.7272 10.8269 15.7648C10.2031 15.7618 9.58268 15.8571 8.9878 16.0473C8.31976 16.2373 7.67483 16.5027 7.06513 16.8385L5.56043 15.7648L6.28491 5H18.8241L18.434 8.19271H8.93207L8.31904 14.2673C8.97189 13.7593 9.72138 13.3937 10.5204 13.1937C11.2675 13.004 12.035 12.9091 12.8053 12.9111C14.7294 12.8166 16.6124 13.4971 18.0439 14.8042C18.6965 15.4644 19.2069 16.2548 19.5426 17.1253C19.8784 17.9959 20.0322 18.9277 19.9944 19.8617C20.0099 21.0088 19.7819 22.1458 19.3256 23.1956C18.9122 24.1753 18.2943 25.0525 17.5144 25.7668C16.7083 26.5104 15.7597 27.0778 14.7279 27.4337C13.5965 27.8178 12.4101 28.0087 11.217 27.9988C9.76214 28.0208 8.31903 27.732 6.98153 27.1512C5.83713 26.666 4.8173 25.9218 4 24.9756L5.17032 23.3369Z" fill="#C93112"/>
<path d="M74.7568 87.7777C74.0167 87.1973 73.2 86.7212 72.3296 86.3625C71.3929 85.9695 70.3861 85.7689 69.3697 85.7729C67.9554 85.7222 66.5764 86.2188 65.5217 87.1585C64.6181 88.144 64.0953 89.4171 64.0465 90.7509C63.9977 92.0846 64.4261 93.3922 65.2553 94.4406C65.7047 94.8943 66.246 95.2473 66.8432 95.4761C67.4404 95.7049 68.0797 95.8042 68.7185 95.7673C69.3909 95.7726 70.0601 95.6731 70.7017 95.4725C71.4017 95.2738 72.0769 94.9969 72.7144 94.647L74.3424 95.7673L73.5728 107H60.253L60.6674 103.58H70.7313L71.412 97.3888C70.7186 97.919 69.9224 98.3004 69.0737 98.5091C68.2773 98.6925 67.4637 98.7913 66.6465 98.804C64.6026 98.9026 62.6024 98.1926 61.0818 96.8287C60.3779 96.1352 59.8294 95.3012 59.4723 94.3815C59.1152 93.4617 58.9575 92.4771 59.0098 91.4924C58.9933 90.2954 59.2356 89.109 59.7202 88.0135C60.1517 86.987 60.8092 86.0701 61.6441 85.3307C62.5005 84.5547 63.5081 83.9626 64.6041 83.5912C65.7963 83.1927 67.0465 82.9934 68.3041 83.0016C69.8594 82.9753 71.4027 83.2767 72.8328 83.886C74.0485 84.3924 75.1318 85.1689 76 86.1562L74.7568 87.7777Z" fill="#C93112"/>
<path d="M11.3214 34C10.8483 34.0011 10.3839 34.128 9.97597 34.3678C9.56804 34.6075 9.2312 34.9514 9 35.3643C8.7103 34.849 8.25788 34.4444 7.71362 34.2138C7.16935 33.9832 6.56398 33.9397 5.99229 34.0899C5.42061 34.2402 4.91491 34.5758 4.55439 35.0443C4.19388 35.5127 3.9989 36.0875 4 36.6786C4 39.6357 8.21429 41.225 9 43.1071C9.78572 41.225 14 39.6357 14 36.6786C14 35.9682 13.7178 35.2869 13.2155 34.7845C12.7131 34.2822 12.0318 34 11.3214 34V34Z" fill="#C93112"/>
<path d="M68.6786 78.1072C69.1517 78.1061 69.6161 77.9791 70.024 77.7394C70.432 77.4997 70.7688 77.1557 71 76.7429C71.2897 77.2581 71.7421 77.6627 72.2864 77.8933C72.8306 78.1239 73.436 78.1675 74.0077 78.0173C74.5794 77.867 75.0851 77.5313 75.4456 77.0629C75.8061 76.5945 76.0011 76.0197 76 75.4286C76 72.4715 71.7857 70.8822 71 69C70.2143 70.8822 66 72.4715 66 75.4286C66 76.139 66.2822 76.8203 66.7845 77.3226C67.2869 77.825 67.9682 78.1072 68.6786 78.1072V78.1072Z" fill="#C93112"/>
<rect opacity="0.5" x="25.25" y="31.25" width="29.2297" height="49.5" stroke="#C93112" stroke-width="0.5"/>
<path d="M35.9831 37.7567C35.4916 37.7579 35.0093 37.8897 34.5855 38.1387C34.1618 38.3877 33.812 38.745 33.5718 39.1738C33.2709 38.6386 32.801 38.2183 32.2357 37.9788C31.6704 37.7393 31.0416 37.694 30.4478 37.8501C29.854 38.0062 29.3287 38.3548 28.9542 38.8414C28.5798 39.3279 28.3772 39.9249 28.3784 40.5389C28.3784 43.6104 32.7557 45.2612 33.5718 47.2162C34.3879 45.2612 38.7652 43.6104 38.7652 40.5389C38.7652 39.801 38.4721 39.0934 37.9504 38.5716C37.4286 38.0498 36.7209 37.7567 35.9831 37.7567V37.7567Z" fill="#C93112"/>
<path d="M35.9831 74.2433C35.4916 74.2421 35.0093 74.1103 34.5855 73.8613C34.1618 73.6123 33.812 73.255 33.5718 72.8262C33.2709 73.3614 32.801 73.7817 32.2357 74.0212C31.6704 74.2607 31.0416 74.306 30.4478 74.1499C29.854 73.9938 29.3287 73.6452 28.9542 73.1586C28.5798 72.6721 28.3772 72.0751 28.3784 71.4611C28.3784 68.3896 32.7557 66.7388 33.5718 64.7838C34.3879 66.7388 38.7652 68.3896 38.7652 71.4611C38.7652 72.199 38.4721 72.9066 37.9504 73.4284C37.4286 73.9502 36.7209 74.2433 35.9831 74.2433V74.2433Z" fill="#C93112"/>
<path d="M42.0641 51.2703C41.5727 51.2714 41.0903 51.4033 40.6666 51.6523C40.2429 51.9013 39.893 52.2585 39.6529 52.6873C39.352 52.1522 38.8821 51.7319 38.3168 51.4924C37.7514 51.2528 37.1226 51.2076 36.5288 51.3637C35.935 51.5197 35.4098 51.8684 35.0353 52.3549C34.6608 52.8415 34.4583 53.4385 34.4595 54.0525C34.4595 57.124 38.8368 58.7748 39.6529 60.7297C40.469 58.7748 44.8463 57.124 44.8463 54.0525C44.8463 53.3146 44.5532 52.6069 44.0314 52.0851C43.5097 51.5634 42.802 51.2703 42.0641 51.2703V51.2703Z" fill="#C93112"/>
<path d="M48.8209 37.7567C48.3294 37.7579 47.8471 37.8897 47.4234 38.1387C46.9997 38.3877 46.6498 38.745 46.4097 39.1738C46.1087 38.6386 45.6388 38.2183 45.0735 37.9788C44.5082 37.7393 43.8794 37.694 43.2856 37.8501C42.6918 38.0062 42.1665 38.3548 41.7921 38.8414C41.4176 39.3279 41.2151 39.9249 41.2162 40.5389C41.2162 43.6104 45.5935 45.2612 46.4097 47.2162C47.2258 45.2612 51.6031 43.6104 51.6031 40.5389C51.6031 39.801 51.31 39.0934 50.7882 38.5716C50.2664 38.0498 49.5588 37.7567 48.8209 37.7567V37.7567Z" fill="#C93112"/>
<path d="M48.8209 74.2433C48.3294 74.2421 47.8471 74.1103 47.4234 73.8613C46.9997 73.6123 46.6498 73.255 46.4097 72.8262C46.1087 73.3614 45.6388 73.7817 45.0735 74.0212C44.5082 74.2607 43.8794 74.306 43.2856 74.1499C42.6918 73.9938 42.1665 73.6452 41.7921 73.1586C41.4176 72.6721 41.2151 72.0751 41.2162 71.4611C41.2162 68.3896 45.5935 66.7388 46.4097 64.7838C47.2258 66.7388 51.6031 68.3896 51.6031 71.4611C51.6031 72.199 51.31 72.9066 50.7882 73.4284C50.2664 73.9502 49.5588 74.2433 48.8209 74.2433V74.2433Z" fill="#C93112"/>
</g>
<rect x="0.5" y="0.5" width="79" height="111" rx="4.5" stroke="#DADADA"/>
<defs>
<clipPath id="clip0_276_761">
<rect width="80" height="112" rx="5" fill="white"/>
</clipPath>
</defs>
</svg>
