<svg width="80" height="112" viewBox="0 0 80 112" fill="none" xmlns="http://www.w3.org/2000/svg">
<g clip-path="url(#clip0_276_635)">
<path d="M75 0H5C2.23858 0 0 2.23858 0 5V107C0 109.761 2.23858 112 5 112H75C77.7614 112 80 109.761 80 107V5C80 2.23858 77.7614 0 75 0Z" fill="white"/>
<path d="M19.8797 22.9158H16.9684V27H13.3594V22.9158H4.93835L4 20.8738C5.37143 18.396 6.69474 15.8094 7.96993 13.1683C9.24511 10.5272 10.4962 7.72277 11.6752 5H15.0436L15.5489 5.92574C14.6586 7.80446 13.8406 9.5198 13.1429 11.0173C12.4451 12.5149 11.6752 13.9035 11.0015 15.1287C10.3929 16.2284 9.73435 17.2917 9.02857 18.3144C8.43265 19.2006 7.77274 20.0294 7.05564 20.7921L13.4797 20.4926L13.7684 15.4282L16.9684 15.1559V20.2748H20L19.8797 22.9158Z" fill="#C93112"/>
<path d="M60.0723 88.2645H63.1325V84H66.6265V88.2645H75.0602L76 90.4252C74.6265 93.0124 73.3012 95.7132 72.0241 98.4709C70.747 101.229 69.6145 104.157 68.2892 107H64.9398L64.4337 106.033C65.3253 104.072 66.1446 102.281 66.8434 100.689C67.5422 99.0964 68.3133 97.7034 68.988 96.424C69.5975 95.2757 70.257 94.1655 70.9639 93.0976C71.5607 92.1722 72.2216 91.3069 72.9398 90.5105L66.506 90.8232L66.1446 96.1681L63.0602 96.3671V91.0223H60L60.0723 88.2645Z" fill="#C93112"/>
<path d="M11.3214 34C10.8483 34.0011 10.3839 34.128 9.97597 34.3678C9.56804 34.6075 9.2312 34.9514 9 35.3643C8.7103 34.849 8.25788 34.4444 7.71362 34.2138C7.16935 33.9832 6.56398 33.9397 5.99229 34.0899C5.42061 34.2402 4.91491 34.5758 4.55439 35.0443C4.19388 35.5127 3.9989 36.0875 4 36.6786C4 39.6357 8.21429 41.225 9 43.1071C9.78572 41.225 14 39.6357 14 36.6786C14 35.9682 13.7178 35.2869 13.2155 34.7845C12.7131 34.2822 12.0318 34 11.3214 34V34Z" fill="#C93112"/>
<path d="M68.6786 78.1072C69.1517 78.1061 69.6161 77.9791 70.024 77.7394C70.432 77.4997 70.7688 77.1557 71 76.7429C71.2897 77.2581 71.7421 77.6627 72.2864 77.8933C72.8306 78.1239 73.436 78.1675 74.0077 78.0173C74.5794 77.867 75.0851 77.5313 75.4456 77.0629C75.8061 76.5945 76.0011 76.0197 76 75.4286C76 72.4715 71.7857 70.8822 71 69C70.2143 70.8822 66 72.4715 66 75.4286C66 76.139 66.2822 76.8203 66.7845 77.3226C67.2869 77.825 67.9682 78.1072 68.6786 78.1072V78.1072Z" fill="#C93112"/>
<rect opacity="0.5" x="25.25" y="31.25" width="29.2297" height="49.5" stroke="#C93112" stroke-width="0.5"/>
<path d="M35.9831 41.1351C35.4916 41.1363 35.0093 41.2681 34.5855 41.5171C34.1618 41.7662 33.812 42.1234 33.5718 42.5522C33.2709 42.017 32.801 41.5968 32.2357 41.3572C31.6704 41.1177 31.0416 41.0724 30.4478 41.2285C29.854 41.3846 29.3287 41.7332 28.9542 42.2198C28.5798 42.7063 28.3772 43.3034 28.3784 43.9173C28.3784 46.9889 32.7557 48.6396 33.5718 50.5946C34.3879 48.6396 38.7652 46.9889 38.7652 43.9173C38.7652 43.1794 38.4721 42.4718 37.9504 41.95C37.4286 41.4283 36.7209 41.1351 35.9831 41.1351V41.1351Z" fill="#C93112"/>
<path d="M35.9831 70.8649C35.4916 70.8637 35.0093 70.7319 34.5855 70.4829C34.1618 70.2338 33.812 69.8766 33.5718 69.4478C33.2709 69.983 32.801 70.4032 32.2357 70.6428C31.6704 70.8823 31.0416 70.9276 30.4478 70.7715C29.854 70.6154 29.3287 70.2668 28.9542 69.7802C28.5798 69.2937 28.3772 68.6966 28.3784 68.0827C28.3784 65.0111 32.7557 63.3604 33.5718 61.4054C34.3879 63.3604 38.7652 65.0111 38.7652 68.0827C38.7652 68.8206 38.4721 69.5282 37.9504 70.05C37.4286 70.5717 36.7209 70.8649 35.9831 70.8649V70.8649Z" fill="#C93112"/>
<path d="M48.8209 41.1351C48.3294 41.1363 47.8471 41.2681 47.4234 41.5171C46.9997 41.7662 46.6498 42.1234 46.4097 42.5522C46.1087 42.017 45.6388 41.5968 45.0735 41.3572C44.5082 41.1177 43.8794 41.0724 43.2856 41.2285C42.6918 41.3846 42.1665 41.7332 41.7921 42.2198C41.4176 42.7063 41.2151 43.3034 41.2162 43.9173C41.2162 46.9889 45.5935 48.6396 46.4097 50.5946C47.2258 48.6396 51.6031 46.9889 51.6031 43.9173C51.6031 43.1794 51.31 42.4718 50.7882 41.95C50.2664 41.4283 49.5588 41.1351 48.8209 41.1351V41.1351Z" fill="#C93112"/>
<path d="M48.8209 70.8649C48.3294 70.8637 47.8471 70.7319 47.4234 70.4829C46.9997 70.2338 46.6498 69.8766 46.4097 69.4478C46.1087 69.983 45.6388 70.4032 45.0735 70.6428C44.5082 70.8823 43.8794 70.9276 43.2856 70.7715C42.6918 70.6154 42.1665 70.2668 41.7921 69.7802C41.4176 69.2937 41.2151 68.6966 41.2162 68.0827C41.2162 65.0111 45.5935 63.3604 46.4097 61.4054C47.2258 63.3604 51.6031 65.0111 51.6031 68.0827C51.6031 68.8206 51.31 69.5282 50.7882 70.05C50.2664 70.5717 49.5588 70.8649 48.8209 70.8649V70.8649Z" fill="#C93112"/>
</g>
<rect x="0.5" y="0.5" width="79" height="111" rx="4.5" stroke="#DADADA"/>
<defs>
<clipPath id="clip0_276_635">
<rect width="80" height="112" rx="5" fill="white"/>
</clipPath>
</defs>
</svg>
