<svg width="80" height="112" viewBox="0 0 80 112" fill="none" xmlns="http://www.w3.org/2000/svg">
<g clip-path="url(#clip0_276_1807)">
<path d="M75 0H5C2.23858 0 0 2.23858 0 5V107C0 109.761 2.23858 112 5 112H75C77.7614 112 80 109.761 80 107V5C80 2.23858 77.7614 0 75 0Z" fill="white"/>
<path d="M17.1723 6.7037C16.8668 6.72878 16.5874 6.81514 16.3848 6.94709C16.1974 7.07822 16.1076 7.24554 16.1342 7.41358V18.6296C16.1517 19.8031 16.0201 20.9757 15.7405 22.1384C15.5338 23.0303 14.9971 23.8873 14.1655 24.6534C13.298 25.3948 12.1636 26.0238 10.8367 26.4991C9.04437 27.1048 7.14982 27.6076 5.18121 28L4 26.6208C5.16622 26.21 6.25736 25.7344 7.25727 25.2011C8.07719 24.7769 8.74554 24.2673 9.22595 23.7002C9.70907 23.0534 10.0226 22.3701 10.1566 21.672C10.3434 20.7972 10.4271 19.9163 10.4072 19.0353V7.49471C10.4106 7.32197 10.3234 7.15255 10.1566 7.00794C10.0698 6.92901 9.955 6.8612 9.81942 6.80882C9.68384 6.75644 9.53048 6.72064 9.36913 6.7037L6.00448 6.39947V5H20V6.39947L17.1723 6.7037Z" fill="#C93112"/>
<path d="M62.8572 105.133C63.1619 105.109 63.4407 105.027 63.6428 104.902C63.8426 104.78 63.9453 104.621 63.9286 104.459V93.8154C63.9012 92.7023 64.0206 91.5896 64.2857 90.4856C64.5198 89.6401 65.0663 88.8285 65.8929 88.0989C66.7386 87.3865 67.8745 86.7875 69.2143 86.3473C71.0047 85.7953 72.8956 85.3439 74.8571 85L76 86.3088C74.8491 86.7085 73.762 87.1592 72.75 87.6562C71.9427 88.0595 71.2878 88.5431 70.8214 89.0805C70.3035 89.6875 69.9891 90.3392 69.8928 91.0053C69.6916 91.8348 69.5962 92.6708 69.6071 93.5074V104.633C69.5956 104.8 69.697 104.964 69.8928 105.094C69.9901 105.157 70.1099 105.208 70.2451 105.244C70.3802 105.281 70.5277 105.302 70.6786 105.306L73.9286 105.653V107H60V105.653L62.8572 105.133Z" fill="#C93112"/>
<path d="M45.1813 37.4706V40.4353L49.9412 43.2353L45.1813 46.0353L45.8373 77H41.2449V46.0353C37.0461 46.0353 34.6842 49 34.6842 51.4706C28.3691 46.0353 31.4039 36.8118 34.6842 35C34.6842 38.5576 39.058 40.1059 41.2449 40.4353V37.4706H45.1813Z" fill="#C93112"/>
<path d="M36.1385 37.4706C35.3274 38.5651 34.3272 40.642 34.2949 42.9875M36.1385 48.1765C34.7448 46.4837 34.2718 44.6668 34.2949 42.9875M34.2949 42.9875L41.7059 43.1053" stroke="white"/>
<path d="M11.3214 34C10.8483 34.0011 10.3839 34.128 9.97597 34.3678C9.56804 34.6075 9.2312 34.9514 9 35.3643C8.7103 34.849 8.25788 34.4444 7.71362 34.2138C7.16935 33.9832 6.56398 33.9397 5.99229 34.0899C5.42061 34.2402 4.91491 34.5758 4.55439 35.0443C4.19388 35.5127 3.9989 36.0875 4 36.6786C4 39.6357 8.21429 41.225 9 43.1071C9.78572 41.225 14 39.6357 14 36.6786C14 35.9682 13.7178 35.2869 13.2155 34.7845C12.7131 34.2822 12.0318 34 11.3214 34V34Z" fill="#C93112"/>
<path d="M70.9107 15C70.0117 15.0021 69.1294 15.2433 68.3543 15.6988C67.5793 16.1543 66.9393 16.8078 66.5 17.5921C65.9496 16.6132 65.09 15.8444 64.0559 15.4063C63.0218 14.9681 61.8716 14.8853 60.7854 15.1709C59.6992 15.4564 58.7383 16.0941 58.0533 16.9841C57.3684 17.8741 56.9979 18.9662 57 20.0893C57 25.7079 65.0071 28.7275 66.5 32.3036C67.9929 28.7275 76 25.7079 76 20.0893C76 18.7395 75.4638 17.445 74.5094 16.4906C73.555 15.5362 72.2605 15 70.9107 15V15Z" fill="#C93112"/>
<path d="M17.9107 97.3036C17.0117 97.3015 16.1294 97.0603 15.3543 96.6048C14.5793 96.1493 13.9393 95.4958 13.5 94.7114C12.9496 95.6904 12.09 96.4592 11.0559 96.8973C10.0218 97.3354 8.87155 97.4182 7.78536 97.1327C6.69916 96.8472 5.73833 96.2095 5.05335 95.3195C4.36836 94.4295 3.99791 93.3374 4.00001 92.2143C4.00001 86.5957 12.0071 83.5761 13.5 80C14.9929 83.5761 23 86.5957 23 92.2143C23 93.5641 22.4638 94.8585 21.5094 95.813C20.555 96.7674 19.2605 97.3036 17.9107 97.3036V97.3036Z" fill="#C93112"/>
<path d="M68.6786 78.1072C69.1517 78.1061 69.6161 77.9791 70.024 77.7394C70.432 77.4997 70.7688 77.1557 71 76.7429C71.2897 77.2581 71.7421 77.6627 72.2864 77.8933C72.8306 78.1239 73.436 78.1675 74.0077 78.0173C74.5794 77.867 75.0851 77.5313 75.4456 77.0629C75.8061 76.5945 76.0011 76.0197 76 75.4286C76 72.4715 71.7857 70.8822 71 69C70.2143 70.8822 66 72.4715 66 75.4286C66 76.139 66.2822 76.8203 66.7845 77.3226C67.2869 77.825 67.9682 78.1072 68.6786 78.1072V78.1072Z" fill="#C93112"/>
</g>
<rect x="0.5" y="0.5" width="79" height="111" rx="4.5" stroke="#DADADA"/>
<defs>
<clipPath id="clip0_276_1807">
<rect width="80" height="112" rx="5" fill="white"/>
</clipPath>
</defs>
</svg>
