<svg width="80" height="112" viewBox="0 0 80 112" fill="none" xmlns="http://www.w3.org/2000/svg">
<g clip-path="url(#clip0_276_2140)">
<path d="M75 0H5C2.23858 0 0 2.23858 0 5V107C0 109.761 2.23858 112 5 112H75C77.7614 112 80 109.761 80 107V5C80 2.23858 77.7614 0 75 0Z" fill="white"/>
<path d="M11.3563 25.356V26.9758H4V25.356L5.67356 24.9209C5.83111 24.8877 5.97801 24.7953 6.09655 24.6549C6.19324 24.4977 6.24526 24.3011 6.24368 24.0989V7.97363C6.24965 7.76319 6.19738 7.55705 6.09655 7.39341C6.04434 7.28757 5.97377 7.19952 5.89065 7.13649C5.80753 7.07345 5.71423 7.03722 5.61839 7.03077L4 6.66813V5H11.3563V6.66813L9.62759 7.03077C9.55259 7.03683 9.47942 7.06366 9.41287 7.10949C9.34631 7.15532 9.28787 7.21912 9.24138 7.2967C9.14056 7.46034 9.08828 7.66649 9.09425 7.87692V16.7253L15.3839 7.05495L13.5448 6.57143V5H19.6138V6.66813L17.9402 7.03077C17.8101 7.0534 17.6849 7.111 17.5724 7.2C17.447 7.27409 17.3343 7.38103 17.2414 7.51429L13.1954 13.6791C13.5801 14.2867 13.9363 14.9245 14.2621 15.589L15.4207 18.0066L17.9034 23.9538C18.0218 24.2032 18.1572 24.4379 18.308 24.6549C18.4736 24.8285 18.6696 24.9449 18.8782 24.9934L20 25.3802V27H16.1747C15.8988 27 15.623 26.7341 15.3287 26.2022C14.9643 25.4958 14.6326 24.7612 14.3356 24.0022C14.3356 24.0022 12.092 18.4418 11.8713 17.9341C11.6506 17.4264 11.4299 16.9187 11.2092 16.4835L9.09425 19.6264V24.1473C9.08939 24.3501 9.1418 24.5482 9.24138 24.7033C9.35487 24.8533 9.50428 24.9473 9.66437 24.9692L11.3563 25.356Z" fill="#C93112"/>
<path d="M68.7024 86.6458V85H76V86.6458L74.3398 87.0572C74.189 87.0908 74.0492 87.1835 73.9384 87.3234C73.887 87.3983 73.8476 87.4863 73.8225 87.582C73.7974 87.6776 73.7872 87.779 73.7925 87.8801V104.023C73.7814 104.231 73.8267 104.437 73.9202 104.604C74.0231 104.758 74.1669 104.853 74.3216 104.87L76 105.306V107H68.7024V105.306L70.3808 104.87C70.4579 104.864 70.5333 104.838 70.6023 104.792C70.6713 104.746 70.7325 104.682 70.7822 104.604C70.8757 104.437 70.921 104.231 70.9099 104.023V95.165L64.6705 104.846L66.4949 105.306V107H60.4743V105.306L62.0433 104.87C62.1774 104.843 62.307 104.786 62.4265 104.701C62.5424 104.62 62.6473 104.513 62.7366 104.386L66.8597 98.3113C66.4721 97.7035 66.1126 97.065 65.7834 96.3993C65.455 95.6975 65.0718 94.8504 64.6522 93.9791L62.0798 88.1705C61.9686 87.9153 61.8338 87.6795 61.6785 87.4686C61.5191 87.2993 61.3314 87.1831 61.1311 87.1298L60 86.7668V85.121H63.813C64.0684 85.121 64.3421 85.3872 64.634 85.9439C65.0134 86.6318 65.349 87.3604 65.6374 88.1221C65.6374 88.1221 67.8449 93.6887 68.0639 94.1969C68.2828 94.7052 68.5199 95.2134 68.7389 95.6491L70.8187 92.5027V87.8559C70.8251 87.7547 70.8154 87.6529 70.7902 87.557C70.7651 87.4611 70.7251 87.3733 70.6728 87.2992C70.5602 87.149 70.4119 87.055 70.2531 87.033L68.7024 86.6458Z" fill="#C93112"/>
<g clip-path="url(#clip1_276_2140)">
<path d="M53.5474 69.2531H27.3276V70.0016H53.5474V69.2531Z" fill="#C93112"/>
<path d="M53.5491 68.9276H27.3276V66.4817H53.5491V68.9276Z" fill="#C93112"/>
<path d="M32.1953 66.1531H27.2868L26.3786 63.6126L25.9082 62.3015C25.9082 62.2146 25.9346 62.1296 25.984 62.0575C26.0334 61.9854 26.1036 61.9293 26.1856 61.8965C26.2676 61.8636 26.3578 61.8555 26.4445 61.8731C26.5312 61.8907 26.6107 61.9333 26.6726 61.9954L27.3816 62.5291L32.1953 66.1531Z" fill="#C93112"/>
<path d="M37.5415 66.1532H32.6412L32.7849 63.7217L32.8045 63.4123L32.8862 62.0355C32.9223 61.9612 32.9792 61.8984 33.0501 61.8545C33.1211 61.8105 33.2033 61.7872 33.2872 61.7872C33.3711 61.7872 33.4533 61.8105 33.5243 61.8545C33.5952 61.8984 33.6521 61.9612 33.6882 62.0355L33.9071 62.2679L34.2452 62.6318L37.5415 66.1532Z" fill="#C93112"/>
<path d="M42.9677 58.8458C42.3949 59.4038 41.9926 60.1081 41.8064 60.8788C41.6202 61.6496 41.6575 62.4561 41.9142 63.2071L42.9105 66.1531H37.9645L38.9642 63.2071C39.2192 62.4554 39.2551 61.6487 39.0678 60.8781C38.8805 60.1075 38.4774 59.4036 37.9041 58.8458C37.9035 58.8404 37.9035 58.8351 37.9041 58.8297C38.5848 58.5565 39.1976 58.1426 39.7009 57.6164C39.8871 57.4205 40.0514 57.2055 40.1909 56.9752C40.2164 56.9313 40.2534 56.8947 40.298 56.8693C40.3426 56.8438 40.3933 56.8304 40.4449 56.8304C40.4965 56.8304 40.5472 56.8438 40.5918 56.8693C40.6364 56.8947 40.6733 56.9313 40.6989 56.9752C40.8368 57.2066 41.0012 57.4217 41.1889 57.6164C41.6928 58.1411 42.3055 58.5538 42.9857 58.8265C42.981 58.834 42.9749 58.8405 42.9677 58.8458Z" fill="#C93112"/>
<path d="M32.7735 60.649C32.3991 61.0507 31.9382 61.3655 31.4243 61.5706C31.4243 61.5706 32.7621 62.8529 32.7621 63.7233H33.8026C33.8026 62.8481 35.1403 61.5706 35.1403 61.5706C34.6262 61.366 34.1652 61.0511 33.7911 60.649C33.7271 60.5788 33.6487 60.5226 33.561 60.4841C33.4733 60.4457 33.3784 60.4258 33.2823 60.4258C33.1863 60.4258 33.0913 60.4457 33.0036 60.4841C32.916 60.5226 32.8375 60.5788 32.7735 60.649Z" fill="#C93112"/>
<path d="M54.9114 62.3016L54.4524 63.5839L53.5311 66.1484H48.6308L53.554 62.441L54.1518 61.9906C54.2144 61.9299 54.2938 61.8887 54.3802 61.8722C54.4665 61.8557 54.5559 61.8646 54.6371 61.8979C54.7183 61.9311 54.7877 61.9872 54.8365 62.059C54.8853 62.1309 54.9113 62.2153 54.9114 62.3016Z" fill="#C93112"/>
<path d="M48.1832 66.1532H43.283L46.5808 62.635L47.0137 62.1701L47.1411 62.0355C47.1772 61.9612 47.2341 61.8984 47.305 61.8545C47.376 61.8105 47.4582 61.7872 47.5421 61.7872C47.626 61.7872 47.7082 61.8105 47.7792 61.8545C47.8502 61.8984 47.907 61.9612 47.9431 62.0355L48.0232 63.3915L48.0444 63.7217L48.1832 66.1532Z" fill="#C93112"/>
<path d="M48.046 60.649C48.4201 61.0511 48.8811 61.366 49.3952 61.5706C49.3952 61.5706 48.0575 62.8529 48.0575 63.7233H47.017C47.017 62.8481 45.6792 61.5706 45.6792 61.5706C46.1931 61.3655 46.654 61.0507 47.0284 60.649C47.0925 60.5788 47.1709 60.5226 47.2585 60.4841C47.3462 60.4457 47.4412 60.4258 47.5372 60.4258C47.6333 60.4258 47.7282 60.4457 47.8159 60.4841C47.9036 60.5226 47.982 60.5788 48.046 60.649Z" fill="#C93112"/>
<path d="M54.5242 63.6383L53.3416 62.7551C53.4658 62.5949 56.3406 58.7288 51.9859 54.7313C48.8007 51.8061 44.508 54.1751 42.2016 55.4478C41.9387 55.5937 41.7116 55.7187 41.5107 55.8213C41.1793 55.9925 40.8104 56.082 40.4359 56.082C40.0614 56.082 39.6925 55.9925 39.3611 55.8213C39.1602 55.7187 38.9332 55.5937 38.6718 55.4478C36.3654 54.1816 32.0711 51.8045 28.8859 54.7297C27.0336 56.4255 26.2463 58.2992 26.5469 60.2836C26.6831 61.167 27.0179 62.0095 27.5269 62.7503L26.3476 63.6383C25.6828 62.7019 25.2479 61.6272 25.0768 60.4983C24.8171 58.7897 25.0915 56.2156 27.8716 53.6638C31.8506 50.0142 36.9502 52.8239 39.4003 54.1816C39.6519 54.321 39.8707 54.4412 40.0537 54.5358C40.1716 54.5972 40.3032 54.6294 40.4367 54.6294C40.5703 54.6294 40.7018 54.5972 40.8198 54.5358C41.0011 54.4412 41.22 54.321 41.4731 54.1816C43.9233 52.8288 49.0212 50.0142 53.0019 53.6702C55.7787 56.222 56.0547 58.7993 55.795 60.5048C55.6246 61.6318 55.1895 62.7045 54.5242 63.6383Z" fill="#C93112"/>
<path d="M32.7474 63.4283C32.5464 62.8513 32.308 62.2647 32.0564 61.6428C30.7709 58.4723 29.1702 54.5278 33.8058 52.2662C35.3902 51.4952 36.8522 51.367 38.1507 51.8863C40.2742 52.739 41.104 55.015 41.1383 55.1128L39.7352 55.5936C39.7352 55.576 39.0818 53.8305 37.5807 53.2343C36.6954 52.8832 35.6483 52.997 34.4739 53.5725C31.2936 55.124 31.9633 57.4529 33.4448 61.1058C33.6915 61.7149 33.9479 62.3464 34.1603 62.9603L32.7474 63.4283Z" fill="#C93112"/>
<path d="M48.1245 63.4283L46.7246 62.9586C46.937 62.3448 47.1934 61.7148 47.4417 61.1042C48.9216 57.4529 49.5913 55.124 46.4126 53.5708C45.2317 52.9954 44.183 52.8816 43.2977 53.2326C41.7982 53.8257 41.1497 55.5744 41.1432 55.592L39.7417 55.1111C39.7744 55.0134 40.6041 52.7341 42.7276 51.8846C44.0343 51.3637 45.4897 51.4919 47.0742 52.2645C51.7082 54.5261 50.1091 58.4723 48.8219 61.6411C48.5638 62.2646 48.3254 62.8513 48.1245 63.4283Z" fill="#C93112"/>
<path d="M40.4359 61.6813C40.2402 61.6792 40.0533 61.6014 39.9157 61.4648C39.778 61.3283 39.7009 61.144 39.7009 60.952V52.7054C39.7009 52.6096 39.7201 52.5148 39.7574 52.4263C39.7948 52.3378 39.8495 52.2574 39.9185 52.1897C39.9876 52.122 40.0695 52.0682 40.1597 52.0316C40.2498 51.9949 40.3465 51.9761 40.4441 51.9761C40.5417 51.9761 40.6383 51.9949 40.7285 52.0316C40.8187 52.0682 40.9006 52.122 40.9696 52.1897C41.0386 52.2574 41.0934 52.3378 41.1307 52.4263C41.1681 52.5148 41.1873 52.6096 41.1873 52.7054V60.952C41.1873 61.0484 41.1678 61.1439 41.1299 61.2329C41.0921 61.3219 41.0366 61.4027 40.9667 61.4705C40.8968 61.5383 40.8139 61.5919 40.7228 61.6281C40.6317 61.6642 40.5342 61.6823 40.4359 61.6813Z" fill="#C93112"/>
<path d="M42.329 45.5022C42.1404 45.8321 41.8655 46.1068 41.5328 46.298C41.2001 46.4892 40.8215 46.59 40.4359 46.59C40.0503 46.59 39.6717 46.4892 39.339 46.298C39.0063 46.1068 38.7314 45.8321 38.5427 45.5022L35.9995 46.6931C35.9459 46.7194 35.8986 46.7566 35.8607 46.8021C35.8228 46.8477 35.7952 46.9007 35.7798 46.9575C35.7643 47.0143 35.7614 47.0738 35.7711 47.1318C35.7808 47.1898 35.803 47.2452 35.8362 47.2942L37.365 49.5894H43.5067L45.0438 47.2894C45.0772 47.2404 45.0996 47.1851 45.1095 47.127C45.1193 47.0689 45.1164 47.0094 45.101 46.9525C45.0855 46.8956 45.0578 46.8426 45.0198 46.797C44.9818 46.7515 44.9343 46.7144 44.8805 46.6883L42.329 45.5022Z" fill="#C93112"/>
<path d="M40.4359 46.9207C40.9878 46.9218 41.5248 46.7444 41.9638 46.4161C42.4028 46.0878 42.7193 45.6268 42.8646 45.1042C43.0098 44.5817 42.9756 44.0268 42.7674 43.5252C42.5591 43.0237 42.1882 42.6034 41.7122 42.3293C41.2361 42.0552 40.6813 41.9426 40.1335 42.0089C39.5857 42.0752 39.0754 42.3166 38.6814 42.6959C38.2874 43.0753 38.0317 43.5714 37.9538 44.1076C37.8759 44.6438 37.9801 45.1902 38.2504 45.6625C38.468 46.0437 38.7851 46.3613 39.1692 46.5824C39.5534 46.8036 39.9906 46.9203 40.4359 46.9207Z" fill="#C93112"/>
<path d="M43.5982 49.7513H37.2736C37.0886 49.7513 36.9112 49.8235 36.7804 49.9518C36.6496 50.0802 36.5761 50.2542 36.5761 50.4358C36.5761 50.6173 36.6496 50.7914 36.7804 50.9197C36.9112 51.0481 37.0886 51.1202 37.2736 51.1202H43.5982C43.7832 51.1202 43.9606 51.0481 44.0914 50.9197C44.2222 50.7914 44.2957 50.6173 44.2957 50.4358C44.2957 50.2542 44.2222 50.0802 44.0914 49.9518C43.9606 49.8235 43.7832 49.7513 43.5982 49.7513Z" fill="#C93112"/>
<path d="M53.5474 66.4817H27.3276V68.9228H53.5474V66.4817Z" fill="#C93112"/>
</g>
<path d="M11.3214 34C10.8483 34.0011 10.3839 34.128 9.97597 34.3678C9.56804 34.6075 9.2312 34.9514 9 35.3643C8.7103 34.849 8.25788 34.4444 7.71362 34.2138C7.16935 33.9832 6.56398 33.9397 5.99229 34.0899C5.42061 34.2402 4.91491 34.5758 4.55439 35.0443C4.19388 35.5127 3.9989 36.0875 4 36.6786C4 39.6357 8.21429 41.225 9 43.1071C9.78572 41.225 14 39.6357 14 36.6786C14 35.9682 13.7178 35.2869 13.2155 34.7845C12.7131 34.2822 12.0318 34 11.3214 34V34Z" fill="#C93112"/>
<path d="M68.6786 78.1072C69.1517 78.1061 69.6161 77.9791 70.024 77.7394C70.432 77.4997 70.7688 77.1557 71 76.7429C71.2897 77.2581 71.7421 77.6627 72.2864 77.8933C72.8306 78.1239 73.436 78.1675 74.0077 78.0173C74.5794 77.867 75.0851 77.5313 75.4456 77.0629C75.8061 76.5945 76.0011 76.0197 76 75.4286C76 72.4715 71.7857 70.8822 71 69C70.2143 70.8822 66 72.4715 66 75.4286C66 76.139 66.2822 76.8203 66.7845 77.3226C67.2869 77.825 67.9682 78.1072 68.6786 78.1072V78.1072Z" fill="#C93112"/>
<path d="M70.9107 15C70.0117 15.0021 69.1294 15.2433 68.3543 15.6988C67.5793 16.1543 66.9393 16.8078 66.5 17.5921C65.9496 16.6132 65.09 15.8444 64.0559 15.4063C63.0218 14.9681 61.8716 14.8853 60.7854 15.1709C59.6992 15.4564 58.7383 16.0941 58.0533 16.9841C57.3684 17.8741 56.9979 18.9662 57 20.0893C57 25.7079 65.0071 28.7275 66.5 32.3036C67.9929 28.7275 76 25.7079 76 20.0893C76 18.7395 75.4638 17.445 74.5094 16.4906C73.555 15.5362 72.2605 15 70.9107 15V15Z" fill="#C93112"/>
<path d="M17.9107 97.3036C17.0117 97.3015 16.1294 97.0603 15.3543 96.6048C14.5793 96.1493 13.9393 95.4958 13.5 94.7114C12.9496 95.6904 12.09 96.4592 11.0559 96.8973C10.0218 97.3354 8.87155 97.4182 7.78536 97.1327C6.69916 96.8472 5.73833 96.2095 5.05335 95.3195C4.36836 94.4295 3.99791 93.3374 4.00001 92.2143C4.00001 86.5957 12.0071 83.5761 13.5 80C14.9929 83.5761 23 86.5957 23 92.2143C23 93.5641 22.4638 94.8585 21.5094 95.813C20.555 96.7674 19.2605 97.3036 17.9107 97.3036V97.3036Z" fill="#C93112"/>
</g>
<rect x="0.5" y="0.5" width="79" height="111" rx="4.5" stroke="#DADADA"/>
<defs>
<clipPath id="clip0_276_2140">
<rect width="80" height="112" rx="5" fill="white"/>
</clipPath>
<clipPath id="clip1_276_2140">
<rect width="30.8718" height="28" fill="white" transform="translate(25 42)"/>
</clipPath>
</defs>
</svg>
