<svg width="80" height="112" viewBox="0 0 80 112" fill="none" xmlns="http://www.w3.org/2000/svg">
<g clip-path="url(#clip0_276_1403)">
<path d="M75 0H5C2.23858 0 0 2.23858 0 5V107C0 109.761 2.23858 112 5 112H75C77.7614 112 80 109.761 80 107V5C80 2.23858 77.7614 0 75 0Z" fill="white"/>
<path d="M10.3462 26.998C9.34318 27.0057 8.34455 26.8634 7.38308 26.5755C6.52718 26.345 5.731 25.9306 5.04927 25.3608L5.7835 23.618C6.31523 23.8906 6.86764 24.1201 7.43553 24.3045C8.12706 24.4985 8.8417 24.5962 9.55956 24.595C10.33 24.5962 11.0913 24.4265 11.7893 24.0979C12.4872 23.7693 13.1047 23.2899 13.5978 22.6937C14.8121 21.1276 15.5008 19.2135 15.5645 17.2276C14.9261 17.845 14.167 18.3216 13.3356 18.6272C12.4045 18.977 11.4187 19.1559 10.4249 19.1553C9.52701 19.1583 8.63688 18.988 7.80264 18.6536C7.0439 18.3658 6.36173 17.9048 5.80973 17.3069C5.22455 16.7586 4.76003 16.093 4.44615 15.3528C4.1425 14.5064 3.99153 13.6121 4.00037 12.7122C3.99292 11.6741 4.17973 10.6439 4.55104 9.67544C4.88725 8.73968 5.41426 7.88515 6.09817 7.16684C6.8042 6.47532 7.64296 5.9362 8.5631 5.58247C9.60826 5.17771 10.7213 4.98044 11.8409 5.00153C12.9906 4.98474 14.1319 5.20024 15.1974 5.63528C16.2112 6.04644 17.1109 6.6988 17.8197 7.53653C18.5746 8.45155 19.1367 9.51171 19.4717 10.6525C19.8523 12.0541 20.0289 13.504 19.9961 14.9567C20.0191 16.6646 19.7803 18.3658 19.2881 20.0003C18.8953 21.3705 18.2455 22.6523 17.3739 23.7764C16.5449 24.7899 15.507 25.6099 14.3321 26.1794C13.0804 26.7473 11.7188 27.027 10.3462 26.998ZM11.9196 16.6731C12.5676 16.6615 13.2112 16.5638 13.8338 16.3826C14.4755 16.2061 15.086 15.93 15.6432 15.564V14.1645C15.6519 13.2249 15.564 12.2869 15.381 11.3654C15.2773 10.5826 15.0654 9.81826 14.7516 9.0945C14.4473 8.49772 14.007 7.98194 13.4667 7.58934C12.9561 7.21793 12.3396 7.02335 11.7098 7.03481C11.1801 7.02827 10.6573 7.15536 10.1889 7.4045C9.7508 7.66171 9.37468 8.01341 9.08755 8.43434C8.7873 8.91481 8.56594 9.44089 8.43199 9.99231C8.2917 10.6251 8.22134 11.2716 8.22221 11.92C8.11735 13.1335 8.43233 14.3463 9.11377 15.3528C9.44327 15.7819 9.86979 16.1256 10.3578 16.3553C10.8459 16.5849 11.3813 16.6939 11.9196 16.6731Z" fill="#C93112"/>
<path d="M69.6731 85.0024C70.6771 84.9966 71.6766 85.1386 72.6395 85.424C73.4943 85.6592 74.2902 86.0721 74.9758 86.6358L74.2408 88.3746C73.6993 88.103 73.1376 87.8739 72.5607 87.6896C71.8948 87.4987 71.2057 87.4012 70.5132 87.3998C69.7419 87.3986 68.9797 87.5679 68.281 87.8957C67.5823 88.2236 66.9641 88.7019 66.4705 89.2967C65.2549 90.8592 64.5655 92.7689 64.5017 94.7502C65.1349 94.1397 65.8851 93.6646 66.7068 93.3539C67.6485 93.0066 68.6436 92.8283 69.6469 92.8269C70.5463 92.8179 71.4386 92.988 72.272 93.3275C73.0344 93.6239 73.724 94.0822 74.2933 94.6711C74.8391 95.2799 75.2665 95.9858 75.5534 96.7524C75.8574 97.5969 76.0085 98.4891 75.9996 99.3869C76.0071 100.423 75.8201 101.45 75.4484 102.417C75.0901 103.327 74.545 104.152 73.8485 104.837C73.1521 105.522 72.3198 106.053 71.4057 106.395C69.2739 107.202 66.9222 107.202 64.7904 106.395C63.7714 105.992 62.8689 105.34 62.1653 104.498C61.4149 103.581 60.8529 102.525 60.5115 101.389C60.1185 99.9665 59.9502 98.4908 60.0127 97.0158C59.9898 95.3119 60.2288 93.6147 60.7215 91.9839C61.1098 90.6069 61.7606 89.3185 62.6378 88.1902C63.4755 87.1938 64.5131 86.3859 65.683 85.8191C66.9351 85.2499 68.2989 84.9708 69.6731 85.0024ZM68.0718 95.3034C67.4234 95.3188 66.7796 95.4162 66.1555 95.5932C65.5232 95.7745 64.9215 96.0498 64.3704 96.4099V97.9379C64.3617 98.8754 64.4497 99.8112 64.6329 100.731C64.7707 101.52 65.0274 102.284 65.3942 102.996C65.6898 103.59 66.1216 104.105 66.6543 104.498C67.1768 104.865 67.8012 105.059 68.4393 105.051C68.9696 105.058 69.493 104.931 69.9619 104.682C70.3875 104.418 70.754 104.068 71.0382 103.655C71.3504 103.182 71.5729 102.655 71.6945 102.1C71.8568 101.473 71.9363 100.826 71.9307 100.177C71.9947 98.9348 71.6335 97.7077 70.9069 96.6997C70.5799 96.2566 70.1518 95.8985 69.6585 95.6556C69.1653 95.4127 68.6212 95.2919 68.0718 95.3034Z" fill="#C93112"/>
<path d="M11.3214 34C10.8483 34.0011 10.3839 34.128 9.97597 34.3678C9.56804 34.6075 9.2312 34.9514 9 35.3643C8.7103 34.849 8.25788 34.4444 7.71362 34.2138C7.16935 33.9832 6.56398 33.9397 5.99229 34.0899C5.42061 34.2402 4.91491 34.5758 4.55439 35.0443C4.19388 35.5127 3.9989 36.0875 4 36.6786C4 39.6357 8.21429 41.225 9 43.1071C9.78572 41.225 14 39.6357 14 36.6786C14 35.9682 13.7178 35.2869 13.2155 34.7845C12.7131 34.2822 12.0318 34 11.3214 34V34Z" fill="#C93112"/>
<path d="M68.6786 78.1072C69.1517 78.1061 69.6161 77.9791 70.024 77.7394C70.432 77.4997 70.7688 77.1557 71 76.7429C71.2897 77.2581 71.7421 77.6627 72.2864 77.8933C72.8306 78.1239 73.436 78.1675 74.0077 78.0173C74.5794 77.867 75.0851 77.5313 75.4456 77.0629C75.8061 76.5945 76.0011 76.0197 76 75.4286C76 72.4715 71.7857 70.8822 71 69C70.2143 70.8822 66 72.4715 66 75.4286C66 76.139 66.2822 76.8203 66.7845 77.3226C67.2869 77.825 67.9682 78.1072 68.6786 78.1072V78.1072Z" fill="#C93112"/>
<rect opacity="0.5" x="25.25" y="31.25" width="29.2297" height="49.5" stroke="#C93112" stroke-width="0.5"/>
<path d="M35.1713 33.027C34.8197 33.0278 34.4745 33.1221 34.1713 33.3003C33.8681 33.4785 33.6178 33.7341 33.4459 34.041C33.2306 33.658 32.8944 33.3573 32.4899 33.1859C32.0853 33.0145 31.6354 32.9821 31.2105 33.0938C30.7856 33.2055 30.4097 33.455 30.1418 33.8031C29.8738 34.1513 29.7289 34.5785 29.7297 35.0178C29.7297 37.2157 32.862 38.3969 33.4459 39.7958C34.0299 38.3969 37.1622 37.2157 37.1622 35.0178C37.1622 34.4898 36.9524 33.9834 36.5791 33.6101C36.2057 33.2367 35.6993 33.027 35.1713 33.027V33.027Z" fill="#C93112"/>
<path d="M47.3335 33.027C46.9818 33.0278 46.6367 33.1221 46.3335 33.3003C46.0303 33.4785 45.7799 33.7341 45.6081 34.041C45.3928 33.658 45.0565 33.3573 44.652 33.1859C44.2475 33.0145 43.7975 32.9821 43.3727 33.0938C42.9478 33.2055 42.5719 33.455 42.3039 33.8031C42.036 34.1513 41.8911 34.5785 41.8919 35.0178C41.8919 37.2157 45.0241 38.3969 45.6081 39.7958C46.1921 38.3969 49.3243 37.2157 49.3243 35.0178C49.3243 34.4898 49.1146 33.9834 48.7412 33.6101C48.3679 33.2367 47.8615 33.027 47.3335 33.027V33.027Z" fill="#C93112"/>
<path d="M35.1713 58.7028C34.8197 58.7036 34.4745 58.7979 34.1713 58.9761C33.8681 59.1543 33.6178 59.4099 33.4459 59.7168C33.2306 59.3338 32.8944 59.0331 32.4899 58.8617C32.0853 58.6903 31.6354 58.6579 31.2105 58.7696C30.7856 58.8813 30.4097 59.1307 30.1418 59.4789C29.8738 59.8271 29.7289 60.2543 29.7297 60.6936C29.7297 62.8915 32.862 64.0727 33.4459 65.4716C34.0299 64.0727 37.1622 62.8915 37.1622 60.6936C37.1622 60.1656 36.9524 59.6592 36.5791 59.2859C36.2057 58.9125 35.6993 58.7028 35.1713 58.7028V58.7028Z" fill="#C93112"/>
<path d="M47.3335 58.7028C46.9818 58.7036 46.6367 58.7979 46.3335 58.9761C46.0303 59.1543 45.7799 59.4099 45.6081 59.7168C45.3928 59.3338 45.0565 59.0331 44.652 58.8617C44.2475 58.6903 43.7975 58.6579 43.3727 58.7696C42.9478 58.8813 42.5719 59.1307 42.3039 59.4789C42.036 59.8271 41.8911 60.2543 41.8919 60.6936C41.8919 62.8915 45.0241 64.0727 45.6081 65.4716C46.1921 64.0727 49.3243 62.8915 49.3243 60.6936C49.3243 60.1656 49.1146 59.6592 48.7412 59.2859C48.3679 58.9125 47.8615 58.7028 47.3335 58.7028V58.7028Z" fill="#C93112"/>
<path d="M35.1713 78.3093C34.8197 78.3085 34.4745 78.2142 34.1713 78.036C33.8681 77.8578 33.6178 77.6022 33.4459 77.2953C33.2306 77.6783 32.8944 77.979 32.4899 78.1504C32.0853 78.3218 31.6354 78.3542 31.2105 78.2425C30.7856 78.1308 30.4097 77.8813 30.1418 77.5332C29.8738 77.185 29.7289 76.7578 29.7297 76.3185C29.7297 74.1206 32.862 72.9394 33.4459 71.5405C34.0299 72.9394 37.1622 74.1206 37.1622 76.3185C37.1622 76.8465 36.9524 77.3529 36.5791 77.7262C36.2057 78.0996 35.6993 78.3093 35.1713 78.3093V78.3093Z" fill="#C93112"/>
<path d="M47.3335 78.3093C46.9818 78.3085 46.6367 78.2142 46.3335 78.036C46.0303 77.8578 45.7799 77.6022 45.6081 77.2953C45.3928 77.6783 45.0565 77.979 44.652 78.1504C44.2475 78.3218 43.7975 78.3542 43.3727 78.2425C42.9478 78.1308 42.5719 77.8813 42.3039 77.5332C42.036 77.185 41.8911 76.7578 41.8919 76.3185C41.8919 74.1206 45.0241 72.9394 45.6081 71.5405C46.1921 72.9394 49.3243 74.1206 49.3243 76.3185C49.3243 76.8465 49.1146 77.3529 48.7412 77.7262C48.3679 78.0996 47.8615 78.3093 47.3335 78.3093V78.3093Z" fill="#C93112"/>
<path d="M35.1713 45.8649C34.8197 45.8657 34.4745 45.96 34.1713 46.1382C33.8681 46.3164 33.6178 46.572 33.4459 46.8789C33.2306 46.4959 32.8944 46.1952 32.4899 46.0238C32.0853 45.8524 31.6354 45.82 31.2105 45.9317C30.7856 46.0434 30.4097 46.2928 30.1418 46.641C29.8738 46.9892 29.7289 47.4164 29.7297 47.8557C29.7297 50.0536 32.862 51.2348 33.4459 52.6337C34.0299 51.2348 37.1622 50.0536 37.1622 47.8557C37.1622 47.3277 36.9524 46.8213 36.5791 46.448C36.2057 46.0746 35.6993 45.8649 35.1713 45.8649V45.8649Z" fill="#C93112"/>
<path d="M47.3335 45.8649C46.9818 45.8657 46.6367 45.96 46.3335 46.1382C46.0303 46.3164 45.7799 46.572 45.6081 46.8789C45.3928 46.4959 45.0565 46.1952 44.652 46.0238C44.2475 45.8524 43.7975 45.82 43.3727 45.9317C42.9478 46.0434 42.5719 46.2928 42.3039 46.641C42.036 46.9892 41.8911 47.4164 41.8919 47.8557C41.8919 50.0536 45.0241 51.2348 45.6081 52.6337C46.1921 51.2348 49.3243 50.0536 49.3243 47.8557C49.3243 47.3277 49.1146 46.8213 48.7412 46.448C48.3679 46.0746 47.8615 45.8649 47.3335 45.8649V45.8649Z" fill="#C93112"/>
<path d="M41.2524 52.6216C40.9007 52.6224 40.5556 52.7168 40.2524 52.8949C39.9492 53.0731 39.6989 53.3287 39.527 53.6356C39.3117 53.2526 38.9755 52.9519 38.5709 52.7805C38.1664 52.6091 37.7165 52.5767 37.2916 52.6884C36.8667 52.8001 36.4908 53.0496 36.2229 53.3977C35.9549 53.7459 35.81 54.1731 35.8108 54.6124C35.8108 56.8103 38.9431 57.9915 39.527 59.3904C40.111 57.9915 43.2432 56.8103 43.2432 54.6124C43.2432 54.0844 43.0335 53.578 42.6601 53.2047C42.2868 52.8313 41.7804 52.6216 41.2524 52.6216V52.6216Z" fill="#C93112"/>
</g>
<rect x="0.5" y="0.5" width="79" height="111" rx="4.5" stroke="#DADADA"/>
<defs>
<clipPath id="clip0_276_1403">
<rect width="80" height="112" rx="5" fill="white"/>
</clipPath>
</defs>
</svg>
