<svg width="80" height="112" viewBox="0 0 80 112" fill="none" xmlns="http://www.w3.org/2000/svg">
<g clip-path="url(#clip0_276_1052)">
<path d="M75 0H5C2.23858 0 0 2.23858 0 5V107C0 109.761 2.23858 112 5 112H75C77.7614 112 80 109.761 80 107V5C80 2.23858 77.7614 0 75 0Z" fill="white"/>
<path d="M17.0099 7.87077H12.3738C11.5782 7.87077 10.8376 7.87077 10.1792 7.87077C9.63462 7.90015 9.09333 7.974 8.56066 8.0916C8.31343 8.12718 8.07826 8.22183 7.87485 8.36763C7.68238 8.52591 7.53948 8.7368 7.46336 8.97491L6.3112 12.6462H4.06173C3.97942 11.3317 3.97942 10.0133 4.06173 8.69887C4.13391 7.45947 4.27127 6.22478 4.47322 5H18.9301L20 7.3463C17.9828 9.98962 16.3138 12.8844 15.0347 15.9586C13.6201 19.4793 12.7861 23.2089 12.5658 27H8.78012L8.03944 26.4479C8.18799 24.6746 8.53774 22.9242 9.08188 21.2309C9.60644 19.5199 10.2764 17.8575 11.0844 16.2622C11.8816 14.6932 12.7988 13.1889 13.8277 11.7629C14.7693 10.3714 15.8344 9.0687 17.0099 7.87077Z" fill="#C93112"/>
<path d="M62.9679 104.046H67.6784C68.468 104.046 69.2032 104.046 69.8567 104.046C70.3884 104.019 70.9168 103.946 71.4359 103.826C71.6908 103.794 71.934 103.7 72.1439 103.55C72.3343 103.396 72.4685 103.182 72.525 102.942L73.6959 99.3538H75.9286C76.0238 100.668 76.0238 101.987 75.9286 103.301C75.9286 104.626 75.7108 105.868 75.5474 107H61.0347L60 104.654C61.9927 102.009 63.64 99.1141 64.9011 96.0414C66.3052 92.5207 67.133 88.7911 67.3517 85H71.1364L71.7899 85.8005C71.6292 87.5719 71.2823 89.3209 70.7552 91.0176C70.237 92.7335 69.5625 94.3969 68.7403 95.9862C67.9496 97.5556 67.0392 99.0599 66.0175 100.486C65.0949 101.752 64.0752 102.943 62.9679 104.046Z" fill="#C93112"/>
<path d="M11.3214 34C10.8483 34.0011 10.3839 34.128 9.97597 34.3678C9.56804 34.6075 9.2312 34.9514 9 35.3643C8.7103 34.849 8.25788 34.4444 7.71362 34.2138C7.16935 33.9832 6.56398 33.9397 5.99229 34.0899C5.42061 34.2402 4.91491 34.5758 4.55439 35.0443C4.19388 35.5127 3.9989 36.0875 4 36.6786C4 39.6357 8.21429 41.225 9 43.1071C9.78572 41.225 14 39.6357 14 36.6786C14 35.9682 13.7178 35.2869 13.2155 34.7845C12.7131 34.2822 12.0318 34 11.3214 34V34Z" fill="#C93112"/>
<path d="M68.6786 78.1072C69.1517 78.1061 69.6161 77.9791 70.024 77.7394C70.432 77.4997 70.7688 77.1557 71 76.7429C71.2897 77.2581 71.7421 77.6627 72.2864 77.8933C72.8306 78.1239 73.436 78.1675 74.0077 78.0173C74.5794 77.867 75.0851 77.5313 75.4456 77.0629C75.8061 76.5945 76.0011 76.0197 76 75.4286C76 72.4715 71.7857 70.8822 71 69C70.2143 70.8822 66 72.4715 66 75.4286C66 76.139 66.2822 76.8203 66.7845 77.3226C67.2869 77.825 67.9682 78.1072 68.6786 78.1072V78.1072Z" fill="#C93112"/>
<rect opacity="0.5" x="25.25" y="31.25" width="29.2297" height="49.5" stroke="#C93112" stroke-width="0.5"/>
<path d="M34.6284 35.0541C34.1808 35.0551 33.7415 35.1752 33.3556 35.402C32.9698 35.6288 32.6511 35.9541 32.4324 36.3446C32.1584 35.8572 31.7304 35.4745 31.2156 35.2564C30.7007 35.0382 30.1281 34.997 29.5873 35.1391C29.0465 35.2813 28.5682 35.5988 28.2271 36.0419C27.8861 36.485 27.7017 37.0287 27.7027 37.5879C27.7027 40.3852 31.6892 41.8885 32.4324 43.6689C33.1757 41.8885 37.1622 40.3852 37.1622 37.5879C37.1622 36.9159 36.8952 36.2714 36.42 35.7962C35.9449 35.321 35.3004 35.0541 34.6284 35.0541V35.0541Z" fill="#C93112"/>
<path d="M34.6284 51.9459C34.1808 51.947 33.7415 52.067 33.3556 52.2938C32.9698 52.5206 32.6511 52.8459 32.4324 53.2365C32.1584 52.7491 31.7304 52.3663 31.2156 52.1482C30.7007 51.9301 30.1281 51.8888 29.5873 52.031C29.0465 52.1731 28.5682 52.4906 28.2271 52.9337C27.8861 53.3768 27.7017 53.9206 27.7027 54.4797C27.7027 57.277 31.6892 58.7804 32.4324 60.5608C33.1757 58.7804 37.1622 57.277 37.1622 54.4797C37.1622 53.8077 36.8952 53.1632 36.42 52.6881C35.9449 52.2129 35.3004 51.9459 34.6284 51.9459V51.9459Z" fill="#C93112"/>
<path d="M34.6284 76.777C34.1808 76.7759 33.7415 76.6559 33.3556 76.4291C32.9698 76.2023 32.6511 75.877 32.4324 75.4864C32.1584 75.9738 31.7304 76.3566 31.2156 76.5747C30.7007 76.7928 30.1281 76.8341 29.5873 76.6919C29.0465 76.5498 28.5682 76.2323 28.2271 75.7892C27.8861 75.3461 27.7017 74.8023 27.7027 74.2432C27.7027 71.4459 31.6892 69.9425 32.4324 68.1621C33.1757 69.9425 37.1622 71.4459 37.1622 74.2432C37.1622 74.9152 36.8952 75.5597 36.42 76.0348C35.9449 76.51 35.3004 76.777 34.6284 76.777V76.777Z" fill="#C93112"/>
<path d="M49.4932 35.0541C49.0457 35.0551 48.6064 35.1752 48.2205 35.402C47.8346 35.6288 47.516 35.9541 47.2973 36.3446C47.0233 35.8572 46.5953 35.4745 46.0804 35.2564C45.5656 35.0382 44.9929 34.997 44.4522 35.1391C43.9114 35.2813 43.433 35.5988 43.092 36.0419C42.751 36.485 42.5665 37.0287 42.5676 37.5879C42.5676 40.3852 46.5541 41.8885 47.2973 43.6689C48.0405 41.8885 52.027 40.3852 52.027 37.5879C52.027 36.9159 51.7601 36.2714 51.2849 35.7962C50.8097 35.321 50.1652 35.0541 49.4932 35.0541V35.0541Z" fill="#C93112"/>
<path d="M49.4932 51.9459C49.0457 51.947 48.6064 52.067 48.2205 52.2938C47.8346 52.5206 47.516 52.8459 47.2973 53.2365C47.0233 52.7491 46.5953 52.3663 46.0804 52.1482C45.5656 51.9301 44.9929 51.8888 44.4522 52.031C43.9114 52.1731 43.433 52.4906 43.092 52.9337C42.751 53.3768 42.5665 53.9206 42.5676 54.4797C42.5676 57.277 46.5541 58.7804 47.2973 60.5608C48.0405 58.7804 52.027 57.277 52.027 54.4797C52.027 53.8077 51.7601 53.1632 51.2849 52.6881C50.8097 52.2129 50.1652 51.9459 49.4932 51.9459V51.9459Z" fill="#C93112"/>
<path d="M49.4932 76.777C49.0457 76.7759 48.6064 76.6559 48.2205 76.4291C47.8346 76.2023 47.516 75.877 47.2973 75.4864C47.0233 75.9738 46.5953 76.3566 46.0804 76.5747C45.5656 76.7928 44.9929 76.8341 44.4522 76.6919C43.9114 76.5498 43.433 76.2323 43.092 75.7892C42.751 75.3461 42.5665 74.8023 42.5676 74.2432C42.5676 71.4459 46.5541 69.9425 47.2973 68.1621C48.0405 69.9425 52.027 71.4459 52.027 74.2432C52.027 74.9152 51.7601 75.5597 51.2849 76.0348C50.8097 76.51 50.1652 76.777 49.4932 76.777V76.777Z" fill="#C93112"/>
<path d="M42.0608 43.1621C41.6132 43.1632 41.174 43.2832 40.7881 43.51C40.4022 43.7368 40.0836 44.0621 39.8649 44.4526C39.5908 43.9653 39.1629 43.5825 38.648 43.3644C38.1332 43.1462 37.5605 43.105 37.0197 43.2472C36.479 43.3893 36.0006 43.7068 35.6596 44.1499C35.3185 44.593 35.1341 45.1367 35.1351 45.6959C35.1351 48.4932 39.1216 49.9966 39.8649 51.777C40.6081 49.9966 44.5946 48.4932 44.5946 45.6959C44.5946 45.0239 44.3276 44.3794 43.8525 43.9042C43.3773 43.4291 42.7328 43.1621 42.0608 43.1621V43.1621Z" fill="#C93112"/>
</g>
<rect x="0.5" y="0.5" width="79" height="111" rx="4.5" stroke="#DADADA"/>
<defs>
<clipPath id="clip0_276_1052">
<rect width="80" height="112" rx="5" fill="white"/>
</clipPath>
</defs>
</svg>
