<svg width="80" height="112" viewBox="0 0 80 112" fill="none" xmlns="http://www.w3.org/2000/svg">
<g clip-path="url(#clip0_276_900)">
<path d="M75 0H5C2.23858 0 0 2.23858 0 5V107C0 109.761 2.23858 112 5 112H75C77.7614 112 80 109.761 80 107V5C80 2.23858 77.7614 0 75 0Z" fill="white"/>
<path d="M19.9987 18.749C20.0113 19.7311 19.824 20.7061 19.4473 21.6194C19.0978 22.4758 18.5708 23.2553 17.8981 23.9108C17.1883 24.5789 16.3378 25.094 15.4037 25.4215C13.2714 26.1928 10.9191 26.1928 8.78678 25.4215C7.77441 25.0367 6.87371 24.4234 6.16103 23.6338C5.40943 22.7813 4.85461 21.7859 4.53307 20.713C4.13635 19.4053 3.95908 18.0454 4.00792 16.6843C3.99445 15.0774 4.25158 13.4789 4.76939 11.9506C5.21413 10.6035 5.91767 9.34817 6.84373 8.24919C7.73154 7.24158 8.83238 6.42625 10.0734 5.85716C11.3796 5.27274 12.8071 4.98003 14.2483 5.00106C15.088 5.00331 15.9248 5.09621 16.7428 5.27803C17.4971 5.45816 18.2217 5.7378 18.8959 6.10895L18.2657 7.8715C17.7578 7.66997 17.23 7.51812 16.6903 7.41828C16.2139 7.33608 15.7299 7.30232 15.2461 7.31756C14.381 7.29594 13.5215 7.45603 12.7277 7.7866C11.9339 8.11716 11.2251 8.61022 10.6511 9.23119C9.41046 10.6624 8.6426 12.4156 8.44543 14.2671C9.07096 13.6314 9.85823 13.1628 10.7298 12.9074C11.6648 12.586 12.6512 12.4241 13.6444 12.429C14.5416 12.4199 15.4325 12.5737 16.2702 12.8822C17.0213 13.1839 17.7003 13.6295 18.2657 14.1915C18.8293 14.7606 19.2591 15.4389 19.5261 16.1807C19.8556 16.9993 20.0162 17.8716 19.9987 18.749ZM12.3841 24.0367C12.9005 24.0605 13.4144 23.9546 13.875 23.7293C14.3355 23.5041 14.7267 23.1674 15.0098 22.7525C15.6575 21.7491 15.9776 20.5828 15.9288 19.4036C16.0071 18.2029 15.6345 17.0149 14.8785 16.0548C14.5445 15.6614 14.1183 15.3492 13.6346 15.1435C13.151 14.9379 12.6235 14.8446 12.0952 14.8714C11.4467 14.8861 10.8027 14.9791 10.1784 15.1483C9.51713 15.3003 8.8929 15.5739 8.3404 15.9541V17.3893C8.34247 18.3265 8.43033 19.2617 8.60298 20.1842C8.75685 20.9302 9.02215 21.6511 9.3907 22.3245C9.69567 22.8649 10.1271 23.3303 10.6511 23.6841C11.1784 23.9666 11.7825 24.0895 12.3841 24.0367Z" fill="#C93112"/>
<path d="M60.0135 91.9153C60.0165 90.8412 60.2029 89.7764 60.5638 88.7717C60.912 87.8269 61.448 86.9713 62.1358 86.2623C62.8398 85.5314 63.6778 84.9591 64.5988 84.5801C65.6482 84.1801 66.7579 83.9839 67.8739 84.001C69.0222 83.9886 70.1617 84.2135 71.2277 84.6629C72.2341 85.0918 73.1313 85.7622 73.8478 86.6208C74.5884 87.5611 75.1409 88.6491 75.4723 89.8195C75.8515 91.1987 76.0282 92.6308 75.9963 94.0662C76.0182 95.8246 75.7705 97.5752 75.2627 99.2505C74.8189 100.726 74.1169 102.101 73.1928 103.304C72.3285 104.466 71.2271 105.408 69.97 106.062C68.6624 106.689 67.2409 107.009 65.804 106.999C64.9223 107.009 64.0425 106.907 63.1839 106.696C62.4312 106.499 61.7081 106.192 61.0354 105.786L61.6642 103.883C62.1704 104.099 62.6976 104.257 63.2363 104.352C63.6926 104.457 64.1579 104.512 64.625 104.517C65.4921 104.541 66.3538 104.366 67.1501 104.005C67.9465 103.643 68.6584 103.102 69.2364 102.422C70.4747 100.857 71.233 98.9341 71.4111 96.9065C70.7998 97.6057 70.0217 98.1199 69.1578 98.3956C68.2248 98.7476 67.2405 98.925 66.2495 98.9196C65.3539 98.9322 64.4645 98.7637 63.6293 98.4232C62.8798 98.0928 62.2022 97.6048 61.638 96.9893C61.0765 96.3603 60.64 95.6197 60.3542 94.8108C60.0735 93.8757 59.958 92.8943 60.0135 91.9153ZM67.6381 86.1244C67.1224 86.0954 66.6086 86.2102 66.1486 86.4572C65.6885 86.7041 65.2985 87.0744 65.018 87.5308C64.3716 88.6297 64.0523 89.9069 64.1009 91.1983C64.066 92.4481 64.4355 93.6732 65.149 94.6729C65.4659 95.0833 65.8652 95.4148 66.3182 95.6436C66.7712 95.8725 67.2667 95.993 67.7691 95.9966C68.4249 95.981 69.0763 95.8791 69.708 95.6932C70.3587 95.5235 70.9725 95.2239 71.5159 94.8108V93.3493C71.523 92.3236 71.4441 91.2994 71.2801 90.2884C71.1266 89.4713 70.8618 88.6818 70.4941 87.9444C70.1898 87.3524 69.7593 86.8428 69.2364 86.4553C68.7496 86.1633 68.1984 86.0112 67.6381 86.0141V86.1244Z" fill="#C93112"/>
<path d="M11.3214 34C10.8483 34.0011 10.3839 34.128 9.97597 34.3678C9.56804 34.6075 9.2312 34.9514 9 35.3643C8.7103 34.849 8.25788 34.4444 7.71362 34.2138C7.16935 33.9832 6.56398 33.9397 5.99229 34.0899C5.42061 34.2402 4.91491 34.5758 4.55439 35.0443C4.19388 35.5127 3.9989 36.0875 4 36.6786C4 39.6357 8.21429 41.225 9 43.1071C9.78572 41.225 14 39.6357 14 36.6786C14 35.9682 13.7178 35.2869 13.2155 34.7845C12.7131 34.2822 12.0318 34 11.3214 34V34Z" fill="#C93112"/>
<path d="M68.6786 78.1072C69.1517 78.1061 69.6161 77.9791 70.024 77.7394C70.432 77.4997 70.7688 77.1557 71 76.7429C71.2897 77.2581 71.7421 77.6627 72.2864 77.8933C72.8306 78.1239 73.436 78.1675 74.0077 78.0173C74.5794 77.867 75.0851 77.5313 75.4456 77.0629C75.8061 76.5945 76.0011 76.0197 76 75.4286C76 72.4715 71.7857 70.8822 71 69C70.2143 70.8822 66 72.4715 66 75.4286C66 76.139 66.2822 76.8203 66.7845 77.3226C67.2869 77.825 67.9682 78.1072 68.6786 78.1072V78.1072Z" fill="#C93112"/>
<rect opacity="0.5" x="25.25" y="31.25" width="29.2297" height="49.5" stroke="#C93112" stroke-width="0.5"/>
<path d="M35.9831 37.7567C35.4916 37.7579 35.0093 37.8897 34.5855 38.1387C34.1618 38.3877 33.812 38.745 33.5718 39.1738C33.2709 38.6386 32.801 38.2183 32.2357 37.9788C31.6704 37.7393 31.0416 37.694 30.4478 37.8501C29.854 38.0062 29.3287 38.3548 28.9542 38.8414C28.5798 39.3279 28.3772 39.9249 28.3784 40.5389C28.3784 43.6104 32.7557 45.2612 33.5718 47.2162C34.3879 45.2612 38.7652 43.6104 38.7652 40.5389C38.7652 39.801 38.4721 39.0934 37.9504 38.5716C37.4286 38.0498 36.7209 37.7567 35.9831 37.7567V37.7567Z" fill="#C93112"/>
<path d="M35.9831 74.2433C35.4916 74.2421 35.0093 74.1103 34.5855 73.8613C34.1618 73.6123 33.812 73.255 33.5718 72.8262C33.2709 73.3614 32.801 73.7817 32.2357 74.0212C31.6704 74.2607 31.0416 74.306 30.4478 74.1499C29.854 73.9938 29.3287 73.6452 28.9542 73.1586C28.5798 72.6721 28.3772 72.0751 28.3784 71.4611C28.3784 68.3896 32.7557 66.7388 33.5718 64.7838C34.3879 66.7388 38.7652 68.3896 38.7652 71.4611C38.7652 72.199 38.4721 72.9066 37.9504 73.4284C37.4286 73.9502 36.7209 74.2433 35.9831 74.2433V74.2433Z" fill="#C93112"/>
<path d="M48.8209 37.7567C48.3294 37.7579 47.8471 37.8897 47.4234 38.1387C46.9997 38.3877 46.6498 38.745 46.4097 39.1738C46.1087 38.6386 45.6388 38.2183 45.0735 37.9788C44.5082 37.7393 43.8794 37.694 43.2856 37.8501C42.6918 38.0062 42.1665 38.3548 41.7921 38.8414C41.4176 39.3279 41.2151 39.9249 41.2162 40.5389C41.2162 43.6104 45.5935 45.2612 46.4097 47.2162C47.2258 45.2612 51.6031 43.6104 51.6031 40.5389C51.6031 39.801 51.31 39.0934 50.7882 38.5716C50.2664 38.0498 49.5588 37.7567 48.8209 37.7567V37.7567Z" fill="#C93112"/>
<path d="M48.8209 51.2703C48.3294 51.2714 47.8471 51.4033 47.4234 51.6523C46.9997 51.9013 46.6498 52.2585 46.4097 52.6873C46.1087 52.1522 45.6388 51.7319 45.0735 51.4924C44.5082 51.2528 43.8794 51.2076 43.2856 51.3637C42.6918 51.5197 42.1665 51.8684 41.7921 52.3549C41.4176 52.8415 41.2151 53.4385 41.2162 54.0525C41.2162 57.124 45.5935 58.7748 46.4097 60.7297C47.2258 58.7748 51.6031 57.124 51.6031 54.0525C51.6031 53.3146 51.31 52.6069 50.7882 52.0851C50.2664 51.5634 49.5588 51.2703 48.8209 51.2703V51.2703Z" fill="#C93112"/>
<path d="M35.9831 51.2703C35.4916 51.2714 35.0093 51.4033 34.5855 51.6523C34.1618 51.9013 33.812 52.2585 33.5718 52.6873C33.2709 52.1522 32.801 51.7319 32.2357 51.4924C31.6704 51.2528 31.0416 51.2076 30.4478 51.3637C29.854 51.5197 29.3287 51.8684 28.9542 52.3549C28.5798 52.8415 28.3772 53.4385 28.3784 54.0525C28.3784 57.124 32.7557 58.7748 33.5718 60.7297C34.3879 58.7748 38.7652 57.124 38.7652 54.0525C38.7652 53.3146 38.4721 52.6069 37.9504 52.0851C37.4286 51.5634 36.7209 51.2703 35.9831 51.2703V51.2703Z" fill="#C93112"/>
<path d="M48.8209 74.2433C48.3294 74.2421 47.8471 74.1103 47.4234 73.8613C46.9997 73.6123 46.6498 73.255 46.4097 72.8262C46.1087 73.3614 45.6388 73.7817 45.0735 74.0212C44.5082 74.2607 43.8794 74.306 43.2856 74.1499C42.6918 73.9938 42.1665 73.6452 41.7921 73.1586C41.4176 72.6721 41.2151 72.0751 41.2162 71.4611C41.2162 68.3896 45.5935 66.7388 46.4097 64.7838C47.2258 66.7388 51.6031 68.3896 51.6031 71.4611C51.6031 72.199 51.31 72.9066 50.7882 73.4284C50.2664 73.9502 49.5588 74.2433 48.8209 74.2433V74.2433Z" fill="#C93112"/>
</g>
<rect x="0.5" y="0.5" width="79" height="111" rx="4.5" stroke="#DADADA"/>
<defs>
<clipPath id="clip0_276_900">
<rect width="80" height="112" rx="5" fill="white"/>
</clipPath>
</defs>
</svg>
