<svg width="80" height="112" viewBox="0 0 80 112" fill="none" xmlns="http://www.w3.org/2000/svg">
<g clip-path="url(#clip0_276_1599)">
<path d="M75 0H5C2.23858 0 0 2.23858 0 5V107C0 109.761 2.23858 112 5 112H75C77.7614 112 80 109.761 80 107V5C80 2.23858 77.7614 0 75 0Z" fill="white"/>
<path d="M8.5096 5.54406V25.1304C8.5016 25.3716 8.55064 25.6083 8.64606 25.789C8.74524 25.9647 8.87808 26.0763 9.02132 26.104L11.0341 26.6481V28.5666H3.10235V26.6481L5.40512 26.104C5.55727 26.0701 5.69987 25.9604 5.8145 25.789C5.87147 25.7091 5.91656 25.6079 5.94617 25.4936C5.97578 25.3793 5.9891 25.2549 5.98507 25.1304V9.69615L5.42218 9.95386L4.6887 10.2402L3.92111 10.4693H3.23881L3 8.4362C3.3831 8.27968 3.75926 8.07876 4.1258 7.83487C4.51812 7.60579 4.89339 7.31944 5.26866 7.03309C5.64392 6.74674 5.98507 6.40312 6.30917 6.0595C6.60822 5.74111 6.89325 5.38703 7.16205 5L8.5096 5.54406Z" fill="#C93112"/>
<path d="M17.9424 28.9962C17.0781 29.0395 16.2213 28.7144 15.452 28.0512C14.763 27.4866 14.1747 26.6274 13.7463 25.56C13.3319 24.4115 13.0377 23.1525 12.8763 21.8374C12.7019 20.3473 12.6162 18.8317 12.6205 17.3131C12.6069 15.5066 12.7389 13.7054 13.0128 11.9583C13.241 10.5893 13.6231 9.30629 14.1386 8.17849C14.5934 7.20985 15.1778 6.43484 15.8444 5.91632C16.5686 5.41208 17.3461 5.15883 18.1301 5.17181C18.9924 5.13053 19.8475 5.44517 20.6205 6.08813C21.2734 6.67393 21.8255 7.53184 22.2239 8.57938C22.6527 9.71565 22.948 10.9792 23.0938 12.3019C23.3439 13.779 23.5039 15.2949 23.5714 16.8263C23.5622 18.6211 23.4014 20.4047 23.0938 22.1238C22.8799 23.5019 22.4964 24.7895 21.968 25.9036C21.5146 26.8745 20.9299 27.65 20.2623 28.1658C19.5312 28.7071 18.7415 28.9898 17.9424 28.9962ZM17.9424 7.34807C17.5305 7.334 17.1269 7.54389 16.7918 7.94641C16.4567 8.34893 16.2082 8.92252 16.0832 9.58161C15.6831 11.7873 15.5213 14.0954 15.6055 16.3967C15.5546 18.9865 15.7386 21.5742 16.1514 24.0709C16.2355 24.8724 16.485 25.5986 16.8562 26.1222C17.2273 26.6458 17.6964 26.9333 18.1812 26.9344C18.5953 26.9467 19.0006 26.7326 19.3359 26.3246C19.6713 25.9166 19.9185 25.3367 20.0405 24.6723C20.4808 22.4798 20.6717 20.168 20.6034 17.8571C20.6602 15.2745 20.4702 12.6933 20.0405 10.2116C19.9629 9.40505 19.7152 8.67221 19.3426 8.1466C18.97 7.62099 18.4973 7.3376 18.0107 7.34807H17.9424Z" fill="#C93112"/>
<path d="M71.4612 106.455V86.8477C71.4716 86.6018 71.4292 86.3578 71.3419 86.1598C71.23 86.0037 71.0941 85.9043 70.9499 85.8731L68.9559 85.3284V83.4078H76.8807V85.3284L74.58 85.8731C74.428 85.9071 74.2855 86.0169 74.171 86.1884C74.119 86.2737 74.0785 86.3766 74.052 86.4903C74.0256 86.604 74.0138 86.7258 74.0176 86.8477V102.299L74.58 102.041L75.2958 101.754L76.0797 101.525H76.7614L77 103.56C76.611 103.712 76.2293 103.913 75.8582 104.162C75.4832 104.391 75.0912 104.678 74.7333 104.965C74.3774 105.26 74.0304 105.585 73.6938 105.939C73.3699 106.312 73.0802 106.656 72.8246 107L71.4612 106.455Z" fill="#C93112"/>
<path d="M62.0367 83.0066C62.9046 82.9495 63.7668 83.2652 64.542 83.9239C65.1943 84.5104 65.746 85.3692 66.1439 86.4179C66.5724 87.5554 66.8675 88.8203 67.0131 90.1444C67.1874 91.6362 67.273 93.1534 67.2688 94.6737C67.2924 96.483 67.1603 98.2885 66.8768 100.034C66.6631 101.414 66.2799 102.703 65.752 103.818C65.299 104.79 64.7148 105.566 64.0477 106.083C63.3237 106.585 62.5472 106.839 61.764 106.828C60.9023 106.873 60.0474 106.558 59.2758 105.911C58.6186 105.325 58.0613 104.467 57.6568 103.417C57.2283 102.279 56.9333 101.014 56.7876 99.6902C56.5781 98.2046 56.4582 96.6871 56.4297 95.161C56.4146 93.343 56.5465 91.53 56.8217 89.7718C57.0497 88.4013 57.4315 87.1169 57.9465 85.9879C58.3971 85.0119 58.982 84.2347 59.6508 83.7233C60.4064 83.1999 61.2201 82.9555 62.0367 83.0066ZM62.0367 104.649C62.4489 104.668 62.8535 104.46 63.1888 104.056C63.5242 103.653 63.7719 103.076 63.8943 102.413C64.333 100.218 64.5238 97.9042 64.4567 95.591C64.5121 92.9962 64.3223 90.4032 63.8943 87.9085C63.7958 87.13 63.5398 86.4331 63.17 85.9365C62.8002 85.4399 62.3394 85.1744 61.8663 85.1853C61.4541 85.1698 61.0505 85.3833 60.7177 85.7927C60.385 86.2021 60.1418 86.7845 60.0257 87.4499C59.5711 89.6011 59.3573 91.8754 59.3951 94.1577C59.3427 96.7409 59.5267 99.3223 59.9405 101.811C60.025 102.611 60.2749 103.335 60.6461 103.854C61.0173 104.373 61.4857 104.655 61.9685 104.649H62.0367Z" fill="#C93112"/>
<path d="M11.3214 34C10.8483 34.0011 10.3839 34.128 9.97597 34.3678C9.56804 34.6075 9.2312 34.9514 9 35.3643C8.7103 34.849 8.25788 34.4444 7.71362 34.2138C7.16935 33.9832 6.56398 33.9397 5.99229 34.0899C5.42061 34.2402 4.91491 34.5758 4.55439 35.0443C4.19388 35.5127 3.9989 36.0875 4 36.6786C4 39.6357 8.21429 41.225 9 43.1071C9.78572 41.225 14 39.6357 14 36.6786C14 35.9682 13.7178 35.2869 13.2155 34.7845C12.7131 34.2822 12.0318 34 11.3214 34V34Z" fill="#C93112"/>
<path d="M68.6786 78.1072C69.1517 78.1061 69.6161 77.9791 70.024 77.7394C70.432 77.4997 70.7688 77.1557 71 76.7429C71.2897 77.2581 71.7421 77.6627 72.2864 77.8933C72.8306 78.1239 73.436 78.1675 74.0077 78.0173C74.5794 77.867 75.0851 77.5313 75.4456 77.0629C75.8061 76.5945 76.0011 76.0197 76 75.4286C76 72.4715 71.7857 70.8822 71 69C70.2143 70.8822 66 72.4715 66 75.4286C66 76.139 66.2822 76.8203 66.7845 77.3226C67.2869 77.825 67.9682 78.1072 68.6786 78.1072V78.1072Z" fill="#C93112"/>
<rect opacity="0.5" x="25.25" y="31.25" width="29.2297" height="49.5" stroke="#C93112" stroke-width="0.5"/>
<path d="M35.1713 33.027C34.8197 33.0278 34.4745 33.1221 34.1713 33.3003C33.8681 33.4785 33.6178 33.7341 33.446 34.041C33.2306 33.658 32.8944 33.3573 32.4899 33.1859C32.0853 33.0145 31.6354 32.9821 31.2105 33.0938C30.7856 33.2055 30.4097 33.455 30.1418 33.8031C29.8738 34.1513 29.7289 34.5785 29.7297 35.0178C29.7297 37.2157 32.862 38.3969 33.446 39.7958C34.0299 38.3969 37.1622 37.2157 37.1622 35.0178C37.1622 34.4898 36.9524 33.9834 36.5791 33.6101C36.2057 33.2367 35.6993 33.027 35.1713 33.027V33.027Z" fill="#C93112"/>
<path d="M47.3335 33.027C46.9818 33.0278 46.6367 33.1221 46.3335 33.3003C46.0303 33.4785 45.7799 33.7341 45.6081 34.041C45.3928 33.658 45.0565 33.3573 44.652 33.1859C44.2475 33.0145 43.7975 32.9821 43.3727 33.0938C42.9478 33.2055 42.5719 33.455 42.3039 33.8031C42.036 34.1513 41.8911 34.5785 41.8919 35.0178C41.8919 37.2157 45.0241 38.3969 45.6081 39.7958C46.1921 38.3969 49.3243 37.2157 49.3243 35.0178C49.3243 34.4898 49.1146 33.9834 48.7412 33.6101C48.3679 33.2367 47.8615 33.027 47.3335 33.027V33.027Z" fill="#C93112"/>
<path d="M35.1713 65.4716C34.8197 65.4707 34.4745 65.3764 34.1713 65.1982C33.8681 65.02 33.6178 64.7644 33.446 64.4576C33.2306 64.8405 32.8944 65.1412 32.4899 65.3126C32.0853 65.484 31.6354 65.5164 31.2105 65.4047C30.7856 65.293 30.4097 65.0436 30.1418 64.6954C29.8738 64.3473 29.7289 63.9201 29.7297 63.4807C29.7297 61.2829 32.862 60.1016 33.446 58.7027C34.0299 60.1016 37.1622 61.2829 37.1622 63.4807C37.1622 64.0087 36.9524 64.5151 36.5791 64.8885C36.2057 65.2618 35.6993 65.4716 35.1713 65.4716V65.4716Z" fill="#C93112"/>
<path d="M47.3335 65.4716C46.9818 65.4707 46.6367 65.3764 46.3335 65.1982C46.0303 65.02 45.7799 64.7644 45.6081 64.4576C45.3928 64.8405 45.0565 65.1412 44.652 65.3126C44.2475 65.484 43.7975 65.5164 43.3727 65.4047C42.9478 65.293 42.5719 65.0436 42.3039 64.6954C42.036 64.3473 41.8911 63.9201 41.8919 63.4807C41.8919 61.2829 45.0241 60.1016 45.6081 58.7027C46.1921 60.1016 49.3243 61.2829 49.3243 63.4807C49.3243 64.0087 49.1146 64.5151 48.7412 64.8885C48.3679 65.2618 47.8615 65.4716 47.3335 65.4716V65.4716Z" fill="#C93112"/>
<path d="M41.2524 71.5526C40.9007 71.5518 40.5556 71.4574 40.2524 71.2793C39.9492 71.1011 39.6989 70.8455 39.527 70.5386C39.3117 70.9216 38.9754 71.2223 38.5709 71.3937C38.1664 71.5651 37.7165 71.5975 37.2916 71.4858C36.8667 71.3741 36.4908 71.1246 36.2229 70.7765C35.9549 70.4283 35.81 70.0011 35.8108 69.5618C35.8108 67.3639 38.943 66.1827 39.527 64.7838C40.111 66.1827 43.2432 67.3639 43.2432 69.5618C43.2432 70.0898 43.0335 70.5962 42.6601 70.9695C42.2868 71.3429 41.7804 71.5526 41.2524 71.5526V71.5526Z" fill="#C93112"/>
<path d="M41.2524 39.1082C40.9007 39.109 40.5556 39.2033 40.2524 39.3815C39.9492 39.5597 39.6989 39.8153 39.527 40.1221C39.3117 39.7392 38.9754 39.4385 38.5709 39.2671C38.1664 39.0957 37.7165 39.0633 37.2916 39.175C36.8667 39.2867 36.4908 39.5361 36.2229 39.8843C35.9549 40.2325 35.81 40.6597 35.8108 41.099C35.8108 43.2969 38.943 44.4781 39.527 45.877C40.111 44.4781 43.2432 43.2969 43.2432 41.099C43.2432 40.571 43.0335 40.0646 42.6601 39.6913C42.2868 39.3179 41.7804 39.1082 41.2524 39.1082V39.1082Z" fill="#C93112"/>
<path d="M35.1713 78.3093C34.8197 78.3085 34.4745 78.2142 34.1713 78.036C33.8681 77.8578 33.6178 77.6022 33.446 77.2953C33.2306 77.6783 32.8944 77.979 32.4899 78.1504C32.0853 78.3218 31.6354 78.3542 31.2105 78.2425C30.7856 78.1308 30.4097 77.8813 30.1418 77.5332C29.8738 77.185 29.7289 76.7578 29.7297 76.3185C29.7297 74.1206 32.862 72.9394 33.446 71.5405C34.0299 72.9394 37.1622 74.1206 37.1622 76.3185C37.1622 76.8465 36.9524 77.3529 36.5791 77.7262C36.2057 78.0996 35.6993 78.3093 35.1713 78.3093V78.3093Z" fill="#C93112"/>
<path d="M47.3335 78.3093C46.9818 78.3085 46.6367 78.2142 46.3335 78.036C46.0303 77.8578 45.7799 77.6022 45.6081 77.2953C45.3928 77.6783 45.0565 77.979 44.652 78.1504C44.2475 78.3218 43.7975 78.3542 43.3727 78.2425C42.9478 78.1308 42.5719 77.8813 42.3039 77.5332C42.036 77.185 41.8911 76.7578 41.8919 76.3185C41.8919 74.1206 45.0241 72.9394 45.6081 71.5405C46.1921 72.9394 49.3243 74.1206 49.3243 76.3185C49.3243 76.8465 49.1146 77.3529 48.7412 77.7262C48.3679 78.0996 47.8615 78.3093 47.3335 78.3093V78.3093Z" fill="#C93112"/>
<path d="M35.1713 45.8649C34.8197 45.8657 34.4745 45.96 34.1713 46.1382C33.8681 46.3164 33.6178 46.572 33.446 46.8789C33.2306 46.4959 32.8944 46.1952 32.4899 46.0238C32.0853 45.8524 31.6354 45.82 31.2105 45.9317C30.7856 46.0434 30.4097 46.2928 30.1418 46.641C29.8738 46.9892 29.7289 47.4164 29.7297 47.8557C29.7297 50.0536 32.862 51.2348 33.446 52.6337C34.0299 51.2348 37.1622 50.0536 37.1622 47.8557C37.1622 47.3277 36.9524 46.8213 36.5791 46.448C36.2057 46.0746 35.6993 45.8649 35.1713 45.8649V45.8649Z" fill="#C93112"/>
<path d="M47.3335 45.8649C46.9818 45.8657 46.6367 45.96 46.3335 46.1382C46.0303 46.3164 45.7799 46.572 45.6081 46.8789C45.3928 46.4959 45.0565 46.1952 44.652 46.0238C44.2475 45.8524 43.7975 45.82 43.3727 45.9317C42.9478 46.0434 42.5719 46.2928 42.3039 46.641C42.036 46.9892 41.8911 47.4164 41.8919 47.8557C41.8919 50.0536 45.0241 51.2348 45.6081 52.6337C46.1921 51.2348 49.3243 50.0536 49.3243 47.8557C49.3243 47.3277 49.1146 46.8213 48.7412 46.448C48.3679 46.0746 47.8615 45.8649 47.3335 45.8649V45.8649Z" fill="#C93112"/>
</g>
<rect x="0.5" y="0.5" width="79" height="111" rx="4.5" stroke="#DADADA"/>
<defs>
<clipPath id="clip0_276_1599">
<rect width="80" height="112" rx="5" fill="white"/>
</clipPath>
</defs>
</svg>
