<svg width="80" height="112" viewBox="0 0 80 112" fill="none" xmlns="http://www.w3.org/2000/svg">
<g clip-path="url(#clip0_276_529)">
<path d="M75 0H5C2.23858 0 0 2.23858 0 5V107C0 109.761 2.23858 112 5 112H75C77.7614 112 80 109.761 80 107V5C80 2.23858 77.7614 0 75 0Z" fill="white"/>
<path d="M19.9999 21.1468C20.0064 22.1151 19.7654 23.0693 19.2994 23.9206C18.8427 24.762 18.2126 25.4991 17.45 26.0842C16.611 26.7212 15.6613 27.2006 14.6479 27.4989C13.5606 27.8393 12.4258 28.0078 11.2854 27.9981C9.80375 28.0259 8.33299 27.7423 6.9702 27.166C5.88883 26.679 4.88758 26.0338 4 25.2521L5.12083 23.671C5.85856 24.163 6.65963 24.5548 7.5026 24.836C8.40282 25.1495 9.35038 25.3089 10.3047 25.3075C10.9206 25.3083 11.5335 25.2243 12.126 25.0579C12.6783 24.9319 13.1952 24.6855 13.6392 24.3367C14.0878 23.9974 14.452 23.561 14.7039 23.0608C14.9991 22.4661 15.1433 21.8091 15.1243 21.1468C15.1558 20.124 14.7839 19.1292 14.0875 18.373C13.3467 17.6086 12.3513 17.1356 11.2854 17.0416L10.0525 17.319L8.81958 17.5686L8.25916 15.5437C9.0463 15.3882 9.81596 15.1559 10.5569 14.8503C11.2132 14.5955 11.8345 14.26 12.4062 13.8517C12.9114 13.4837 13.3396 13.0221 13.6672 12.4926C13.9758 11.9517 14.1307 11.3383 14.1155 10.7173C14.1177 10.3457 14.0444 9.97734 13.9 9.63427C13.7556 9.29119 13.543 8.98034 13.2749 8.72017C12.9668 8.43753 12.605 8.2184 12.2105 8.07554C11.816 7.93267 11.3968 7.86893 10.9772 7.88803C10.0493 7.88674 9.13858 8.13609 8.34322 8.60922C7.58125 9.03841 6.88337 9.57054 6.26968 10.1903L4.95271 8.91434C5.63258 7.76839 6.59715 6.81355 7.75479 6.14053C9.11229 5.35365 10.6656 4.95962 12.2381 5.00327C13.0624 5.00099 13.883 5.11303 14.6759 5.33613C15.4006 5.5405 16.0834 5.86909 16.6934 6.30696C17.2722 6.71778 17.743 7.25995 18.0664 7.88803C18.4224 8.56434 18.6052 9.31678 18.5988 10.0793C18.5902 10.7686 18.4376 11.4485 18.1505 12.0765C17.8599 12.6885 17.472 13.2504 17.0016 13.7408C16.528 14.2335 15.991 14.6625 15.4045 15.0167C14.8493 15.3442 14.2567 15.6049 13.6392 15.7934C14.3589 15.7816 15.0765 15.8751 15.7687 16.0708C16.4849 16.2749 17.1585 16.6036 17.7582 17.0416C18.3605 17.5148 18.8648 18.0988 19.2433 18.7614C19.6958 19.4801 19.9561 20.301 19.9999 21.1468Z" fill="#C93112"/>
<path d="M60.0001 91.5638C59.9936 90.6364 60.2346 89.7225 60.7006 88.9071C61.1573 88.1013 61.7874 87.3953 62.55 86.8349C63.389 86.2248 64.3387 85.7656 65.3521 85.48C66.4394 85.1539 67.5742 84.9926 68.7146 85.0018C70.1963 84.9752 71.667 85.2468 73.0298 85.7988C74.1112 86.2652 75.1124 86.8832 76 87.6319L74.8792 89.1462C74.1415 88.675 73.3404 88.2997 72.4974 88.0304C71.596 87.7345 70.6492 87.5819 69.6953 87.5788C69.0793 87.5763 68.4661 87.6568 67.874 87.8179C67.3151 87.9437 66.7901 88.179 66.3328 88.5086C65.893 88.8352 65.5382 89.2533 65.2961 89.7307C65.0009 90.3003 64.8567 90.9295 64.8758 91.5638C64.8442 92.5434 65.2161 93.4962 65.9125 94.2205C66.6533 94.9527 67.6487 95.4057 68.7146 95.4957L69.9475 95.2035L71.1804 94.9909L71.7408 96.9303C70.9537 97.0793 70.1841 97.3017 69.4431 97.5945C68.7868 97.8385 68.1655 98.1598 67.5938 98.5509C67.0886 98.9034 66.6604 99.3455 66.3328 99.8527C66.0242 100.371 65.8693 100.958 65.8845 101.553C65.8823 101.909 65.9556 102.262 66.1 102.59C66.2444 102.919 66.457 103.217 66.7251 103.466C67.0332 103.736 67.395 103.946 67.7895 104.083C68.184 104.22 68.6032 104.281 69.0228 104.263C69.9507 104.264 70.8614 104.025 71.6568 103.572C72.4152 103.168 73.1049 102.657 73.7023 102.058L75.0473 103.28C74.3499 104.364 73.3892 105.275 72.2452 105.936C70.1259 107.022 67.6459 107.289 65.3241 106.68C64.5973 106.49 63.9134 106.175 63.3066 105.751C62.7278 105.357 62.257 104.838 61.9336 104.236C61.5649 103.593 61.3813 102.869 61.4012 102.137C61.4098 101.477 61.5624 100.826 61.8495 100.225C62.1401 99.6384 62.528 99.1003 62.9984 98.6306C63.472 98.1587 64.009 97.7478 64.5955 97.4085C65.1507 97.0949 65.7433 96.8452 66.3609 96.6646C65.641 96.6775 64.9231 96.588 64.2313 96.399C63.5091 96.2052 62.8334 95.8804 62.2418 95.4426C61.6356 95.0038 61.1303 94.4524 60.7567 93.822C60.3087 93.1413 60.0485 92.3648 60.0001 91.5638Z" fill="#C93112"/>
<path d="M11.3214 34C10.8483 34.0011 10.3839 34.128 9.97597 34.3678C9.56804 34.6075 9.2312 34.9514 9 35.3643C8.7103 34.849 8.25788 34.4444 7.71362 34.2138C7.16935 33.9832 6.56398 33.9397 5.99229 34.0899C5.42061 34.2402 4.91491 34.5758 4.55439 35.0443C4.19388 35.5127 3.9989 36.0875 4 36.6786C4 39.6357 8.21429 41.225 9 43.1071C9.78572 41.225 14 39.6357 14 36.6786C14 35.9682 13.7178 35.2869 13.2155 34.7845C12.7131 34.2822 12.0318 34 11.3214 34V34Z" fill="#C93112"/>
<path d="M68.6786 78.1072C69.1517 78.1061 69.6161 77.9791 70.024 77.7394C70.432 77.4997 70.7688 77.1557 71 76.7429C71.2897 77.2581 71.7421 77.6627 72.2864 77.8933C72.8306 78.1239 73.436 78.1675 74.0077 78.0173C74.5794 77.867 75.0851 77.5313 75.4456 77.0629C75.8061 76.5945 76.0011 76.0197 76 75.4286C76 72.4715 71.7857 70.8822 71 69C70.2143 70.8822 66 72.4715 66 75.4286C66 76.139 66.2822 76.8203 66.7845 77.3226C67.2869 77.825 67.9682 78.1072 68.6786 78.1072V78.1072Z" fill="#C93112"/>
<rect opacity="0.5" x="25.25" y="31.25" width="29.2297" height="49.5" stroke="#C93112" stroke-width="0.5"/>
<path d="M42.0641 39.1082C41.5727 39.1093 41.0903 39.2412 40.6666 39.4902C40.2429 39.7392 39.893 40.0964 39.6529 40.5252C39.352 39.99 38.8821 39.5698 38.3168 39.3303C37.7514 39.0907 37.1226 39.0455 36.5288 39.2016C35.935 39.3576 35.4098 39.7063 35.0353 40.1928C34.6608 40.6794 34.4583 41.2764 34.4595 41.8903C34.4595 44.9619 38.8368 46.6127 39.6529 48.5676C40.469 46.6127 44.8463 44.9619 44.8463 41.8903C44.8463 41.1525 44.5532 40.4448 44.0314 39.923C43.5097 39.4013 42.802 39.1082 42.0641 39.1082V39.1082Z" fill="#C93112"/>
<path d="M42.0641 51.2703C41.5727 51.2714 41.0903 51.4033 40.6666 51.6523C40.2429 51.9013 39.893 52.2585 39.6529 52.6873C39.352 52.1522 38.8821 51.7319 38.3168 51.4924C37.7514 51.2528 37.1226 51.2076 36.5288 51.3637C35.935 51.5197 35.4098 51.8684 35.0353 52.3549C34.6608 52.8415 34.4583 53.4385 34.4595 54.0525C34.4595 57.124 38.8368 58.7748 39.6529 60.7297C40.469 58.7748 44.8463 57.124 44.8463 54.0525C44.8463 53.3146 44.5532 52.6069 44.0314 52.0851C43.5097 51.5634 42.802 51.2703 42.0641 51.2703V51.2703Z" fill="#C93112"/>
<path d="M42.0641 72.2162C41.5727 72.215 41.0903 72.0832 40.6666 71.8342C40.2429 71.5852 39.893 71.2279 39.6529 70.7991C39.352 71.3343 38.8821 71.7546 38.3168 71.9941C37.7514 72.2336 37.1226 72.2789 36.5288 72.1228C35.935 71.9667 35.4098 71.6181 35.0353 71.1315C34.6608 70.645 34.4583 70.048 34.4595 69.434C34.4595 66.3625 38.8368 64.7117 39.6529 62.7567C40.469 64.7117 44.8463 66.3625 44.8463 69.434C44.8463 70.1719 44.5532 70.8795 44.0314 71.4013C43.5097 71.9231 42.802 72.2162 42.0641 72.2162V72.2162Z" fill="#C93112"/>
</g>
<rect x="0.5" y="0.5" width="79" height="111" rx="4.5" stroke="#DADADA"/>
<defs>
<clipPath id="clip0_276_529">
<rect width="80" height="112" rx="5" fill="white"/>
</clipPath>
</defs>
</svg>
