<svg width="80" height="112" viewBox="0 0 80 112" fill="none" xmlns="http://www.w3.org/2000/svg">
<g clip-path="url(#clip0_276_433)">
<path d="M75 0H5C2.23858 0 0 2.23858 0 5V107C0 109.761 2.23858 112 5 112H75C77.7614 112 80 109.761 80 107V5C80 2.23858 77.7614 0 75 0Z" fill="white"/>
<path d="M19.302 27H4.83222L4 24.6603C5.93289 22.9391 7.57047 21.46 8.88591 20.196C10.0588 19.1688 11.1704 18.0732 12.2148 16.9151C12.9025 16.0979 13.4802 15.1937 13.9329 14.2258C14.2727 13.5014 14.4557 12.7132 14.4698 11.913C14.4896 11.4118 14.4016 10.9123 14.2117 10.4483C14.0218 9.98427 13.7344 9.56661 13.3691 9.22366C12.6196 8.59103 11.6643 8.25608 10.6846 8.2824C9.8077 8.2742 8.94814 8.52691 8.21477 9.00851C7.42228 9.58205 6.74776 10.3034 6.22819 11.1331L4.83222 9.97666C5.0569 9.31189 5.3829 8.68594 5.79866 8.12104C6.2261 7.50918 6.75232 6.97294 7.3557 6.53435C8.00312 6.04606 8.72961 5.67307 9.50336 5.43173C10.3662 5.13221 11.2748 4.98658 12.1879 5.00144C13.1012 4.98375 14.0103 5.12946 14.8725 5.43173C15.6607 5.70288 16.3897 6.12281 17.0201 6.66881C17.6198 7.21607 18.0958 7.88542 18.4161 8.63201C18.7869 9.47905 18.9701 10.3965 18.953 11.3213C18.9489 12.3909 18.7106 13.4466 18.255 14.414C17.7356 15.5183 17.0472 16.5346 16.2148 17.4261C15.1493 18.5676 14.0008 19.6283 12.7785 20.5994C11.3826 21.7021 9.74497 22.9122 7.89262 24.2031H11.8926C12.6443 24.2031 13.3423 24.2031 13.9866 24.2031L15.4631 24.0418C15.7527 23.9976 16.0283 23.8872 16.2685 23.719C16.4385 23.5592 16.5753 23.3672 16.6711 23.1543L17.8524 20.465L20 20.7339C20 21.729 20 22.8316 19.8389 23.988C19.6779 25.1444 19.4899 26.005 19.302 27Z" fill="#C93112"/>
<path d="M60.6206 85H75.1636L76 87.3397C74.0573 89.0609 72.4115 90.54 71.0894 91.804C69.9105 92.8312 68.7934 93.9268 67.7437 95.0849C67.063 95.9098 66.4833 96.8126 66.0169 97.7742C65.6754 98.4986 65.4915 99.2868 65.4773 100.087C65.4573 100.588 65.5458 101.088 65.7367 101.552C65.9276 102.016 66.2164 102.433 66.5835 102.776C67.3368 103.409 68.2969 103.744 69.2816 103.718C70.1629 103.726 71.0268 103.473 71.7639 102.991C72.567 102.425 73.2463 101.703 73.7606 100.867L75.1636 102.023C74.9378 102.688 74.6101 103.314 74.1922 103.879C73.7563 104.493 73.2286 105.037 72.6273 105.493C71.9675 105.966 71.2398 106.338 70.4688 106.595C69.5968 106.872 68.6859 107.008 67.7707 106.999C66.8528 107.016 65.9391 106.871 65.0725 106.568C64.2803 106.297 63.5476 105.877 62.914 105.331C62.3033 104.791 61.8236 104.12 61.511 103.368C61.1383 102.521 60.9541 101.603 60.9713 100.679C60.9755 99.6091 61.215 98.5534 61.6729 97.586C62.1949 96.4817 62.8868 95.4654 63.7235 94.5739C64.7973 93.4258 65.9612 92.3646 67.2041 91.4006C68.5801 90.2979 70.226 89.0878 72.0877 87.7969H68.1484C67.3929 87.7969 66.6914 87.7969 66.0439 87.7969L64.5599 87.9582C64.2688 88.0024 63.9918 88.1128 63.7504 88.281C63.5795 88.4408 63.442 88.6328 63.3457 88.8457L62.1585 91.6695L60 91.4006C60 90.4055 60 89.3029 60.1619 88.1465C60.3238 86.9901 60.4317 85.995 60.6206 85Z" fill="#C93112"/>
<path d="M11.3214 34C10.8483 34.0011 10.3839 34.128 9.97597 34.3678C9.56804 34.6075 9.2312 34.9514 9 35.3643C8.7103 34.849 8.25788 34.4444 7.71362 34.2138C7.16935 33.9832 6.56398 33.9397 5.99229 34.0899C5.42061 34.2402 4.91491 34.5758 4.55439 35.0443C4.19388 35.5127 3.9989 36.0875 4 36.6786C4 39.6357 8.21429 41.225 9 43.1071C9.78572 41.225 14 39.6357 14 36.6786C14 35.9682 13.7178 35.2869 13.2155 34.7845C12.7131 34.2822 12.0318 34 11.3214 34V34Z" fill="#C93112"/>
<path d="M68.6786 78.1072C69.1517 78.1061 69.6161 77.9791 70.024 77.7394C70.432 77.4997 70.7688 77.1557 71 76.7429C71.2897 77.2581 71.7421 77.6627 72.2864 77.8933C72.8306 78.1239 73.436 78.1675 74.0077 78.0173C74.5794 77.867 75.0851 77.5313 75.4456 77.0629C75.8061 76.5945 76.0011 76.0197 76 75.4286C76 72.4715 71.7857 70.8822 71 69C70.2143 70.8822 66 72.4715 66 75.4286C66 76.139 66.2822 76.8203 66.7845 77.3226C67.2869 77.825 67.9682 78.1072 68.6786 78.1072V78.1072Z" fill="#C93112"/>
<rect opacity="0.5" x="25.25" y="31.25" width="29.2297" height="49.5" stroke="#C93112" stroke-width="0.5"/>
<path d="M43.0019 41.1351C42.3625 41.1366 41.735 41.3082 41.1837 41.6321C40.6325 41.9561 40.1773 42.4209 39.8649 42.9788C39.4734 42.2825 38.862 41.7357 38.1265 41.4241C37.391 41.1125 36.5729 41.0536 35.8004 41.2566C35.0278 41.4597 34.3445 41.9133 33.8573 42.5463C33.3701 43.1793 33.1066 43.956 33.1081 44.7548C33.1081 48.751 38.8031 50.8986 39.8649 53.4421C40.9266 50.8986 46.6216 48.751 46.6216 44.7548C46.6216 43.7948 46.2402 42.8741 45.5614 42.1953C44.8826 41.5165 43.9619 41.1351 43.0019 41.1351V41.1351Z" fill="#C93112"/>
<path d="M43.0019 71.0096C42.3625 71.0081 41.735 70.8366 41.1837 70.5126C40.6325 70.1887 40.1773 69.7239 39.8649 69.166C39.4734 69.8623 38.862 70.409 38.1265 70.7207C37.391 71.0323 36.5729 71.0912 35.8004 70.8881C35.0278 70.6851 34.3445 70.2315 33.8573 69.5985C33.3701 68.9655 33.1066 68.1887 33.1081 67.39C33.1081 63.3938 38.8031 61.2461 39.8649 58.7027C40.9266 61.2461 46.6216 63.3938 46.6216 67.39C46.6216 68.35 46.2402 69.2706 45.5614 69.9495C44.8826 70.6283 43.9619 71.0096 43.0019 71.0096V71.0096Z" fill="#C93112"/>
</g>
<rect x="0.5" y="0.5" width="79" height="111" rx="4.5" stroke="#DADADA"/>
<defs>
<clipPath id="clip0_276_433">
<rect width="80" height="112" rx="5" fill="white"/>
</clipPath>
</defs>
</svg>
