<svg width="80" height="112" viewBox="0 0 80 112" fill="none" xmlns="http://www.w3.org/2000/svg">
<g clip-path="url(#clip0_276_338)">
<path d="M75 0H5C2.23858 0 0 2.23858 0 5V107C0 109.761 2.23858 112 5 112H75C77.7614 112 80 109.761 80 107V5C80 2.23858 77.7614 0 75 0Z" fill="white"/>
<path d="M9.48373 25.3891V27H4V25.3891L5.30152 24.9322C5.43342 24.9 5.55815 24.826 5.66594 24.7158C5.75895 24.5776 5.8299 24.4137 5.87419 24.235L10.6117 5H13.3362L18.2299 24.235C18.2696 24.4097 18.3414 24.5671 18.4382 24.6918C18.5404 24.819 18.6669 24.9025 18.8026 24.9322L20 25.3891V27H13.3362V25.3891L15.2972 24.8842L14.2213 20.4361H8.52928L7.50542 24.8842L9.48373 25.3891ZM13.8221 18.4885L11.3406 8.2459L8.98048 18.4885H13.8221Z" fill="#C93112"/>
<path d="M70.5038 86.635V85H76V86.635L74.6914 87.0678C74.5588 87.1 74.4334 87.174 74.325 87.2841C74.2315 87.4224 74.1601 87.5863 74.1156 87.765L69.3522 107H66.7001L61.7797 87.765C61.746 87.5865 61.6728 87.4269 61.5703 87.3082C61.4676 87.181 61.3404 87.0975 61.2039 87.0678L60 86.635V85H66.6129V86.635L64.6412 87.1158L65.6532 91.612H71.446L72.4755 87.1639L70.5038 86.635ZM66.1243 93.5115L68.6194 103.754L70.9924 93.5115H66.1243Z" fill="#C93112"/>
<path d="M71 68C69.7135 70.0078 68.0078 71.7135 66 73C68.0078 74.2865 69.7135 75.9922 71 78C72.2865 75.9922 73.9922 74.2865 76 73C73.9922 71.7135 72.2865 70.0078 71 68V68Z" fill="#C93112"/>
<rect opacity="0.5" x="25.25" y="31.25" width="29.2297" height="49.5" stroke="#C93112" stroke-width="0.5"/>
<path d="M39.8649 45.1892C37.0833 49.5305 33.3953 53.2185 29.0541 56C33.3953 58.7816 37.0833 62.4696 39.8649 66.8108C42.6464 62.4696 46.3344 58.7816 50.6757 56C46.3344 53.2185 42.6464 49.5305 39.8649 45.1892V45.1892Z" fill="#C93112"/>
<path d="M9 34C7.71353 36.0078 6.00783 37.7135 4 39C6.00783 40.2865 7.71353 41.9922 9 44C10.2865 41.9922 11.9922 40.2865 14 39C11.9922 37.7135 10.2865 36.0078 9 34V34Z" fill="#C93112"/>
</g>
<rect x="0.5" y="0.5" width="79" height="111" rx="4.5" stroke="#DADADA"/>
<defs>
<clipPath id="clip0_276_338">
<rect width="80" height="112" rx="5" fill="white"/>
</clipPath>
</defs>
</svg>
