<svg width="80" height="112" viewBox="0 0 80 112" fill="none" xmlns="http://www.w3.org/2000/svg">
<g clip-path="url(#clip0_276_1196)">
<path d="M75 0H5C2.23858 0 0 2.23858 0 5V107C0 109.761 2.23858 112 5 112H75C77.7614 112 80 109.761 80 107V5C80 2.23858 77.7614 0 75 0Z" fill="white"/>
<path d="M71 68C69.7135 70.0078 68.0078 71.7135 66 73C68.0078 74.2865 69.7135 75.9922 71 78C72.2865 75.9922 73.9922 74.2865 76 73C73.9922 71.7135 72.2865 70.0078 71 68V68Z" fill="#C93112"/>
<path d="M9 34C7.71353 36.0078 6.00783 37.7135 4 39C6.00783 40.2865 7.71353 41.9922 9 44C10.2865 41.9922 11.9922 40.2865 14 39C11.9922 37.7135 10.2865 36.0078 9 34V34Z" fill="#C93112"/>
<rect opacity="0.5" x="25.25" y="31.25" width="29.2297" height="49.5" stroke="#C93112" stroke-width="0.5"/>
<path d="M47.2973 35.0541C46.0804 36.9534 44.4669 38.5669 42.5676 39.7838C44.4669 41.0007 46.0804 42.6142 47.2973 44.5135C48.5142 42.6142 50.1277 41.0007 52.027 39.7838C50.1277 38.5669 48.5142 36.9534 47.2973 35.0541V35.0541Z" fill="#C93112"/>
<path d="M32.4324 51.2703C31.2155 53.1696 29.602 54.7831 27.7027 56C29.602 57.2169 31.2155 58.8304 32.4324 60.7297C33.6494 58.8304 35.2629 57.2169 37.1622 56C35.2629 54.7831 33.6494 53.1696 32.4324 51.2703V51.2703Z" fill="#C93112"/>
<path d="M47.2973 51.2703C46.0804 53.1696 44.4669 54.7831 42.5676 56C44.4669 57.2169 46.0804 58.8304 47.2973 60.7297C48.5142 58.8304 50.1277 57.2169 52.027 56C50.1277 54.7831 48.5142 53.1696 47.2973 51.2703V51.2703Z" fill="#C93112"/>
<path d="M39.8649 43.1621C38.6479 45.0614 37.0344 46.6749 35.1351 47.8918C37.0344 49.1088 38.6479 50.7223 39.8649 52.6216C41.0818 50.7223 42.6953 49.1088 44.5946 47.8918C42.6953 46.6749 41.0818 45.0614 39.8649 43.1621V43.1621Z" fill="#C93112"/>
<path d="M39.8649 59.3784C38.6479 61.2777 37.0344 62.8912 35.1351 64.1081C37.0344 65.3251 38.6479 66.9386 39.8649 68.8379C41.0818 66.9386 42.6953 65.3251 44.5946 64.1081C42.6953 62.8912 41.0818 61.2777 39.8649 59.3784V59.3784Z" fill="#C93112"/>
<path d="M32.4324 35.0541C31.2155 36.9534 29.602 38.5669 27.7027 39.7838C29.602 41.0007 31.2155 42.6142 32.4324 44.5135C33.6494 42.6142 35.2629 41.0007 37.1622 39.7838C35.2629 38.5669 33.6494 36.9534 32.4324 35.0541V35.0541Z" fill="#C93112"/>
<path d="M47.2973 67.4865C46.0804 69.3858 44.4669 70.9992 42.5676 72.2162C44.4669 73.4331 46.0804 75.0466 47.2973 76.9459C48.5142 75.0466 50.1277 73.4331 52.027 72.2162C50.1277 70.9992 48.5142 69.3858 47.2973 67.4865V67.4865Z" fill="#C93112"/>
<path d="M32.4324 67.4865C31.2155 69.3858 29.602 70.9992 27.7027 72.2162C29.602 73.4331 31.2155 75.0466 32.4324 76.9459C33.6494 75.0466 35.2629 73.4331 37.1622 72.2162C35.2629 70.9992 33.6494 69.3858 32.4324 67.4865V67.4865Z" fill="#C93112"/>
<path d="M11.8582 26.9983C10.8119 27.0034 9.76868 26.8792 8.7511 26.6286C7.83985 26.4123 6.97134 26.0372 6.18322 25.5195C5.527 25.0638 4.98211 24.4583 4.59114 23.7502C4.19203 23.0262 3.98814 22.2058 4.00053 21.3736C4.00607 20.127 4.45343 18.9253 5.25879 17.9935C6.08515 16.9778 7.18344 16.234 8.41728 15.8546C7.53821 15.2872 6.75716 14.5733 6.10619 13.7421C5.45114 12.8665 5.11498 11.7827 5.15608 10.6789C5.14398 9.88662 5.31452 9.10269 5.65373 8.39126C5.99295 7.67983 6.49119 7.06114 7.10766 6.58582C7.80076 6.03767 8.5962 5.64215 9.44442 5.42393C10.3839 5.12663 11.3633 4.98403 12.3461 5.00142C13.2654 4.99883 14.1809 5.12317 15.0681 5.37111C15.8098 5.58704 16.5124 5.92598 17.148 6.37457C17.7198 6.78931 18.1936 7.33076 18.5347 7.95898C18.8662 8.57216 19.0345 9.26443 19.0226 9.96589C19.0271 11.0907 18.6348 12.1791 17.9184 13.0291C17.1806 13.936 16.2243 14.628 15.1451 15.036C15.7871 15.3793 16.4034 15.7226 16.994 16.1187C17.5603 16.4685 18.0785 16.8948 18.5347 17.3862C18.9742 17.846 19.3307 18.3825 19.5875 18.9706C19.8762 19.6063 20.0169 20.3025 19.9984 21.0039C20.0021 21.8686 19.7993 22.7209 19.4078 23.4862C18.996 24.2316 18.436 24.8795 17.7643 25.3874C16.9866 25.9424 16.1161 26.3452 15.1965 26.5757C14.1082 26.8754 12.9847 27.0176 11.8582 26.9983ZM12.115 25.0442C13.0955 25.1008 14.0599 24.7702 14.8113 24.1199C15.1304 23.8362 15.3837 23.4826 15.5526 23.0851C15.7215 22.6875 15.8016 22.2561 15.7871 21.8225C15.7971 21.277 15.664 20.7389 15.4019 20.2645C15.1138 19.8216 14.7584 19.4293 14.3491 19.1026C13.8696 18.7232 13.3533 18.3958 12.8083 18.1256L10.2405 16.8052C9.50563 17.2464 8.90187 17.8856 8.49431 18.6537C8.10725 19.3731 7.90404 20.1818 7.9037 21.0039C7.89554 21.6137 8.01829 22.2178 8.2632 22.7732C8.4824 23.2643 8.80729 23.6977 9.21331 24.0407C9.61694 24.3742 10.0789 24.6252 10.5743 24.7801C11.0389 24.9381 11.5232 25.027 12.0123 25.0442H12.115ZM8.80246 9.70182C8.7854 10.1911 8.90098 10.6757 9.13628 11.1014C9.37935 11.539 9.7019 11.9244 10.0864 12.2369C10.5197 12.6164 10.9935 12.9442 11.4987 13.2139C12.038 13.5308 12.6286 13.8213 13.2449 14.1118C13.9287 13.685 14.4946 13.0849 14.8883 12.3689C15.2124 11.7337 15.3799 11.0265 15.3762 10.3092C15.4216 9.85703 15.3742 9.40011 15.2371 8.96798C15.1 8.53585 14.8762 8.13813 14.5802 7.80054C14.232 7.48234 13.8255 7.23899 13.3845 7.0848C12.9435 6.93061 12.4769 6.86869 12.0123 6.90271C11.163 6.8457 10.3253 7.12969 9.67553 7.69491C9.39835 7.9453 9.17689 8.25416 9.02623 8.60048C8.87557 8.9468 8.79925 9.32244 8.80246 9.70182Z" fill="#C93112"/>
<path d="M68.0391 85.0001C69.0956 84.9965 70.1488 85.1206 71.1766 85.3698C72.0959 85.5886 72.9725 85.9635 73.7695 86.479C74.4467 86.9253 75.0074 87.5326 75.4031 88.2485C75.8061 88.9725 76.012 89.7931 75.9995 90.6253C76.0079 91.8685 75.5856 93.0749 74.8067 94.0321C73.9723 95.048 72.8633 95.7918 71.6174 96.1713C72.4979 96.7383 73.2781 97.4526 73.9251 98.2841C74.5939 99.1572 74.9423 100.241 74.9104 101.348C74.9226 102.14 74.7504 102.924 74.4079 103.635C74.0654 104.347 73.5623 104.966 72.9398 105.441C72.2621 105.963 71.498 106.356 70.6839 106.603C69.74 106.878 68.7616 107.012 67.7798 106.999C66.8514 107.004 65.9267 106.879 65.0313 106.629C64.2642 106.419 63.5369 106.08 62.8791 105.626C62.2949 105.219 61.8148 104.676 61.479 104.041C61.1352 103.431 60.9563 102.738 60.9604 102.034C60.9558 100.909 61.3519 99.8208 62.0753 98.9707C62.8306 98.0751 63.793 97.3852 64.8757 96.9636C64.2275 96.6203 63.6052 96.2769 63.0088 95.8808C62.4369 95.5309 61.9137 95.1046 61.453 94.6132C61.0178 94.1463 60.6588 93.6113 60.3899 93.0286C60.1198 92.3866 59.9872 91.6933 60.001 90.9951C59.9972 90.1303 60.202 89.2779 60.5974 88.5126C60.9976 87.7558 61.5659 87.1046 62.2568 86.6111C63.0365 86.0459 63.9175 85.6422 64.8498 85.4227C65.8897 85.138 66.9623 84.9959 68.0391 85.0001ZM67.7539 86.9544C66.8083 86.9334 65.8873 87.2618 65.1609 87.8787C64.8442 88.1671 64.5923 88.5216 64.4223 88.9181C64.2523 89.3146 64.1681 89.7438 64.1756 90.1764C64.1746 90.7242 64.3179 91.2622 64.5905 91.7345C64.8738 92.1835 65.2339 92.5771 65.6536 92.8965C66.1378 93.276 66.6591 93.6034 67.2094 93.8737L69.8023 95.1941C70.5388 94.7458 71.1468 94.1083 71.5655 93.3455C71.9484 92.624 72.1447 91.8151 72.136 90.9951C72.1513 90.423 72.0432 89.8545 71.8192 89.3298C71.5951 88.805 71.2607 88.3367 70.8395 87.958C70.4225 87.6242 69.9475 87.3733 69.4393 87.2185C68.9379 87.0464 68.4127 86.9572 67.8835 86.9544H67.7539ZM71.1247 102.298C71.1341 101.806 71.0084 101.322 70.7617 100.899C70.5245 100.463 70.2076 100.077 69.8282 99.763C69.3863 99.3893 68.9085 99.062 68.4021 98.7858C67.8576 98.4953 67.2612 98.1784 66.6389 97.8879C65.9423 98.3069 65.3692 98.9089 64.9794 99.6309C64.6452 100.265 64.4672 100.972 64.4608 101.691C64.4101 102.177 64.4703 102.668 64.6367 103.126C64.8032 103.584 65.0713 103.997 65.4202 104.332C65.7693 104.654 66.1795 104.9 66.6254 105.054C67.0714 105.209 67.5437 105.268 68.0132 105.23C68.8701 105.281 69.714 104.998 70.3728 104.437C70.6465 104.16 70.8561 103.825 70.9862 103.454C71.1163 103.084 71.1636 102.689 71.1247 102.298Z" fill="#C93112"/>
</g>
<rect x="0.5" y="0.5" width="79" height="111" rx="4.5" stroke="#DADADA"/>
<defs>
<clipPath id="clip0_276_1196">
<rect width="80" height="112" rx="5" fill="white"/>
</clipPath>
</defs>
</svg>
