<svg width="80" height="112" viewBox="0 0 80 112" fill="none" xmlns="http://www.w3.org/2000/svg">
<g clip-path="url(#clip0_276_740)">
<path d="M75 0H5C2.23858 0 0 2.23858 0 5V107C0 109.761 2.23858 112 5 112H75C77.7614 112 80 109.761 80 107V5C80 2.23858 77.7614 0 75 0Z" fill="white"/>
<path d="M71 68C69.7135 70.0078 68.0078 71.7135 66 73C68.0078 74.2865 69.7135 75.9922 71 78C72.2865 75.9922 73.9922 74.2865 76 73C73.9922 71.7135 72.2865 70.0078 71 68V68Z" fill="#C93112"/>
<path d="M9 34C7.71353 36.0078 6.00783 37.7135 4 39C6.00783 40.2865 7.71353 41.9922 9 44C10.2865 41.9922 11.9922 40.2865 14 39C11.9922 37.7135 10.2865 36.0078 9 34V34Z" fill="#C93112"/>
<rect opacity="0.5" x="25.25" y="31.25" width="29.2297" height="49.5" stroke="#C93112" stroke-width="0.5"/>
<path d="M46.6216 37.7567C45.4047 39.656 43.7912 41.2695 41.8919 42.4864C43.7912 43.7034 45.4047 45.3169 46.6216 47.2162C47.8386 45.3169 49.4521 43.7034 51.3514 42.4864C49.4521 41.2695 47.8386 39.656 46.6216 37.7567V37.7567Z" fill="#C93112"/>
<path d="M39.8649 51.2703C38.6479 53.1696 37.0344 54.7831 35.1351 56C37.0344 57.2169 38.6479 58.8304 39.8649 60.7297C41.0818 58.8304 42.6953 57.2169 44.5946 56C42.6953 54.7831 41.0818 53.1696 39.8649 51.2703V51.2703Z" fill="#C93112"/>
<path d="M33.1081 37.7567C31.8912 39.656 30.2777 41.2695 28.3784 42.4864C30.2777 43.7034 31.8912 45.3169 33.1081 47.2162C34.325 45.3169 35.9385 43.7034 37.8378 42.4864C35.9385 41.2695 34.325 39.656 33.1081 37.7567V37.7567Z" fill="#C93112"/>
<path d="M46.6216 64.7838C45.4047 66.6831 43.7912 68.2966 41.8919 69.5135C43.7912 70.7305 45.4047 72.344 46.6216 74.2433C47.8386 72.344 49.4521 70.7305 51.3514 69.5135C49.4521 68.2966 47.8386 66.6831 46.6216 64.7838V64.7838Z" fill="#C93112"/>
<path d="M33.1081 64.7838C31.8912 66.6831 30.2777 68.2966 28.3784 69.5135C30.2777 70.7305 31.8912 72.344 33.1081 74.2433C34.325 72.344 35.9385 70.7305 37.8378 69.5135C35.9385 68.2966 34.325 66.6831 33.1081 64.7838V64.7838Z" fill="#C93112"/>
<path d="M5.17032 22.5396C5.86703 23.0716 6.63587 23.5081 7.45524 23.8369C8.33706 24.1972 9.28484 24.381 10.2417 24.3774C11.5617 24.4461 12.8585 24.0204 13.8641 23.1883C14.3397 22.7375 14.7102 22.193 14.9505 21.5916C15.1908 20.9902 15.2955 20.3459 15.2574 19.702C15.2994 18.538 14.892 17.4008 14.1149 16.5129C13.6877 16.0949 13.1733 15.7702 12.6063 15.5605C12.0393 15.3507 11.4326 15.2608 10.8269 15.2968C10.2031 15.2939 9.58268 15.3851 8.9878 15.567C8.31976 15.7488 7.67483 16.0026 7.06513 16.3237L5.56043 15.2968L6.28491 5H18.8241L18.434 8.0539H8.93207L8.31904 13.8644C8.97189 13.3784 9.72138 13.0288 10.5204 12.8374C11.2675 12.656 12.035 12.5652 12.8053 12.5672C14.7294 12.4768 16.6124 13.1276 18.0439 14.3779C18.6965 15.0094 19.2069 15.7654 19.5426 16.5981C19.8784 17.4309 20.0322 18.3221 19.9944 19.2155C20.0099 20.3127 19.7819 21.4004 19.3256 22.4045C18.9122 23.3416 18.2943 24.1806 17.5144 24.8639C16.7083 25.5752 15.7597 26.1179 14.7279 26.4584C13.5965 26.8257 12.4101 27.0083 11.217 26.9989C9.76214 27.0199 8.31903 26.7437 6.98153 26.1881C5.83713 25.724 4.8173 25.0122 4 24.1071L5.17032 22.5396Z" fill="#C93112"/>
<path d="M74.8299 89.3795C74.1334 88.8476 73.3647 88.4111 72.5455 88.0823C71.6639 87.722 70.7163 87.5382 69.7597 87.5418C68.4286 87.4953 67.1307 87.9505 66.1381 88.812C65.2876 89.7154 64.7956 90.8824 64.7496 92.105C64.7037 93.3276 65.1069 94.5262 65.8873 95.4872C66.3103 95.9031 66.8198 96.2267 67.3818 96.4364C67.9439 96.6461 68.5456 96.7371 69.1468 96.7034C69.7797 96.7082 70.4095 96.617 71.0133 96.4331C71.6722 96.251 72.3077 95.9972 72.9077 95.6764L74.4399 96.7034L73.7156 107H61.1793L61.5693 103.865H71.0412L71.6819 98.1898C71.0292 98.6757 70.2799 99.0254 69.4811 99.2167C68.7316 99.3848 67.9659 99.4754 67.1967 99.487C65.273 99.5774 63.3905 98.9265 61.9593 97.6763C61.2968 97.0406 60.7806 96.2761 60.4445 95.433C60.1084 94.5899 59.96 93.6874 60.0092 92.7847C59.9937 91.6875 60.2217 90.5999 60.6778 89.5957C61.0839 88.6547 61.7028 87.8143 62.4886 87.1364C63.2946 86.4251 64.2429 85.8824 65.2745 85.5419C66.3965 85.1766 67.5732 84.994 68.7568 85.0014C70.2206 84.9774 71.6731 85.2537 73.0191 85.8122C74.1633 86.2763 75.1829 86.9881 76 87.8931L74.8299 89.3795Z" fill="#C93112"/>
</g>
<rect x="0.5" y="0.5" width="79" height="111" rx="4.5" stroke="#DADADA"/>
<defs>
<clipPath id="clip0_276_740">
<rect width="80" height="112" rx="5" fill="white"/>
</clipPath>
</defs>
</svg>
