<svg width="80" height="112" viewBox="0 0 80 112" fill="none" xmlns="http://www.w3.org/2000/svg">
<g clip-path="url(#clip0_276_615)">
<path d="M75 0H5C2.23858 0 0 2.23858 0 5V107C0 109.761 2.23858 112 5 112H75C77.7614 112 80 109.761 80 107V5C80 2.23858 77.7614 0 75 0Z" fill="white"/>
<path d="M71 68C69.7135 70.0078 68.0078 71.7135 66 73C68.0078 74.2865 69.7135 75.9922 71 78C72.2865 75.9922 73.9922 74.2865 76 73C73.9922 71.7135 72.2865 70.0078 71 68V68Z" fill="#C93112"/>
<path d="M9 34C7.71353 36.0078 6.00783 37.7135 4 39C6.00783 40.2865 7.71353 41.9922 9 44C10.2865 41.9922 11.9922 40.2865 14 39C11.9922 37.7135 10.2865 36.0078 9 34V34Z" fill="#C93112"/>
<rect opacity="0.5" x="25.25" y="31.25" width="29.2297" height="49.5" stroke="#C93112" stroke-width="0.5"/>
<path d="M46.6216 41.1351C45.4047 43.0344 43.7912 44.6479 41.8919 45.8649C43.7912 47.0818 45.4047 48.6953 46.6216 50.5946C47.8386 48.6953 49.4521 47.0818 51.3514 45.8649C49.4521 44.6479 47.8386 43.0344 46.6216 41.1351V41.1351Z" fill="#C93112"/>
<path d="M33.1081 41.1351C31.8912 43.0344 30.2777 44.6479 28.3784 45.8649C30.2777 47.0818 31.8912 48.6953 33.1081 50.5946C34.325 48.6953 35.9385 47.0818 37.8378 45.8649C35.9385 44.6479 34.325 43.0344 33.1081 41.1351V41.1351Z" fill="#C93112"/>
<path d="M46.6216 61.4054C45.4047 63.3047 43.7912 64.9182 41.8919 66.1351C43.7912 67.3521 45.4047 68.9656 46.6216 70.8649C47.8386 68.9656 49.4521 67.3521 51.3514 66.1351C49.4521 64.9182 47.8386 63.3047 46.6216 61.4054V61.4054Z" fill="#C93112"/>
<path d="M33.1081 61.4054C31.8912 63.3047 30.2777 64.9182 28.3784 66.1351C30.2777 67.3521 31.8912 68.9656 33.1081 70.8649C34.325 68.9656 35.9385 67.3521 37.8378 66.1351C35.9385 64.9182 34.325 63.3047 33.1081 61.4054V61.4054Z" fill="#C93112"/>
<path d="M19.8797 22.9158H16.9684V27H13.3594V22.9158H4.93835L4 20.8738C5.37143 18.396 6.69474 15.8094 7.96993 13.1683C9.24511 10.5272 10.4962 7.72277 11.6752 5H15.0436L15.5489 5.92574C14.6586 7.80446 13.8406 9.5198 13.1429 11.0173C12.4451 12.5149 11.6752 13.9035 11.0015 15.1287C10.3929 16.2284 9.73435 17.2917 9.02857 18.3144C8.43265 19.2006 7.77274 20.0294 7.05564 20.7921L13.4797 20.4926L13.7684 15.4282L16.9684 15.1559V20.2748H20L19.8797 22.9158Z" fill="#C93112"/>
<path d="M60.0723 89.0791H63.1325V85H66.6265V89.0791H75.0602L76 91.1459C74.6265 93.6205 73.3012 96.2039 72.0241 98.8418C70.747 101.48 69.6145 104.281 68.2892 107H64.9398L64.4337 106.075C65.3253 104.199 66.1446 102.486 66.8434 100.963C67.5422 99.4401 68.3133 98.1076 68.988 96.8838C69.5975 95.7855 70.257 94.7235 70.9639 93.7021C71.5607 92.8169 72.2216 91.9892 72.9398 91.2274L66.506 91.5266L66.1446 96.6391L63.0602 96.8294V91.7169H60L60.0723 89.0791Z" fill="#C93112"/>
</g>
<rect x="0.5" y="0.5" width="79" height="111" rx="4.5" stroke="#DADADA"/>
<defs>
<clipPath id="clip0_276_615">
<rect width="80" height="112" rx="5" fill="white"/>
</clipPath>
</defs>
</svg>
