<svg width="80" height="112" viewBox="0 0 80 112" fill="none" xmlns="http://www.w3.org/2000/svg">
<g clip-path="url(#clip0_276_1788)">
<path d="M75 0H5C2.23858 0 0 2.23858 0 5V107C0 109.761 2.23858 112 5 112H75C77.7614 112 80 109.761 80 107V5C80 2.23858 77.7614 0 75 0Z" fill="white"/>
<path d="M71 68C69.7135 70.0078 68.0078 71.7135 66 73C68.0078 74.2865 69.7135 75.9922 71 78C72.2865 75.9922 73.9922 74.2865 76 73C73.9922 71.7135 72.2865 70.0078 71 68V68Z" fill="#C93112"/>
<path d="M9 34C7.71353 36.0078 6.00783 37.7135 4 39C6.00783 40.2865 7.71353 41.9922 9 44C10.2865 41.9922 11.9922 40.2865 14 39C11.9922 37.7135 10.2865 36.0078 9 34V34Z" fill="#C93112"/>
<path d="M66.5 15C64.0557 18.8149 60.8149 22.0557 57 24.5C60.8149 26.9443 64.0557 30.1851 66.5 34C68.9443 30.1851 72.1851 26.9443 76 24.5C72.1851 22.0557 68.9443 18.8149 66.5 15V15Z" fill="#C93112"/>
<path d="M13.5 77C11.0557 80.8149 7.81489 84.0557 4 86.5C7.81489 88.9443 11.0557 92.1851 13.5 96C15.9443 92.1851 19.1851 88.9443 23 86.5C19.1851 84.0557 15.9443 80.8149 13.5 77V77Z" fill="#C93112"/>
<path d="M17.1723 6.62963C16.8668 6.65361 16.5874 6.73622 16.3848 6.86243C16.1974 6.98787 16.1076 7.14791 16.1342 7.30864V18.037C16.1517 19.1595 16.0201 20.2811 15.7405 21.3933C15.5338 22.2463 14.9971 23.0661 14.1655 23.7989C13.298 24.5081 12.1636 25.1097 10.8367 25.5644C9.04437 26.1437 7.14982 26.6247 5.18121 27L4 25.6808C5.16622 25.2878 6.25736 24.8329 7.25727 24.3228C8.07719 23.917 8.74554 23.4296 9.22595 22.8871C9.70907 22.2685 10.0226 21.6149 10.1566 20.9471C10.3434 20.1104 10.4271 19.2678 10.4072 18.425V7.38624C10.4106 7.22102 10.3234 7.05896 10.1566 6.92063C10.0698 6.84514 9.955 6.78028 9.81942 6.73017C9.68384 6.68007 9.53048 6.64583 9.36913 6.62963L6.00448 6.33862V5H20V6.33862L17.1723 6.62963Z" fill="#C93112"/>
<path d="M62.8572 105.133C63.1619 105.109 63.4407 105.027 63.6428 104.902C63.8426 104.78 63.9453 104.621 63.9286 104.459V93.8154C63.9012 92.7023 64.0206 91.5896 64.2857 90.4856C64.5198 89.6401 65.0663 88.8285 65.8929 88.0989C66.7386 87.3865 67.8745 86.7875 69.2143 86.3473C71.0047 85.7953 72.8956 85.3439 74.8571 85L76 86.3088C74.8491 86.7085 73.762 87.1592 72.75 87.6562C71.9427 88.0595 71.2878 88.5431 70.8214 89.0805C70.3035 89.6875 69.9891 90.3392 69.8928 91.0053C69.6916 91.8348 69.5962 92.6708 69.6071 93.5074V104.633C69.5956 104.8 69.697 104.964 69.8928 105.094C69.9901 105.157 70.1099 105.208 70.2451 105.244C70.3802 105.281 70.5277 105.302 70.6786 105.306L73.9286 105.653V107H60V105.653L62.8572 105.133Z" fill="#C93112"/>
<path d="M45.1813 37.4706V40.4353L49.9412 43.2353L45.1813 46.0353L45.8373 77H41.2449V46.0353C37.0461 46.0353 34.6842 49 34.6842 51.4706C28.3691 46.0353 31.4039 36.8118 34.6842 35C34.6842 38.5576 39.058 40.1059 41.2449 40.4353V37.4706H45.1813Z" fill="#C93112"/>
<path d="M36.1385 37.4706C35.3274 38.5651 34.3272 40.642 34.2949 42.9875M36.1385 48.1765C34.7448 46.4837 34.2718 44.6668 34.2949 42.9875M34.2949 42.9875L41.7059 43.1053" stroke="white"/>
</g>
<rect x="0.5" y="0.5" width="79" height="111" rx="4.5" stroke="#DADADA"/>
<defs>
<clipPath id="clip0_276_1788">
<rect width="80" height="112" rx="5" fill="white"/>
</clipPath>
</defs>
</svg>
