<svg width="80" height="112" viewBox="0 0 80 112" fill="none" xmlns="http://www.w3.org/2000/svg">
<g clip-path="url(#clip0_276_2104)">
<path d="M75 0H5C2.23858 0 0 2.23858 0 5V107C0 109.761 2.23858 112 5 112H75C77.7614 112 80 109.761 80 107V5C80 2.23858 77.7614 0 75 0Z" fill="white"/>
<path d="M71 68C69.7135 70.0078 68.0078 71.7135 66 73C68.0078 74.2865 69.7135 75.9922 71 78C72.2865 75.9922 73.9922 74.2865 76 73C73.9922 71.7135 72.2865 70.0078 71 68V68Z" fill="#C93112"/>
<path d="M9 34C7.71353 36.0078 6.00783 37.7135 4 39C6.00783 40.2865 7.71353 41.9922 9 44C10.2865 41.9922 11.9922 40.2865 14 39C11.9922 37.7135 10.2865 36.0078 9 34V34Z" fill="#C93112"/>
<path d="M11.3563 25.356V26.9758H4V25.356L5.67356 24.9209C5.83111 24.8877 5.97801 24.7953 6.09655 24.6549C6.19324 24.4977 6.24526 24.3011 6.24368 24.0989V7.97363C6.24965 7.76319 6.19738 7.55705 6.09655 7.39341C6.04434 7.28757 5.97377 7.19952 5.89065 7.13649C5.80753 7.07345 5.71423 7.03722 5.61839 7.03077L4 6.66813V5H11.3563V6.66813L9.62759 7.03077C9.55259 7.03683 9.47942 7.06366 9.41287 7.10949C9.34631 7.15532 9.28787 7.21912 9.24138 7.2967C9.14056 7.46034 9.08828 7.66649 9.09425 7.87692V16.7253L15.3839 7.05495L13.5448 6.57143V5H19.6138V6.66813L17.9402 7.03077C17.8101 7.0534 17.6849 7.111 17.5724 7.2C17.447 7.27409 17.3343 7.38103 17.2414 7.51429L13.1954 13.6791C13.5801 14.2867 13.9363 14.9245 14.2621 15.589L15.4207 18.0066L17.9034 23.9538C18.0218 24.2032 18.1572 24.4379 18.308 24.6549C18.4736 24.8285 18.6696 24.9449 18.8782 24.9934L20 25.3802V27H16.1747C15.8988 27 15.623 26.7341 15.3287 26.2022C14.9643 25.4958 14.6326 24.7612 14.3356 24.0022C14.3356 24.0022 12.092 18.4418 11.8713 17.9341C11.6506 17.4264 11.4299 16.9187 11.2092 16.4835L9.09425 19.6264V24.1473C9.08939 24.3501 9.1418 24.5482 9.24138 24.7033C9.35487 24.8533 9.50428 24.9473 9.66437 24.9692L11.3563 25.356Z" fill="#C93112"/>
<path d="M68.7024 85.7206V84H76V85.7206L74.3398 86.1507C74.189 86.1859 74.0492 86.2828 73.9384 86.429C73.887 86.5074 73.8476 86.5993 73.8225 86.6993C73.7974 86.7993 73.7872 86.9054 73.7925 87.011V103.888C73.7814 104.105 73.8267 104.32 73.9202 104.495C74.0231 104.656 74.1669 104.756 74.3216 104.773L76 105.229V107H68.7024V105.229L70.3808 104.773C70.4579 104.767 70.5333 104.74 70.6023 104.692C70.6713 104.644 70.7325 104.577 70.7822 104.495C70.8757 104.32 70.921 104.105 70.9099 103.888V94.6271L64.6705 104.748L66.4949 105.229V107H60.4743V105.229L62.0433 104.773C62.1774 104.745 62.307 104.685 62.4265 104.596C62.5424 104.512 62.6473 104.4 62.7366 104.267L66.8597 97.9164C66.4721 97.281 66.1126 96.6134 65.7834 95.9175C65.455 95.1837 65.0718 94.2981 64.6522 93.3872L62.0798 87.3146C61.9686 87.0478 61.8338 86.8013 61.6785 86.5809C61.5191 86.4038 61.3314 86.2823 61.1311 86.2266L60 85.8471V84.1265H63.813C64.0684 84.1265 64.3421 84.4048 64.634 84.9868C65.0134 85.706 65.349 86.4677 65.6374 87.264C65.6374 87.264 67.8449 93.0836 68.0639 93.615C68.2828 94.1463 68.5199 94.6777 68.7389 95.1331L70.8187 91.8438V86.9857C70.8251 86.8799 70.8154 86.7735 70.7902 86.6733C70.7651 86.573 70.7251 86.4812 70.6728 86.4037C70.5602 86.2467 70.4119 86.1484 70.2531 86.1254L68.7024 85.7206Z" fill="#C93112"/>
<g clip-path="url(#clip1_276_2104)">
<path d="M53.666 69.2531H27.3373V70.0016H53.666V69.2531Z" fill="#C93112"/>
<path d="M53.6676 68.9276H27.3373V66.4817H53.6676V68.9276Z" fill="#C93112"/>
<path d="M32.2251 66.1531H27.2963L26.3843 63.6126L25.912 62.3015C25.912 62.2146 25.9385 62.1296 25.9881 62.0575C26.0377 61.9854 26.1082 61.9293 26.1905 61.8965C26.2729 61.8636 26.3634 61.8555 26.4505 61.8731C26.5376 61.8907 26.6173 61.9333 26.6796 61.9954L27.3914 62.5291L32.2251 66.1531Z" fill="#C93112"/>
<path d="M37.5935 66.1532H32.6729L32.8173 63.7217L32.8369 63.4123L32.9189 62.0355C32.9552 61.9612 33.0123 61.8984 33.0836 61.8545C33.1548 61.8105 33.2374 61.7872 33.3216 61.7872C33.4059 61.7872 33.4884 61.8105 33.5597 61.8545C33.6309 61.8984 33.688 61.9612 33.7243 62.0355L33.9441 62.2679L34.2836 62.6318L37.5935 66.1532Z" fill="#C93112"/>
<path d="M43.0423 58.8458C42.4671 59.4038 42.0632 60.1081 41.8762 60.8788C41.6892 61.6496 41.7267 62.4561 41.9844 63.2071L42.9849 66.1531H38.0184L39.0222 63.2071C39.2783 62.4554 39.3143 61.6487 39.1262 60.8781C38.9381 60.1075 38.5334 59.4036 37.9577 58.8458C37.9571 58.8404 37.9571 58.8351 37.9577 58.8297C38.6412 58.5565 39.2565 58.1426 39.7619 57.6164C39.9489 57.4205 40.1139 57.2055 40.254 56.9752C40.2796 56.9313 40.3168 56.8947 40.3615 56.8693C40.4063 56.8438 40.4572 56.8304 40.509 56.8304C40.5608 56.8304 40.6117 56.8438 40.6565 56.8693C40.7013 56.8947 40.7384 56.9313 40.7641 56.9752C40.9025 57.2066 41.0676 57.4217 41.2561 57.6164C41.7621 58.1411 42.3774 58.5538 43.0604 58.8265C43.0556 58.834 43.0495 58.8405 43.0423 58.8458Z" fill="#C93112"/>
<path d="M32.8058 60.649C32.4298 61.0507 31.967 61.3655 31.451 61.5706C31.451 61.5706 32.7943 62.8529 32.7943 63.7233H33.8391C33.8391 62.8481 35.1824 61.5706 35.1824 61.5706C34.6662 61.366 34.2033 61.0511 33.8276 60.649C33.7633 60.5788 33.6846 60.5226 33.5965 60.4841C33.5085 60.4457 33.4131 60.4258 33.3167 60.4258C33.2203 60.4258 33.1249 60.4457 33.0369 60.4841C32.9488 60.5226 32.8701 60.5788 32.8058 60.649Z" fill="#C93112"/>
<path d="M55.0356 62.3016L54.5747 63.5839L53.6496 66.1484H48.7289L53.6725 62.441L54.2729 61.9906C54.3357 61.9299 54.4154 61.8887 54.5022 61.8722C54.5889 61.8557 54.6787 61.8646 54.7602 61.8979C54.8417 61.9311 54.9114 61.9872 54.9604 62.059C55.0094 62.1309 55.0355 62.2153 55.0356 62.3016Z" fill="#C93112"/>
<path d="M48.2795 66.1532H43.3589L46.6705 62.635L47.1051 62.1701L47.2331 62.0355C47.2693 61.9612 47.3264 61.8984 47.3977 61.8545C47.4689 61.8105 47.5515 61.7872 47.6357 61.7872C47.72 61.7872 47.8025 61.8105 47.8738 61.8545C47.9451 61.8984 48.0021 61.9612 48.0384 62.0355L48.1188 63.3915L48.1401 63.7217L48.2795 66.1532Z" fill="#C93112"/>
<path d="M48.1417 60.649C48.5174 61.0511 48.9803 61.366 49.4966 61.5706C49.4966 61.5706 48.1532 62.8529 48.1532 63.7233H47.1084C47.1084 62.8481 45.7651 61.5706 45.7651 61.5706C46.2811 61.3655 46.7439 61.0507 47.1199 60.649C47.1842 60.5788 47.2629 60.5226 47.351 60.4841C47.439 60.4457 47.5344 60.4258 47.6308 60.4258C47.7273 60.4258 47.8226 60.4457 47.9106 60.4841C47.9987 60.5226 48.0774 60.5788 48.1417 60.649Z" fill="#C93112"/>
<path d="M54.6468 63.6383L53.4593 62.7551C53.584 62.5949 56.4708 58.7288 52.0979 54.7313C48.8995 51.8061 44.5891 54.1751 42.2731 55.4478C42.009 55.5937 41.781 55.7187 41.5793 55.8213C41.2465 55.9925 40.8761 56.082 40.5 56.082C40.1239 56.082 39.7535 55.9925 39.4207 55.8213C39.219 55.7187 38.991 55.5937 38.7286 55.4478C36.4126 54.1816 32.1005 51.8045 28.9021 54.7297C27.0421 56.4255 26.2515 58.2992 26.5533 60.2836C26.6901 61.167 27.0263 62.0095 27.5374 62.7503L26.3532 63.6383C25.6856 62.7019 25.2489 61.6272 25.0771 60.4983C24.8163 58.7897 25.0919 56.2156 27.8835 53.6638C31.8791 50.0142 36.9998 52.8239 39.4601 54.1816C39.7127 54.321 39.9325 54.4412 40.1162 54.5358C40.2346 54.5972 40.3667 54.6294 40.5008 54.6294C40.6349 54.6294 40.767 54.5972 40.8855 54.5358C41.0675 54.4412 41.2873 54.321 41.5415 54.1816C44.0019 52.8288 49.121 50.0142 53.1182 53.6702C55.9065 56.222 56.1837 58.7993 55.9229 60.5048C55.7518 61.6318 55.3149 62.7045 54.6468 63.6383Z" fill="#C93112"/>
<path d="M32.7795 63.4283C32.5778 62.8513 32.3383 62.2647 32.0857 61.6428C30.7949 58.4723 29.1875 54.5278 33.8424 52.2662C35.4334 51.4952 36.9014 51.367 38.2054 51.8863C40.3376 52.739 41.1709 55.015 41.2053 55.1128L39.7964 55.5936C39.7964 55.576 39.1403 53.8305 37.6329 53.2343C36.7439 52.8832 35.6925 52.997 34.5132 53.5725C31.3197 55.124 31.9922 57.4529 33.4799 61.1058C33.7276 61.7149 33.9851 62.3464 34.1983 62.9603L32.7795 63.4283Z" fill="#C93112"/>
<path d="M48.2205 63.4283L46.8148 62.9586C47.028 62.3448 47.2856 61.7148 47.5349 61.1042C49.0209 57.4529 49.6934 55.124 46.5015 53.5708C45.3157 52.9954 44.2627 52.8816 43.3737 53.2326C41.8679 53.8257 41.2168 55.5744 41.2102 55.592L39.8029 55.1111C39.8357 55.0134 40.6689 52.7341 42.8012 51.8846C44.1134 51.3637 45.5748 51.4919 47.1658 52.2645C51.8191 54.5261 50.2133 58.4723 48.9209 61.6411C48.6617 62.2646 48.4222 62.8513 48.2205 63.4283Z" fill="#C93112"/>
<path d="M40.5 61.6813C40.3035 61.6792 40.1158 61.6014 39.9776 61.4648C39.8394 61.3283 39.7619 61.144 39.7619 60.952V52.7054C39.7619 52.6096 39.7812 52.5148 39.8187 52.4263C39.8562 52.3378 39.9112 52.2574 39.9805 52.1897C40.0498 52.122 40.1321 52.0682 40.2226 52.0316C40.3131 51.9949 40.4102 51.9761 40.5082 51.9761C40.6062 51.9761 40.7032 51.9949 40.7938 52.0316C40.8843 52.0682 40.9666 52.122 41.0359 52.1897C41.1052 52.2574 41.1602 52.3378 41.1977 52.4263C41.2352 52.5148 41.2545 52.6096 41.2545 52.7054V60.952C41.2545 61.0484 41.2349 61.1439 41.1969 61.2329C41.1589 61.3219 41.1032 61.4027 41.033 61.4705C40.9628 61.5383 40.8796 61.5919 40.7881 61.6281C40.6966 61.6642 40.5987 61.6823 40.5 61.6813Z" fill="#C93112"/>
<path d="M42.401 45.5022C42.2115 45.8321 41.9356 46.1068 41.6015 46.298C41.2673 46.4892 40.8872 46.59 40.5 46.59C40.1128 46.59 39.7326 46.4892 39.3985 46.298C39.0644 46.1068 38.7885 45.8321 38.599 45.5022L36.0452 46.6931C35.9913 46.7194 35.9438 46.7566 35.9058 46.8021C35.8678 46.8477 35.8401 46.9007 35.8246 46.9575C35.809 47.0143 35.8061 47.0738 35.8158 47.1318C35.8256 47.1898 35.8479 47.2452 35.8812 47.2942L37.4164 49.5894H43.5836L45.127 47.2894C45.1606 47.2404 45.1831 47.1851 45.193 47.127C45.2029 47.0689 45.2 47.0094 45.1845 46.9525C45.1689 46.8956 45.1411 46.8426 45.1029 46.797C45.0648 46.7515 45.017 46.7144 44.963 46.6883L42.401 45.5022Z" fill="#C93112"/>
<path d="M40.5 46.9207C41.0543 46.9218 41.5934 46.7444 42.0342 46.4161C42.475 46.0878 42.7929 45.6268 42.9388 45.1042C43.0846 44.5817 43.0503 44.0268 42.8412 43.5252C42.632 43.0237 42.2596 42.6034 41.7816 42.3293C41.3035 42.0552 40.7464 41.9426 40.1964 42.0089C39.6463 42.0752 39.1339 42.3166 38.7382 42.6959C38.3426 43.0753 38.0859 43.5714 38.0077 44.1076C37.9294 44.6438 38.0341 45.1902 38.3054 45.6625C38.5239 46.0437 38.8424 46.3613 39.2281 46.5824C39.6138 46.8036 40.0528 46.9203 40.5 46.9207Z" fill="#C93112"/>
<path d="M43.6754 49.7513H37.3245C37.1388 49.7513 36.9607 49.8235 36.8293 49.9518C36.698 50.0802 36.6242 50.2542 36.6242 50.4358C36.6242 50.6173 36.698 50.7914 36.8293 50.9197C36.9607 51.0481 37.1388 51.1202 37.3245 51.1202H43.6754C43.8612 51.1202 44.0393 51.0481 44.1707 50.9197C44.302 50.7914 44.3758 50.6173 44.3758 50.4358C44.3758 50.2542 44.302 50.0802 44.1707 49.9518C44.0393 49.8235 43.8612 49.7513 43.6754 49.7513Z" fill="#C93112"/>
<path d="M53.666 66.4817H27.3373V68.9228H53.666V66.4817Z" fill="#C93112"/>
</g>
<path d="M66.5 15C64.0557 18.8149 60.8149 22.0557 57 24.5C60.8149 26.9443 64.0557 30.1851 66.5 34C68.9443 30.1851 72.1851 26.9443 76 24.5C72.1851 22.0557 68.9443 18.8149 66.5 15V15Z" fill="#C93112"/>
<path d="M13.5 77C11.0557 80.8149 7.81489 84.0557 4 86.5C7.81489 88.9443 11.0557 92.1851 13.5 96C15.9443 92.1851 19.1851 88.9443 23 86.5C19.1851 84.0557 15.9443 80.8149 13.5 77V77Z" fill="#C93112"/>
</g>
<rect x="0.5" y="0.5" width="79" height="111" rx="4.5" stroke="#DADADA"/>
<defs>
<clipPath id="clip0_276_2104">
<rect width="80" height="112" rx="5" fill="white"/>
</clipPath>
<clipPath id="clip1_276_2104">
<rect width="31" height="28" fill="white" transform="translate(25 42)"/>
</clipPath>
</defs>
</svg>
