<svg width="80" height="112" viewBox="0 0 80 112" fill="none" xmlns="http://www.w3.org/2000/svg">
<g clip-path="url(#clip0_276_1375)">
<path d="M75 0H5C2.23858 0 0 2.23858 0 5V107C0 109.761 2.23858 112 5 112H75C77.7614 112 80 109.761 80 107V5C80 2.23858 77.7614 0 75 0Z" fill="white"/>
<path d="M71 68C69.7135 70.0078 68.0078 71.7135 66 73C68.0078 74.2865 69.7135 75.9922 71 78C72.2865 75.9922 73.9922 74.2865 76 73C73.9922 71.7135 72.2865 70.0078 71 68V68Z" fill="#C93112"/>
<path d="M9 34C7.71353 36.0078 6.00783 37.7135 4 39C6.00783 40.2865 7.71353 41.9922 9 44C10.2865 41.9922 11.9922 40.2865 14 39C11.9922 37.7135 10.2865 36.0078 9 34V34Z" fill="#C93112"/>
<rect opacity="0.5" x="25.25" y="31.25" width="29.2297" height="49.5" stroke="#C93112" stroke-width="0.5"/>
<path d="M45.9468 33.027C44.9037 34.5193 43.5207 35.787 41.8928 36.7432C43.5207 37.6994 44.9037 38.9671 45.9468 40.4594C46.9899 38.9671 48.3729 37.6994 50.0009 36.7432C48.3729 35.787 46.9899 34.5193 45.9468 33.027V33.027Z" fill="#C93112"/>
<path d="M33.4459 45.4993C32.4898 47.1272 31.222 48.5102 29.7297 49.5533C31.222 50.5964 32.4898 51.9794 33.4459 53.6074C34.4021 51.9794 35.6699 50.5964 37.1622 49.5533C35.6699 48.5102 34.4021 47.1272 33.4459 45.4993V45.4993Z" fill="#C93112"/>
<path d="M45.9468 45.1892C44.9037 46.9528 43.5207 48.4511 41.8928 49.5811C43.5207 50.7111 44.9037 52.2094 45.9468 53.973C46.9899 52.2094 48.3729 50.7111 50.0009 49.5811C48.3729 48.4511 46.9899 46.9528 45.9468 45.1892V45.1892Z" fill="#C93112"/>
<path d="M33.601 33.027C32.6049 34.5816 31.2843 35.9022 29.7297 36.8983C31.2843 37.8943 32.6049 39.2149 33.601 40.7695C34.5971 39.2149 35.9177 37.8943 37.4723 36.8983C35.9177 35.9022 34.5971 34.5816 33.601 33.027V33.027Z" fill="#C93112"/>
<path d="M45.7632 58.7028C44.7671 60.2573 43.4465 61.578 41.8919 62.574C43.4465 63.5701 44.7671 64.8907 45.7632 66.4453C46.7592 64.8907 48.0799 63.5701 49.6344 62.574C48.0799 61.578 46.7592 60.2573 45.7632 58.7028V58.7028Z" fill="#C93112"/>
<path d="M39.6821 51.9459C38.686 53.5005 37.3654 54.8211 35.8108 55.8172C37.3654 56.8133 38.686 58.1339 39.6821 59.6885C40.6781 58.1339 41.9988 56.8133 43.5534 55.8172C41.9988 54.8211 40.6781 53.5005 39.6821 51.9459V51.9459Z" fill="#C93112"/>
<path d="M45.7632 70.8649C44.7671 72.4194 43.4465 73.7401 41.8919 74.7361C43.4465 75.7322 44.7671 77.0528 45.7632 78.6074C46.7592 77.0528 48.0799 75.7322 49.6344 74.7361C48.0799 73.7401 46.7592 72.4194 45.7632 70.8649V70.8649Z" fill="#C93112"/>
<path d="M33.601 58.3372C32.6049 59.8917 31.2843 61.2124 29.7297 62.2084C31.2843 63.2045 32.6049 64.5251 33.601 66.0797C34.5971 64.5251 35.9177 63.2045 37.4723 62.2084C35.9177 61.2124 34.5971 59.8917 33.601 58.3372V58.3372Z" fill="#C93112"/>
<path d="M33.601 70.8649C32.6049 72.4194 31.2843 73.7401 29.7297 74.7361C31.2843 75.7322 32.6049 77.0528 33.601 78.6074C34.5971 77.0528 35.9177 75.7322 37.4723 74.7361C35.9177 73.7401 34.5971 72.4194 33.601 70.8649V70.8649Z" fill="#C93112"/>
<path d="M10.3462 26.998C9.34318 27.0057 8.34455 26.8634 7.38308 26.5755C6.52718 26.345 5.731 25.9306 5.04927 25.3608L5.7835 23.618C6.31523 23.8906 6.86764 24.1201 7.43553 24.3045C8.12706 24.4985 8.8417 24.5962 9.55956 24.595C10.33 24.5962 11.0913 24.4265 11.7893 24.0979C12.4872 23.7693 13.1047 23.2899 13.5978 22.6937C14.8121 21.1276 15.5008 19.2135 15.5645 17.2276C14.9261 17.845 14.167 18.3216 13.3356 18.6272C12.4045 18.977 11.4187 19.1559 10.4249 19.1553C9.52701 19.1583 8.63688 18.988 7.80264 18.6536C7.0439 18.3658 6.36173 17.9048 5.80973 17.3069C5.22455 16.7586 4.76003 16.093 4.44615 15.3528C4.1425 14.5064 3.99153 13.6121 4.00037 12.7122C3.99292 11.6741 4.17973 10.6439 4.55104 9.67544C4.88725 8.73968 5.41426 7.88515 6.09817 7.16684C6.8042 6.47532 7.64296 5.9362 8.5631 5.58247C9.60826 5.17771 10.7213 4.98044 11.8409 5.00153C12.9906 4.98474 14.1319 5.20024 15.1974 5.63528C16.2112 6.04644 17.1109 6.6988 17.8197 7.53653C18.5746 8.45155 19.1367 9.51171 19.4717 10.6525C19.8523 12.0541 20.0289 13.504 19.9961 14.9567C20.0191 16.6646 19.7803 18.3658 19.2881 20.0003C18.8953 21.3705 18.2455 22.6523 17.3739 23.7764C16.5449 24.7899 15.507 25.6099 14.3321 26.1794C13.0804 26.7473 11.7188 27.027 10.3462 26.998ZM11.9196 16.6731C12.5676 16.6615 13.2112 16.5638 13.8338 16.3826C14.4755 16.2061 15.086 15.93 15.6432 15.564V14.1645C15.6519 13.2249 15.564 12.2869 15.381 11.3654C15.2773 10.5826 15.0654 9.81826 14.7516 9.0945C14.4473 8.49772 14.007 7.98194 13.4667 7.58934C12.9561 7.21793 12.3396 7.02335 11.7098 7.03481C11.1801 7.02827 10.6573 7.15536 10.1889 7.4045C9.7508 7.66171 9.37468 8.01341 9.08755 8.43434C8.7873 8.91481 8.56594 9.44089 8.43199 9.99231C8.2917 10.6251 8.22134 11.2716 8.22221 11.92C8.11735 13.1335 8.43233 14.3463 9.11377 15.3528C9.44327 15.7819 9.86979 16.1256 10.3578 16.3553C10.8459 16.5849 11.3813 16.6939 11.9196 16.6731Z" fill="#C93112"/>
<path d="M69.6731 84.0025C70.6771 83.9964 71.6766 84.1449 72.6395 84.4432C73.4943 84.6892 74.2902 85.1208 74.9758 85.7102L74.2408 87.528C73.6993 87.244 73.1376 87.0046 72.5607 86.8119C71.8948 86.6123 71.2057 86.5103 70.5132 86.5089C69.7419 86.5076 68.9797 86.6846 68.281 87.0274C67.5823 87.3701 66.9641 87.8702 66.4705 88.492C65.2549 90.1255 64.5655 92.122 64.5017 94.1933C65.1349 93.5551 65.8851 93.0585 66.7068 92.7336C67.6485 92.3706 68.6436 92.1841 69.6469 92.1827C70.5463 92.1733 71.4386 92.3511 72.272 92.706C73.0344 93.0159 73.724 93.4951 74.2933 94.1107C74.8391 94.7471 75.2665 95.4851 75.5534 96.2866C75.8574 97.1695 76.0085 98.1022 75.9996 99.0409C76.0071 100.124 75.8201 101.198 75.4484 102.208C75.0901 103.16 74.545 104.022 73.8485 104.739C73.1521 105.455 72.3198 106.01 71.4057 106.367C69.2739 107.211 66.9222 107.211 64.7904 106.367C63.7714 105.946 62.8689 105.265 62.1653 104.384C61.4149 103.426 60.8529 102.321 60.5115 101.134C60.1185 99.6468 59.9502 98.104 60.0127 96.562C59.9898 94.7807 60.2288 93.0062 60.7215 91.3014C61.1098 89.8617 61.7606 88.5148 62.6378 87.3352C63.4755 86.2935 64.5131 85.4489 65.683 84.8564C66.9351 84.2613 68.2989 83.9695 69.6731 84.0025ZM68.0718 94.7717C67.4234 94.7878 66.7796 94.8896 66.1555 95.0747C65.5232 95.2643 64.9215 95.5521 64.3704 95.9285V97.526C64.3617 98.5061 64.4497 99.4845 64.6329 100.446C64.7707 101.271 65.0274 102.07 65.3942 102.814C65.6898 103.435 66.1216 103.973 66.6543 104.384C67.1768 104.768 67.8012 104.971 68.4393 104.963C68.9696 104.969 69.493 104.837 69.9619 104.577C70.3875 104.301 70.754 103.935 71.0382 103.503C71.3504 103.008 71.5729 102.457 71.6945 101.878C71.8568 101.221 71.9363 100.545 71.9307 99.8671C71.9947 98.5682 71.6335 97.2854 70.9069 96.2315C70.5799 95.7682 70.1518 95.3939 69.6585 95.14C69.1653 94.886 68.6212 94.7597 68.0718 94.7717Z" fill="#C93112"/>
</g>
<rect x="0.5" y="0.5" width="79" height="111" rx="4.5" stroke="#DADADA"/>
<defs>
<clipPath id="clip0_276_1375">
<rect width="80" height="112" rx="5" fill="white"/>
</clipPath>
</defs>
</svg>
