<svg width="80" height="112" viewBox="0 0 80 112" fill="none" xmlns="http://www.w3.org/2000/svg">
<g clip-path="url(#clip0_276_1886)">
<path d="M75 0H5C2.23858 0 0 2.23858 0 5V107C0 109.761 2.23858 112 5 112H75C77.7614 112 80 109.761 80 107V5C80 2.23858 77.7614 0 75 0Z" fill="white"/>
<path d="M71 68C69.7135 70.0078 68.0078 71.7135 66 73C68.0078 74.2865 69.7135 75.9922 71 78C72.2865 75.9922 73.9922 74.2865 76 73C73.9922 71.7135 72.2865 70.0078 71 68V68Z" fill="#C93112"/>
<path d="M9 34C7.71353 36.0078 6.00783 37.7135 4 39C6.00783 40.2865 7.71353 41.9922 9 44C10.2865 41.9922 11.9922 40.2865 14 39C11.9922 37.7135 10.2865 36.0078 9 34V34Z" fill="#C93112"/>
<path d="M66.5 15C64.0557 18.8149 60.8149 22.0557 57 24.5C60.8149 26.9443 64.0557 30.1851 66.5 34C68.9443 30.1851 72.1851 26.9443 76 24.5C72.1851 22.0557 68.9443 18.8149 66.5 15V15Z" fill="#C93112"/>
<path d="M13.5 77C11.0557 80.8149 7.81489 84.0557 4 86.5C7.81489 88.9443 11.0557 92.1851 13.5 96C15.9443 92.1851 19.1851 88.9443 23 86.5C19.1851 84.0557 15.9443 80.8149 13.5 77V77Z" fill="#C93112"/>
<path d="M17.0056 26.9945C16.3305 27.0126 15.6634 26.837 15.0743 26.4861C14.536 26.1629 14.0413 25.7639 13.6037 25.2998L12.2394 23.8311C11.8002 23.3412 11.277 22.9449 10.6979 22.6637C9.68614 22.6708 8.68423 22.4528 7.75661 22.0235C6.94355 21.6333 6.22757 21.0465 5.66585 20.31C5.09263 19.4991 4.67155 18.5785 4.42556 17.5986C4.1453 16.4741 4.00238 15.316 4.00032 14.1527C3.99135 12.8386 4.17058 11.5307 4.53187 10.2739C4.82509 9.22732 5.31314 8.25404 5.96706 7.41177C6.59683 6.62891 7.39229 6.01587 8.28816 5.62296C9.25965 5.19691 10.3026 4.98549 11.3534 5.00159C12.3801 4.97967 13.3998 5.18486 14.3478 5.60413C15.1821 5.97388 15.9139 6.56362 16.474 7.31762C17.0686 8.11263 17.5029 9.02919 17.7498 10.0102C18.036 11.1719 18.1789 12.3682 18.175 13.569C18.2339 15.5442 17.7803 17.4984 16.8638 19.2179C16.0747 20.6581 14.8127 21.7377 13.3202 22.2495C13.6816 22.3946 14.0312 22.5709 14.3656 22.7767L15.3578 23.4169C15.8477 23.7785 16.363 24.0996 16.8993 24.3772C17.4556 24.6433 18.0613 24.772 18.6711 24.7538H19.2381H19.7165L20 25.8647C19.6611 26.1719 19.2783 26.4198 18.866 26.5991C18.2867 26.894 17.6471 27.0299 17.0056 26.9945ZM11.0877 6.43263C10.4815 6.42679 9.88571 6.59967 9.36647 6.93208C8.84724 7.26449 8.4249 7.74341 8.14642 8.31559C7.34478 10.071 6.98463 12.0172 7.10103 13.9645C6.99034 15.875 7.33145 17.7846 8.09326 19.5192C8.35871 20.0984 8.77564 20.5841 9.29414 20.9181C9.81264 21.252 10.4107 21.4201 11.0168 21.4021C11.6263 21.4137 12.2267 21.2433 12.7498 20.9105C13.2728 20.5777 13.6975 20.0956 13.9758 19.5192C14.7774 17.7637 15.1375 15.8176 15.0211 13.8703C15.1412 11.9672 14.806 10.0627 14.0466 8.33442C13.7777 7.74863 13.3555 7.25766 12.8307 6.92036C12.3059 6.58305 11.7007 6.41371 11.0877 6.43263Z" fill="#C93112"/>
<path d="M62.962 85.0015C63.638 84.9816 64.3063 85.1567 64.8953 85.5078C65.4368 85.834 65.9374 86.231 66.3852 86.6893L67.7331 88.077C68.1795 88.5566 68.7017 88.9501 69.2762 89.2397C70.2891 89.2309 71.2924 89.4482 72.2205 89.8773C73.042 90.2611 73.761 90.8537 74.3134 91.6025C74.8902 92.4013 75.3121 93.3126 75.555 94.2842C75.8476 95.4275 75.9967 96.6065 75.9984 97.791C76.0186 99.0978 75.8511 100.4 75.5017 101.654C75.2025 102.698 74.7079 103.667 74.0473 104.505C73.427 105.318 72.6299 105.962 71.7239 106.38C70.7518 106.806 69.7075 107.016 68.6554 106.999C67.6279 107.019 66.6074 106.815 65.658 106.399C64.8298 106.017 64.1001 105.432 63.5296 104.692C62.9469 103.895 62.5189 102.983 62.2703 102.01C61.9643 100.857 61.8091 99.6642 61.8091 98.4661C61.7583 96.4999 62.2119 94.5559 63.1216 92.8402C63.9142 91.4082 65.1765 90.3338 66.6689 89.821C66.3014 89.6765 65.9455 89.5009 65.6047 89.2959L64.6292 88.6583C64.1341 88.3061 63.6187 87.9867 63.0862 87.7019C62.5286 87.4394 61.9227 87.3113 61.3125 87.3269H60.7627H60.2661L60 86.2205C60.3296 85.9101 60.7077 85.6627 61.1174 85.4891C61.6856 85.1704 62.3188 85.0031 62.962 85.0015ZM68.9037 105.48C69.5109 105.488 70.1082 105.316 70.6283 104.985C71.1484 104.654 71.5709 104.176 71.848 103.604C72.6505 101.856 73.011 99.9179 72.8945 97.9785C73.0236 96.0462 72.688 94.1108 71.919 92.3526C71.6485 91.7757 71.2276 91.2926 70.7059 90.9603C70.1842 90.628 69.5835 90.4605 68.9747 90.4774C68.3653 90.4702 67.766 90.6416 67.2432 90.9726C66.7203 91.3036 66.2944 91.7813 66.0127 92.3526C65.2102 94.1009 64.8497 96.0391 64.9662 97.9785C64.838 99.9127 65.1799 101.849 65.9595 103.604C66.2299 104.181 66.6509 104.664 67.1725 104.997C67.6942 105.329 68.2949 105.497 68.9037 105.48Z" fill="#C93112"/>
<path d="M48.4382 44.6352L48.512 44.2934C48.5922 44.3107 48.6684 44.3438 48.736 44.3911C48.8027 44.4371 48.8599 44.4958 48.9042 44.5643C48.9489 44.6335 48.9794 44.7112 48.9934 44.7929L48.9934 44.7932C49.2134 46.0828 49.2748 47.3935 49.1764 48.6974C49.1389 49.3424 49.0635 49.9848 48.9505 50.6213L48.9493 50.6275L48.9493 50.6275C48.9186 50.7837 48.8289 50.9206 48.7008 51.0119C48.5733 51.1028 48.4166 51.1424 48.2619 51.1243C47.9663 51.0908 47.6691 51.0735 47.3716 51.0725L47.3646 51.0725L47.3646 51.0724C46.4774 51.0517 45.6026 51.2756 44.8404 51.7179C44.4367 51.96 44.0622 52.2454 43.7237 52.5688L43.7211 52.5713L43.7211 52.5712C43.604 52.6809 43.4494 52.7403 43.2904 52.7393C43.1869 52.7391 43.0847 52.7134 42.9933 52.664M42.9933 52.664C42.9933 52.664 42.9933 52.664 42.9933 52.664L43.1596 52.3561L42.9933 52.664ZM47.8524 45.6456C47.976 46.6335 48.0008 47.6311 47.9262 48.6243L47.9261 48.6255C47.8917 49.1063 47.8517 49.5054 47.8028 49.8607C47.656 49.8533 47.5121 49.8494 47.3695 49.8493C46.3664 49.8279 45.3755 50.0549 44.4882 50.5074C44.6815 49.3986 44.5219 48.2761 44.0168 47.0495C44.2898 46.9109 44.5947 46.7699 44.9559 46.6159L44.9559 46.616L44.9619 46.6133C45.89 46.1966 46.8584 45.8725 47.8524 45.6456ZM43.2044 50.5546L43.2042 50.5554L42.9093 46.2307C42.9092 46.2307 42.909 46.2308 42.9089 46.2309C42.773 46.3063 42.6692 46.4304 42.6206 46.5801C42.5719 46.7301 42.5832 46.8927 42.6516 47.0345L42.6516 47.0346C43.3014 48.3805 43.4635 49.4964 43.2044 50.5546Z" fill="#C93112" stroke="#C93112" stroke-width="0.7"/>
<path d="M31.4432 44.6195C31.3626 44.6076 31.2805 44.6115 31.2014 44.631C31.1221 44.6506 31.0473 44.6855 30.9812 44.7341C30.9152 44.7827 30.8592 44.8441 30.8169 44.915C30.7746 44.9859 30.747 45.0647 30.736 45.1468L30.736 45.1471C30.5626 46.4459 30.5538 47.7606 30.7097 49.0616C30.7813 49.6918 30.8578 50.2003 30.9512 50.6571C30.9823 50.812 31.0717 50.9476 31.1989 51.038L31.4016 50.7527L31.1989 51.038C31.3263 51.1285 31.4828 51.1676 31.6371 51.149L31.6371 51.1491L31.641 51.1485C32.0024 51.1007 32.3666 51.0762 32.7313 51.0752L32.7313 51.0753L32.7385 51.0751C33.6261 51.0543 34.5012 51.2781 35.2639 51.7204C35.6675 51.9635 36.042 52.2498 36.3804 52.574C36.4281 52.6206 36.4824 52.6588 36.541 52.688L36.5685 52.7686L36.8292 52.7584C36.9905 52.7521 37.1446 52.6849 37.2587 52.5687C37.373 52.4522 37.4381 52.2954 37.438 52.1308L37.438 52.1294C37.4375 52.0254 37.4114 51.9234 37.3624 51.8321C37.1626 51.4173 37.0068 50.9837 36.8973 50.538C36.6549 49.5386 36.7849 48.4969 37.35 47.2518C37.4149 47.1088 37.4225 46.9465 37.3709 46.798C37.3193 46.6495 37.213 46.5277 37.0758 46.455L37.0758 46.455L37.0731 46.4536C36.4955 46.1543 35.9012 45.887 35.293 45.653C34.0564 45.1593 32.7639 44.8123 31.4432 44.6195ZM31.4432 44.6195C31.4433 44.6195 31.4434 44.6195 31.4435 44.6195L31.3922 44.9658L31.4428 44.6194C31.4429 44.6195 31.443 44.6195 31.4432 44.6195ZM31.8964 45.9465C32.8993 46.1358 33.8809 46.4214 34.8268 46.7993L34.8269 46.7994C35.2773 46.9791 35.6524 47.1385 35.9812 47.2904C35.5542 48.4166 35.4266 49.4583 35.6154 50.4951C34.725 50.0393 33.7297 49.8111 32.7223 49.8341L32.3803 49.8419V49.8467C32.277 49.8507 32.1737 49.8564 32.0706 49.8637C32.0263 49.585 31.9851 49.2765 31.9458 48.9239L31.9458 48.9239L31.9455 48.9214C31.828 47.9335 31.8117 46.9369 31.8964 45.9465Z" fill="#C93112" stroke="#C93112" stroke-width="0.7"/>
<path d="M31.6391 63.234V63.234H31.6065H31.5865L31.5667 63.2317C31.0923 63.1775 30.5726 63.0894 29.9366 62.9623M31.6391 63.234L30.0044 62.6189M31.6391 63.234L31.6429 63.234C31.7862 63.2324 31.9254 63.1819 32.0363 63.0896C32.147 62.9976 32.2228 62.8695 32.2487 62.7265C32.528 61.2056 33.0698 60.1868 33.931 59.4623C34.2978 59.1577 34.6993 58.8953 35.1277 58.6804C35.2653 58.6226 35.3791 58.5169 35.4454 58.3807C35.5151 58.2379 35.5265 58.0737 35.4769 57.9224C35.4274 57.7713 35.3216 57.6466 35.1835 57.5718C35.0514 57.5003 34.8982 57.4789 34.7522 57.5104C34.2745 57.5823 33.7899 57.6006 33.3078 57.5652C32.2636 57.4807 31.2965 57.0462 30.2721 56.1591C30.1574 56.0577 30.0096 56.0025 29.8576 56.0025C29.7045 56.0025 29.5557 56.0585 29.4406 56.1613L29.4406 56.1612L29.4347 56.1667C28.9434 56.6263 28.4804 57.1141 28.0481 57.6274M31.6391 63.234L28.0481 57.6274M29.9366 62.9623C29.9363 62.9622 29.9361 62.9622 29.9358 62.9621L30.0044 62.6189M29.9366 62.9623C29.9368 62.9623 29.9371 62.9624 29.9373 62.9624L30.0044 62.6189M29.9366 62.9623C28.6257 62.7061 27.3521 62.2925 26.1447 61.7308M30.0044 62.6189C28.7206 62.368 27.4733 61.963 26.291 61.4129M26.1447 61.7308C26.1453 61.7311 26.146 61.7314 26.1467 61.7317L26.291 61.4129M26.1447 61.7308C26.0699 61.6967 26.0025 61.648 25.9465 61.5872C25.89 61.5258 25.8463 61.4535 25.8187 61.3743L25.818 61.3724L25.818 61.3724C25.7643 61.2157 25.7763 61.0444 25.851 60.8968L25.8513 60.8962C26.4473 59.7243 27.1849 58.6269 28.0481 57.6274M26.1447 61.7308C26.1442 61.7306 26.1438 61.7304 26.1433 61.7302L26.291 61.4129M26.291 61.4129L28.0481 57.6274M29.8948 57.4466C30.8504 58.1813 31.8136 58.6111 32.8662 58.7584C32.0246 59.5618 31.472 60.5941 31.1478 61.927C30.8606 61.8817 30.5445 61.8238 30.1843 61.7512L30.1827 61.7509C29.1853 61.5547 28.2109 61.2616 27.2738 60.8762C27.7662 60.0082 28.3445 59.189 29.0006 58.4304L29.0006 58.4304L29.002 58.4288C29.2506 58.1377 29.5565 57.787 29.8948 57.4466Z" fill="#C93112" stroke="#C93112" stroke-width="0.7"/>
<path d="M40.3742 71.3166L40.3742 71.3165C40.2172 71.3119 40.0664 71.2498 39.9521 71.1403L39.9515 71.1397C38.9985 70.2227 38.1607 69.1975 37.4561 68.0858C37.0806 67.5076 36.7421 66.9072 36.4423 66.2881L36.4411 66.2856L36.4411 66.2856C36.3744 66.1448 36.3636 65.984 36.4114 65.8354C36.4591 65.687 36.5611 65.5635 36.6949 65.4873L36.6956 65.4869C37.9047 64.8022 38.6341 64.0394 39.0435 63.0799C39.2313 62.6379 39.3663 62.1763 39.446 61.7043C39.4702 61.5597 39.5445 61.4292 39.6544 61.3341C39.7645 61.2389 39.9036 61.1849 40.048 61.1797L40.0608 61.1792L40.0735 61.1797C40.2179 61.1849 40.3571 61.2389 40.4671 61.3341C40.5771 61.4292 40.6514 61.5598 40.6755 61.7045C40.7557 62.1739 40.8906 62.6329 41.0779 63.0725C41.5236 64.1132 42.325 64.9134 43.7461 65.656L40.3742 71.3166ZM40.3742 71.3166H40.3843M40.3742 71.3166H40.3843M40.3843 71.3166H40.4042V71.3167L40.4113 71.3165C40.4934 71.3149 40.5746 71.2971 40.65 71.264C40.725 71.2311 40.7929 71.1837 40.8498 71.1242C41.7689 70.1721 42.565 69.113 43.2202 67.9706C43.5655 67.3777 43.8135 66.9101 44.0222 66.4606L44.0223 66.4604M40.3843 71.3166L44.0223 66.4604M44.0223 66.4604C44.0891 66.3162 44.0974 66.1519 44.0452 66.0015C43.993 65.8515 43.8852 65.7287 43.7462 65.6561L44.0223 66.4604ZM37.8133 66.2519C38.8454 65.5817 39.576 64.8047 40.0481 63.8554C40.5703 64.902 41.4109 65.7428 42.6203 66.4608C42.4822 66.7275 42.3204 67.0189 42.1225 67.3582L42.1216 67.3597C41.6209 68.2283 41.0328 69.0457 40.3661 69.7997C39.6694 69.0698 39.0478 68.2744 38.5104 67.4251L38.5105 67.4251L38.508 67.4213C38.2603 67.0408 38.0285 66.6507 37.8133 66.2519Z" fill="#C93112" stroke="#C93112" stroke-width="0.7"/>
<path d="M50.0853 55.9309L50.0853 55.9309C50.2009 55.8263 50.3512 55.7694 50.5059 55.7694C50.6598 55.7694 50.8094 55.8258 50.9248 55.9294C51.3084 56.269 51.6964 56.6531 52.1776 57.1713C53.0851 58.1336 53.8684 59.2017 54.5094 60.3515L54.5109 60.3541L54.5109 60.3541C54.5504 60.4264 54.575 60.506 54.583 60.5883L50.0853 55.9309ZM50.0853 55.9309L50.0818 55.9341C48.9588 56.9775 47.9172 57.4815 46.792 57.5722C46.3065 57.6092 45.8183 57.5916 45.3369 57.5197C45.1928 57.4973 45.0447 57.5258 44.9189 57.601C44.7925 57.6765 44.6961 57.795 44.6492 57.9365M50.0853 55.9309L44.6492 57.9365M48.2363 62.5447L48.0174 62.8179C47.9063 62.7288 47.8285 62.6037 47.7992 62.4628M48.2363 62.5447L44.6492 57.9365M48.2363 62.5447L48.0174 62.8179C48.1149 62.8959 48.233 62.9424 48.3559 62.9528L48.4199 62.9691M48.2363 62.5447L48.4199 62.9691M47.7992 62.4628C47.7992 62.4626 47.7991 62.4623 47.7991 62.4621L48.1419 62.3913L47.7994 62.4635C47.7993 62.4633 47.7993 62.4631 47.7992 62.4628ZM47.7992 62.4628C47.5103 61.093 46.9914 60.1566 46.1712 59.4684C45.7996 59.1617 45.3935 58.897 44.9608 58.6793L45.118 58.3666M45.118 58.3666L44.9633 58.6806C44.8313 58.6155 44.7257 58.5055 44.6673 58.3686L44.9571 58.245L44.6673 58.3686C44.6088 58.2316 44.6023 58.078 44.6492 57.9365M45.118 58.3666C45.0599 58.338 45.0142 58.29 44.9892 58.2313C44.9642 58.1726 44.9614 58.1071 44.9815 58.0465L46.3951 59.1993C46.0029 58.8755 45.5745 58.5962 45.118 58.3666ZM54.5573 60.8324L54.5573 60.8324L54.5573 60.8324ZM54.5573 60.8324C54.5823 60.7537 54.5911 60.6707 54.583 60.5883L54.5573 60.8324ZM48.4199 62.9691L48.4866 62.9604M48.4199 62.9691L48.4866 62.9604M48.4866 62.9604C49.169 62.8714 49.8453 62.742 50.5118 62.5729M48.4866 62.9604L50.5118 62.5729M50.5118 62.5729C51.8084 62.2612 53.0625 61.799 54.2473 61.1962L50.5118 62.5729ZM47.2453 58.7594C48.399 58.5968 49.4551 58.0893 50.507 57.2131C50.7376 57.4362 50.9867 57.6897 51.2727 57.9972L51.2727 57.9972L51.2741 57.9987C51.9617 58.7292 52.5727 59.5246 53.0982 60.373C52.1757 60.7935 51.2131 61.125 50.224 61.3627L50.2227 61.363C49.841 61.4563 49.378 61.5631 48.8928 61.6453C48.5624 60.4473 48.031 59.5074 47.2453 58.7594ZM54.2475 61.1961C54.3201 61.1592 54.3851 61.1084 54.4383 61.0461L54.2475 61.1961Z" fill="#C93112" stroke="#C93112" stroke-width="0.7"/>
<path d="M37.6353 54.0882C37.774 54.0879 37.9094 54.0419 38.0196 53.9561L38.0207 53.9552C38.6084 53.4939 39.3405 53.2417 40.0962 53.2417C40.852 53.2417 41.5841 53.4939 42.1718 53.9552L42.1726 53.9559C42.3011 54.0562 42.4635 54.1019 42.6245 54.0849C42.7856 54.068 42.9352 53.9895 43.04 53.8637L43.0468 53.8555L43.0531 53.8469C43.2181 53.6222 43.3638 53.3844 43.4884 53.1358L43.5363 53.0482C43.9575 52.365 44.2696 51.6227 44.4616 50.8468L44.4623 50.844C45.0095 48.5516 43.9369 46.5592 42.9665 44.9686C42.2849 43.8432 41.4682 42.8018 40.534 41.8665L40.534 41.8664L40.5301 41.8627C40.4139 41.7498 40.2592 41.6864 40.0986 41.6834L39.742 41.6766V41.7935C39.7121 41.814 39.6838 41.8373 39.6576 41.8631L39.6576 41.8631L39.6565 41.8643C38.7178 42.7977 37.9 43.8408 37.2217 44.97C36.2465 46.5574 35.1814 48.544 35.7303 50.8252L35.7306 50.8264C35.9225 51.6116 36.2362 52.3633 36.6605 53.0552L36.6625 53.0584L36.672 53.0761L36.6871 53.1049L36.7029 53.1348C36.8281 53.3836 36.9741 53.6217 37.1393 53.8468L37.1455 53.8552L37.5164 53.7126L37.3694 54.0302C37.3694 54.0302 37.3694 54.0302 37.3694 54.0302C37.4528 54.0688 37.5436 54.0886 37.6353 54.0882ZM37.6353 54.0882C37.6351 54.0882 37.6349 54.0882 37.6347 54.0882L37.6343 53.7382L37.636 54.0882C37.6357 54.0882 37.6355 54.0882 37.6353 54.0882ZM37.7251 52.4137C37.3693 51.8304 37.1056 51.1981 36.9428 50.5383C36.8283 50.0623 36.7471 49.5319 36.8934 48.7824C37.0417 48.0222 37.4281 47.0165 38.2878 45.6075L38.2878 45.6075L38.289 45.6055C38.806 44.7454 39.4101 43.9386 40.0921 43.1971C40.7755 43.9391 41.3825 44.7454 41.9043 45.6041L41.9046 45.6046C42.8251 47.1139 43.6815 48.7671 43.2498 50.5547C43.0879 51.2096 42.8242 51.8364 42.4676 52.4134L42.4633 52.4203L42.4594 52.4274L42.3885 52.5551L42.3884 52.5551L42.3847 52.5621C42.3784 52.5739 42.3718 52.5864 42.3649 52.5995C41.676 52.2124 40.894 52.0074 40.0962 52.0074C39.2984 52.0074 38.5163 52.2125 37.8274 52.5996C37.8269 52.5988 37.8265 52.5981 37.8261 52.5973C37.8196 52.5852 37.8133 52.5735 37.8071 52.5622C37.7731 52.497 37.7482 52.4509 37.7251 52.4137Z" fill="#C93112" stroke="#C93112" stroke-width="0.7"/>
<path d="M27.1918 52.3734C27.084 52.4199 26.9768 52.4677 26.87 52.5167C27.3927 53.4089 28.0063 54.2473 28.7018 55.0192C30.9438 57.527 32.2635 57.8295 33.3263 57.9142C33.4937 57.9281 33.6668 57.935 33.8414 57.935M27.1918 52.3734C27.698 53.2324 28.2909 54.0403 28.9618 54.7849L28.9628 54.7859C30.0672 56.0213 30.9266 56.693 31.6221 57.0671C32.3092 57.4368 32.8534 57.5254 33.3541 57.5653L33.3552 57.5654C33.5124 57.5784 33.6756 57.585 33.8408 57.585M27.1918 52.3734C28.1207 51.9718 29.0879 51.6598 30.0796 51.4418L30.0805 51.4416C30.9135 51.2563 31.8648 51.0725 32.7757 51.0725V51.0726L32.7839 51.0724C33.6715 51.0516 34.5466 51.2754 35.3092 51.7177C35.8901 52.068 36.4113 52.5044 36.8545 53.011C36.8771 53.0374 36.9118 53.0741 36.9521 53.115C36.9693 53.1325 36.9912 53.1551 37.016 53.181C36.4394 53.6996 36.0063 54.3567 35.7621 55.091C35.5177 55.826 35.4724 56.6084 35.6276 57.362C35.5879 57.3696 35.5527 57.3761 35.5247 57.3812L35.524 57.3814L35.4048 57.4036L35.3977 57.4049L35.3905 57.4066C34.8826 57.5233 34.3626 57.5832 33.8408 57.585M33.8408 57.585C33.8406 57.585 33.8404 57.585 33.8402 57.585L33.8414 57.935M33.8408 57.585C33.841 57.585 33.8412 57.585 33.8414 57.585V57.935" fill="#C93112" stroke="#C93112" stroke-width="0.7"/>
<path d="M31.5767 68.5549L31.5881 68.555L31.5995 68.5543L31.6449 68.5515L31.6625 68.5504L31.6799 68.5476C32.9992 68.332 34.2866 67.9588 35.5132 67.4364C37.2439 66.7097 39.3048 65.7204 40.2386 63.5658L40.2386 63.5658L40.24 63.5625C40.5486 62.8299 40.7394 62.0548 40.8057 61.2649L40.8057 61.2646L40.809 61.2477C40.8129 61.2272 40.8176 61.1981 40.8197 61.1628C40.8718 60.8631 40.8877 60.5585 40.8668 60.2551L40.8657 60.2384L40.863 60.2219C40.8377 60.0696 40.7561 59.9336 40.6361 59.8391L40.4196 60.1141L40.6361 59.8391C40.5193 59.7472 40.3738 59.7004 40.2264 59.7056H40.2097H40.0926C39.3713 59.7032 38.671 59.4721 38.0968 59.0481C37.5225 58.6241 37.1057 58.0305 36.9072 57.3572L36.9071 57.3568C36.8641 57.2117 36.7695 57.0887 36.643 57.0089C36.5167 56.9292 36.3662 56.8974 36.219 56.9181L36.2004 56.9208L36.1823 56.9253C35.8785 57.0019 35.5846 57.1127 35.3067 57.2555C35.2929 57.262 35.2809 57.268 35.2713 57.2729L35.2707 57.2732L35.239 57.2861C34.4892 57.5916 33.792 58.0089 33.1722 58.5234L33.1722 58.5234L33.1703 58.525C31.356 60.053 31.028 62.2766 30.8579 64.1197C30.7326 65.4223 30.7677 66.7349 30.9624 68.0294L30.9624 68.0294L30.9626 68.0311C30.9856 68.1787 31.0615 68.3119 31.1745 68.4073L31.1745 68.4073C31.2874 68.5026 31.4301 68.5543 31.5767 68.5549ZM40.8039 61.2734L40.804 61.2732C40.8035 61.2756 40.8034 61.276 40.8039 61.2734ZM39.583 60.9043C39.5793 60.9334 39.5758 60.96 39.5728 60.983C39.5562 61.0567 39.5537 61.1159 39.5533 61.1492C39.4979 61.8103 39.3384 62.4593 39.0803 63.0732C38.8864 63.5239 38.633 64.0006 38.063 64.5241C37.485 65.055 36.5667 65.6473 35.0231 66.293L35.0213 66.2938C34.085 66.6917 33.1107 66.9971 32.1128 67.2057C32.0089 66.216 32.004 65.2185 32.0982 64.2272L32.0984 64.2258C32.2563 62.4881 32.5566 60.6614 33.9765 59.4665C34.4972 59.0341 35.0838 58.6835 35.7154 58.4273L35.7155 58.4275L35.7279 58.422L35.8386 58.372L35.8386 58.3721L35.8463 58.3684C35.8725 58.3558 35.9076 58.3393 35.9478 58.3208C36.276 59.0211 36.7836 59.628 37.4228 60.0816C38.0609 60.5343 38.8053 60.8165 39.583 60.9043Z" fill="#C93112" stroke="#C93112" stroke-width="0.7"/>
<path d="M48.0816 67.2098C47.0823 67.0005 46.1062 66.696 45.1674 66.3003L45.1665 66.2999C43.5171 65.6097 41.8313 64.7675 41.1081 63.0777C40.849 62.4607 40.69 61.8081 40.6367 61.1434L40.6359 61.1338L40.6346 61.1242C40.633 61.1127 40.6312 61.1028 40.63 61.0968L40.6269 61.081L40.6235 61.0642C40.6222 61.0571 40.6222 61.0543 40.6222 61.0535V61.0306L40.6192 61.0079C40.6187 61.0038 40.6181 60.9995 40.6175 60.9952C40.6143 60.9709 40.6106 60.9425 40.6066 60.9114C41.3855 60.8235 42.131 60.5409 42.77 60.0874C43.4094 59.6337 43.9171 59.0266 44.2455 58.3262C44.2854 58.3443 44.3204 58.3606 44.3473 58.3731L44.3478 58.3733L44.4584 58.4246L44.466 58.4281L44.4738 58.4313C45.1062 58.6888 45.6941 59.0401 46.2166 59.4725C46.5958 59.79 46.9809 60.1723 47.3133 60.863C47.6502 61.563 47.9418 62.5986 48.0927 64.2319L48.0929 64.2339C48.1903 65.2241 48.1864 66.221 48.0816 67.2098ZM48.4559 68.5395L48.4765 68.5596L48.6179 68.5605C48.7647 68.5614 48.9081 68.5107 49.0218 68.4159L48.7976 68.1471L49.0218 68.4159C49.1356 68.321 49.2122 68.1879 49.2354 68.04L49.2357 68.0384C49.4333 66.7408 49.4661 65.4242 49.3331 64.1187C49.1629 62.2759 48.8348 60.0542 47.0221 58.5278L47.0221 58.5278L47.0203 58.5263C46.4018 58.0123 45.7062 57.5949 44.9581 57.2886L44.8832 57.2549C44.6056 57.1112 44.3117 57.0005 44.0075 56.925L43.9923 56.9212L43.9767 56.9188C43.828 56.8958 43.6752 56.9271 43.5473 57.0077C43.4199 57.0881 43.3252 57.2125 43.2834 57.3589C43.0845 58.0319 42.6675 58.6252 42.0932 59.0489C41.5185 59.4729 40.8176 59.7038 40.0957 59.7056H39.9799H39.971C39.8233 59.6999 39.6774 59.7466 39.5603 59.8388L39.7756 60.1122L39.5603 59.8388C39.4398 59.9336 39.3581 60.0704 39.3335 60.2235L39.331 60.2392L39.3299 60.2551C39.3085 60.567 39.3258 60.8802 39.3815 61.188L39.3837 61.2002L39.3868 61.2123C39.387 61.2134 39.3872 61.214 39.3872 61.2142C39.3872 61.2142 39.3872 61.2142 39.3872 61.2142C39.3872 61.2143 39.3872 61.2144 39.3872 61.2146L39.3872 61.22V61.2344L39.3884 61.2486C39.4536 62.043 39.6443 62.8225 39.9537 63.5594L39.9537 63.5594L39.955 63.5624C40.8859 65.722 42.9446 66.7126 44.6819 67.4397C45.8915 67.95 47.1583 68.3191 48.4559 68.5395Z" fill="#C93112" stroke="#C93112" stroke-width="0.7"/>
<path d="M43.5516 58.3619C43.5488 58.3608 43.5461 58.3598 43.5434 58.3587L43.5271 58.3524L43.5115 58.3446C43.3777 58.277 43.2716 58.1631 43.2151 58.0223C43.1585 57.8813 43.1563 57.7246 43.2089 57.5821L43.2094 57.5806C43.4628 56.9029 43.4765 56.1619 43.2484 55.4758C43.0202 54.7895 42.5627 54.1962 41.9474 53.792L41.947 53.7918C41.8213 53.7089 41.729 53.5827 41.6899 53.4356C41.6507 53.2882 41.668 53.1321 41.738 52.9971L41.7455 52.9825L41.7544 52.9687C41.9225 52.7075 42.1221 52.4672 42.3487 52.2529L42.404 52.1954C42.933 51.5936 43.5534 51.0754 44.2432 50.6588L44.248 50.6559L44.248 50.6559C45.2073 50.0975 46.3071 49.8144 47.422 49.8382C48.4671 49.8386 49.517 50.0428 50.3851 50.2363C51.69 50.5183 52.9547 50.9563 54.1505 51.5406C54.2238 51.5752 54.2899 51.6238 54.3449 51.684L54.0864 51.92L54.3449 51.684C54.4009 51.7453 54.4442 51.8175 54.4717 51.8963L54.4738 51.9022L54.4737 51.9022C54.4997 51.9812 54.5094 52.0646 54.5019 52.1476L54.5019 52.1476C54.4945 52.2303 54.4703 52.3104 54.431 52.3832L43.5516 58.3619ZM43.5516 58.3619L43.4149 58.8217L43.7979 58.4472C44.0118 58.5138 44.2312 58.5627 44.4538 58.5935L44.5355 58.6064C45.132 58.7407 45.742 58.8084 46.3539 58.8082L43.5516 58.3619ZM44.5627 57.3588C44.6022 57.3663 44.6373 57.3728 44.6653 57.378C44.6821 57.3808 44.6973 57.3826 44.7164 57.3847L44.7183 57.3849C44.7268 57.3859 44.7395 57.3873 44.7515 57.389C44.7621 57.3904 44.7816 57.3933 44.8039 57.3986C45.3122 57.5132 45.8322 57.571 46.3539 57.5711L44.5627 57.3588ZM44.5627 57.3588C44.7171 56.6061 44.6716 55.8249 44.4275 55.091C44.1833 54.3568 43.7504 53.6998 43.174 53.1812M44.5627 57.3588L43.174 53.1812M43.174 53.1812C43.198 53.1561 43.2196 53.1337 43.2373 53.1153L43.2403 53.1121L43.2409 53.1115L43.3246 53.0241L43.3299 53.0186L43.3348 53.0129C43.78 52.506 44.3032 52.0694 44.8859 51.7191C45.6481 51.2769 46.5229 51.053 47.41 51.0738L47.41 51.0739H47.4182C48.3279 51.0739 49.2794 51.2563 50.112 51.4416L50.114 51.442C51.1075 51.657 52.0762 51.9682 53.0057 52.371C52.4958 53.2289 51.9013 54.0365 51.2305 54.7823C50.0436 56.0991 48.7086 57.4095 46.837 57.5583L46.8359 57.5584C46.6853 57.5709 46.5283 57.5711 46.354 57.5711L43.174 53.1812Z" fill="#C93112" stroke="#C93112" stroke-width="0.7"/>
<path d="M39.6316 46.9186L39.6312 46.9186V46.9296V52.628C39.6312 52.7396 39.6766 52.8458 39.7561 52.9237C39.8356 53.0014 39.9427 53.0445 40.0537 53.0445C40.1646 53.0445 40.2718 53.0015 40.3514 52.924C40.4312 52.8464 40.4769 52.7403 40.4775 52.6288V52.628V46.9296H40.4779L40.4771 46.9186C40.4693 46.8122 40.4206 46.7135 40.3419 46.6418C40.2633 46.5703 40.1605 46.531 40.0544 46.531C39.9482 46.531 39.8455 46.5703 39.7669 46.6418C39.6882 46.7135 39.6395 46.8122 39.6316 46.9186Z" fill="#C93112" stroke="#C93112" stroke-width="0.3"/>
<path d="M36.2124 55.6825L36.2124 55.6825L36.2151 55.6833C36.2565 55.6957 36.2995 55.702 36.3427 55.7021L36.343 55.5521L36.3423 55.7021C36.4424 55.7025 36.5398 55.6679 36.6168 55.6038C36.6939 55.5397 36.7456 55.4501 36.7616 55.3508C36.7775 55.2516 36.7565 55.1502 36.7029 55.0653C36.6493 54.9807 36.5672 54.9183 36.4718 54.8885C36.4716 54.8885 36.4714 54.8884 36.4712 54.8884L30.9013 53.1178C30.9013 53.1178 30.9013 53.1178 30.9013 53.1178C30.8488 53.1011 30.7935 53.0947 30.7386 53.0989C30.6836 53.1032 30.63 53.1179 30.5806 53.1425C30.5313 53.1671 30.4871 53.201 30.4508 53.2426C30.4145 53.2841 30.3868 53.3324 30.3694 53.3848C30.352 53.4372 30.3453 53.4926 30.3497 53.5476C30.3541 53.6027 30.3695 53.6562 30.395 53.7052C30.4205 53.7542 30.4555 53.7975 30.4978 53.8329L30.4978 53.8329C30.5402 53.8682 30.589 53.895 30.6415 53.9117L30.6415 53.9117L36.2124 55.6825Z" fill="#C93112" stroke="#C93112" stroke-width="0.3"/>
<path d="M34.3334 64.6536C34.4002 64.6539 34.4662 64.6386 34.5261 64.609C34.5862 64.5792 34.6384 64.5358 34.6784 64.482L34.6784 64.4819L38.118 59.8467C38.118 59.8466 38.118 59.8466 38.118 59.8466C38.1509 59.8023 38.1747 59.752 38.1878 59.6985C38.201 59.6449 38.2032 59.5892 38.1944 59.5347C38.1856 59.4802 38.1659 59.4281 38.1366 59.3814C38.1073 59.3347 38.0691 59.2942 38.0242 59.2623L37.9376 59.3841L38.0242 59.2623C37.9792 59.2304 37.9285 59.2076 37.8749 59.195C37.8213 59.1824 37.7657 59.1802 37.7113 59.1887C37.6569 59.1971 37.6046 59.2159 37.5573 59.2442C37.5101 59.2726 37.4687 59.3098 37.4359 59.3541L37.4359 59.3541L33.992 63.9894L33.9917 63.9899C33.9255 64.0796 33.898 64.1919 33.916 64.3021C33.934 64.4122 33.9958 64.5099 34.0865 64.5744L34.1734 64.4522M34.3334 64.6536C34.2447 64.6535 34.1581 64.6258 34.086 64.5741L34.1734 64.4522M34.3334 64.6536C34.3332 64.6536 34.3331 64.6536 34.333 64.6536L34.3338 64.5036M34.3334 64.6536C34.3335 64.6536 34.3336 64.6536 34.3338 64.6536L34.3338 64.5036M34.1734 64.4522C34.2199 64.4856 34.2761 64.5036 34.3338 64.5036M34.1734 64.4522C34.1148 64.4105 34.0755 64.3479 34.0641 64.2779C34.0526 64.2079 34.07 64.1364 34.1124 64.0789L34.3338 64.5036" fill="#C93112" stroke="#C93112" stroke-width="0.3"/>
<path d="M46.0205 64.4508L46.1083 64.5724C46.0362 64.6246 45.9491 64.6524 45.8602 64.6522M46.0205 64.4508L46.1072 64.5732C46.1979 64.509 46.2597 64.4115 46.2777 64.3015C46.2958 64.1915 46.2683 64.0793 46.2021 63.9897L46.2019 63.9894L42.7608 59.3564C42.73 59.3098 42.6902 59.2699 42.6438 59.2388C42.5959 59.2067 42.5418 59.1846 42.4851 59.174C42.4284 59.1633 42.3701 59.1641 42.3137 59.1765C42.2573 59.1888 42.2039 59.2124 42.1569 59.2459C42.1099 59.2795 42.0703 59.3223 42.0406 59.3719C42.0108 59.4215 41.9918 59.4768 41.9848 59.5342C41.9777 59.5916 41.9828 59.6498 41.9998 59.7051C42.0161 59.7585 42.043 59.8079 42.0788 59.8506L45.5194 64.4814C45.5194 64.4815 45.5195 64.4816 45.5196 64.4817C45.5589 64.5351 45.6104 64.5781 45.6696 64.6077L45.7366 64.4734L45.6696 64.6077C45.7288 64.6372 45.7941 64.6524 45.8602 64.6522M46.0205 64.4508C45.9741 64.4844 45.9178 64.5024 45.8601 64.5022M46.0205 64.4508L45.8601 64.5022M45.8602 64.6522C45.86 64.6522 45.8598 64.6522 45.8596 64.6522L45.8601 64.5022M45.8602 64.6522C45.8604 64.6522 45.8605 64.6522 45.8607 64.6522L45.8601 64.5022" fill="#C93112" stroke="#C93112" stroke-width="0.3"/>
<path d="M43.85 55.7007C43.8931 55.7006 43.936 55.6943 43.9774 55.682L43.9774 55.682L43.98 55.6812L49.5509 53.9103L49.551 53.9103C49.6035 53.8936 49.6523 53.8669 49.6946 53.8315L49.5992 53.7173L49.6946 53.8315C49.737 53.7962 49.7719 53.7528 49.7974 53.7039C49.8229 53.6549 49.8384 53.6014 49.8428 53.5463C49.8472 53.4912 49.8405 53.4359 49.8231 53.3835C49.8057 53.3311 49.7779 53.2828 49.7416 53.2412L49.7416 53.2412C49.7053 53.1997 49.6612 53.1657 49.6119 53.1412C49.5625 53.1166 49.5089 53.1018 49.4539 53.0976C49.399 53.0934 49.3437 53.0998 49.2912 53.1165C49.2912 53.1165 49.2912 53.1165 49.2912 53.1165L43.7213 54.887C43.7211 54.8871 43.7209 54.8871 43.7207 54.8872C43.6253 54.917 43.5431 54.9794 43.4896 55.064C43.436 55.1489 43.415 55.2502 43.4309 55.3495C43.4469 55.4487 43.4986 55.5383 43.5757 55.6025C43.6526 55.6666 43.75 55.7011 43.85 55.7007ZM43.85 55.7007C43.8499 55.7007 43.8499 55.7007 43.8498 55.7007L43.8495 55.5507L43.8502 55.7007C43.8501 55.7007 43.85 55.7007 43.85 55.7007Z" fill="#C93112" stroke="#C93112" stroke-width="0.3"/>
<path d="M40.1395 59.7442C39.4266 59.7442 38.7297 59.554 38.1369 59.1975C37.5441 58.841 37.0821 58.3343 36.8093 57.7415C36.5364 57.1487 36.4651 56.4964 36.6041 55.8671C36.7432 55.2378 37.0865 54.6598 37.5907 54.2061C38.0948 53.7524 38.7371 53.4434 39.4363 53.3182C40.1355 53.193 40.8603 53.2573 41.519 53.5028C42.1776 53.7484 42.7406 54.1642 43.1367 54.6977C43.5328 55.2312 43.7442 55.8584 43.7442 56.5C43.7429 57.3601 43.3627 58.1846 42.687 58.7928C42.0113 59.4009 41.0952 59.7431 40.1395 59.7442Z" fill="#C93112"/>
</g>
<rect x="0.5" y="0.5" width="79" height="111" rx="4.5" stroke="#DADADA"/>
<defs>
<clipPath id="clip0_276_1886">
<rect width="80" height="112" rx="5" fill="white"/>
</clipPath>
</defs>
</svg>
