<svg width="80" height="112" viewBox="0 0 80 112" fill="none" xmlns="http://www.w3.org/2000/svg">
<g clip-path="url(#clip0_276_1029)">
<path d="M75 0H5C2.23858 0 0 2.23858 0 5V107C0 109.761 2.23858 112 5 112H75C77.7614 112 80 109.761 80 107V5C80 2.23858 77.7614 0 75 0Z" fill="white"/>
<path d="M71 68C69.7135 70.0078 68.0078 71.7135 66 73C68.0078 74.2865 69.7135 75.9922 71 78C72.2865 75.9922 73.9922 74.2865 76 73C73.9922 71.7135 72.2865 70.0078 71 68V68Z" fill="#C93112"/>
<path d="M9 34C7.71353 36.0078 6.00783 37.7135 4 39C6.00783 40.2865 7.71353 41.9922 9 44C10.2865 41.9922 11.9922 40.2865 14 39C11.9922 37.7135 10.2865 36.0078 9 34V34Z" fill="#C93112"/>
<rect opacity="0.5" x="25.25" y="31.25" width="29.2297" height="49.5" stroke="#C93112" stroke-width="0.5"/>
<path d="M47.2973 35.0541C46.0804 36.9534 44.4669 38.5669 42.5676 39.7838C44.4669 41.0007 46.0804 42.6142 47.2973 44.5135C48.5142 42.6142 50.1277 41.0007 52.027 39.7838C50.1277 38.5669 48.5142 36.9534 47.2973 35.0541V35.0541Z" fill="#C93112"/>
<path d="M32.4324 51.2703C31.2155 53.1696 29.602 54.7831 27.7027 56C29.602 57.2169 31.2155 58.8304 32.4324 60.7297C33.6494 58.8304 35.2629 57.2169 37.1622 56C35.2629 54.7831 33.6494 53.1696 32.4324 51.2703V51.2703Z" fill="#C93112"/>
<path d="M47.2973 51.2703C46.0804 53.1696 44.4669 54.7831 42.5676 56C44.4669 57.2169 46.0804 58.8304 47.2973 60.7297C48.5142 58.8304 50.1277 57.2169 52.027 56C50.1277 54.7831 48.5142 53.1696 47.2973 51.2703V51.2703Z" fill="#C93112"/>
<path d="M39.8649 43.1621C38.6479 45.0614 37.0344 46.6749 35.1351 47.8918C37.0344 49.1088 38.6479 50.7223 39.8649 52.6216C41.0818 50.7223 42.6953 49.1088 44.5946 47.8918C42.6953 46.6749 41.0818 45.0614 39.8649 43.1621V43.1621Z" fill="#C93112"/>
<path d="M32.4324 35.0541C31.2155 36.9534 29.602 38.5669 27.7027 39.7838C29.602 41.0007 31.2155 42.6142 32.4324 44.5135C33.6494 42.6142 35.2629 41.0007 37.1622 39.7838C35.2629 38.5669 33.6494 36.9534 32.4324 35.0541V35.0541Z" fill="#C93112"/>
<path d="M47.2973 67.4865C46.0804 69.3858 44.4669 70.9992 42.5676 72.2162C44.4669 73.4331 46.0804 75.0466 47.2973 76.9459C48.5142 75.0466 50.1277 73.4331 52.027 72.2162C50.1277 70.9992 48.5142 69.3858 47.2973 67.4865V67.4865Z" fill="#C93112"/>
<path d="M32.4324 67.4865C31.2155 69.3858 29.602 70.9992 27.7027 72.2162C29.602 73.4331 31.2155 75.0466 32.4324 76.9459C33.6494 75.0466 35.2629 73.4331 37.1622 72.2162C35.2629 70.9992 33.6494 69.3858 32.4324 67.4865V67.4865Z" fill="#C93112"/>
<path d="M17.0099 7.87077H12.3738C11.5782 7.87077 10.8376 7.87077 10.1792 7.87077C9.63462 7.90015 9.09333 7.974 8.56066 8.0916C8.31343 8.12718 8.07826 8.22183 7.87485 8.36763C7.68238 8.52591 7.53948 8.7368 7.46336 8.97491L6.3112 12.6462H4.06173C3.97942 11.3317 3.97942 10.0133 4.06173 8.69887C4.13391 7.45947 4.27127 6.22478 4.47322 5H18.9301L20 7.3463C17.9828 9.98962 16.3138 12.8844 15.0347 15.9586C13.6201 19.4793 12.7861 23.2089 12.5658 27H8.78012L8.03944 26.4479C8.18799 24.6746 8.53774 22.9242 9.08188 21.2309C9.60644 19.5199 10.2764 17.8575 11.0844 16.2622C11.8816 14.6932 12.7988 13.1889 13.8277 11.7629C14.7693 10.3714 15.8344 9.0687 17.0099 7.87077Z" fill="#C93112"/>
<path d="M62.9679 104.046H67.6784C68.468 104.046 69.2032 104.046 69.8567 104.046C70.3884 104.019 70.9168 103.946 71.4359 103.826C71.6908 103.794 71.934 103.7 72.1439 103.55C72.3343 103.396 72.4685 103.182 72.525 102.942L73.6959 99.3538H75.9286C76.0238 100.668 76.0238 101.987 75.9286 103.301C75.9286 104.626 75.7108 105.868 75.5474 107H61.0347L60 104.654C61.9927 102.009 63.64 99.1141 64.9011 96.0414C66.3052 92.5207 67.133 88.7911 67.3517 85H71.1364L71.7899 85.8005C71.6292 87.5719 71.2823 89.3209 70.7552 91.0176C70.237 92.7335 69.5625 94.3969 68.7403 95.9862C67.9496 97.5556 67.0392 99.0599 66.0175 100.486C65.0949 101.752 64.0752 102.943 62.9679 104.046Z" fill="#C93112"/>
</g>
<rect x="0.5" y="0.5" width="79" height="111" rx="4.5" stroke="#DADADA"/>
<defs>
<clipPath id="clip0_276_1029">
<rect width="80" height="112" rx="5" fill="white"/>
</clipPath>
</defs>
</svg>
