<svg width="80" height="112" viewBox="0 0 80 112" fill="none" xmlns="http://www.w3.org/2000/svg">
<g clip-path="url(#clip0_276_878)">
<path d="M75 0H5C2.23858 0 0 2.23858 0 5V107C0 109.761 2.23858 112 5 112H75C77.7614 112 80 109.761 80 107V5C80 2.23858 77.7614 0 75 0Z" fill="white"/>
<path d="M71 68C69.7135 70.0078 68.0078 71.7135 66 73C68.0078 74.2865 69.7135 75.9922 71 78C72.2865 75.9922 73.9922 74.2865 76 73C73.9922 71.7135 72.2865 70.0078 71 68V68Z" fill="#C93112"/>
<path d="M9 34C7.71353 36.0078 6.00783 37.7135 4 39C6.00783 40.2865 7.71353 41.9922 9 44C10.2865 41.9922 11.9922 40.2865 14 39C11.9922 37.7135 10.2865 36.0078 9 34V34Z" fill="#C93112"/>
<rect opacity="0.5" x="25.25" y="31.25" width="29.2297" height="49.5" stroke="#C93112" stroke-width="0.5"/>
<path d="M46.6216 37.7567C45.4047 39.656 43.7912 41.2695 41.8919 42.4864C43.7912 43.7034 45.4047 45.3169 46.6216 47.2162C47.8386 45.3169 49.452 43.7034 51.3514 42.4864C49.452 41.2695 47.8386 39.656 46.6216 37.7567V37.7567Z" fill="#C93112"/>
<path d="M33.1081 51.2703C31.8912 53.1696 30.2777 54.7831 28.3784 56C30.2777 57.2169 31.8912 58.8304 33.1081 60.7297C34.325 58.8304 35.9385 57.2169 37.8378 56C35.9385 54.7831 34.325 53.1696 33.1081 51.2703V51.2703Z" fill="#C93112"/>
<path d="M46.6216 51.2703C45.4047 53.1696 43.7912 54.7831 41.8919 56C43.7912 57.2169 45.4047 58.8304 46.6216 60.7297C47.8386 58.8304 49.452 57.2169 51.3514 56C49.452 54.7831 47.8386 53.1696 46.6216 51.2703V51.2703Z" fill="#C93112"/>
<path d="M33.1081 37.7567C31.8912 39.656 30.2777 41.2695 28.3784 42.4864C30.2777 43.7034 31.8912 45.3169 33.1081 47.2162C34.325 45.3169 35.9385 43.7034 37.8378 42.4864C35.9385 41.2695 34.325 39.656 33.1081 37.7567V37.7567Z" fill="#C93112"/>
<path d="M46.6216 64.7838C45.4047 66.6831 43.7912 68.2966 41.8919 69.5135C43.7912 70.7305 45.4047 72.344 46.6216 74.2433C47.8386 72.344 49.452 70.7305 51.3514 69.5135C49.452 68.2966 47.8386 66.6831 46.6216 64.7838V64.7838Z" fill="#C93112"/>
<path d="M33.1081 64.7838C31.8912 66.6831 30.2777 68.2966 28.3784 69.5135C30.2777 70.7305 31.8912 72.344 33.1081 74.2433C34.325 72.344 35.9385 70.7305 37.8378 69.5135C35.9385 68.2966 34.325 66.6831 33.1081 64.7838V64.7838Z" fill="#C93112"/>
<path d="M19.9987 19.4037C20.0113 20.4326 19.824 21.454 19.4473 22.4108C19.0978 23.308 18.5708 24.1246 17.8981 24.8113C17.1883 25.5112 16.3378 26.0509 15.4037 26.394C13.2714 27.202 10.9191 27.202 8.78678 26.394C7.77441 25.9908 6.87371 25.3483 6.16103 24.5211C5.40943 23.628 4.85461 22.5852 4.53307 21.4612C4.13635 20.0912 3.95908 18.6666 4.00792 17.2407C3.99445 15.5572 4.25158 13.8826 4.76939 12.2815C5.21413 10.8704 5.91767 9.55522 6.84373 8.40392C7.73154 7.34832 8.83238 6.49417 10.0734 5.89797C11.3796 5.28573 12.8071 4.97908 14.2483 5.00111C15.088 5.00346 15.9248 5.1008 16.7428 5.29127C17.4971 5.47998 18.2217 5.77293 18.8959 6.16176L18.2657 8.00824C17.7578 7.79711 17.23 7.63803 16.6903 7.53343C16.2139 7.44732 15.7299 7.41196 15.2461 7.42792C14.381 7.40527 13.5215 7.57298 12.7277 7.91929C11.9339 8.2656 11.2251 8.78213 10.6511 9.43267C9.41046 10.9321 8.6426 12.7687 8.44543 14.7084C9.07096 14.0424 9.85823 13.5515 10.7298 13.2839C11.6648 12.9472 12.6512 12.7776 13.6444 12.7827C14.5416 12.7733 15.4325 12.9344 16.2702 13.2575C17.0213 13.5737 17.7003 14.0404 18.2657 14.6292C18.8293 15.2253 19.2591 15.936 19.5261 16.7131C19.8556 17.5707 20.0162 18.4845 19.9987 19.4037ZM12.3841 24.9432C12.9005 24.9682 13.4144 24.8572 13.875 24.6212C14.3355 24.3853 14.7267 24.0325 15.0098 23.5979C15.6575 22.5466 15.9776 21.3249 15.9288 20.0895C16.0071 18.8316 15.6345 17.5871 14.8785 16.5812C14.5445 16.1691 14.1183 15.842 13.6346 15.6265C13.151 15.4111 12.6235 15.3134 12.0952 15.3414C11.4467 15.3569 10.8027 15.4543 10.1784 15.6316C9.51713 15.7908 8.8929 16.0774 8.3404 16.4757V17.9793C8.34247 18.9611 8.43033 19.9409 8.60298 20.9073C8.75685 21.6888 9.02215 22.444 9.3907 23.1494C9.69567 23.7157 10.1271 24.2032 10.6511 24.5739C11.1784 24.8698 11.7825 24.9985 12.3841 24.9432Z" fill="#C93112"/>
<path d="M60.0135 92.5712C60.0165 91.5438 60.2029 90.5252 60.5638 89.5642C60.912 88.6605 61.448 87.8422 62.1358 87.1639C62.8398 86.4648 63.6778 85.9174 64.5988 85.5549C65.6482 85.1723 66.7579 84.9846 67.8739 85.001C69.0222 84.9891 70.1617 85.2042 71.2277 85.634C72.2341 86.0443 73.1313 86.6856 73.8478 87.5068C74.5884 88.4062 75.1409 89.4469 75.4723 90.5665C75.8515 91.8858 76.0282 93.2556 75.9963 94.6286C76.0182 96.3105 75.7705 97.985 75.2627 99.5874C74.8189 100.999 74.1169 102.314 73.1928 103.465C72.3285 104.576 71.2271 105.478 69.97 106.103C68.6624 106.702 67.2409 107.008 65.804 106.999C64.9223 107.009 64.0425 106.912 63.1839 106.709C62.4312 106.521 61.7081 106.228 61.0354 105.839L61.6642 104.019C62.1704 104.225 62.6976 104.376 63.2363 104.467C63.6926 104.568 64.1579 104.621 64.625 104.625C65.4921 104.648 66.3538 104.481 67.1501 104.135C67.9465 103.789 68.6584 103.272 69.2364 102.621C70.4747 101.124 71.233 99.2848 71.4111 97.3454C70.7998 98.0142 70.0217 98.506 69.1578 98.7697C68.2248 99.1064 67.2405 99.2761 66.2495 99.2709C65.3539 99.283 64.4645 99.1218 63.6293 98.7961C62.8798 98.48 62.2022 98.0133 61.638 97.4245C61.0765 96.8229 60.64 96.1145 60.3542 95.3408C60.0735 94.4463 59.958 93.5076 60.0135 92.5712ZM67.6381 87.032C67.1224 87.0043 66.6086 87.1141 66.1486 87.3503C65.6885 87.5865 65.2985 87.9408 65.018 88.3773C64.3716 89.4284 64.0523 90.6501 64.1009 91.8854C64.066 93.0808 64.4355 94.2527 65.149 95.2089C65.4659 95.6014 65.8652 95.9185 66.3182 96.1374C66.7712 96.3563 67.2667 96.4715 67.7691 96.475C68.4249 96.4601 69.0763 96.3626 69.708 96.1848C70.3587 96.0225 70.9725 95.7359 71.5159 95.3408V93.9428C71.523 92.9617 71.4441 91.982 71.2801 91.0149C71.1266 90.2334 70.8618 89.4783 70.4941 88.7729C70.1898 88.2067 69.7593 87.7192 69.2364 87.3485C68.7496 87.0693 68.1984 86.9237 67.6381 86.9265V87.032Z" fill="#C93112"/>
</g>
<rect x="0.5" y="0.5" width="79" height="111" rx="4.5" stroke="#DADADA"/>
<defs>
<clipPath id="clip0_276_878">
<rect width="80" height="112" rx="5" fill="white"/>
</clipPath>
</defs>
</svg>
