<svg width="80" height="112" viewBox="0 0 80 112" fill="none" xmlns="http://www.w3.org/2000/svg">
<g clip-path="url(#clip0_276_1570)">
<path d="M75 0H5C2.23858 0 0 2.23858 0 5V107C0 109.761 2.23858 112 5 112H75C77.7614 112 80 109.761 80 107V5C80 2.23858 77.7614 0 75 0Z" fill="white"/>
<path d="M71 68C69.7135 70.0078 68.0078 71.7135 66 73C68.0078 74.2865 69.7135 75.9922 71 78C72.2865 75.9922 73.9922 74.2865 76 73C73.9922 71.7135 72.2865 70.0078 71 68V68Z" fill="#C93112"/>
<path d="M9 34C7.71353 36.0078 6.00783 37.7135 4 39C6.00783 40.2865 7.71353 41.9922 9 44C10.2865 41.9922 11.9922 40.2865 14 39C11.9922 37.7135 10.2865 36.0078 9 34V34Z" fill="#C93112"/>
<rect opacity="0.5" x="25.25" y="31.25" width="29.2297" height="49.5" stroke="#C93112" stroke-width="0.5"/>
<path d="M47.2973 33.027C46.2542 34.5193 44.8712 35.787 43.2432 36.7432C44.8712 37.6994 46.2542 38.9671 47.2973 40.4594C48.3404 38.9671 49.7234 37.6994 51.3513 36.7432C49.7234 35.787 48.3404 34.5193 47.2973 33.027V33.027Z" fill="#C93112"/>
<path d="M47.2973 58.027C46.2542 59.5193 44.8712 60.787 43.2432 61.7432C44.8712 62.6994 46.2542 63.9671 47.2973 65.4594C48.3404 63.9671 49.7234 62.6994 51.3513 61.7432C49.7234 60.787 48.3404 59.5193 47.2973 58.027V58.027Z" fill="#C93112"/>
<path d="M32.7703 45.1892C31.8141 46.8172 30.5464 48.2002 29.054 49.2433C30.5464 50.2863 31.8141 51.6693 32.7703 53.2973C33.7264 51.6693 34.9942 50.2863 36.4865 49.2433C34.9942 48.2002 33.7264 46.8172 32.7703 45.1892V45.1892Z" fill="#C93112"/>
<path d="M32.7703 70.1892C31.8141 71.8172 30.5464 73.2002 29.054 74.2433C30.5464 75.2863 31.8141 76.6693 32.7703 78.2973C33.7264 76.6693 34.9942 75.2863 36.4865 74.2433C34.9942 73.2002 33.7264 71.8172 32.7703 70.1892V70.1892Z" fill="#C93112"/>
<path d="M47.2973 44.5135C46.2542 46.2772 44.8712 47.7754 43.2432 48.9054C44.8712 50.0355 46.2542 51.5337 47.2973 53.2973C48.3404 51.5337 49.7234 50.0355 51.3513 48.9054C49.7234 47.7754 48.3404 46.2772 47.2973 44.5135V44.5135Z" fill="#C93112"/>
<path d="M47.2973 69.5135C46.2542 71.2772 44.8712 72.7754 43.2432 73.9054C44.8712 75.0355 46.2542 76.5337 47.2973 78.2973C48.3404 76.5337 49.7234 75.0355 51.3513 73.9054C49.7234 72.7754 48.3404 71.2772 47.2973 69.5135V69.5135Z" fill="#C93112"/>
<path d="M39.8649 39.1082C38.8218 40.8718 37.4388 42.37 35.8108 43.5C37.4388 44.6301 38.8218 46.1283 39.8649 47.8919C40.9079 46.1283 42.2909 44.6301 43.9189 43.5C42.2909 42.37 40.9079 40.8718 39.8649 39.1082V39.1082Z" fill="#C93112"/>
<path d="M39.8649 64.1082C38.8218 65.8718 37.4388 67.37 35.8108 68.5C37.4388 69.6301 38.8218 71.1283 39.8649 72.8919C40.9079 71.1283 42.2909 69.6301 43.9189 68.5C42.2909 67.37 40.9079 65.8718 39.8649 64.1082V64.1082Z" fill="#C93112"/>
<path d="M32.9253 33.027C31.9293 34.5816 30.6086 35.9022 29.054 36.8983C30.6086 37.8943 31.9293 39.2149 32.9253 40.7695C33.9214 39.2149 35.242 37.8943 36.7966 36.8983C35.242 35.9022 33.9214 34.5816 32.9253 33.027V33.027Z" fill="#C93112"/>
<path d="M32.9253 58.027C31.9293 59.5816 30.6086 60.9022 29.054 61.8983C30.6086 62.8943 31.9293 64.2149 32.9253 65.7695C33.9214 64.2149 35.242 62.8943 36.7966 61.8983C35.242 60.9022 33.9214 59.5816 32.9253 58.027V58.027Z" fill="#C93112"/>
<path d="M8.08872 5.5025V23.5927C8.08134 23.8154 8.12663 24.034 8.21476 24.201C8.30636 24.3633 8.42906 24.4663 8.56136 24.4919L10.4204 24.9944V26.7664H3.09453V24.9944L5.22139 24.4919C5.36192 24.4606 5.49363 24.3592 5.5995 24.201C5.65213 24.1271 5.69377 24.0337 5.72111 23.9281C5.74846 23.8225 5.76077 23.7077 5.75705 23.5927V9.33741L5.23715 9.57544L4.5597 9.83992L3.85075 10.0515H3.22056L3 8.17372C3.35383 8.02915 3.70126 7.84357 4.0398 7.61832C4.40216 7.40673 4.74876 7.14226 5.09536 6.87778C5.44196 6.6133 5.75705 6.29593 6.05638 5.97856C6.3326 5.6845 6.59585 5.35747 6.84411 5L8.08872 5.5025Z" fill="#C93112"/>
<path d="M16.801 27.1632C16.0027 27.2032 15.2113 26.9029 14.5008 26.2904C13.8644 25.7689 13.3211 24.9753 12.9254 23.9894C12.5427 22.9287 12.2709 21.7659 12.1219 20.5512C11.9608 19.1749 11.8816 17.7751 11.8856 16.3725C11.873 14.7041 11.9949 13.0404 12.2479 11.4268C12.4586 10.1624 12.8116 8.97737 13.2877 7.93572C13.7078 7.04108 14.2475 6.32526 14.8632 5.84636C15.5321 5.38063 16.2502 5.14673 16.9743 5.15872C17.7707 5.12059 18.5605 5.4112 19.2745 6.00504C19.8775 6.54609 20.3875 7.33847 20.7554 8.30599C21.1515 9.35546 21.4242 10.5225 21.5589 11.7442C21.7898 13.1084 21.9376 14.5085 22 15.9229C21.9915 17.5807 21.8429 19.228 21.5589 20.8157C21.3613 22.0886 21.0071 23.2778 20.5191 24.3068C20.1003 25.2036 19.5602 25.9199 18.9436 26.3962C18.2684 26.8962 17.539 27.1573 16.801 27.1632ZM16.801 7.16874C16.4205 7.15574 16.0477 7.34959 15.7383 7.72137C15.4288 8.09314 15.1992 8.62291 15.0837 9.23165C14.7142 11.2689 14.5648 13.4006 14.6426 15.5262C14.5955 17.9181 14.7655 20.3081 15.1468 22.6142C15.2245 23.3544 15.4549 24.0252 15.7977 24.5087C16.1405 24.9923 16.5738 25.2579 17.0216 25.2589C17.404 25.2702 17.7783 25.0725 18.088 24.6957C18.3978 24.3188 18.6262 23.7832 18.7388 23.1696C19.1454 21.1446 19.3218 19.0093 19.2587 16.875C19.3112 14.4897 19.1356 12.1056 18.7388 9.8135C18.6671 9.06859 18.4383 8.39173 18.0942 7.90627C17.75 7.42081 17.3135 7.15907 16.864 7.16874H16.801Z" fill="#C93112"/>
<path d="M71.8843 106.497V88.3872C71.8939 88.1601 71.8548 87.9347 71.7741 87.7518C71.6708 87.6076 71.5452 87.5158 71.4121 87.487L69.5704 86.984V85.2101H76.8898V86.984L74.7648 87.487C74.6244 87.5184 74.4928 87.6199 74.3871 87.7783C74.3391 87.8571 74.3017 87.9521 74.2772 88.0571C74.2528 88.1621 74.242 88.2746 74.2454 88.3872V102.658L74.7648 102.42L75.4259 102.155L76.15 101.943H76.7796L77 103.823C76.6407 103.963 76.2881 104.149 75.9454 104.379C75.5991 104.591 75.237 104.855 74.9065 105.12C74.5777 105.393 74.2573 105.694 73.9463 106.02C73.6472 106.365 73.3797 106.682 73.1435 107L71.8843 106.497Z" fill="#C93112"/>
<path d="M63.1797 84.8395C63.9813 84.7868 64.7776 85.0783 65.4936 85.6867C66.0961 86.2284 66.6056 87.0216 66.9732 87.9902C67.369 89.0408 67.6415 90.2091 67.776 91.4321C67.9369 92.8099 68.016 94.2112 68.0121 95.6153C68.0339 97.2864 67.912 98.954 67.6501 100.566C67.4527 101.841 67.0988 103.031 66.6112 104.061C66.1928 104.959 65.6532 105.676 65.0371 106.153C64.3685 106.617 63.6512 106.851 62.9279 106.841C62.132 106.883 61.3424 106.592 60.6298 105.994C60.0227 105.453 59.508 104.66 59.1344 103.691C58.7387 102.64 58.4662 101.472 58.3316 100.249C58.1381 98.8765 58.0273 97.475 58.0011 96.0654C57.9871 94.3863 58.1089 92.7118 58.3631 91.0879C58.5736 89.8221 58.9263 88.6358 59.402 87.593C59.8182 86.6916 60.3584 85.9738 60.9761 85.5014C61.674 85.018 62.4255 84.7923 63.1797 84.8395ZM63.1797 104.829C63.5605 104.846 63.9341 104.654 64.2438 104.281C64.5536 103.908 64.7824 103.376 64.8955 102.764C65.3006 100.736 65.4768 98.5991 65.4149 96.4625C65.466 94.066 65.2907 91.671 64.8955 89.3669C64.8045 88.6479 64.568 88.0042 64.2265 87.5456C63.8849 87.0869 63.4594 86.8417 63.0223 86.8517C62.6417 86.8374 62.2688 87.0346 61.9615 87.4127C61.6542 87.7908 61.4296 88.3288 61.3223 88.9433C60.9025 90.9303 60.705 93.0308 60.7399 95.1387C60.6915 97.5246 60.8614 99.9088 61.2436 102.208C61.3217 102.946 61.5525 103.615 61.8954 104.094C62.2382 104.574 62.6708 104.834 63.1168 104.829H63.1797Z" fill="#C93112"/>
</g>
<rect x="0.5" y="0.5" width="79" height="111" rx="4.5" stroke="#DADADA"/>
<defs>
<clipPath id="clip0_276_1570">
<rect width="80" height="112" rx="5" fill="white"/>
</clipPath>
</defs>
</svg>
