<svg width="80" height="112" viewBox="0 0 80 112" fill="none" xmlns="http://www.w3.org/2000/svg">
<g clip-path="url(#clip0_276_508)">
<path d="M75 0H5C2.23858 0 0 2.23858 0 5V107C0 109.761 2.23858 112 5 112H75C77.7614 112 80 109.761 80 107V5C80 2.23858 77.7614 0 75 0Z" fill="white"/>
<path d="M71 68C69.7135 70.0078 68.0078 71.7135 66 73C68.0078 74.2865 69.7135 75.9922 71 78C72.2865 75.9922 73.9922 74.2865 76 73C73.9922 71.7135 72.2865 70.0078 71 68V68Z" fill="#C93112"/>
<path d="M9 34C7.71353 36.0078 6.00783 37.7135 4 39C6.00783 40.2865 7.71353 41.9922 9 44C10.2865 41.9922 11.9922 40.2865 14 39C11.9922 37.7135 10.2865 36.0078 9 34V34Z" fill="#C93112"/>
<rect opacity="0.5" x="25.25" y="31.25" width="29.2297" height="49.5" stroke="#C93112" stroke-width="0.5"/>
<path d="M39.8649 39.1082C38.6479 41.0075 37.0344 42.621 35.1351 43.8379C37.0344 45.0548 38.6479 46.6683 39.8649 48.5676C41.0818 46.6683 42.6953 45.0548 44.5946 43.8379C42.6953 42.621 41.0818 41.0075 39.8649 39.1082V39.1082Z" fill="#C93112"/>
<path d="M39.8649 50.9324C38.6479 52.8317 37.0344 54.4452 35.1351 55.6621C37.0344 56.879 38.6479 58.4925 39.8649 60.3918C41.0818 58.4925 42.6953 56.879 44.5946 55.6621C42.6953 54.4452 41.0818 52.8317 39.8649 50.9324V50.9324Z" fill="#C93112"/>
<path d="M39.8649 62.7567C38.6479 64.656 37.0344 66.2695 35.1351 67.4864C37.0344 68.7034 38.6479 70.3169 39.8649 72.2162C41.0818 70.3169 42.6953 68.7034 44.5946 67.4864C42.6953 66.2695 41.0818 64.656 39.8649 62.7567V62.7567Z" fill="#C93112"/>
<path d="M19.9999 20.4448C20.0064 21.371 19.7654 22.2837 19.2994 23.098C18.8427 23.9028 18.2126 24.6078 17.45 25.1675C16.611 25.7768 15.6613 26.2354 14.6479 26.5206C13.5606 26.8463 12.4258 27.0074 11.2854 26.9982C9.80375 27.0248 8.33299 26.7535 6.9702 26.2023C5.88883 25.7364 4.88758 25.1193 4 24.3715L5.12083 22.8592C5.85856 23.3298 6.65963 23.7046 7.5026 23.9736C8.40282 24.2734 9.35038 24.426 10.3047 24.4246C10.9206 24.4254 11.5335 24.345 12.126 24.1858C12.6783 24.0653 13.1952 23.8296 13.6392 23.496C14.0878 23.1714 14.452 22.754 14.7039 22.2755C14.9991 21.7067 15.1433 21.0783 15.1243 20.4448C15.1558 19.4665 14.7839 18.5149 14.0875 17.7916C13.3467 17.0604 12.3513 16.608 11.2854 16.5181L10.0525 16.7834L8.81958 17.0222L8.25916 15.0853C9.0463 14.9366 9.81596 14.7144 10.5569 14.422C11.2132 14.1783 11.8345 13.8574 12.4062 13.4669C12.9114 13.1148 13.3396 12.6733 13.6672 12.1668C13.9758 11.6495 14.1307 11.0627 14.1155 10.4687C14.1177 10.1132 14.0444 9.76094 13.9 9.43278C13.7556 9.10461 13.543 8.80728 13.2749 8.55843C12.9668 8.28808 12.605 8.07847 12.2105 7.94182C11.816 7.80517 11.3968 7.7442 10.9772 7.76246C10.0493 7.76123 9.13858 7.99974 8.34322 8.4523C7.58125 8.86282 6.88337 9.37182 6.26968 9.96463L4.95271 8.74415C5.63258 7.64802 6.59715 6.7347 7.75479 6.09095C9.11229 5.33827 10.6656 4.96138 12.2381 5.00313C13.0624 5.00095 13.883 5.10812 14.6759 5.32151C15.4006 5.517 16.0834 5.8313 16.6934 6.25014C17.2722 6.64309 17.743 7.16169 18.0664 7.76246C18.4224 8.40937 18.6052 9.1291 18.5988 9.8585C18.5902 10.5177 18.4376 11.1682 18.1505 11.7688C17.8599 12.3542 17.472 12.8917 17.0016 13.3607C16.528 13.832 15.991 14.2424 15.4045 14.5812C14.8493 14.8944 14.2567 15.1438 13.6392 15.3241C14.3589 15.3128 15.0765 15.4022 15.7687 15.5894C16.4849 15.7847 17.1585 16.0991 17.7582 16.5181C18.3605 16.9707 18.8648 17.5292 19.2433 18.163C19.6958 18.8506 19.9561 19.6358 19.9999 20.4448Z" fill="#C93112"/>
<path d="M60.0001 91.5638C59.9936 90.6364 60.2346 89.7225 60.7006 88.9071C61.1573 88.1013 61.7874 87.3953 62.55 86.8349C63.389 86.2248 64.3387 85.7656 65.3521 85.48C66.4394 85.1539 67.5742 84.9926 68.7146 85.0018C70.1963 84.9752 71.667 85.2468 73.0298 85.7988C74.1112 86.2652 75.1124 86.8832 76 87.6319L74.8792 89.1462C74.1415 88.675 73.3404 88.2997 72.4974 88.0304C71.596 87.7345 70.6492 87.5819 69.6953 87.5788C69.0793 87.5763 68.4661 87.6568 67.874 87.8179C67.3151 87.9437 66.7901 88.179 66.3328 88.5086C65.893 88.8352 65.5382 89.2533 65.2961 89.7307C65.0009 90.3003 64.8567 90.9295 64.8758 91.5638C64.8442 92.5434 65.2161 93.4962 65.9125 94.2205C66.6533 94.9527 67.6487 95.4057 68.7146 95.4957L69.9475 95.2035L71.1804 94.9909L71.7408 96.9303C70.9537 97.0793 70.1841 97.3017 69.4431 97.5945C68.7868 97.8385 68.1655 98.1598 67.5938 98.5509C67.0886 98.9034 66.6604 99.3455 66.3328 99.8527C66.0242 100.371 65.8693 100.958 65.8845 101.553C65.8823 101.909 65.9556 102.262 66.1 102.59C66.2444 102.919 66.457 103.217 66.7251 103.466C67.0332 103.736 67.395 103.946 67.7895 104.083C68.184 104.22 68.6032 104.281 69.0228 104.263C69.9507 104.264 70.8614 104.025 71.6568 103.572C72.4152 103.168 73.1049 102.657 73.7023 102.058L75.0473 103.28C74.3499 104.364 73.3892 105.275 72.2452 105.936C70.1259 107.022 67.6459 107.289 65.3241 106.68C64.5973 106.49 63.9134 106.175 63.3066 105.751C62.7278 105.357 62.257 104.838 61.9336 104.236C61.5649 103.593 61.3813 102.869 61.4012 102.137C61.4098 101.477 61.5624 100.826 61.8495 100.225C62.1401 99.6384 62.528 99.1003 62.9984 98.6306C63.472 98.1587 64.009 97.7478 64.5955 97.4085C65.1507 97.0949 65.7433 96.8452 66.3609 96.6646C65.641 96.6775 64.9231 96.588 64.2313 96.399C63.5091 96.2052 62.8334 95.8804 62.2418 95.4426C61.6356 95.0038 61.1303 94.4524 60.7567 93.822C60.3087 93.1413 60.0485 92.3648 60.0001 91.5638Z" fill="#C93112"/>
</g>
<rect x="0.5" y="0.5" width="79" height="111" rx="4.5" stroke="#DADADA"/>
<defs>
<clipPath id="clip0_276_508">
<rect width="80" height="112" rx="5" fill="white"/>
</clipPath>
</defs>
</svg>
