<svg width="80" height="112" viewBox="0 0 80 112" fill="none" xmlns="http://www.w3.org/2000/svg">
<g clip-path="url(#clip0_276_393)">
<path d="M75 0H5C2.23858 0 0 2.23858 0 5V107C0 109.761 2.23858 112 5 112H75C77.7614 112 80 109.761 80 107V5C80 2.23858 77.7614 0 75 0Z" fill="white"/>
<path d="M9.48373 25.3891V27H4V25.3891L5.30152 24.9322C5.43342 24.9 5.55815 24.826 5.66594 24.7158C5.75895 24.5776 5.8299 24.4137 5.87419 24.235L10.6117 5H13.3362L18.2299 24.235C18.2696 24.4097 18.3414 24.5671 18.4382 24.6918C18.5404 24.819 18.6669 24.9025 18.8026 24.9322L20 25.3891V27H13.3362V25.3891L15.2972 24.8842L14.2213 20.4361H8.52928L7.50542 24.8842L9.48373 25.3891ZM13.8221 18.4885L11.3406 8.2459L8.98048 18.4885H13.8221Z" fill="#171717"/>
<path d="M70.5038 86.635V85H76V86.635L74.6914 87.0678C74.5588 87.1 74.4334 87.174 74.325 87.2841C74.2315 87.4224 74.1601 87.5863 74.1156 87.765L69.3522 107H66.7001L61.7797 87.765C61.746 87.5865 61.6728 87.4269 61.5703 87.3082C61.4676 87.181 61.3404 87.0975 61.2039 87.0678L60 86.635V85H66.6129V86.635L64.6412 87.1158L65.6532 91.612H71.446L72.4755 87.1639L70.5038 86.635ZM66.1243 93.5115L68.6194 103.754L70.9924 93.5115H66.1243Z" fill="#171717"/>
<path d="M13.4084 38.395C13.0051 37.9922 12.4584 37.7659 11.8884 37.7659C11.3185 37.7659 10.7718 37.9922 10.3685 38.395L9.44361 39.3162C9.64543 38.6747 10.0259 38.1039 10.5406 37.6708C10.841 37.37 11.0455 36.9869 11.1284 36.57C11.2112 36.153 11.1686 35.7208 11.006 35.328C10.8433 34.9352 10.5679 34.5995 10.2146 34.3631C9.86121 34.1267 9.44573 34.0004 9.0206 34V34C8.59547 34.0004 8.17999 34.1267 7.82663 34.3631C7.47327 34.5995 7.19788 34.9352 7.03524 35.328C6.8726 35.7208 6.83001 36.153 6.91284 36.57C6.99568 36.9869 7.20023 37.37 7.50065 37.6708C8.01526 38.1039 8.39577 38.6747 8.5976 39.3162L7.67272 38.395C7.37202 38.0939 6.98878 37.8888 6.57148 37.8056C6.15417 37.7223 5.72157 37.7648 5.32839 37.9275C4.93521 38.0902 4.59913 38.3659 4.36267 38.7197C4.12621 39.0734 4 39.4894 4 39.9149C4 40.3404 4.12621 40.7564 4.36267 41.1101C4.59913 41.4639 4.93521 41.7396 5.32839 41.9023C5.72157 42.065 6.15417 42.1075 6.57148 42.0243C6.98878 41.9411 7.37202 41.7359 7.67272 41.4349L8.74816 40.3594C8.74816 40.3809 8.74816 40.3953 8.74816 40.4168C8.74816 41.3488 8.61911 42.8186 7.59386 43.8438V44.2023H10.4617V43.8438C9.44361 42.8258 9.29663 41.3667 9.30739 40.4347C9.30739 40.406 9.30739 40.3845 9.30739 40.3594L10.3828 41.4349C10.7906 41.8148 11.3298 42.0216 11.8871 42.0118C12.4443 42.002 12.9759 41.7762 13.37 41.3822C13.7641 40.9881 13.9898 40.4564 13.9997 39.8992C14.0095 39.342 13.8027 38.8027 13.4227 38.395H13.4084Z" fill="#171717"/>
<rect opacity="0.5" x="25.25" y="31.25" width="29.2297" height="49.5" stroke="#171717" stroke-width="0.5"/>
<path d="M48.9931 54.5034C48.1384 53.6497 46.9799 53.1703 45.7719 53.1703C44.564 53.1703 43.4054 53.6497 42.5507 54.5034L40.5906 56.4559C41.0184 55.0962 41.8248 53.8865 42.9154 52.9687C43.5521 52.3313 43.9856 51.5194 44.1611 50.6357C44.3367 49.752 44.2464 48.8361 43.9017 48.0037C43.557 47.1712 42.9734 46.4596 42.2245 45.9587C41.4757 45.4578 40.5951 45.19 39.6942 45.1892V45.1892C38.7932 45.19 37.9127 45.4578 37.1638 45.9587C36.4149 46.4596 35.8313 47.1712 35.4866 48.0037C35.1419 48.8361 35.0517 49.752 35.2272 50.6357C35.4028 51.5194 35.8363 52.3313 36.473 52.9687C37.5636 53.8865 38.37 55.0962 38.7977 56.4559L36.8376 54.5034C36.2004 53.8653 35.3881 53.4306 34.5038 53.2543C33.6194 53.0779 32.7026 53.1679 31.8693 53.5127C31.0361 53.8575 30.3238 54.4418 29.8227 55.1915C29.3216 55.9413 29.0541 56.8228 29.0541 57.7246C29.0541 58.6264 29.3216 59.5079 29.8227 60.2576C30.3238 61.0074 31.0361 61.5916 31.8693 61.9365C32.7026 62.2813 33.6194 62.3712 34.5038 62.1949C35.3881 62.0186 36.2004 61.5839 36.8376 60.9458L39.1168 58.6666C39.1168 58.7122 39.1168 58.7426 39.1168 58.7882C39.1168 60.7635 38.8433 63.8783 36.6705 66.0511V66.8108H42.7482V66.0511C40.5906 63.8935 40.2791 60.8014 40.3019 58.8262C40.3019 58.7654 40.3019 58.7198 40.3019 58.6666L42.5811 60.9458C43.4452 61.751 44.5881 62.1893 45.769 62.1685C46.9499 62.1477 48.0767 61.6693 48.9118 60.8341C49.747 59.9989 50.2254 58.8722 50.2462 57.6913C50.2671 56.5104 49.8287 55.3675 49.0235 54.5034H48.9931Z" fill="#171717"/>
<path d="M75.4084 73.8074C75.0051 74.2102 74.4584 74.4365 73.8884 74.4365C73.3185 74.4365 72.7718 74.2102 72.3685 73.8074L71.4436 72.8861C71.6454 73.5277 72.0259 74.0985 72.5406 74.5316C72.841 74.8324 73.0455 75.2154 73.1284 75.6324C73.2112 76.0494 73.1686 76.4816 73.006 76.8744C72.8433 77.2672 72.5679 77.6029 72.2146 77.8393C71.8612 78.0757 71.4457 78.202 71.0206 78.2024V78.2024C70.5955 78.202 70.18 78.0757 69.8266 77.8393C69.4733 77.6029 69.1979 77.2672 69.0352 76.8744C68.8726 76.4816 68.83 76.0494 68.9128 75.6324C68.9957 75.2154 69.2002 74.8324 69.5007 74.5316C70.0153 74.0985 70.3958 73.5277 70.5976 72.8861L69.6727 73.8074C69.372 74.1085 68.9888 74.3136 68.5715 74.3968C68.1542 74.48 67.7216 74.4376 67.3284 74.2749C66.9352 74.1122 66.5991 73.8365 66.3627 73.4827C66.1262 73.129 66 72.713 66 72.2875C66 71.862 66.1262 71.446 66.3627 71.0922C66.5991 70.7385 66.9352 70.4628 67.3284 70.3001C67.7216 70.1374 68.1542 70.0949 68.5715 70.1781C68.9888 70.2613 69.372 70.4665 69.6727 70.7675L70.7482 71.843C70.7482 71.8215 70.7482 71.8071 70.7482 71.7856C70.7482 70.8536 70.6191 69.3838 69.5939 68.3586V68.0001H72.4617V68.3586C71.4436 69.3766 71.2966 70.8356 71.3074 71.7677C71.3074 71.7964 71.3074 71.8179 71.3074 71.843L72.3828 70.7675C72.7906 70.3876 73.3298 70.1808 73.8871 70.1906C74.4443 70.2004 74.9759 70.4262 75.37 70.8202C75.7641 71.2143 75.9898 71.746 75.9997 72.3032C76.0095 72.8604 75.8027 73.3997 75.4227 73.8074H75.4084Z" fill="#171717"/>
</g>
<rect x="0.5" y="0.5" width="79" height="111" rx="4.5" stroke="#DADADA"/>
<defs>
<clipPath id="clip0_276_393">
<rect width="80" height="112" rx="5" fill="white"/>
</clipPath>
</defs>
</svg>
