<svg width="80" height="112" viewBox="0 0 80 112" fill="none" xmlns="http://www.w3.org/2000/svg">
<g clip-path="url(#clip0_276_839)">
<path d="M75 0H5C2.23858 0 0 2.23858 0 5V107C0 109.761 2.23858 112 5 112H75C77.7614 112 80 109.761 80 107V5C80 2.23858 77.7614 0 75 0Z" fill="white"/>
<path d="M5.17032 22.5396C5.86703 23.0716 6.63587 23.5081 7.45524 23.8369C8.33706 24.1972 9.28484 24.381 10.2417 24.3774C11.5617 24.4461 12.8585 24.0204 13.8641 23.1883C14.3397 22.7375 14.7102 22.193 14.9505 21.5916C15.1908 20.9902 15.2955 20.3459 15.2574 19.702C15.2994 18.538 14.892 17.4008 14.1149 16.5129C13.6877 16.0949 13.1733 15.7702 12.6063 15.5605C12.0393 15.3507 11.4326 15.2608 10.8269 15.2968C10.2031 15.2939 9.58268 15.3851 8.9878 15.567C8.31976 15.7488 7.67483 16.0026 7.06513 16.3237L5.56043 15.2968L6.28491 5H18.8241L18.434 8.0539H8.93207L8.31904 13.8644C8.97189 13.3784 9.72138 13.0288 10.5204 12.8374C11.2675 12.656 12.035 12.5652 12.8053 12.5672C14.7294 12.4768 16.6124 13.1276 18.0439 14.3779C18.6965 15.0094 19.2069 15.7654 19.5426 16.5981C19.8784 17.4309 20.0322 18.3221 19.9944 19.2155C20.0099 20.3127 19.7819 21.4004 19.3256 22.4045C18.9122 23.3416 18.2943 24.1806 17.5144 24.8639C16.7083 25.5752 15.7597 26.1179 14.7279 26.4584C13.5965 26.8257 12.4101 27.0083 11.217 26.9989C9.76214 27.0199 8.31903 26.7437 6.98153 26.1881C5.83713 25.724 4.8173 25.0122 4 24.1071L5.17032 22.5396Z" fill="#171717"/>
<path d="M74.8299 89.3795C74.1334 88.8476 73.3647 88.4111 72.5455 88.0823C71.6639 87.722 70.7163 87.5382 69.7597 87.5418C68.4286 87.4953 67.1307 87.9505 66.1381 88.812C65.2876 89.7154 64.7956 90.8824 64.7496 92.105C64.7037 93.3276 65.1069 94.5262 65.8873 95.4872C66.3103 95.9031 66.8198 96.2267 67.3818 96.4364C67.9439 96.6461 68.5456 96.7371 69.1468 96.7034C69.7797 96.7082 70.4095 96.617 71.0133 96.4331C71.6722 96.251 72.3077 95.9972 72.9077 95.6764L74.4399 96.7034L73.7156 107H61.1793L61.5693 103.865H71.0412L71.6819 98.1898C71.0292 98.6757 70.2799 99.0254 69.4811 99.2167C68.7316 99.3848 67.9659 99.4754 67.1967 99.487C65.273 99.5774 63.3905 98.9265 61.9593 97.6763C61.2968 97.0406 60.7806 96.2761 60.4445 95.433C60.1084 94.5899 59.96 93.6874 60.0092 92.7847C59.9937 91.6875 60.2217 90.5999 60.6778 89.5957C61.0839 88.6547 61.7028 87.8143 62.4886 87.1364C63.2946 86.4251 64.2429 85.8824 65.2745 85.5419C66.3965 85.1766 67.5732 84.994 68.7568 85.0014C70.2206 84.9774 71.6731 85.2537 73.0191 85.8122C74.1633 86.2763 75.1829 86.9881 76 87.8931L74.8299 89.3795Z" fill="#171717"/>
<path d="M13.4084 38.395C13.0051 37.9922 12.4584 37.7659 11.8884 37.7659C11.3185 37.7659 10.7718 37.9922 10.3685 38.395L9.44361 39.3162C9.64543 38.6747 10.0259 38.1039 10.5406 37.6708C10.841 37.37 11.0455 36.9869 11.1284 36.57C11.2112 36.153 11.1686 35.7208 11.006 35.328C10.8433 34.9352 10.5679 34.5995 10.2146 34.3631C9.86121 34.1267 9.44573 34.0004 9.0206 34V34C8.59547 34.0004 8.17999 34.1267 7.82663 34.3631C7.47327 34.5995 7.19788 34.9352 7.03524 35.328C6.8726 35.7208 6.83001 36.153 6.91284 36.57C6.99568 36.9869 7.20023 37.37 7.50065 37.6708C8.01526 38.1039 8.39577 38.6747 8.5976 39.3162L7.67272 38.395C7.37202 38.0939 6.98878 37.8888 6.57148 37.8056C6.15417 37.7223 5.72157 37.7648 5.32839 37.9275C4.93521 38.0902 4.59913 38.3659 4.36267 38.7197C4.12621 39.0734 4 39.4894 4 39.9149C4 40.3404 4.12621 40.7564 4.36267 41.1101C4.59913 41.4639 4.93521 41.7396 5.32839 41.9023C5.72157 42.065 6.15417 42.1075 6.57148 42.0243C6.98878 41.9411 7.37202 41.7359 7.67272 41.4349L8.74816 40.3594C8.74816 40.3809 8.74816 40.3953 8.74816 40.4168C8.74816 41.3488 8.61911 42.8186 7.59386 43.8438V44.2023H10.4617V43.8438C9.44361 42.8258 9.29663 41.3667 9.30739 40.4347C9.30739 40.406 9.30739 40.3845 9.30739 40.3594L10.3828 41.4349C10.7906 41.8148 11.3298 42.0216 11.8871 42.0118C12.4443 42.002 12.9759 41.7762 13.37 41.3822C13.7641 40.9881 13.9898 40.4564 13.9997 39.8992C14.0095 39.342 13.8027 38.8027 13.4227 38.395H13.4084Z" fill="#171717"/>
<path d="M75.4084 73.8074C75.0051 74.2102 74.4584 74.4365 73.8884 74.4365C73.3185 74.4365 72.7718 74.2102 72.3685 73.8074L71.4436 72.8861C71.6454 73.5277 72.0259 74.0985 72.5406 74.5316C72.841 74.8324 73.0455 75.2154 73.1284 75.6324C73.2112 76.0494 73.1686 76.4816 73.006 76.8744C72.8433 77.2672 72.5679 77.6029 72.2146 77.8393C71.8612 78.0757 71.4457 78.202 71.0206 78.2024V78.2024C70.5955 78.202 70.18 78.0757 69.8266 77.8393C69.4733 77.6029 69.1979 77.2672 69.0352 76.8744C68.8726 76.4816 68.83 76.0494 68.9128 75.6324C68.9957 75.2154 69.2002 74.8324 69.5007 74.5316C70.0153 74.0985 70.3958 73.5277 70.5976 72.8861L69.6727 73.8074C69.372 74.1085 68.9888 74.3136 68.5715 74.3968C68.1542 74.48 67.7216 74.4376 67.3284 74.2749C66.9352 74.1122 66.5991 73.8365 66.3627 73.4827C66.1262 73.129 66 72.713 66 72.2875C66 71.862 66.1262 71.446 66.3627 71.0922C66.5991 70.7385 66.9352 70.4628 67.3284 70.3001C67.7216 70.1374 68.1542 70.0949 68.5715 70.1781C68.9888 70.2613 69.372 70.4665 69.6727 70.7675L70.7482 71.843C70.7482 71.8215 70.7482 71.8071 70.7482 71.7856C70.7482 70.8536 70.6191 69.3838 69.5939 68.3586V68.0001H72.4617V68.3586C71.4436 69.3766 71.2966 70.8356 71.3074 71.7677C71.3074 71.7964 71.3074 71.8179 71.3074 71.843L72.3828 70.7675C72.7906 70.3876 73.3298 70.1808 73.8871 70.1906C74.4443 70.2004 74.9759 70.4262 75.37 70.8202C75.7641 71.2143 75.9898 71.746 75.9997 72.3032C76.0095 72.8604 75.8027 73.3997 75.4227 73.8074H75.4084Z" fill="#171717"/>
<rect opacity="0.5" x="25.25" y="31.25" width="29.2297" height="49.5" stroke="#171717" stroke-width="0.5"/>
<path d="M37.1017 41.8318C36.7278 41.4583 36.2209 41.2486 35.6924 41.2486C35.164 41.2486 34.6571 41.4583 34.2832 41.8318L33.4256 42.686C33.6128 42.0911 33.9656 41.5619 34.4427 41.1604C34.7213 40.8815 34.9109 40.5263 34.9877 40.1397C35.0645 39.7531 35.025 39.3524 34.8742 38.9882C34.7234 38.624 34.4681 38.3126 34.1405 38.0935C33.8128 37.8743 33.4276 37.7572 33.0334 37.7568V37.7568C32.6393 37.7572 32.254 37.8743 31.9264 38.0935C31.5988 38.3126 31.3434 38.624 31.1926 38.9882C31.0418 39.3524 31.0023 39.7531 31.0791 40.1397C31.1559 40.5263 31.3456 40.8815 31.6241 41.1604C32.1013 41.5619 32.4541 42.0911 32.6412 42.686L31.7837 41.8318C31.5049 41.5526 31.1495 41.3624 30.7626 41.2853C30.3757 41.2081 29.9746 41.2475 29.6101 41.3984C29.2455 41.5492 28.9339 41.8048 28.7147 42.1329C28.4954 42.4609 28.3784 42.8465 28.3784 43.2411C28.3784 43.6356 28.4954 44.0213 28.7147 44.3493C28.9339 44.6773 29.2455 44.9329 29.6101 45.0838C29.9746 45.2346 30.3757 45.274 30.7626 45.1968C31.1495 45.1197 31.5049 44.9295 31.7837 44.6503L32.7808 43.6532C32.7808 43.6732 32.7808 43.6864 32.7808 43.7064C32.7808 44.5706 32.6612 45.9333 31.7106 46.8839V47.2163H34.3696V46.8839C33.4256 45.94 33.2894 44.5872 33.2993 43.723C33.2993 43.6964 33.2993 43.6765 33.2993 43.6532L34.2965 44.6503C34.6745 45.0026 35.1745 45.1944 35.6912 45.1853C36.2078 45.1762 36.7008 44.9669 37.0662 44.6015C37.4315 44.2361 37.6408 43.7431 37.6499 43.2265C37.6591 42.7098 37.4673 42.2098 37.115 41.8318H37.1017Z" fill="#171717"/>
<path d="M37.1017 70.1682C36.7278 70.5417 36.2209 70.7514 35.6924 70.7514C35.164 70.7514 34.6571 70.5417 34.2832 70.1682L33.4256 69.314C33.6128 69.9089 33.9656 70.4381 34.4427 70.8396C34.7213 71.1185 34.9109 71.4737 34.9877 71.8603C35.0645 72.2469 35.025 72.6476 34.8742 73.0118C34.7234 73.376 34.4681 73.6874 34.1405 73.9065C33.8128 74.1257 33.4276 74.2428 33.0334 74.2432V74.2432C32.6393 74.2428 32.254 74.1257 31.9264 73.9065C31.5988 73.6874 31.3434 73.376 31.1926 73.0118C31.0418 72.6476 31.0023 72.2469 31.0791 71.8603C31.1559 71.4737 31.3456 71.1185 31.6241 70.8396C32.1013 70.4381 32.4541 69.9089 32.6412 69.314L31.7837 70.1682C31.5049 70.4474 31.1495 70.6376 30.7626 70.7147C30.3757 70.7919 29.9746 70.7525 29.6101 70.6016C29.2455 70.4508 28.9339 70.1952 28.7147 69.8671C28.4954 69.5391 28.3784 69.1535 28.3784 68.7589C28.3784 68.3644 28.4954 67.9787 28.7147 67.6507C28.9339 67.3227 29.2455 67.0671 29.6101 66.9162C29.9746 66.7654 30.3757 66.726 30.7626 66.8032C31.1495 66.8803 31.5049 67.0705 31.7837 67.3497L32.7808 68.3468C32.7808 68.3268 32.7808 68.3136 32.7808 68.2936C32.7808 67.4294 32.6612 66.0667 31.7106 65.1161V64.7837H34.3696V65.1161C33.4256 66.06 33.2894 67.4128 33.2993 68.277C33.2993 68.3036 33.2993 68.3235 33.2993 68.3468L34.2965 67.3497C34.6745 66.9974 35.1745 66.8056 35.6912 66.8147C36.2078 66.8238 36.7008 67.0331 37.0662 67.3985C37.4315 67.7639 37.6408 68.2569 37.6499 68.7735C37.6591 69.2902 37.4673 69.7902 37.115 70.1682H37.1017Z" fill="#171717"/>
<path d="M50.6152 41.8318C50.2413 41.4583 49.7344 41.2486 49.206 41.2486C48.6775 41.2486 48.1706 41.4583 47.7967 41.8318L46.9391 42.686C47.1263 42.0911 47.4791 41.5619 47.9562 41.1604C48.2348 40.8815 48.4244 40.5263 48.5012 40.1397C48.578 39.7531 48.5385 39.3524 48.3877 38.9882C48.237 38.624 47.9816 38.3126 47.654 38.0935C47.3263 37.8743 46.9411 37.7572 46.5469 37.7568V37.7568C46.1528 37.7572 45.7675 37.8743 45.4399 38.0935C45.1123 38.3126 44.8569 38.624 44.7061 38.9882C44.5553 39.3524 44.5159 39.7531 44.5927 40.1397C44.6695 40.5263 44.8591 40.8815 45.1377 41.1604C45.6148 41.5619 45.9676 42.0911 46.1547 42.686L45.2972 41.8318C45.0184 41.5526 44.6631 41.3624 44.2761 41.2853C43.8892 41.2081 43.4881 41.2475 43.1236 41.3984C42.759 41.5492 42.4474 41.8048 42.2282 42.1329C42.0089 42.4609 41.8919 42.8465 41.8919 43.2411C41.8919 43.6356 42.0089 44.0213 42.2282 44.3493C42.4474 44.6773 42.759 44.9329 43.1236 45.0838C43.4881 45.2346 43.8892 45.274 44.2761 45.1968C44.6631 45.1197 45.0184 44.9295 45.2972 44.6503L46.2943 43.6532C46.2943 43.6732 46.2943 43.6864 46.2943 43.7064C46.2943 44.5706 46.1747 45.9333 45.2241 46.8839V47.2163H47.8831V46.8839C46.9391 45.94 46.8029 44.5872 46.8128 43.723C46.8128 43.6964 46.8128 43.6765 46.8128 43.6532L47.81 44.6503C48.188 45.0026 48.688 45.1944 49.2047 45.1853C49.7213 45.1762 50.2143 44.9669 50.5797 44.6015C50.9451 44.2361 51.1544 43.7431 51.1635 43.2265C51.1726 42.7098 50.9808 42.2098 50.6285 41.8318H50.6152Z" fill="#171717"/>
<path d="M43.8585 55.3452C43.4845 54.9717 42.9777 54.762 42.4492 54.762C41.9207 54.762 41.4138 54.9717 41.0399 55.3452L40.1824 56.1994C40.3695 55.6045 40.7223 55.0753 41.1994 54.6738C41.478 54.3949 41.6677 54.0397 41.7445 53.6531C41.8213 53.2665 41.7818 52.8658 41.631 52.5016C41.4802 52.1374 41.2248 51.8261 40.8972 51.6069C40.5696 51.3878 40.1843 51.2706 39.7902 51.2703V51.2703C39.396 51.2706 39.0108 51.3878 38.6831 51.6069C38.3555 51.8261 38.1002 52.1374 37.9494 52.5016C37.7986 52.8658 37.7591 53.2665 37.8359 53.6531C37.9127 54.0397 38.1023 54.3949 38.3809 54.6738C38.858 55.0753 39.2108 55.6045 39.398 56.1994L38.5404 55.3452C38.2616 55.0661 37.9063 54.8759 37.5194 54.7987C37.1325 54.7216 36.7313 54.7609 36.3668 54.9118C36.0022 55.0627 35.6906 55.3183 35.4714 55.6463C35.2522 55.9743 35.1351 56.36 35.1351 56.7545C35.1351 57.149 35.2522 57.5347 35.4714 57.8627C35.6906 58.1907 36.0022 58.4463 36.3668 58.5972C36.7313 58.7481 37.1325 58.7874 37.5194 58.7103C37.9063 58.6331 38.2616 58.4429 38.5404 58.1638L39.5376 57.1666C39.5376 57.1866 39.5376 57.1999 39.5376 57.2198C39.5376 58.084 39.4179 59.4467 38.4673 60.3973V60.7297H41.1263V60.3973C40.1824 59.4534 40.0461 58.1006 40.0561 57.2364C40.0561 57.2098 40.0561 57.1899 40.0561 57.1666L41.0532 58.1638C41.4312 58.516 41.9313 58.7078 42.4479 58.6987C42.9646 58.6896 43.4575 58.4803 43.8229 58.1149C44.1883 57.7495 44.3976 57.2566 44.4067 56.7399C44.4158 56.2233 44.224 55.7233 43.8718 55.3452H43.8585Z" fill="#171717"/>
<path d="M50.6152 70.1682C50.2413 70.5417 49.7344 70.7514 49.206 70.7514C48.6775 70.7514 48.1706 70.5417 47.7967 70.1682L46.9391 69.314C47.1263 69.9089 47.4791 70.4381 47.9562 70.8396C48.2348 71.1185 48.4244 71.4737 48.5012 71.8603C48.578 72.2469 48.5385 72.6476 48.3877 73.0118C48.237 73.376 47.9816 73.6874 47.654 73.9065C47.3263 74.1257 46.9411 74.2428 46.5469 74.2432V74.2432C46.1528 74.2428 45.7675 74.1257 45.4399 73.9065C45.1123 73.6874 44.8569 73.376 44.7061 73.0118C44.5553 72.6476 44.5159 72.2469 44.5927 71.8603C44.6695 71.4737 44.8591 71.1185 45.1377 70.8396C45.6148 70.4381 45.9676 69.9089 46.1547 69.314L45.2972 70.1682C45.0184 70.4474 44.6631 70.6376 44.2761 70.7147C43.8892 70.7919 43.4881 70.7525 43.1236 70.6016C42.759 70.4508 42.4474 70.1952 42.2282 69.8671C42.0089 69.5391 41.8919 69.1535 41.8919 68.7589C41.8919 68.3644 42.0089 67.9787 42.2282 67.6507C42.4474 67.3227 42.759 67.0671 43.1236 66.9162C43.4881 66.7654 43.8892 66.726 44.2761 66.8032C44.6631 66.8803 45.0184 67.0705 45.2972 67.3497L46.2943 68.3468C46.2943 68.3268 46.2943 68.3136 46.2943 68.2936C46.2943 67.4294 46.1747 66.0667 45.2241 65.1161V64.7837H47.8831V65.1161C46.9391 66.06 46.8029 67.4128 46.8128 68.277C46.8128 68.3036 46.8128 68.3235 46.8128 68.3468L47.81 67.3497C48.188 66.9974 48.688 66.8056 49.2047 66.8147C49.7213 66.8238 50.2143 67.0331 50.5797 67.3985C50.9451 67.7639 51.1544 68.2569 51.1635 68.7735C51.1726 69.2902 50.9808 69.7902 50.6285 70.1682H50.6152Z" fill="#171717"/>
</g>
<rect x="0.5" y="0.5" width="79" height="111" rx="4.5" stroke="#DADADA"/>
<defs>
<clipPath id="clip0_276_839">
<rect width="80" height="112" rx="5" fill="white"/>
</clipPath>
</defs>
</svg>
