<svg width="80" height="112" viewBox="0 0 80 112" fill="none" xmlns="http://www.w3.org/2000/svg">
<g clip-path="url(#clip0_276_705)">
<path d="M75 0H5C2.23858 0 0 2.23858 0 5V107C0 109.761 2.23858 112 5 112H75C77.7614 112 80 109.761 80 107V5C80 2.23858 77.7614 0 75 0Z" fill="white"/>
<path d="M19.8797 22.9158H16.9684V27H13.3594V22.9158H4.93835L4 20.8738C5.37143 18.396 6.69474 15.8094 7.96993 13.1683C9.24511 10.5272 10.4962 7.72277 11.6752 5H15.0436L15.5489 5.92574C14.6586 7.80446 13.8406 9.5198 13.1429 11.0173C12.4451 12.5149 11.6752 13.9035 11.0015 15.1287C10.3929 16.2284 9.73435 17.2917 9.02857 18.3144C8.43265 19.2006 7.77274 20.0294 7.05564 20.7921L13.4797 20.4926L13.7684 15.4282L16.9684 15.1559V20.2748H20L19.8797 22.9158Z" fill="#171717"/>
<path d="M60.0723 89.0791H63.1325V85H66.6265V89.0791H75.0602L76 91.1459C74.6265 93.6205 73.3012 96.2039 72.0241 98.8418C70.747 101.48 69.6145 104.281 68.2892 107H64.9398L64.4337 106.075C65.3253 104.199 66.1446 102.486 66.8434 100.963C67.5422 99.4401 68.3133 98.1076 68.988 96.8838C69.5975 95.7855 70.257 94.7235 70.9639 93.7021C71.5607 92.8169 72.2216 91.9892 72.9398 91.2274L66.506 91.5266L66.1446 96.6391L63.0602 96.8294V91.7169H60L60.0723 89.0791Z" fill="#171717"/>
<path d="M13.4084 38.395C13.0051 37.9922 12.4584 37.7659 11.8884 37.7659C11.3185 37.7659 10.7718 37.9922 10.3685 38.395L9.44361 39.3162C9.64543 38.6747 10.0259 38.1039 10.5406 37.6708C10.841 37.37 11.0455 36.9869 11.1284 36.57C11.2112 36.153 11.1686 35.7208 11.006 35.328C10.8433 34.9352 10.5679 34.5995 10.2146 34.3631C9.86121 34.1267 9.44573 34.0004 9.0206 34V34C8.59547 34.0004 8.17999 34.1267 7.82663 34.3631C7.47327 34.5995 7.19788 34.9352 7.03524 35.328C6.8726 35.7208 6.83001 36.153 6.91284 36.57C6.99568 36.9869 7.20023 37.37 7.50065 37.6708C8.01526 38.1039 8.39577 38.6747 8.5976 39.3162L7.67272 38.395C7.37202 38.0939 6.98878 37.8888 6.57148 37.8056C6.15417 37.7223 5.72157 37.7648 5.32839 37.9275C4.93521 38.0902 4.59913 38.3659 4.36267 38.7197C4.12621 39.0734 4 39.4894 4 39.9149C4 40.3404 4.12621 40.7564 4.36267 41.1101C4.59913 41.4639 4.93521 41.7396 5.32839 41.9023C5.72157 42.065 6.15417 42.1075 6.57148 42.0243C6.98878 41.9411 7.37202 41.7359 7.67272 41.4349L8.74816 40.3594C8.74816 40.3809 8.74816 40.3953 8.74816 40.4168C8.74816 41.3488 8.61911 42.8186 7.59386 43.8438V44.2023H10.4617V43.8438C9.44361 42.8258 9.29663 41.3667 9.30739 40.4347C9.30739 40.406 9.30739 40.3845 9.30739 40.3594L10.3828 41.4349C10.7906 41.8148 11.3298 42.0216 11.8871 42.0118C12.4443 42.002 12.9759 41.7762 13.37 41.3822C13.7641 40.9881 13.9898 40.4564 13.9997 39.8992C14.0095 39.342 13.8027 38.8027 13.4227 38.395H13.4084Z" fill="#171717"/>
<path d="M75.4084 73.8074C75.0051 74.2102 74.4584 74.4365 73.8884 74.4365C73.3185 74.4365 72.7718 74.2102 72.3685 73.8074L71.4436 72.8861C71.6454 73.5277 72.0259 74.0985 72.5406 74.5316C72.841 74.8324 73.0455 75.2154 73.1284 75.6324C73.2112 76.0494 73.1686 76.4816 73.006 76.8744C72.8433 77.2672 72.5679 77.6029 72.2146 77.8393C71.8612 78.0757 71.4457 78.202 71.0206 78.2024V78.2024C70.5955 78.202 70.18 78.0757 69.8266 77.8393C69.4733 77.6029 69.1979 77.2672 69.0352 76.8744C68.8726 76.4816 68.83 76.0494 68.9128 75.6324C68.9957 75.2154 69.2002 74.8324 69.5007 74.5316C70.0153 74.0985 70.3958 73.5277 70.5976 72.8861L69.6727 73.8074C69.372 74.1085 68.9888 74.3136 68.5715 74.3968C68.1542 74.48 67.7216 74.4376 67.3284 74.2749C66.9352 74.1122 66.5991 73.8365 66.3627 73.4827C66.1262 73.129 66 72.713 66 72.2875C66 71.862 66.1262 71.446 66.3627 71.0922C66.5991 70.7385 66.9352 70.4628 67.3284 70.3001C67.7216 70.1374 68.1542 70.0949 68.5715 70.1781C68.9888 70.2613 69.372 70.4665 69.6727 70.7675L70.7482 71.843C70.7482 71.8215 70.7482 71.8071 70.7482 71.7856C70.7482 70.8536 70.6191 69.3838 69.5939 68.3586V68.0001H72.4617V68.3586C71.4436 69.3766 71.2966 70.8356 71.3074 71.7677C71.3074 71.7964 71.3074 71.8179 71.3074 71.843L72.3828 70.7675C72.7906 70.3876 73.3298 70.1808 73.8871 70.1906C74.4443 70.2004 74.9759 70.4262 75.37 70.8202C75.7641 71.2143 75.9898 71.746 75.9997 72.3032C76.0095 72.8604 75.8027 73.3997 75.4227 73.8074H75.4084Z" fill="#171717"/>
<rect opacity="0.5" x="25.25" y="31.25" width="29.2297" height="49.5" stroke="#171717" stroke-width="0.5"/>
<path d="M37.1017 45.2102C36.7278 44.8367 36.2209 44.627 35.6924 44.627C35.164 44.627 34.6571 44.8367 34.2832 45.2102L33.4256 46.0644C33.6128 45.4695 33.9656 44.9403 34.4427 44.5388C34.7213 44.2599 34.9109 43.9047 34.9877 43.5181C35.0645 43.1315 35.025 42.7308 34.8742 42.3666C34.7234 42.0024 34.4681 41.6911 34.1405 41.4719C33.8128 41.2527 33.4276 41.1356 33.0334 41.1353V41.1353C32.6393 41.1356 32.254 41.2527 31.9264 41.4719C31.5988 41.6911 31.3434 42.0024 31.1926 42.3666C31.0418 42.7308 31.0023 43.1315 31.0791 43.5181C31.1559 43.9047 31.3456 44.2599 31.6241 44.5388C32.1013 44.9403 32.4541 45.4695 32.6412 46.0644L31.7837 45.2102C31.5049 44.931 31.1495 44.7409 30.7626 44.6637C30.3757 44.5866 29.9746 44.6259 29.6101 44.7768C29.2455 44.9277 28.9339 45.1833 28.7147 45.5113C28.4954 45.8393 28.3784 46.2249 28.3784 46.6195C28.3784 47.014 28.4954 47.3997 28.7147 47.7277C28.9339 48.0557 29.2455 48.3113 29.6101 48.4622C29.9746 48.613 30.3757 48.6524 30.7626 48.5752C31.1495 48.4981 31.5049 48.3079 31.7837 48.0288L32.7808 47.0316C32.7808 47.0516 32.7808 47.0649 32.7808 47.0848C32.7808 47.949 32.6612 49.3117 31.7106 50.2623V50.5947H34.3696V50.2623C33.4256 49.3184 33.2894 47.9656 33.2993 47.1014C33.2993 47.0748 33.2993 47.0549 33.2993 47.0316L34.2965 48.0288C34.6745 48.381 35.1745 48.5728 35.6912 48.5637C36.2078 48.5546 36.7008 48.3453 37.0662 47.9799C37.4315 47.6145 37.6408 47.1216 37.6499 46.6049C37.6591 46.0883 37.4673 45.5882 37.115 45.2102H37.1017Z" fill="#171717"/>
<path d="M37.1017 66.7898C36.7278 67.1633 36.2209 67.373 35.6924 67.373C35.164 67.373 34.6571 67.1633 34.2832 66.7898L33.4256 65.9356C33.6128 66.5305 33.9656 67.0597 34.4427 67.4612C34.7213 67.7401 34.9109 68.0953 34.9877 68.4819C35.0645 68.8685 35.025 69.2692 34.8742 69.6334C34.7234 69.9976 34.4681 70.3089 34.1405 70.5281C33.8128 70.7473 33.4276 70.8644 33.0334 70.8647V70.8647C32.6393 70.8644 32.254 70.7473 31.9264 70.5281C31.5988 70.3089 31.3434 69.9976 31.1926 69.6334C31.0418 69.2692 31.0023 68.8685 31.0791 68.4819C31.1559 68.0953 31.3456 67.7401 31.6241 67.4612C32.1013 67.0597 32.4541 66.5305 32.6412 65.9356L31.7837 66.7898C31.5049 67.069 31.1495 67.2591 30.7626 67.3363C30.3757 67.4134 29.9746 67.3741 29.6101 67.2232C29.2455 67.0723 28.9339 66.8167 28.7147 66.4887C28.4954 66.1607 28.3784 65.7751 28.3784 65.3805C28.3784 64.986 28.4954 64.6003 28.7147 64.2723C28.9339 63.9443 29.2455 63.6887 29.6101 63.5378C29.9746 63.387 30.3757 63.3476 30.7626 63.4248C31.1495 63.5019 31.5049 63.6921 31.7837 63.9712L32.7808 64.9684C32.7808 64.9484 32.7808 64.9351 32.7808 64.9152C32.7808 64.051 32.6612 62.6883 31.7106 61.7377V61.4053H34.3696V61.7377C33.4256 62.6816 33.2894 64.0344 33.2993 64.8986C33.2993 64.9252 33.2993 64.9451 33.2993 64.9684L34.2965 63.9712C34.6745 63.619 35.1745 63.4272 35.6912 63.4363C36.2078 63.4454 36.7008 63.6547 37.0662 64.0201C37.4315 64.3855 37.6408 64.8784 37.6499 65.3951C37.6591 65.9117 37.4673 66.4118 37.115 66.7898H37.1017Z" fill="#171717"/>
<path d="M50.6152 45.2102C50.2413 44.8367 49.7344 44.627 49.206 44.627C48.6775 44.627 48.1706 44.8367 47.7967 45.2102L46.9391 46.0644C47.1263 45.4695 47.4791 44.9403 47.9562 44.5388C48.2348 44.2599 48.4244 43.9047 48.5012 43.5181C48.578 43.1315 48.5385 42.7308 48.3877 42.3666C48.237 42.0024 47.9816 41.6911 47.654 41.4719C47.3263 41.2527 46.9411 41.1356 46.5469 41.1353V41.1353C46.1528 41.1356 45.7675 41.2527 45.4399 41.4719C45.1123 41.6911 44.8569 42.0024 44.7061 42.3666C44.5553 42.7308 44.5159 43.1315 44.5927 43.5181C44.6695 43.9047 44.8591 44.2599 45.1377 44.5388C45.6148 44.9403 45.9676 45.4695 46.1547 46.0644L45.2972 45.2102C45.0184 44.931 44.6631 44.7409 44.2761 44.6637C43.8892 44.5866 43.4881 44.6259 43.1236 44.7768C42.759 44.9277 42.4474 45.1833 42.2282 45.5113C42.0089 45.8393 41.8919 46.2249 41.8919 46.6195C41.8919 47.014 42.0089 47.3997 42.2282 47.7277C42.4474 48.0557 42.759 48.3113 43.1236 48.4622C43.4881 48.613 43.8892 48.6524 44.2761 48.5752C44.6631 48.4981 45.0184 48.3079 45.2972 48.0288L46.2943 47.0316C46.2943 47.0516 46.2943 47.0649 46.2943 47.0848C46.2943 47.949 46.1747 49.3117 45.2241 50.2623V50.5947H47.8831V50.2623C46.9391 49.3184 46.8029 47.9656 46.8128 47.1014C46.8128 47.0748 46.8128 47.0549 46.8128 47.0316L47.81 48.0288C48.188 48.381 48.688 48.5728 49.2047 48.5637C49.7213 48.5546 50.2143 48.3453 50.5797 47.9799C50.9451 47.6145 51.1544 47.1216 51.1635 46.6049C51.1726 46.0883 50.9808 45.5882 50.6285 45.2102H50.6152Z" fill="#171717"/>
<path d="M50.6152 66.7898C50.2413 67.1633 49.7344 67.373 49.206 67.373C48.6775 67.373 48.1706 67.1633 47.7967 66.7898L46.9391 65.9356C47.1263 66.5305 47.4791 67.0597 47.9562 67.4612C48.2348 67.7401 48.4244 68.0953 48.5012 68.4819C48.578 68.8685 48.5385 69.2692 48.3877 69.6334C48.237 69.9976 47.9816 70.3089 47.654 70.5281C47.3263 70.7473 46.9411 70.8644 46.5469 70.8647V70.8647C46.1528 70.8644 45.7675 70.7473 45.4399 70.5281C45.1123 70.3089 44.8569 69.9976 44.7061 69.6334C44.5553 69.2692 44.5159 68.8685 44.5927 68.4819C44.6695 68.0953 44.8591 67.7401 45.1377 67.4612C45.6148 67.0597 45.9676 66.5305 46.1547 65.9356L45.2972 66.7898C45.0184 67.069 44.6631 67.2591 44.2761 67.3363C43.8892 67.4134 43.4881 67.3741 43.1236 67.2232C42.759 67.0723 42.4474 66.8167 42.2282 66.4887C42.0089 66.1607 41.8919 65.7751 41.8919 65.3805C41.8919 64.986 42.0089 64.6003 42.2282 64.2723C42.4474 63.9443 42.759 63.6887 43.1236 63.5378C43.4881 63.387 43.8892 63.3476 44.2761 63.4248C44.6631 63.5019 45.0184 63.6921 45.2972 63.9712L46.2943 64.9684C46.2943 64.9484 46.2943 64.9351 46.2943 64.9152C46.2943 64.051 46.1747 62.6883 45.2241 61.7377V61.4053H47.8831V61.7377C46.9391 62.6816 46.8029 64.0344 46.8128 64.8986C46.8128 64.9252 46.8128 64.9451 46.8128 64.9684L47.81 63.9712C48.188 63.619 48.688 63.4272 49.2047 63.4363C49.7213 63.4454 50.2143 63.6547 50.5797 64.0201C50.9451 64.3855 51.1544 64.8784 51.1635 65.3951C51.1726 65.9117 50.9808 66.4118 50.6285 66.7898H50.6152Z" fill="#171717"/>
</g>
<rect x="0.5" y="0.5" width="79" height="111" rx="4.5" stroke="#DADADA"/>
<defs>
<clipPath id="clip0_276_705">
<rect width="80" height="112" rx="5" fill="white"/>
</clipPath>
</defs>
</svg>
