<svg width="80" height="112" viewBox="0 0 80 112" fill="none" xmlns="http://www.w3.org/2000/svg">
<g clip-path="url(#clip0_276_1859)">
<path d="M75 0H5C2.23858 0 0 2.23858 0 5V107C0 109.761 2.23858 112 5 112H75C77.7614 112 80 109.761 80 107V5C80 2.23858 77.7614 0 75 0Z" fill="white"/>
<path d="M17.1723 6.62963C16.8668 6.65361 16.5874 6.73622 16.3848 6.86243C16.1974 6.98787 16.1076 7.14791 16.1342 7.30864V18.037C16.1517 19.1595 16.0201 20.2811 15.7405 21.3933C15.5338 22.2463 14.9971 23.0661 14.1655 23.7989C13.298 24.5081 12.1636 25.1097 10.8367 25.5644C9.04437 26.1437 7.14982 26.6247 5.18121 27L4 25.6808C5.16622 25.2878 6.25736 24.8329 7.25727 24.3228C8.07719 23.917 8.74554 23.4296 9.22595 22.8871C9.70907 22.2685 10.0226 21.6149 10.1566 20.9471C10.3434 20.1104 10.4271 19.2678 10.4072 18.425V7.38624C10.4106 7.22102 10.3234 7.05896 10.1566 6.92063C10.0698 6.84514 9.955 6.78028 9.81942 6.73017C9.68384 6.68007 9.53048 6.64583 9.36913 6.62963L6.00448 6.33862V5H20V6.33862L17.1723 6.62963Z" fill="#171717"/>
<path d="M62.8572 105.133C63.1619 105.109 63.4407 105.027 63.6428 104.902C63.8426 104.78 63.9453 104.621 63.9286 104.459V93.8154C63.9012 92.7023 64.0206 91.5896 64.2857 90.4856C64.5198 89.6401 65.0663 88.8285 65.8929 88.0989C66.7386 87.3865 67.8745 86.7875 69.2143 86.3473C71.0047 85.7953 72.8956 85.3439 74.8571 85L76 86.3088C74.8491 86.7085 73.762 87.1592 72.75 87.6562C71.9427 88.0595 71.2878 88.5431 70.8214 89.0805C70.3035 89.6875 69.9891 90.3392 69.8928 91.0053C69.6916 91.8348 69.5962 92.6708 69.6071 93.5074V104.633C69.5956 104.8 69.697 104.964 69.8928 105.094C69.9901 105.157 70.1099 105.208 70.2451 105.244C70.3802 105.281 70.5277 105.302 70.6786 105.306L73.9286 105.653V107H60V105.653L62.8572 105.133Z" fill="#171717"/>
<path d="M45.1813 37.4706V40.4353L49.9412 43.2353L45.1813 46.0353L45.8373 77H41.2449V46.0353C37.0461 46.0353 34.6842 49 34.6842 51.4706C28.3691 46.0353 31.4039 36.8118 34.6842 35C34.6842 38.5576 39.058 40.1059 41.2449 40.4353V37.4706H45.1813Z" fill="#171717"/>
<path d="M36.1385 37.4707C35.3274 38.5653 34.3272 40.6421 34.2949 42.9876M36.1385 48.1766C34.7448 46.4839 34.2718 44.6669 34.2949 42.9876M34.2949 42.9876L41.7059 43.1054" stroke="white"/>
<path d="M13.4084 38.395C13.0051 37.9922 12.4584 37.7659 11.8884 37.7659C11.3185 37.7659 10.7718 37.9922 10.3685 38.395L9.44361 39.3162C9.64543 38.6747 10.0259 38.1039 10.5406 37.6708C10.841 37.37 11.0455 36.9869 11.1284 36.57C11.2112 36.153 11.1686 35.7208 11.006 35.328C10.8433 34.9352 10.5679 34.5995 10.2146 34.3631C9.86121 34.1267 9.44573 34.0004 9.0206 34V34C8.59547 34.0004 8.17999 34.1267 7.82663 34.3631C7.47327 34.5995 7.19788 34.9352 7.03524 35.328C6.8726 35.7208 6.83001 36.153 6.91284 36.57C6.99568 36.9869 7.20023 37.37 7.50065 37.6708C8.01526 38.1039 8.39577 38.6747 8.5976 39.3162L7.67272 38.395C7.37202 38.0939 6.98878 37.8888 6.57148 37.8056C6.15417 37.7223 5.72157 37.7648 5.32839 37.9275C4.93521 38.0902 4.59913 38.3659 4.36267 38.7197C4.12621 39.0734 4 39.4894 4 39.9149C4 40.3404 4.12621 40.7564 4.36267 41.1101C4.59913 41.4639 4.93521 41.7396 5.32839 41.9023C5.72157 42.065 6.15417 42.1075 6.57148 42.0243C6.98878 41.9411 7.37202 41.7359 7.67272 41.4349L8.74816 40.3594C8.74816 40.3809 8.74816 40.3953 8.74816 40.4168C8.74816 41.3488 8.61911 42.8186 7.59386 43.8438V44.2023H10.4617V43.8438C9.44361 42.8258 9.29663 41.3667 9.30739 40.4347C9.30739 40.406 9.30739 40.3845 9.30739 40.3594L10.3828 41.4349C10.7906 41.8148 11.3298 42.0216 11.8871 42.0118C12.4443 42.002 12.9759 41.7762 13.37 41.3822C13.7641 40.9881 13.9898 40.4564 13.9997 39.8992C14.0095 39.342 13.8027 38.8027 13.4227 38.395H13.4084Z" fill="#171717"/>
<path d="M74.5214 23.1848C73.7704 22.4347 72.7523 22.0134 71.6908 22.0134C70.6293 22.0134 69.6112 22.4347 68.8602 23.1848L67.1377 24.9006C67.5136 23.7057 68.2223 22.6428 69.1806 21.8363C69.7401 21.2761 70.121 20.5627 70.2753 19.7861C70.4296 19.0096 70.3502 18.2047 70.0474 17.4732C69.7445 16.7417 69.2316 16.1164 68.5735 15.6762C67.9155 15.236 67.1417 15.0007 66.35 15V15C65.5583 15.0007 64.7845 15.236 64.1264 15.6762C63.4683 16.1164 62.9555 16.7417 62.6526 17.4732C62.3497 18.2047 62.2704 19.0096 62.4247 19.7861C62.5789 20.5627 62.9599 21.2761 63.5193 21.8363C64.4777 22.6428 65.1863 23.7057 65.5622 24.9006L63.8398 23.1848C63.2798 22.6241 62.5661 22.2421 61.7889 22.0872C61.0118 21.9322 60.2061 22.0112 59.4739 22.3143C58.7417 22.6173 58.1158 23.1307 57.6754 23.7895C57.2351 24.4484 57 25.223 57 26.0155C57 26.8079 57.2351 27.5826 57.6754 28.2414C58.1158 28.9002 58.7417 29.4136 59.4739 29.7166C60.2061 30.0197 61.0118 30.0987 61.7889 29.9438C62.5661 29.7888 63.2798 29.4068 63.8398 28.8461L65.8426 26.8433C65.8426 26.8833 65.8426 26.91 65.8426 26.9501C65.8426 28.6859 65.6023 31.423 63.6929 33.3324V34H69.0337V33.3324C67.1377 31.4364 66.864 28.7193 66.8841 26.9835C66.8841 26.9301 66.8841 26.89 66.8841 26.8433L68.8869 28.8461C69.6462 29.5537 70.6505 29.9389 71.6883 29.9205C72.726 29.9022 73.7161 29.4818 74.45 28.7479C75.1839 28.014 75.6043 27.0239 75.6226 25.9862C75.6409 24.9485 75.2557 23.9442 74.5481 23.1848H74.5214Z" fill="#171717"/>
<path d="M21.5214 87.8152C20.7704 88.5653 19.7523 88.9866 18.6908 88.9866C17.6293 88.9866 16.6112 88.5653 15.8602 87.8152L14.1377 86.0994C14.5136 87.2943 15.2223 88.3572 16.1806 89.1637C16.7401 89.7239 17.121 90.4373 17.2753 91.2139C17.4296 91.9904 17.3502 92.7953 17.0474 93.5268C16.7445 94.2583 16.2316 94.8836 15.5735 95.3238C14.9155 95.764 14.1417 95.9993 13.35 96V96C12.5583 95.9993 11.7845 95.764 11.1264 95.3238C10.4683 94.8836 9.95548 94.2583 9.65259 93.5268C9.3497 92.7953 9.27039 91.9904 9.42465 91.2139C9.57892 90.4373 9.95985 89.7239 10.5193 89.1637C11.4777 88.3572 12.1863 87.2943 12.5622 86.0994L10.8398 87.8152C10.2798 88.3759 9.56606 88.7579 8.78891 88.9128C8.01176 89.0678 7.20611 88.9888 6.47389 88.6857C5.74167 88.3827 5.11578 87.8693 4.67542 87.2105C4.23505 86.5516 4 85.777 4 84.9845C4 84.1921 4.23505 83.4174 4.67542 82.7586C5.11578 82.0998 5.74167 81.5864 6.47389 81.2834C7.20611 80.9803 8.01176 80.9013 8.78891 81.0562C9.56606 81.2112 10.2798 81.5932 10.8398 82.1539L12.8426 84.1567C12.8426 84.1167 12.8426 84.09 12.8426 84.0499C12.8426 82.3141 12.6023 79.577 10.6929 77.6676V77H16.0337V77.6676C14.1377 79.5636 13.864 82.2807 13.8841 84.0165C13.8841 84.0699 13.8841 84.11 13.8841 84.1567L15.8869 82.1539C16.6462 81.4463 17.6505 81.0611 18.6883 81.0795C19.726 81.0978 20.7161 81.5182 21.45 82.2521C22.1839 82.986 22.6043 83.9761 22.6226 85.0138C22.6409 86.0515 22.2557 87.0558 21.5481 87.8152H21.5214Z" fill="#171717"/>
<path d="M75.4084 73.8074C75.0051 74.2102 74.4584 74.4365 73.8884 74.4365C73.3185 74.4365 72.7718 74.2102 72.3685 73.8074L71.4436 72.8861C71.6454 73.5277 72.0259 74.0985 72.5406 74.5316C72.841 74.8324 73.0455 75.2154 73.1284 75.6324C73.2112 76.0494 73.1686 76.4816 73.006 76.8744C72.8433 77.2672 72.5679 77.6029 72.2146 77.8393C71.8612 78.0757 71.4457 78.202 71.0206 78.2024V78.2024C70.5955 78.202 70.18 78.0757 69.8266 77.8393C69.4733 77.6029 69.1979 77.2672 69.0352 76.8744C68.8726 76.4816 68.83 76.0494 68.9128 75.6324C68.9957 75.2154 69.2002 74.8324 69.5007 74.5316C70.0153 74.0985 70.3958 73.5277 70.5976 72.8861L69.6727 73.8074C69.372 74.1085 68.9888 74.3136 68.5715 74.3968C68.1542 74.48 67.7216 74.4376 67.3284 74.2749C66.9352 74.1122 66.5991 73.8365 66.3627 73.4827C66.1262 73.129 66 72.713 66 72.2875C66 71.862 66.1262 71.446 66.3627 71.0922C66.5991 70.7385 66.9352 70.4628 67.3284 70.3001C67.7216 70.1374 68.1542 70.0949 68.5715 70.1781C68.9888 70.2613 69.372 70.4665 69.6727 70.7675L70.7482 71.843C70.7482 71.8215 70.7482 71.8071 70.7482 71.7856C70.7482 70.8536 70.6191 69.3838 69.5939 68.3586V68.0001H72.4617V68.3586C71.4436 69.3766 71.2966 70.8356 71.3074 71.7677C71.3074 71.7964 71.3074 71.8179 71.3074 71.843L72.3828 70.7675C72.7906 70.3876 73.3298 70.1808 73.8871 70.1906C74.4443 70.2004 74.9759 70.4262 75.37 70.8202C75.7641 71.2143 75.9898 71.746 75.9997 72.3032C76.0095 72.8604 75.8027 73.3997 75.4227 73.8074H75.4084Z" fill="#171717"/>
</g>
<rect x="0.5" y="0.5" width="79" height="111" rx="4.5" stroke="#DADADA"/>
<defs>
<clipPath id="clip0_276_1859">
<rect width="80" height="112" rx="5" fill="white"/>
</clipPath>
</defs>
</svg>
