<svg width="80" height="112" viewBox="0 0 80 112" fill="none" xmlns="http://www.w3.org/2000/svg">
<g clip-path="url(#clip0_276_2224)">
<path d="M75 0H5C2.23858 0 0 2.23858 0 5V107C0 109.761 2.23858 112 5 112H75C77.7614 112 80 109.761 80 107V5C80 2.23858 77.7614 0 75 0Z" fill="white"/>
<path d="M11.3563 26.2813V27.9747H4V26.2813L5.67356 25.8264C5.83111 25.7917 5.97801 25.6951 6.09655 25.5484C6.19324 25.3839 6.24526 25.1784 6.24368 24.967V8.10879C6.24965 7.88879 6.19738 7.67327 6.09655 7.5022C6.04434 7.39155 5.97377 7.2995 5.89065 7.2336C5.80753 7.1677 5.71423 7.12982 5.61839 7.12308L4 6.74396V5H11.3563V6.74396L9.62759 7.12308C9.55259 7.12942 9.47942 7.15746 9.41287 7.20538C9.34631 7.25329 9.28787 7.31998 9.24138 7.4011C9.14056 7.57218 9.08828 7.78769 9.09425 8.00769V17.2582L15.3839 7.14835L13.5448 6.64286V5H19.6138V6.74396L17.9402 7.12308C17.8101 7.14673 17.6849 7.20696 17.5724 7.3C17.447 7.37746 17.3343 7.48926 17.2414 7.62857L13.1954 14.0736C13.5801 14.7088 13.9363 15.3756 14.2621 16.0703L15.4207 18.5978L17.9034 24.8154C18.0218 25.0761 18.1572 25.3214 18.308 25.5484C18.4736 25.7298 18.6696 25.8515 18.8782 25.9022L20 26.3066V28H16.1747C15.8988 28 15.623 27.722 15.3287 27.1659C14.9643 26.4275 14.6326 25.6594 14.3356 24.8659C14.3356 24.8659 12.092 19.0527 11.8713 18.522C11.6506 17.9912 11.4299 17.4604 11.2092 17.0055L9.09425 20.2912V25.0176C9.08939 25.2297 9.1418 25.4367 9.24138 25.5989C9.35487 25.7558 9.50428 25.854 9.66437 25.8769L11.3563 26.2813Z" fill="#171717"/>
<path d="M68.7024 86.6458V85H76V86.6458L74.3398 87.0572C74.189 87.0908 74.0492 87.1835 73.9384 87.3234C73.887 87.3983 73.8476 87.4863 73.8225 87.582C73.7974 87.6776 73.7872 87.779 73.7925 87.8801V104.023C73.7814 104.231 73.8267 104.437 73.9202 104.604C74.0231 104.758 74.1669 104.853 74.3216 104.87L76 105.306V107H68.7024V105.306L70.3808 104.87C70.4579 104.864 70.5333 104.838 70.6023 104.792C70.6713 104.746 70.7325 104.682 70.7822 104.604C70.8757 104.437 70.921 104.231 70.9099 104.023V95.165L64.6705 104.846L66.4949 105.306V107H60.4743V105.306L62.0433 104.87C62.1774 104.843 62.307 104.786 62.4265 104.701C62.5424 104.62 62.6473 104.513 62.7366 104.386L66.8597 98.3113C66.4721 97.7035 66.1126 97.065 65.7834 96.3993C65.455 95.6975 65.0718 94.8504 64.6522 93.9791L62.0798 88.1705C61.9686 87.9153 61.8338 87.6795 61.6785 87.4686C61.5191 87.2993 61.3314 87.1831 61.1311 87.1298L60 86.7668V85.121H63.813C64.0684 85.121 64.3421 85.3872 64.634 85.9439C65.0134 86.6318 65.349 87.3604 65.6374 88.1221C65.6374 88.1221 67.8449 93.6887 68.0639 94.1969C68.2828 94.7052 68.5199 95.2134 68.7389 95.6491L70.8187 92.5027V87.8559C70.8251 87.7547 70.8154 87.6529 70.7902 87.557C70.7651 87.4611 70.7251 87.3733 70.6728 87.2992C70.5602 87.149 70.4119 87.055 70.2531 87.033L68.7024 86.6458Z" fill="#171717"/>
<g clip-path="url(#clip1_276_2224)">
<path d="M53.5474 69.2532H27.3276V70.0017H53.5474V69.2532Z" fill="#171717"/>
<path d="M53.5491 68.9279H27.3276V66.4819H53.5491V68.9279Z" fill="#171717"/>
<path d="M32.1953 66.1534H27.2868L26.3786 63.6129L25.9082 62.3017C25.9082 62.2148 25.9346 62.1299 25.984 62.0577C26.0334 61.9856 26.1036 61.9295 26.1856 61.8967C26.2676 61.8639 26.3578 61.8557 26.4445 61.8733C26.5312 61.891 26.6107 61.9335 26.6726 61.9956L27.3816 62.5293L32.1953 66.1534Z" fill="#171717"/>
<path d="M37.5415 66.1533H32.6412L32.7849 63.7218L32.8045 63.4125L32.8862 62.0356C32.9223 61.9613 32.9792 61.8985 33.0501 61.8546C33.1211 61.8107 33.2033 61.7874 33.2872 61.7874C33.3711 61.7874 33.4533 61.8107 33.5243 61.8546C33.5952 61.8985 33.6521 61.9613 33.6882 62.0356L33.9071 62.268L34.2452 62.6319L37.5415 66.1533Z" fill="#171717"/>
<path d="M42.9677 58.8459C42.3949 59.404 41.9926 60.1082 41.8064 60.8789C41.6202 61.6497 41.6575 62.4562 41.9142 63.2072L42.9105 66.1532H37.9645L38.9642 63.2072C39.2192 62.4555 39.2551 61.6489 39.0678 60.8782C38.8805 60.1076 38.4774 59.4037 37.9041 58.8459C37.9035 58.8406 37.9035 58.8352 37.9041 58.8299C38.5848 58.5566 39.1976 58.1428 39.7009 57.6165C39.8871 57.4206 40.0514 57.2057 40.1909 56.9754C40.2164 56.9314 40.2534 56.8948 40.298 56.8694C40.3426 56.844 40.3933 56.8306 40.4449 56.8306C40.4965 56.8306 40.5472 56.844 40.5918 56.8694C40.6364 56.8948 40.6733 56.9314 40.6989 56.9754C40.8368 57.2067 41.0012 57.4218 41.1889 57.6165C41.6928 58.1413 42.3055 58.5539 42.9857 58.8266C42.981 58.8341 42.9749 58.8406 42.9677 58.8459Z" fill="#171717"/>
<path d="M32.7735 60.6492C32.3991 61.051 31.9382 61.3658 31.4243 61.5709C31.4243 61.5709 32.7621 62.8532 32.7621 63.7235H33.8026C33.8026 62.8483 35.1403 61.5709 35.1403 61.5709C34.6262 61.3662 34.1652 61.0513 33.7911 60.6492C33.7271 60.579 33.6487 60.5228 33.561 60.4844C33.4733 60.4459 33.3784 60.426 33.2823 60.426C33.1863 60.426 33.0913 60.4459 33.0036 60.4844C32.916 60.5228 32.8375 60.579 32.7735 60.6492Z" fill="#171717"/>
<path d="M54.9114 62.3017L54.4524 63.584L53.5311 66.1485H48.6308L53.554 62.4412L54.1518 61.9908C54.2144 61.93 54.2938 61.8888 54.3802 61.8723C54.4665 61.8558 54.5559 61.8648 54.6371 61.898C54.7183 61.9312 54.7877 61.9873 54.8365 62.0591C54.8853 62.131 54.9113 62.2154 54.9114 62.3017Z" fill="#171717"/>
<path d="M48.1832 66.1533H43.283L46.5808 62.6351L47.0137 62.1703L47.1411 62.0356C47.1772 61.9613 47.2341 61.8985 47.305 61.8546C47.376 61.8107 47.4582 61.7874 47.5421 61.7874C47.626 61.7874 47.7082 61.8107 47.7792 61.8546C47.8502 61.8985 47.907 61.9613 47.9431 62.0356L48.0232 63.3916L48.0444 63.7218L48.1832 66.1533Z" fill="#171717"/>
<path d="M48.046 60.6492C48.4201 61.0513 48.8811 61.3662 49.3952 61.5709C49.3952 61.5709 48.0575 62.8532 48.0575 63.7235H47.017C47.017 62.8483 45.6792 61.5709 45.6792 61.5709C46.1931 61.3658 46.654 61.051 47.0284 60.6492C47.0925 60.579 47.1709 60.5228 47.2585 60.4844C47.3462 60.4459 47.4412 60.426 47.5372 60.426C47.6333 60.426 47.7282 60.4459 47.8159 60.4844C47.9036 60.5228 47.982 60.579 48.046 60.6492Z" fill="#171717"/>
<path d="M54.5242 63.6384L53.3416 62.7553C53.4658 62.595 56.3406 58.7289 51.9859 54.7314C48.8007 51.8063 44.508 54.1753 42.2016 55.4479C41.9387 55.5938 41.7116 55.7188 41.5107 55.8214C41.1793 55.9926 40.8104 56.0821 40.4359 56.0821C40.0614 56.0821 39.6925 55.9926 39.3611 55.8214C39.1602 55.7188 38.9332 55.5938 38.6718 55.4479C36.3654 54.1817 32.0711 51.8047 28.8859 54.7298C27.0336 56.4256 26.2463 58.2994 26.5469 60.2837C26.6831 61.1671 27.0179 62.0097 27.5269 62.7505L26.3476 63.6384C25.6828 62.702 25.2479 61.6273 25.0768 60.4985C24.8171 58.7898 25.0915 56.2157 27.8716 53.664C31.8506 50.0143 36.9502 52.8241 39.4003 54.1817C39.6519 54.3211 39.8707 54.4413 40.0537 54.5359C40.1716 54.5974 40.3032 54.6295 40.4367 54.6295C40.5703 54.6295 40.7018 54.5974 40.8198 54.5359C41.0011 54.4413 41.22 54.3211 41.4731 54.1817C43.9233 52.8289 49.0212 50.0143 53.0019 53.6704C55.7787 56.2221 56.0547 58.7995 55.795 60.5049C55.6246 61.6319 55.1895 62.7046 54.5242 63.6384Z" fill="#171717"/>
<path d="M32.7474 63.4285C32.5464 62.8514 32.308 62.2648 32.0564 61.6429C30.7709 58.4725 29.1702 54.5279 33.8058 52.2663C35.3902 51.4953 36.8522 51.3671 38.1507 51.8864C40.2742 52.7391 41.104 55.0151 41.1383 55.1129L39.7352 55.5938C39.7352 55.5761 39.0818 53.8306 37.5807 53.2344C36.6954 52.8834 35.6483 52.9972 34.4739 53.5726C31.2936 55.1241 31.9633 57.4531 33.4448 61.1059C33.6915 61.715 33.9479 62.3465 34.1603 62.9604L32.7474 63.4285Z" fill="#171717"/>
<path d="M48.1245 63.4285L46.7246 62.9589C46.937 62.345 47.1934 61.7151 47.4417 61.1044C48.9216 57.4531 49.5913 55.1242 46.4126 53.5711C45.2317 52.9956 44.183 52.8818 43.2977 53.2329C41.7982 53.8259 41.1497 55.5746 41.1432 55.5922L39.7417 55.1114C39.7744 55.0136 40.6041 52.7344 42.7276 51.8849C44.0343 51.364 45.4897 51.4922 47.0742 52.2647C51.7082 54.5264 50.1091 58.4725 48.8219 61.6414C48.5638 62.2649 48.3254 62.8515 48.1245 63.4285Z" fill="#171717"/>
<path d="M40.4359 61.6813C40.2402 61.6792 40.0533 61.6014 39.9157 61.4648C39.778 61.3283 39.7009 61.144 39.7009 60.952V52.7054C39.7009 52.6096 39.7201 52.5148 39.7574 52.4263C39.7948 52.3378 39.8495 52.2574 39.9185 52.1897C39.9876 52.122 40.0695 52.0682 40.1597 52.0316C40.2498 51.9949 40.3465 51.9761 40.4441 51.9761C40.5417 51.9761 40.6383 51.9949 40.7285 52.0316C40.8187 52.0682 40.9006 52.122 40.9696 52.1897C41.0386 52.2574 41.0934 52.3378 41.1307 52.4263C41.1681 52.5148 41.1873 52.6096 41.1873 52.7054V60.952C41.1873 61.0484 41.1678 61.1439 41.1299 61.2329C41.0921 61.3219 41.0366 61.4027 40.9667 61.4705C40.8968 61.5383 40.8139 61.5919 40.7228 61.6281C40.6317 61.6642 40.5342 61.6823 40.4359 61.6813Z" fill="#171717"/>
<path d="M42.329 45.5022C42.1404 45.8321 41.8655 46.1068 41.5328 46.298C41.2001 46.4892 40.8215 46.59 40.4359 46.59C40.0503 46.59 39.6717 46.4892 39.339 46.298C39.0063 46.1068 38.7314 45.8321 38.5427 45.5022L35.9995 46.6931C35.9459 46.7194 35.8986 46.7566 35.8607 46.8021C35.8228 46.8477 35.7952 46.9007 35.7798 46.9575C35.7643 47.0143 35.7614 47.0738 35.7711 47.1318C35.7808 47.1898 35.803 47.2452 35.8362 47.2942L37.365 49.5894H43.5067L45.0438 47.2894C45.0772 47.2404 45.0996 47.1851 45.1095 47.127C45.1193 47.0689 45.1164 47.0094 45.101 46.9525C45.0855 46.8956 45.0578 46.8426 45.0198 46.797C44.9818 46.7515 44.9343 46.7144 44.8805 46.6883L42.329 45.5022Z" fill="#171717"/>
<path d="M40.4359 46.9208C40.9878 46.9219 41.5248 46.7446 41.9638 46.4162C42.4028 46.0879 42.7193 45.6269 42.8646 45.1044C43.0098 44.5818 42.9756 44.0269 42.7674 43.5253C42.5591 43.0238 42.1882 42.6035 41.7122 42.3294C41.2361 42.0553 40.6813 41.9427 40.1335 42.009C39.5857 42.0753 39.0754 42.3167 38.6814 42.6961C38.2874 43.0754 38.0317 43.5715 37.9538 44.1077C37.8759 44.6439 37.9801 45.1903 38.2504 45.6626C38.468 46.0439 38.7851 46.3614 39.1692 46.5825C39.5534 46.8037 39.9906 46.9204 40.4359 46.9208Z" fill="#171717"/>
<path d="M43.5982 49.7515H37.2736C37.0886 49.7515 36.9112 49.8236 36.7804 49.9519C36.6496 50.0803 36.5761 50.2544 36.5761 50.4359C36.5761 50.6174 36.6496 50.7915 36.7804 50.9198C36.9112 51.0482 37.0886 51.1203 37.2736 51.1203H43.5982C43.7832 51.1203 43.9606 51.0482 44.0914 50.9198C44.2222 50.7915 44.2957 50.6174 44.2957 50.4359C44.2957 50.2544 44.2222 50.0803 44.0914 49.9519C43.9606 49.8236 43.7832 49.7515 43.5982 49.7515Z" fill="#171717"/>
<path d="M53.5474 66.4819H27.3276V68.9231H53.5474V66.4819Z" fill="#171717"/>
</g>
<path d="M74.5214 23.1848C73.7704 22.4347 72.7523 22.0134 71.6908 22.0134C70.6293 22.0134 69.6112 22.4347 68.8602 23.1848L67.1377 24.9006C67.5136 23.7057 68.2223 22.6428 69.1806 21.8363C69.7401 21.2761 70.121 20.5627 70.2753 19.7861C70.4296 19.0096 70.3502 18.2047 70.0474 17.4732C69.7445 16.7417 69.2316 16.1164 68.5735 15.6762C67.9155 15.236 67.1417 15.0007 66.35 15V15C65.5583 15.0007 64.7845 15.236 64.1264 15.6762C63.4683 16.1164 62.9555 16.7417 62.6526 17.4732C62.3497 18.2047 62.2704 19.0096 62.4247 19.7861C62.5789 20.5627 62.9599 21.2761 63.5193 21.8363C64.4777 22.6428 65.1863 23.7057 65.5622 24.9006L63.8398 23.1848C63.2798 22.6241 62.5661 22.2421 61.7889 22.0872C61.0118 21.9322 60.2061 22.0112 59.4739 22.3143C58.7417 22.6173 58.1158 23.1307 57.6754 23.7895C57.2351 24.4484 57 25.223 57 26.0155C57 26.8079 57.2351 27.5826 57.6754 28.2414C58.1158 28.9002 58.7417 29.4136 59.4739 29.7166C60.2061 30.0197 61.0118 30.0987 61.7889 29.9438C62.5661 29.7888 63.2798 29.4068 63.8398 28.8461L65.8426 26.8433C65.8426 26.8833 65.8426 26.91 65.8426 26.9501C65.8426 28.6859 65.6023 31.423 63.6929 33.3324V34H69.0337V33.3324C67.1377 31.4364 66.864 28.7193 66.8841 26.9835C66.8841 26.9301 66.8841 26.89 66.8841 26.8433L68.8869 28.8461C69.6462 29.5537 70.6505 29.9389 71.6883 29.9205C72.726 29.9022 73.7161 29.4818 74.45 28.7479C75.1839 28.014 75.6043 27.0239 75.6226 25.9862C75.6409 24.9485 75.2557 23.9442 74.5481 23.1848H74.5214Z" fill="#171717"/>
<path d="M21.5214 87.8152C20.7704 88.5653 19.7523 88.9866 18.6908 88.9866C17.6293 88.9866 16.6112 88.5653 15.8602 87.8152L14.1377 86.0994C14.5136 87.2943 15.2223 88.3572 16.1806 89.1637C16.7401 89.7239 17.121 90.4373 17.2753 91.2139C17.4296 91.9904 17.3502 92.7953 17.0474 93.5268C16.7445 94.2583 16.2316 94.8836 15.5735 95.3238C14.9155 95.764 14.1417 95.9993 13.35 96V96C12.5583 95.9993 11.7845 95.764 11.1264 95.3238C10.4683 94.8836 9.95548 94.2583 9.65259 93.5268C9.3497 92.7953 9.27039 91.9904 9.42465 91.2139C9.57892 90.4373 9.95985 89.7239 10.5193 89.1637C11.4777 88.3572 12.1863 87.2943 12.5622 86.0994L10.8398 87.8152C10.2798 88.3759 9.56606 88.7579 8.78891 88.9128C8.01176 89.0678 7.20611 88.9888 6.47389 88.6857C5.74167 88.3827 5.11578 87.8693 4.67542 87.2105C4.23505 86.5516 4 85.777 4 84.9845C4 84.1921 4.23505 83.4174 4.67542 82.7586C5.11578 82.0998 5.74167 81.5864 6.47389 81.2834C7.20611 80.9803 8.01176 80.9013 8.78891 81.0562C9.56606 81.2112 10.2798 81.5932 10.8398 82.1539L12.8426 84.1567C12.8426 84.1167 12.8426 84.09 12.8426 84.0499C12.8426 82.3141 12.6023 79.577 10.6929 77.6676V77H16.0337V77.6676C14.1377 79.5636 13.864 82.2807 13.8841 84.0165C13.8841 84.0699 13.8841 84.11 13.8841 84.1567L15.8869 82.1539C16.6462 81.4463 17.6505 81.0611 18.6883 81.0795C19.726 81.0978 20.7161 81.5182 21.45 82.2521C22.1839 82.986 22.6043 83.9761 22.6226 85.0138C22.6409 86.0515 22.2557 87.0558 21.5481 87.8152H21.5214Z" fill="#171717"/>
<path d="M13.4084 38.395C13.0051 37.9922 12.4584 37.7659 11.8884 37.7659C11.3185 37.7659 10.7718 37.9922 10.3685 38.395L9.44361 39.3162C9.64543 38.6747 10.0259 38.1039 10.5406 37.6708C10.841 37.37 11.0455 36.9869 11.1284 36.57C11.2112 36.153 11.1686 35.7208 11.006 35.328C10.8433 34.9352 10.5679 34.5995 10.2146 34.3631C9.86121 34.1267 9.44573 34.0004 9.0206 34V34C8.59547 34.0004 8.17999 34.1267 7.82663 34.3631C7.47327 34.5995 7.19788 34.9352 7.03524 35.328C6.8726 35.7208 6.83001 36.153 6.91284 36.57C6.99568 36.9869 7.20023 37.37 7.50065 37.6708C8.01526 38.1039 8.39577 38.6747 8.5976 39.3162L7.67272 38.395C7.37202 38.0939 6.98878 37.8888 6.57148 37.8056C6.15417 37.7223 5.72157 37.7648 5.32839 37.9275C4.93521 38.0902 4.59913 38.3659 4.36267 38.7197C4.12621 39.0734 4 39.4894 4 39.9149C4 40.3404 4.12621 40.7564 4.36267 41.1101C4.59913 41.4639 4.93521 41.7396 5.32839 41.9023C5.72157 42.065 6.15417 42.1075 6.57148 42.0243C6.98878 41.9411 7.37202 41.7359 7.67272 41.4349L8.74816 40.3594C8.74816 40.3809 8.74816 40.3953 8.74816 40.4168C8.74816 41.3488 8.61911 42.8186 7.59386 43.8438V44.2023H10.4617V43.8438C9.44361 42.8258 9.29663 41.3667 9.30739 40.4347C9.30739 40.406 9.30739 40.3845 9.30739 40.3594L10.3828 41.4349C10.7906 41.8148 11.3298 42.0216 11.8871 42.0118C12.4443 42.002 12.9759 41.7762 13.37 41.3822C13.7641 40.9881 13.9898 40.4564 13.9997 39.8992C14.0095 39.342 13.8027 38.8027 13.4227 38.395H13.4084Z" fill="#171717"/>
<path d="M75.4084 73.8074C75.0051 74.2102 74.4584 74.4365 73.8884 74.4365C73.3185 74.4365 72.7718 74.2102 72.3685 73.8074L71.4436 72.8861C71.6454 73.5277 72.0259 74.0985 72.5406 74.5316C72.841 74.8324 73.0455 75.2154 73.1284 75.6324C73.2112 76.0494 73.1686 76.4816 73.006 76.8744C72.8433 77.2672 72.5679 77.6029 72.2146 77.8393C71.8612 78.0757 71.4457 78.202 71.0206 78.2024V78.2024C70.5955 78.202 70.18 78.0757 69.8266 77.8393C69.4733 77.6029 69.1979 77.2672 69.0352 76.8744C68.8726 76.4816 68.83 76.0494 68.9128 75.6324C68.9957 75.2154 69.2002 74.8324 69.5007 74.5316C70.0153 74.0985 70.3958 73.5277 70.5976 72.8861L69.6727 73.8074C69.372 74.1085 68.9888 74.3136 68.5715 74.3968C68.1542 74.48 67.7216 74.4376 67.3284 74.2749C66.9352 74.1122 66.5991 73.8365 66.3627 73.4827C66.1262 73.129 66 72.713 66 72.2875C66 71.862 66.1262 71.446 66.3627 71.0922C66.5991 70.7385 66.9352 70.4628 67.3284 70.3001C67.7216 70.1374 68.1542 70.0949 68.5715 70.1781C68.9888 70.2613 69.372 70.4665 69.6727 70.7675L70.7482 71.843C70.7482 71.8215 70.7482 71.8071 70.7482 71.7856C70.7482 70.8536 70.6191 69.3838 69.5939 68.3586V68.0001H72.4617V68.3586C71.4436 69.3766 71.2966 70.8356 71.3074 71.7677C71.3074 71.7964 71.3074 71.8179 71.3074 71.843L72.3828 70.7675C72.7906 70.3876 73.3298 70.1808 73.8871 70.1906C74.4443 70.2004 74.9759 70.4262 75.37 70.8202C75.7641 71.2143 75.9898 71.746 75.9997 72.3032C76.0095 72.8604 75.8027 73.3997 75.4227 73.8074H75.4084Z" fill="#171717"/>
</g>
<rect x="0.5" y="0.5" width="79" height="111" rx="4.5" stroke="#DADADA"/>
<defs>
<clipPath id="clip0_276_2224">
<rect width="80" height="112" rx="5" fill="white"/>
</clipPath>
<clipPath id="clip1_276_2224">
<rect width="30.8718" height="28" fill="white" transform="translate(25 42)"/>
</clipPath>
</defs>
</svg>
