<svg width="80" height="112" viewBox="0 0 80 112" fill="none" xmlns="http://www.w3.org/2000/svg">
<g clip-path="url(#clip0_276_1515)">
<path d="M75 0H5C2.23858 0 0 2.23858 0 5V107C0 109.761 2.23858 112 5 112H75C77.7614 112 80 109.761 80 107V5C80 2.23858 77.7614 0 75 0Z" fill="white"/>
<path d="M10.3462 26.998C9.34318 27.0057 8.34455 26.8634 7.38308 26.5755C6.52718 26.345 5.731 25.9306 5.04927 25.3608L5.7835 23.618C6.31523 23.8906 6.86764 24.1201 7.43553 24.3045C8.12706 24.4985 8.8417 24.5962 9.55956 24.595C10.33 24.5962 11.0913 24.4265 11.7893 24.0979C12.4872 23.7693 13.1047 23.2899 13.5978 22.6937C14.8121 21.1276 15.5008 19.2135 15.5645 17.2276C14.9261 17.845 14.167 18.3216 13.3356 18.6272C12.4045 18.977 11.4187 19.1559 10.4249 19.1553C9.52701 19.1583 8.63688 18.988 7.80264 18.6536C7.0439 18.3658 6.36173 17.9048 5.80973 17.3069C5.22455 16.7586 4.76003 16.093 4.44615 15.3528C4.1425 14.5064 3.99153 13.6121 4.00037 12.7122C3.99292 11.6741 4.17973 10.6439 4.55104 9.67544C4.88725 8.73968 5.41426 7.88515 6.09817 7.16684C6.8042 6.47532 7.64296 5.9362 8.5631 5.58247C9.60826 5.17771 10.7213 4.98044 11.8409 5.00153C12.9906 4.98474 14.1319 5.20024 15.1974 5.63528C16.2112 6.04644 17.1109 6.6988 17.8197 7.53653C18.5746 8.45155 19.1367 9.51171 19.4717 10.6525C19.8523 12.0541 20.0289 13.504 19.9961 14.9567C20.0191 16.6646 19.7803 18.3658 19.2881 20.0003C18.8953 21.3705 18.2455 22.6523 17.3739 23.7764C16.5449 24.7899 15.507 25.6099 14.3321 26.1794C13.0804 26.7473 11.7188 27.027 10.3462 26.998ZM11.9196 16.6731C12.5676 16.6615 13.2112 16.5638 13.8338 16.3826C14.4755 16.2061 15.086 15.93 15.6432 15.564V14.1645C15.6519 13.2249 15.564 12.2869 15.381 11.3654C15.2773 10.5826 15.0654 9.81826 14.7516 9.0945C14.4473 8.49772 14.007 7.98194 13.4667 7.58934C12.9561 7.21793 12.3396 7.02335 11.7098 7.03481C11.1801 7.02827 10.6573 7.15536 10.1889 7.4045C9.7508 7.66171 9.37468 8.01341 9.08755 8.43434C8.7873 8.91481 8.56594 9.44089 8.43199 9.99231C8.2917 10.6251 8.22134 11.2716 8.22221 11.92C8.11735 13.1335 8.43233 14.3463 9.11377 15.3528C9.44327 15.7819 9.86979 16.1256 10.3578 16.3553C10.8459 16.5849 11.3813 16.6939 11.9196 16.6731Z" fill="#171717"/>
<path d="M69.6731 85.0024C70.6771 84.9966 71.6766 85.1386 72.6395 85.424C73.4943 85.6592 74.2902 86.0721 74.9758 86.6358L74.2408 88.3746C73.6993 88.103 73.1376 87.8739 72.5607 87.6896C71.8948 87.4987 71.2057 87.4012 70.5132 87.3998C69.7419 87.3986 68.9797 87.5679 68.281 87.8957C67.5823 88.2236 66.9641 88.7019 66.4705 89.2967C65.2549 90.8592 64.5655 92.7689 64.5017 94.7502C65.1349 94.1397 65.8851 93.6646 66.7068 93.3539C67.6485 93.0066 68.6436 92.8283 69.6469 92.8269C70.5463 92.8179 71.4386 92.988 72.272 93.3275C73.0344 93.6239 73.724 94.0822 74.2933 94.6711C74.8391 95.2799 75.2665 95.9858 75.5534 96.7524C75.8574 97.5969 76.0085 98.4891 75.9996 99.3869C76.0071 100.423 75.8201 101.45 75.4484 102.417C75.0901 103.327 74.545 104.152 73.8485 104.837C73.1521 105.522 72.3198 106.053 71.4057 106.395C69.2739 107.202 66.9222 107.202 64.7904 106.395C63.7714 105.992 62.8689 105.34 62.1653 104.498C61.4149 103.581 60.8529 102.525 60.5115 101.389C60.1185 99.9665 59.9502 98.4908 60.0127 97.0158C59.9898 95.3119 60.2288 93.6147 60.7215 91.9839C61.1098 90.6069 61.7606 89.3185 62.6378 88.1902C63.4755 87.1938 64.5131 86.3859 65.683 85.8191C66.9351 85.2499 68.2989 84.9708 69.6731 85.0024ZM68.0718 95.3034C67.4234 95.3188 66.7796 95.4162 66.1555 95.5932C65.5232 95.7745 64.9215 96.0498 64.3704 96.4099V97.9379C64.3617 98.8754 64.4497 99.8112 64.6329 100.731C64.7707 101.52 65.0274 102.284 65.3942 102.996C65.6898 103.59 66.1216 104.105 66.6543 104.498C67.1768 104.865 67.8012 105.059 68.4393 105.051C68.9696 105.058 69.493 104.931 69.9619 104.682C70.3875 104.418 70.754 104.068 71.0382 103.655C71.3504 103.182 71.5729 102.655 71.6945 102.1C71.8568 101.473 71.9363 100.826 71.9307 100.177C71.9947 98.9348 71.6335 97.7077 70.9069 96.6997C70.5799 96.2566 70.1518 95.8985 69.6585 95.6556C69.1653 95.4127 68.6212 95.2919 68.0718 95.3034Z" fill="#171717"/>
<path d="M13.4084 38.395C13.0051 37.9922 12.4584 37.7659 11.8884 37.7659C11.3185 37.7659 10.7718 37.9922 10.3685 38.395L9.44361 39.3162C9.64543 38.6747 10.0259 38.1039 10.5406 37.6708C10.841 37.37 11.0455 36.9869 11.1284 36.57C11.2112 36.153 11.1686 35.7208 11.006 35.328C10.8433 34.9352 10.5679 34.5995 10.2146 34.3631C9.86121 34.1267 9.44573 34.0004 9.0206 34V34C8.59547 34.0004 8.17999 34.1267 7.82663 34.3631C7.47327 34.5995 7.19788 34.9352 7.03524 35.328C6.8726 35.7208 6.83001 36.153 6.91284 36.57C6.99568 36.9869 7.20023 37.37 7.50065 37.6708C8.01526 38.1039 8.39577 38.6747 8.5976 39.3162L7.67272 38.395C7.37202 38.0939 6.98878 37.8888 6.57148 37.8056C6.15417 37.7223 5.72157 37.7648 5.32839 37.9275C4.93521 38.0902 4.59913 38.3659 4.36267 38.7197C4.12621 39.0734 4 39.4894 4 39.9149C4 40.3404 4.12621 40.7564 4.36267 41.1101C4.59913 41.4639 4.93521 41.7396 5.32839 41.9023C5.72157 42.065 6.15417 42.1075 6.57148 42.0243C6.98878 41.9411 7.37202 41.7359 7.67272 41.4349L8.74816 40.3594C8.74816 40.3809 8.74816 40.3953 8.74816 40.4168C8.74816 41.3488 8.61911 42.8186 7.59386 43.8438V44.2023H10.4617V43.8438C9.44361 42.8258 9.29663 41.3667 9.30739 40.4347C9.30739 40.406 9.30739 40.3845 9.30739 40.3594L10.3828 41.4349C10.7906 41.8148 11.3298 42.0216 11.8871 42.0118C12.4443 42.002 12.9759 41.7762 13.37 41.3822C13.7641 40.9881 13.9898 40.4564 13.9997 39.8992C14.0095 39.342 13.8027 38.8027 13.4227 38.395H13.4084Z" fill="#171717"/>
<path d="M75.4084 73.8074C75.0051 74.2102 74.4584 74.4365 73.8884 74.4365C73.3185 74.4365 72.7718 74.2102 72.3685 73.8074L71.4436 72.8861C71.6454 73.5277 72.0259 74.0985 72.5406 74.5316C72.841 74.8324 73.0455 75.2154 73.1284 75.6324C73.2112 76.0494 73.1686 76.4816 73.006 76.8744C72.8433 77.2672 72.5679 77.6029 72.2146 77.8393C71.8612 78.0757 71.4457 78.202 71.0206 78.2024V78.2024C70.5955 78.202 70.18 78.0757 69.8266 77.8393C69.4733 77.6029 69.1979 77.2672 69.0352 76.8744C68.8726 76.4816 68.83 76.0494 68.9128 75.6324C68.9957 75.2154 69.2002 74.8324 69.5007 74.5316C70.0153 74.0985 70.3958 73.5277 70.5976 72.8861L69.6727 73.8074C69.372 74.1085 68.9888 74.3136 68.5715 74.3968C68.1542 74.48 67.7216 74.4376 67.3284 74.2749C66.9352 74.1122 66.5991 73.8365 66.3627 73.4827C66.1262 73.129 66 72.713 66 72.2875C66 71.862 66.1262 71.446 66.3627 71.0922C66.5991 70.7385 66.9352 70.4628 67.3284 70.3001C67.7216 70.1374 68.1542 70.0949 68.5715 70.1781C68.9888 70.2613 69.372 70.4665 69.6727 70.7675L70.7482 71.843C70.7482 71.8215 70.7482 71.8071 70.7482 71.7856C70.7482 70.8536 70.6191 69.3838 69.5939 68.3586V68.0001H72.4617V68.3586C71.4436 69.3766 71.2966 70.8356 71.3074 71.7677C71.3074 71.7964 71.3074 71.8179 71.3074 71.843L72.3828 70.7675C72.7906 70.3876 73.3298 70.1808 73.8871 70.1906C74.4443 70.2004 74.9759 70.4262 75.37 70.8202C75.7641 71.2143 75.9898 71.746 75.9997 72.3032C76.0095 72.8604 75.8027 73.3997 75.4227 73.8074H75.4084Z" fill="#171717"/>
<rect opacity="0.5" x="25.25" y="31.25" width="29.2297" height="49.5" stroke="#171717" stroke-width="0.5"/>
<path d="M36.7225 36.2936C36.4227 35.9943 36.0164 35.8261 35.5928 35.8261C35.1691 35.8261 34.7628 35.9943 34.4631 36.2936L33.7757 36.9784C33.9257 36.5015 34.2085 36.0773 34.591 35.7554C34.8142 35.5319 34.9663 35.2471 35.0278 34.9372C35.0894 34.6273 35.0577 34.3061 34.9369 34.0141C34.816 33.7222 34.6113 33.4726 34.3487 33.297C34.086 33.1213 33.7772 33.0274 33.4613 33.0271V33.0271C33.1453 33.0274 32.8365 33.1213 32.5738 33.297C32.3112 33.4726 32.1065 33.7222 31.9856 34.0141C31.8648 34.3061 31.8331 34.6273 31.8947 34.9372C31.9562 35.2471 32.1083 35.5319 32.3316 35.7554C32.714 36.0773 32.9969 36.5015 33.1469 36.9784L32.4595 36.2936C32.236 36.0699 31.9511 35.9174 31.641 35.8556C31.3308 35.7937 31.0093 35.8253 30.717 35.9462C30.4248 36.0671 30.175 36.272 29.9993 36.535C29.8235 36.7979 29.7297 37.1071 29.7297 37.4233C29.7297 37.7396 29.8235 38.0487 29.9993 38.3117C30.175 38.5746 30.4248 38.7795 30.717 38.9004C31.0093 39.0214 31.3308 39.0529 31.641 38.9911C31.9511 38.9292 32.236 38.7768 32.4595 38.553L33.2588 37.7537C33.2588 37.7697 33.2588 37.7803 33.2588 37.7963C33.2588 38.4891 33.1628 39.5815 32.4008 40.3435V40.6099H34.5323V40.3435C33.7757 39.5868 33.6664 38.5024 33.6744 37.8096C33.6744 37.7883 33.6744 37.7723 33.6744 37.7537L34.4737 38.553C34.7768 38.8354 35.1776 38.9891 35.5917 38.9818C36.0059 38.9745 36.401 38.8067 36.6939 38.5138C36.9868 38.2209 37.1546 37.8258 37.1619 37.4116C37.1692 36.9975 37.0155 36.5967 36.7331 36.2936H36.7225Z" fill="#171717"/>
<path d="M48.8846 36.2936C48.5849 35.9943 48.1786 35.8261 47.7549 35.8261C47.3313 35.8261 46.925 35.9943 46.6252 36.2936L45.9378 36.9784C46.0878 36.5015 46.3706 36.0773 46.7531 35.7554C46.9764 35.5319 47.1284 35.2471 47.19 34.9372C47.2516 34.6273 47.2199 34.3061 47.099 34.0141C46.9781 33.7222 46.7735 33.4726 46.5108 33.297C46.2482 33.1213 45.9394 33.0274 45.6234 33.0271V33.0271C45.3074 33.0274 44.9986 33.1213 44.736 33.297C44.4734 33.4726 44.2687 33.7222 44.1478 34.0141C44.0269 34.3061 43.9953 34.6273 44.0568 34.9372C44.1184 35.2471 44.2704 35.5319 44.4937 35.7554C44.8762 36.0773 45.159 36.5015 45.309 36.9784L44.6216 36.2936C44.3981 36.0699 44.1133 35.9174 43.8031 35.8556C43.493 35.7937 43.1714 35.8253 42.8792 35.9462C42.587 36.0671 42.3372 36.272 42.1614 36.535C41.9857 36.7979 41.8919 37.1071 41.8919 37.4233C41.8919 37.7396 41.9857 38.0487 42.1614 38.3117C42.3372 38.5746 42.587 38.7795 42.8792 38.9004C43.1714 39.0214 43.493 39.0529 43.8031 38.9911C44.1133 38.9292 44.3981 38.7768 44.6216 38.553L45.4209 37.7537C45.4209 37.7697 45.4209 37.7803 45.4209 37.7963C45.4209 38.4891 45.325 39.5815 44.563 40.3435V40.6099H46.6945V40.3435C45.9378 39.5868 45.8286 38.5024 45.8366 37.8096C45.8366 37.7883 45.8366 37.7723 45.8366 37.7537L46.6359 38.553C46.9389 38.8354 47.3397 38.9891 47.7539 38.9818C48.1681 38.9745 48.5632 38.8067 48.8561 38.5138C49.149 38.2209 49.3168 37.8258 49.3241 37.4116C49.3314 36.9975 49.1777 36.5967 48.8953 36.2936H48.8846Z" fill="#171717"/>
<path d="M36.7225 75.857C36.4227 76.1564 36.0164 76.3245 35.5928 76.3245C35.1691 76.3245 34.7628 76.1564 34.4631 75.857L33.7757 75.1723C33.9257 75.6491 34.2085 76.0733 34.591 76.3952C34.8142 76.6188 34.9663 76.9035 35.0278 77.2134C35.0894 77.5233 35.0577 77.8446 34.9369 78.1365C34.816 78.4284 34.6113 78.678 34.3487 78.8537C34.086 79.0293 33.7772 79.1233 33.4613 79.1235V79.1235C33.1453 79.1233 32.8365 79.0293 32.5738 78.8537C32.3112 78.678 32.1065 78.4284 31.9856 78.1365C31.8648 77.8446 31.8331 77.5233 31.8947 77.2134C31.9562 76.9035 32.1083 76.6188 32.3316 76.3952C32.714 76.0733 32.9969 75.6491 33.1469 75.1723L32.4595 75.857C32.236 76.0808 31.9511 76.2332 31.641 76.2951C31.3308 76.3569 31.0093 76.3254 30.717 76.2044C30.4248 76.0835 30.175 75.8786 29.9993 75.6157C29.8235 75.3527 29.7297 75.0436 29.7297 74.7273C29.7297 74.4111 29.8235 74.1019 29.9993 73.839C30.175 73.576 30.4248 73.3711 30.717 73.2502C31.0093 73.1293 31.3308 73.0977 31.641 73.1596C31.9511 73.2214 32.236 73.3739 32.4595 73.5976L33.2588 74.3969C33.2588 74.381 33.2588 74.3703 33.2588 74.3543C33.2588 73.6616 33.1628 72.5692 32.4008 71.8072V71.5407H34.5323V71.8072C33.7757 72.5638 33.6664 73.6482 33.6744 74.341C33.6744 74.3623 33.6744 74.3783 33.6744 74.3969L34.4737 73.5976C34.7768 73.3152 35.1776 73.1615 35.5917 73.1688C36.0059 73.1761 36.401 73.3439 36.6939 73.6368C36.9868 73.9297 37.1546 74.3248 37.1619 74.739C37.1692 75.1531 37.0155 75.554 36.7331 75.857H36.7225Z" fill="#171717"/>
<path d="M48.8846 75.857C48.5849 76.1564 48.1786 76.3245 47.7549 76.3245C47.3313 76.3245 46.925 76.1564 46.6252 75.857L45.9378 75.1723C46.0878 75.6491 46.3706 76.0733 46.7531 76.3952C46.9764 76.6188 47.1284 76.9035 47.19 77.2134C47.2516 77.5233 47.2199 77.8446 47.099 78.1365C46.9781 78.4284 46.7735 78.678 46.5108 78.8537C46.2482 79.0293 45.9394 79.1233 45.6234 79.1235V79.1235C45.3074 79.1233 44.9986 79.0293 44.736 78.8537C44.4734 78.678 44.2687 78.4284 44.1478 78.1365C44.0269 77.8446 43.9953 77.5233 44.0568 77.2134C44.1184 76.9035 44.2704 76.6188 44.4937 76.3952C44.8762 76.0733 45.159 75.6491 45.309 75.1723L44.6216 75.857C44.3981 76.0808 44.1133 76.2332 43.8031 76.2951C43.493 76.3569 43.1714 76.3254 42.8792 76.2044C42.587 76.0835 42.3372 75.8786 42.1614 75.6157C41.9857 75.3527 41.8919 75.0436 41.8919 74.7273C41.8919 74.4111 41.9857 74.1019 42.1614 73.839C42.3372 73.576 42.587 73.3711 42.8792 73.2502C43.1714 73.1293 43.493 73.0977 43.8031 73.1596C44.1133 73.2214 44.3981 73.3739 44.6216 73.5976L45.4209 74.3969C45.4209 74.381 45.4209 74.3703 45.4209 74.3543C45.4209 73.6616 45.325 72.5692 44.563 71.8072V71.5407H46.6945V71.8072C45.9378 72.5638 45.8286 73.6482 45.8366 74.341C45.8366 74.3623 45.8366 74.3783 45.8366 74.3969L46.6359 73.5976C46.9389 73.3152 47.3397 73.1615 47.7539 73.1688C48.1681 73.1761 48.5632 73.3439 48.8561 73.6368C49.149 73.9297 49.3168 74.3248 49.3241 74.739C49.3314 75.1531 49.1777 75.554 48.8953 75.857H48.8846Z" fill="#171717"/>
<path d="M36.7225 61.9692C36.4227 61.6698 36.0164 61.5016 35.5928 61.5016C35.1691 61.5016 34.7628 61.6698 34.4631 61.9692L33.7757 62.6539C33.9257 62.177 34.2085 61.7528 34.591 61.431C34.8142 61.2074 34.9663 60.9227 35.0278 60.6127C35.0894 60.3028 35.0577 59.9816 34.9369 59.6897C34.816 59.3977 34.6113 59.1482 34.3487 58.9725C34.086 58.7968 33.7772 58.7029 33.4613 58.7026V58.7026C33.1453 58.7029 32.8365 58.7968 32.5738 58.9725C32.3112 59.1482 32.1065 59.3977 31.9856 59.6897C31.8648 59.9816 31.8331 60.3028 31.8947 60.6127C31.9562 60.9227 32.1083 61.2074 32.3316 61.431C32.714 61.7528 32.9969 62.177 33.1469 62.6539L32.4595 61.9692C32.236 61.7454 31.9511 61.5929 31.641 61.5311C31.3308 61.4692 31.0093 61.5008 30.717 61.6217C30.4248 61.7427 30.175 61.9476 29.9993 62.2105C29.8235 62.4734 29.7297 62.7826 29.7297 63.0989C29.7297 63.4151 29.8235 63.7243 29.9993 63.9872C30.175 64.2501 30.4248 64.455 30.717 64.576C31.0093 64.6969 31.3308 64.7285 31.641 64.6666C31.9511 64.6048 32.236 64.4523 32.4595 64.2285L33.2588 63.4292C33.2588 63.4452 33.2588 63.4559 33.2588 63.4719C33.2588 64.1646 33.1628 65.257 32.4008 66.019V66.2854H34.5323V66.019C33.7757 65.2623 33.6664 64.1779 33.6744 63.4852C33.6744 63.4639 33.6744 63.4479 33.6744 63.4292L34.4737 64.2285C34.7768 64.5109 35.1776 64.6647 35.5917 64.6574C36.0059 64.65 36.401 64.4823 36.6939 64.1894C36.9868 63.8965 37.1546 63.5013 37.1619 63.0872C37.1692 62.673 37.0155 62.2722 36.7331 61.9692H36.7225Z" fill="#171717"/>
<path d="M48.8846 61.9692C48.5849 61.6698 48.1786 61.5016 47.7549 61.5016C47.3313 61.5016 46.925 61.6698 46.6252 61.9692L45.9378 62.6539C46.0878 62.177 46.3706 61.7528 46.7531 61.431C46.9764 61.2074 47.1284 60.9227 47.19 60.6127C47.2516 60.3028 47.2199 59.9816 47.099 59.6897C46.9781 59.3977 46.7735 59.1482 46.5108 58.9725C46.2482 58.7968 45.9394 58.7029 45.6234 58.7026V58.7026C45.3074 58.7029 44.9986 58.7968 44.736 58.9725C44.4734 59.1482 44.2687 59.3977 44.1478 59.6897C44.0269 59.9816 43.9953 60.3028 44.0568 60.6127C44.1184 60.9227 44.2704 61.2074 44.4937 61.431C44.8762 61.7528 45.159 62.177 45.309 62.6539L44.6216 61.9692C44.3981 61.7454 44.1133 61.5929 43.8031 61.5311C43.493 61.4692 43.1714 61.5008 42.8792 61.6217C42.587 61.7427 42.3372 61.9476 42.1614 62.2105C41.9857 62.4734 41.8919 62.7826 41.8919 63.0989C41.8919 63.4151 41.9857 63.7243 42.1614 63.9872C42.3372 64.2501 42.587 64.455 42.8792 64.576C43.1714 64.6969 43.493 64.7285 43.8031 64.6666C44.1133 64.6048 44.3981 64.4523 44.6216 64.2285L45.4209 63.4292C45.4209 63.4452 45.4209 63.4559 45.4209 63.4719C45.4209 64.1646 45.325 65.257 44.563 66.019V66.2854H46.6945V66.019C45.9378 65.2623 45.8286 64.1779 45.8366 63.4852C45.8366 63.4639 45.8366 63.4479 45.8366 63.4292L46.6359 64.2285C46.9389 64.5109 47.3397 64.6647 47.7539 64.6574C48.1681 64.65 48.5632 64.4823 48.8561 64.1894C49.149 63.8965 49.3168 63.5013 49.3241 63.0872C49.3314 62.673 49.1777 62.2722 48.8953 61.9692H48.8846Z" fill="#171717"/>
<path d="M36.7225 49.1313C36.4227 48.8319 36.0164 48.6637 35.5928 48.6637C35.1691 48.6637 34.7628 48.8319 34.4631 49.1313L33.7757 49.816C33.9257 49.3392 34.2085 48.9149 34.591 48.5931C34.8142 48.3695 34.9663 48.0848 35.0278 47.7749C35.0894 47.4649 35.0577 47.1437 34.9369 46.8518C34.816 46.5599 34.6113 46.3103 34.3487 46.1346C34.086 45.9589 33.7772 45.865 33.4613 45.8647V45.8647C33.1453 45.865 32.8365 45.9589 32.5738 46.1346C32.3112 46.3103 32.1065 46.5599 31.9856 46.8518C31.8648 47.1437 31.8331 47.4649 31.8947 47.7749C31.9562 48.0848 32.1083 48.3695 32.3316 48.5931C32.714 48.9149 32.9969 49.3392 33.1469 49.816L32.4595 49.1313C32.236 48.9075 31.9511 48.755 31.641 48.6932C31.3308 48.6314 31.0093 48.6629 30.717 48.7838C30.4248 48.9048 30.175 49.1097 29.9993 49.3726C29.8235 49.6355 29.7297 49.9447 29.7297 50.261C29.7297 50.5772 29.8235 50.8864 29.9993 51.1493C30.175 51.4123 30.4248 51.6172 30.717 51.7381C31.0093 51.859 31.3308 51.8906 31.641 51.8287C31.9511 51.7669 32.236 51.6144 32.4595 51.3907L33.2588 50.5913C33.2588 50.6073 33.2588 50.618 33.2588 50.634C33.2588 51.3267 33.1628 52.4191 32.4008 53.1811V53.4476H34.5323V53.1811C33.7757 52.4244 33.6664 51.34 33.6744 50.6473C33.6744 50.626 33.6744 50.61 33.6744 50.5913L34.4737 51.3907C34.7768 51.673 35.1776 51.8268 35.5917 51.8195C36.0059 51.8122 36.401 51.6444 36.6939 51.3515C36.9868 51.0586 37.1546 50.6634 37.1619 50.2493C37.1692 49.8351 37.0155 49.4343 36.7331 49.1313H36.7225Z" fill="#171717"/>
<path d="M48.8846 49.1313C48.5849 48.8319 48.1786 48.6637 47.7549 48.6637C47.3313 48.6637 46.925 48.8319 46.6252 49.1313L45.9378 49.816C46.0878 49.3392 46.3706 48.9149 46.7531 48.5931C46.9764 48.3695 47.1284 48.0848 47.19 47.7749C47.2516 47.4649 47.2199 47.1437 47.099 46.8518C46.9781 46.5599 46.7735 46.3103 46.5108 46.1346C46.2482 45.9589 45.9394 45.865 45.6234 45.8647V45.8647C45.3074 45.865 44.9986 45.9589 44.736 46.1346C44.4734 46.3103 44.2687 46.5599 44.1478 46.8518C44.0269 47.1437 43.9953 47.4649 44.0568 47.7749C44.1184 48.0848 44.2704 48.3695 44.4937 48.5931C44.8762 48.9149 45.159 49.3392 45.309 49.816L44.6216 49.1313C44.3981 48.9075 44.1133 48.755 43.8031 48.6932C43.493 48.6314 43.1714 48.6629 42.8792 48.7838C42.587 48.9048 42.3372 49.1097 42.1614 49.3726C41.9857 49.6355 41.8919 49.9447 41.8919 50.261C41.8919 50.5772 41.9857 50.8864 42.1614 51.1493C42.3372 51.4123 42.587 51.6172 42.8792 51.7381C43.1714 51.859 43.493 51.8906 43.8031 51.8287C44.1133 51.7669 44.3981 51.6144 44.6216 51.3907L45.4209 50.5913C45.4209 50.6073 45.4209 50.618 45.4209 50.634C45.4209 51.3267 45.325 52.4191 44.563 53.1811V53.4476H46.6945V53.1811C45.9378 52.4244 45.8286 51.34 45.8366 50.6473C45.8366 50.626 45.8366 50.61 45.8366 50.5913L46.6359 51.3907C46.9389 51.673 47.3397 51.8268 47.7539 51.8195C48.1681 51.8122 48.5632 51.6444 48.8561 51.3515C49.149 51.0586 49.3168 50.6634 49.3241 50.2493C49.3314 49.8351 49.1777 49.4343 48.8953 49.1313H48.8846Z" fill="#171717"/>
<path d="M42.8035 55.2126C42.5038 54.9132 42.0975 54.745 41.6738 54.745C41.2502 54.745 40.8439 54.9132 40.5441 55.2126L39.8567 55.8973C40.0067 55.4205 40.2896 54.9962 40.672 54.6744C40.8953 54.4508 41.0473 54.1661 41.1089 53.8562C41.1705 53.5462 41.1388 53.225 41.0179 52.9331C40.8971 52.6412 40.6924 52.3916 40.4298 52.2159C40.1671 52.0402 39.8583 51.9463 39.5423 51.946V51.946C39.2264 51.9463 38.9176 52.0402 38.6549 52.2159C38.3923 52.3916 38.1876 52.6412 38.0667 52.9331C37.9459 53.225 37.9142 53.5462 37.9758 53.8562C38.0373 54.1661 38.1894 54.4508 38.4126 54.6744C38.7951 54.9962 39.0779 55.4205 39.2279 55.8973L38.5405 55.2126C38.317 54.9888 38.0322 54.8363 37.722 54.7745C37.4119 54.7127 37.0904 54.7442 36.7981 54.8651C36.5059 54.9861 36.2561 55.191 36.0804 55.4539C35.9046 55.7168 35.8108 56.026 35.8108 56.3423C35.8108 56.6585 35.9046 56.9677 36.0804 57.2306C36.2561 57.4936 36.5059 57.6984 36.7981 57.8194C37.0904 57.9403 37.4119 57.9719 37.722 57.91C38.0322 57.8482 38.317 57.6957 38.5405 57.472L39.3398 56.6726C39.3398 56.6886 39.3398 56.6993 39.3398 56.7153C39.3398 57.408 39.2439 58.5004 38.4819 59.2624V59.5289H40.6134V59.2624C39.8567 58.5057 39.7475 57.4213 39.7555 56.7286C39.7555 56.7073 39.7555 56.6913 39.7555 56.6726L40.5548 57.472C40.8578 57.7543 41.2587 57.9081 41.6728 57.9008C42.087 57.8935 42.4821 57.7257 42.775 57.4328C43.0679 57.1399 43.2357 56.7447 43.243 56.3306C43.2503 55.9164 43.0966 55.5156 42.8142 55.2126H42.8035Z" fill="#171717"/>
</g>
<rect x="0.5" y="0.5" width="79" height="111" rx="4.5" stroke="#DADADA"/>
<defs>
<clipPath id="clip0_276_1515">
<rect width="80" height="112" rx="5" fill="white"/>
</clipPath>
</defs>
</svg>
