<svg width="80" height="112" viewBox="0 0 80 112" fill="none" xmlns="http://www.w3.org/2000/svg">
<g clip-path="url(#clip0_276_2048)">
<path d="M75 0H5C2.23858 0 0 2.23858 0 5V107C0 109.761 2.23858 112 5 112H75C77.7614 112 80 109.761 80 107V5C80 2.23858 77.7614 0 75 0Z" fill="white"/>
<path d="M17.0056 26.9945C16.3305 27.0126 15.6634 26.837 15.0743 26.4861C14.536 26.1629 14.0413 25.7639 13.6037 25.2998L12.2394 23.8311C11.8002 23.3412 11.277 22.9449 10.6979 22.6637C9.68614 22.6708 8.68423 22.4528 7.75661 22.0235C6.94355 21.6333 6.22757 21.0465 5.66585 20.31C5.09263 19.4991 4.67155 18.5785 4.42556 17.5986C4.1453 16.4741 4.00238 15.316 4.00032 14.1527C3.99135 12.8386 4.17058 11.5307 4.53187 10.2739C4.82509 9.22732 5.31314 8.25404 5.96706 7.41177C6.59683 6.62891 7.39229 6.01587 8.28816 5.62296C9.25965 5.19691 10.3026 4.98549 11.3534 5.00159C12.3801 4.97967 13.3998 5.18486 14.3478 5.60413C15.1821 5.97388 15.9139 6.56362 16.474 7.31762C17.0686 8.11263 17.5029 9.02919 17.7498 10.0102C18.036 11.1719 18.1789 12.3682 18.175 13.569C18.2339 15.5442 17.7803 17.4984 16.8638 19.2179C16.0747 20.6581 14.8127 21.7377 13.3202 22.2495C13.6816 22.3946 14.0312 22.5709 14.3656 22.7767L15.3578 23.4169C15.8477 23.7785 16.363 24.0996 16.8993 24.3772C17.4556 24.6433 18.0613 24.772 18.6711 24.7538H19.2381H19.7165L20 25.8647C19.6611 26.1719 19.2783 26.4198 18.866 26.5991C18.2867 26.894 17.6471 27.0299 17.0056 26.9945ZM11.0877 6.43263C10.4815 6.42679 9.88571 6.59967 9.36647 6.93208C8.84724 7.26449 8.4249 7.74341 8.14642 8.31559C7.34478 10.071 6.98463 12.0172 7.10103 13.9645C6.99034 15.875 7.33145 17.7846 8.09326 19.5192C8.35871 20.0984 8.77564 20.5841 9.29414 20.9181C9.81264 21.252 10.4107 21.4201 11.0168 21.4021C11.6263 21.4137 12.2267 21.2433 12.7498 20.9105C13.2728 20.5777 13.6975 20.0956 13.9758 19.5192C14.7774 17.7637 15.1375 15.8176 15.0211 13.8703C15.1412 11.9672 14.806 10.0627 14.0466 8.33442C13.7777 7.74863 13.3555 7.25766 12.8307 6.92036C12.3059 6.58305 11.7007 6.41371 11.0877 6.43263Z" fill="#171717"/>
<path d="M62.962 85.0015C63.638 84.9816 64.3063 85.1567 64.8953 85.5078C65.4368 85.834 65.9374 86.231 66.3852 86.6893L67.7331 88.077C68.1795 88.5566 68.7017 88.9501 69.2762 89.2397C70.2891 89.2309 71.2924 89.4482 72.2205 89.8773C73.042 90.2611 73.761 90.8537 74.3134 91.6025C74.8902 92.4013 75.3121 93.3126 75.555 94.2842C75.8476 95.4275 75.9967 96.6065 75.9984 97.791C76.0186 99.0978 75.8511 100.4 75.5017 101.654C75.2025 102.698 74.7079 103.667 74.0473 104.505C73.427 105.318 72.6299 105.962 71.7239 106.38C70.7518 106.806 69.7075 107.016 68.6554 106.999C67.6279 107.019 66.6074 106.815 65.658 106.399C64.8298 106.017 64.1001 105.432 63.5296 104.692C62.9469 103.895 62.5189 102.983 62.2703 102.01C61.9643 100.857 61.8091 99.6642 61.8091 98.4661C61.7583 96.4999 62.2119 94.5559 63.1216 92.8402C63.9142 91.4082 65.1765 90.3338 66.6689 89.821C66.3014 89.6765 65.9455 89.5009 65.6047 89.2959L64.6292 88.6583C64.1341 88.3061 63.6187 87.9867 63.0862 87.7019C62.5286 87.4394 61.9227 87.3113 61.3125 87.3269H60.7627H60.2661L60 86.2205C60.3296 85.9101 60.7077 85.6627 61.1174 85.4891C61.6856 85.1704 62.3188 85.0031 62.962 85.0015ZM68.9037 105.48C69.5109 105.488 70.1082 105.316 70.6283 104.985C71.1484 104.654 71.5709 104.176 71.848 103.604C72.6505 101.856 73.011 99.9179 72.8945 97.9785C73.0236 96.0462 72.688 94.1108 71.919 92.3526C71.6485 91.7757 71.2276 91.2926 70.7059 90.9603C70.1842 90.628 69.5835 90.4605 68.9747 90.4774C68.3653 90.4702 67.766 90.6416 67.2432 90.9726C66.7203 91.3036 66.2944 91.7813 66.0127 92.3526C65.2102 94.1009 64.8497 96.0391 64.9662 97.9785C64.838 99.9127 65.1799 101.849 65.9595 103.604C66.2299 104.181 66.6509 104.664 67.1725 104.997C67.6942 105.329 68.2949 105.497 68.9037 105.48Z" fill="#171717"/>
<path d="M48.4382 44.6352L48.512 44.2934C48.5922 44.3107 48.6684 44.3438 48.736 44.3911C48.8027 44.4371 48.8599 44.4958 48.9042 44.5643C48.9489 44.6335 48.9794 44.7112 48.9934 44.7929L48.9934 44.7932C49.2134 46.0828 49.2748 47.3935 49.1764 48.6974C49.1389 49.3424 49.0635 49.9848 48.9505 50.6213L48.9493 50.6275L48.9493 50.6275C48.9186 50.7837 48.8289 50.9206 48.7008 51.0119C48.5733 51.1028 48.4166 51.1424 48.2619 51.1243C47.9663 51.0908 47.6691 51.0735 47.3716 51.0725L47.3646 51.0725L47.3646 51.0724C46.4774 51.0517 45.6026 51.2756 44.8404 51.7179C44.4367 51.96 44.0622 52.2454 43.7237 52.5688L43.7211 52.5713L43.7211 52.5712C43.604 52.6809 43.4494 52.7403 43.2904 52.7393C43.1869 52.7391 43.0847 52.7134 42.9933 52.664M42.9933 52.664C42.9933 52.664 42.9933 52.664 42.9933 52.664L43.1596 52.3561L42.9933 52.664ZM47.8524 45.6456C47.976 46.6335 48.0008 47.6311 47.9262 48.6243L47.9261 48.6255C47.8917 49.1063 47.8517 49.5054 47.8028 49.8607C47.656 49.8533 47.5121 49.8494 47.3695 49.8493C46.3664 49.8279 45.3755 50.0549 44.4882 50.5074C44.6815 49.3986 44.5219 48.2761 44.0168 47.0495C44.2898 46.9109 44.5947 46.7699 44.9559 46.6159L44.9559 46.616L44.9619 46.6133C45.89 46.1966 46.8584 45.8725 47.8524 45.6456ZM43.2044 50.5546L43.2042 50.5554L42.9093 46.2307C42.9092 46.2307 42.909 46.2308 42.9089 46.2309C42.773 46.3063 42.6692 46.4304 42.6206 46.5801C42.5719 46.7301 42.5832 46.8927 42.6516 47.0345L42.6516 47.0346C43.3014 48.3805 43.4635 49.4964 43.2044 50.5546Z" fill="#171717" stroke="#171717" stroke-width="0.7"/>
<path d="M31.4432 44.6196C31.3626 44.6077 31.2805 44.6116 31.2014 44.6312C31.1221 44.6507 31.0473 44.6856 30.9812 44.7342C30.9152 44.7828 30.8592 44.8442 30.8169 44.9151C30.7746 44.986 30.747 45.0648 30.736 45.147L30.736 45.1472C30.5626 46.446 30.5538 47.7608 30.7097 49.0617C30.7813 49.6919 30.8578 50.2004 30.9512 50.6572C30.9823 50.8121 31.0717 50.9477 31.1989 51.0381L31.4016 50.7528L31.1989 51.0381C31.3263 51.1286 31.4828 51.1678 31.6371 51.1492L31.6371 51.1492L31.641 51.1487C32.0024 51.1009 32.3666 51.0764 32.7313 51.0753L32.7313 51.0754L32.7385 51.0753C33.6261 51.0544 34.5012 51.2783 35.2639 51.7206C35.6675 51.9637 36.042 52.25 36.3804 52.5741C36.4281 52.6207 36.4824 52.6589 36.541 52.6881L36.5685 52.7687L36.8292 52.7585C36.9905 52.7522 37.1446 52.6851 37.2587 52.5688C37.373 52.4524 37.4381 52.2956 37.438 52.1309L37.438 52.1296C37.4375 52.0255 37.4114 51.9235 37.3624 51.8322C37.1626 51.4174 37.0068 50.9838 36.8973 50.5382C36.6549 49.5387 36.7849 48.4971 37.35 47.2519C37.4149 47.109 37.4225 46.9466 37.3709 46.7981C37.3193 46.6496 37.213 46.5278 37.0758 46.4552L37.0758 46.4551L37.0731 46.4538C36.4955 46.1544 35.9012 45.8871 35.293 45.6531C34.0564 45.1594 32.7639 44.8124 31.4432 44.6196ZM31.4432 44.6196C31.4433 44.6196 31.4434 44.6196 31.4435 44.6197L31.3922 44.9659L31.4428 44.6196C31.4429 44.6196 31.443 44.6196 31.4432 44.6196ZM31.8964 45.9466C32.8993 46.1359 33.8809 46.4215 34.8268 46.7995L34.8269 46.7995C35.2773 46.9793 35.6524 47.1386 35.9812 47.2905C35.5542 48.4167 35.4266 49.4585 35.6154 50.4952C34.725 50.0394 33.7297 49.8112 32.7223 49.8342L32.3803 49.842V49.8468C32.277 49.8508 32.1737 49.8565 32.0706 49.8638C32.0263 49.5851 31.9851 49.2766 31.9458 48.9241L31.9458 48.9241L31.9455 48.9215C31.828 47.9336 31.8117 46.9371 31.8964 45.9466Z" fill="#171717" stroke="#171717" stroke-width="0.7"/>
<path d="M31.6391 63.2342V63.2342H31.6065H31.5865L31.5667 63.232C31.0923 63.1777 30.5726 63.0897 29.9366 62.9625M31.6391 63.2342L30.0044 62.6191M31.6391 63.2342L31.6429 63.2342C31.7862 63.2326 31.9254 63.1821 32.0363 63.0899C32.147 62.9979 32.2228 62.8697 32.2487 62.7268C32.528 61.2059 33.0698 60.187 33.931 59.4625C34.2978 59.1579 34.6993 58.8955 35.1277 58.6806C35.2653 58.6228 35.3791 58.5172 35.4454 58.381C35.5151 58.2381 35.5265 58.0739 35.4769 57.9226C35.4274 57.7715 35.3216 57.6468 35.1835 57.572C35.0514 57.5005 34.8982 57.4791 34.7522 57.5107C34.2745 57.5825 33.7899 57.6009 33.3078 57.5655C32.2636 57.4809 31.2965 57.0464 30.2721 56.1594C30.1574 56.0579 30.0096 56.0028 29.8576 56.0028C29.7045 56.0028 29.5557 56.0587 29.4406 56.1615L29.4406 56.1615L29.4347 56.1669C28.9434 56.6266 28.4804 57.1143 28.0481 57.6276M31.6391 63.2342L28.0481 57.6276M29.9366 62.9625C29.9363 62.9625 29.9361 62.9624 29.9358 62.9624L30.0044 62.6191M29.9366 62.9625C29.9368 62.9626 29.9371 62.9626 29.9373 62.9627L30.0044 62.6191M29.9366 62.9625C28.6257 62.7063 27.3521 62.2927 26.1447 61.7311M30.0044 62.6191C28.7206 62.3683 27.4733 61.9632 26.291 61.4131M26.1447 61.7311C26.1453 61.7314 26.146 61.7317 26.1467 61.732L26.291 61.4131M26.1447 61.7311C26.0699 61.6969 26.0025 61.6482 25.9465 61.5874C25.89 61.5261 25.8463 61.4537 25.8187 61.3745L25.818 61.3727L25.818 61.3727C25.7643 61.2159 25.7763 61.0446 25.851 60.897L25.8513 60.8964C26.4473 59.7246 27.1849 58.6271 28.0481 57.6276M26.1447 61.7311C26.1442 61.7309 26.1438 61.7307 26.1433 61.7305L26.291 61.4131M26.291 61.4131L28.0481 57.6276M29.8948 57.4468C30.8504 58.1815 31.8136 58.6113 32.8662 58.7586C32.0246 59.562 31.472 60.5943 31.1478 61.9273C30.8606 61.8819 30.5445 61.8241 30.1843 61.7515L30.1827 61.7511C29.1853 61.5549 28.2109 61.2618 27.2738 60.8764C27.7662 60.0084 28.3445 59.1892 29.0006 58.4307L29.0006 58.4307L29.002 58.429C29.2506 58.1379 29.5565 57.7873 29.8948 57.4468Z" fill="#171717" stroke="#171717" stroke-width="0.7"/>
<path d="M40.3742 71.3167L40.3742 71.3166C40.2172 71.312 40.0664 71.2499 39.9521 71.1404L39.9515 71.1398C38.9985 70.2228 38.1607 69.1976 37.4561 68.0859C37.0806 67.5077 36.7421 66.9074 36.4423 66.2882L36.4411 66.2857L36.4411 66.2857C36.3744 66.1449 36.3636 65.9841 36.4114 65.8355C36.4591 65.6871 36.5611 65.5636 36.6949 65.4874L36.6956 65.487C37.9047 64.8023 38.6341 64.0395 39.0435 63.08C39.2313 62.638 39.3663 62.1764 39.446 61.7044C39.4702 61.5598 39.5445 61.4293 39.6544 61.3342C39.7645 61.2391 39.9036 61.185 40.048 61.1798L40.0608 61.1793L40.0735 61.1798C40.2179 61.185 40.3571 61.2391 40.4671 61.3342C40.5771 61.4293 40.6514 61.5599 40.6755 61.7046C40.7557 62.1741 40.8906 62.6331 41.0779 63.0726C41.5236 64.1134 42.325 64.9135 43.7461 65.6561L40.3742 71.3167ZM40.3742 71.3167H40.3843M40.3742 71.3167H40.3843M40.3843 71.3167H40.4042V71.3168L40.4113 71.3167C40.4934 71.315 40.5746 71.2972 40.65 71.2641C40.725 71.2312 40.7929 71.1838 40.8498 71.1243C41.7689 70.1723 42.565 69.1131 43.2202 67.9707C43.5655 67.3779 43.8135 66.9102 44.0222 66.4607L44.0223 66.4605M40.3843 71.3167L44.0223 66.4605M44.0223 66.4605C44.0891 66.3163 44.0974 66.152 44.0452 66.0016C43.993 65.8516 43.8852 65.7288 43.7462 65.6562L44.0223 66.4605ZM37.8133 66.252C38.8454 65.5818 39.576 64.8048 40.0481 63.8555C40.5703 64.9021 41.4109 65.743 42.6203 66.4609C42.4822 66.7276 42.3204 67.019 42.1225 67.3583L42.1216 67.3599C41.6209 68.2285 41.0328 69.0458 40.3661 69.7998C39.6694 69.0699 39.0478 68.2746 38.5104 67.4252L38.5105 67.4252L38.508 67.4214C38.2603 67.0409 38.0285 66.6508 37.8133 66.252Z" fill="#171717" stroke="#171717" stroke-width="0.7"/>
<path d="M50.0853 55.9309L50.0853 55.9309C50.2009 55.8263 50.3512 55.7694 50.5059 55.7694C50.6598 55.7694 50.8094 55.8258 50.9248 55.9294C51.3084 56.269 51.6964 56.6531 52.1776 57.1713C53.0851 58.1336 53.8684 59.2017 54.5094 60.3515L54.5109 60.3541L54.5109 60.3541C54.5504 60.4264 54.575 60.506 54.583 60.5883L50.0853 55.9309ZM50.0853 55.9309L50.0818 55.9341C48.9588 56.9775 47.9172 57.4815 46.792 57.5722C46.3065 57.6092 45.8183 57.5916 45.3369 57.5197C45.1928 57.4973 45.0447 57.5258 44.9189 57.601C44.7925 57.6765 44.6961 57.795 44.6492 57.9365M50.0853 55.9309L44.6492 57.9365M48.2363 62.5447L48.0174 62.8179C47.9063 62.7288 47.8285 62.6037 47.7992 62.4628M48.2363 62.5447L44.6492 57.9365M48.2363 62.5447L48.0174 62.8179C48.1149 62.8959 48.233 62.9424 48.3559 62.9528L48.4199 62.9691M48.2363 62.5447L48.4199 62.9691M47.7992 62.4628C47.7992 62.4626 47.7991 62.4623 47.7991 62.4621L48.1419 62.3913L47.7994 62.4635C47.7993 62.4633 47.7993 62.4631 47.7992 62.4628ZM47.7992 62.4628C47.5103 61.093 46.9914 60.1566 46.1712 59.4684C45.7996 59.1617 45.3935 58.897 44.9608 58.6793L45.118 58.3666M45.118 58.3666L44.9633 58.6806C44.8313 58.6155 44.7257 58.5055 44.6673 58.3686L44.9571 58.245L44.6673 58.3686C44.6088 58.2316 44.6023 58.078 44.6492 57.9365M45.118 58.3666C45.0599 58.338 45.0142 58.29 44.9892 58.2313C44.9642 58.1726 44.9614 58.1071 44.9815 58.0465L46.3951 59.1993C46.0029 58.8755 45.5745 58.5962 45.118 58.3666ZM54.5573 60.8324L54.5573 60.8324L54.5573 60.8324ZM54.5573 60.8324C54.5823 60.7537 54.5911 60.6707 54.583 60.5883L54.5573 60.8324ZM48.4199 62.9691L48.4866 62.9604M48.4199 62.9691L48.4866 62.9604M48.4866 62.9604C49.169 62.8714 49.8453 62.742 50.5118 62.5729M48.4866 62.9604L50.5118 62.5729M50.5118 62.5729C51.8084 62.2612 53.0625 61.799 54.2473 61.1962L50.5118 62.5729ZM47.2453 58.7594C48.399 58.5968 49.4551 58.0893 50.507 57.2131C50.7376 57.4362 50.9867 57.6897 51.2727 57.9972L51.2727 57.9972L51.2741 57.9987C51.9617 58.7292 52.5727 59.5246 53.0982 60.373C52.1757 60.7935 51.2131 61.125 50.224 61.3627L50.2227 61.363C49.841 61.4563 49.378 61.5631 48.8928 61.6453C48.5624 60.4473 48.031 59.5074 47.2453 58.7594ZM54.2475 61.1961C54.3201 61.1592 54.3851 61.1084 54.4383 61.0461L54.2475 61.1961Z" fill="#171717" stroke="#171717" stroke-width="0.7"/>
<path d="M37.6353 54.0883C37.774 54.0881 37.9094 54.042 38.0196 53.9562L38.0207 53.9554C38.6084 53.494 39.3405 53.2418 40.0962 53.2418C40.852 53.2418 41.5841 53.494 42.1718 53.9554L42.1726 53.956C42.3011 54.0563 42.4635 54.102 42.6245 54.0851C42.7856 54.0681 42.9352 53.9896 43.04 53.8638L43.0468 53.8556L43.0531 53.847C43.2181 53.6224 43.3638 53.3845 43.4884 53.136L43.5363 53.0483C43.9575 52.3652 44.2696 51.6228 44.4616 50.847L44.4623 50.8441C45.0095 48.5517 43.9369 46.5593 42.9665 44.9687C42.2849 43.8433 41.4682 42.8019 40.534 41.8666L40.534 41.8666L40.5301 41.8628C40.4139 41.75 40.2592 41.6866 40.0986 41.6835L39.742 41.6767V41.7936C39.7121 41.8141 39.6838 41.8374 39.6576 41.8633L39.6576 41.8633L39.6565 41.8644C38.7178 42.7978 37.9 43.8409 37.2217 44.9702C36.2465 46.5575 35.1814 48.5441 35.7303 50.8253L35.7306 50.8265C35.9225 51.6118 36.2362 52.3634 36.6605 53.0553L36.6625 53.0585L36.672 53.0762L36.6871 53.105L36.7029 53.135C36.8281 53.3837 36.9741 53.6219 37.1393 53.8469L37.1455 53.8553L37.5164 53.7127L37.3694 54.0303C37.3694 54.0303 37.3694 54.0304 37.3694 54.0304C37.4528 54.069 37.5436 54.0887 37.6353 54.0883ZM37.6353 54.0883C37.6351 54.0883 37.6349 54.0883 37.6347 54.0883L37.6343 53.7383L37.636 54.0883C37.6357 54.0883 37.6355 54.0883 37.6353 54.0883ZM37.7251 52.4139C37.3693 51.8305 37.1056 51.1983 36.9428 50.5385C36.8283 50.0625 36.7471 49.5321 36.8934 48.7825C37.0417 48.0223 37.4281 47.0166 38.2878 45.6076L38.2878 45.6076L38.289 45.6056C38.806 44.7455 39.4101 43.9387 40.0921 43.1972C40.7755 43.9393 41.3825 44.7455 41.9043 45.6043L41.9046 45.6048C42.8251 47.114 43.6815 48.7673 43.2498 50.5549C43.0879 51.2097 42.8242 51.8366 42.4676 52.4136L42.4633 52.4205L42.4594 52.4276L42.3885 52.5552L42.3884 52.5552L42.3847 52.5622C42.3784 52.5741 42.3718 52.5866 42.3649 52.5996C41.676 52.2125 40.894 52.0075 40.0962 52.0075C39.2984 52.0075 38.5163 52.2126 37.8274 52.5997C37.8269 52.599 37.8265 52.5982 37.8261 52.5974C37.8196 52.5853 37.8133 52.5736 37.8071 52.5623C37.7731 52.4971 37.7482 52.451 37.7251 52.4139Z" fill="#171717" stroke="#171717" stroke-width="0.7"/>
<path d="M27.1918 52.3735C27.084 52.4201 26.9768 52.4678 26.87 52.5168C27.3927 53.409 28.0063 54.2475 28.7018 55.0193C30.9438 57.5271 32.2635 57.8297 33.3263 57.9143C33.4937 57.9282 33.6668 57.9351 33.8414 57.9351M27.1918 52.3735C27.698 53.2325 28.2909 54.0404 28.9618 54.785L28.9628 54.786C30.0672 56.0214 30.9266 56.6931 31.6221 57.0673C32.3092 57.4369 32.8534 57.5255 33.3541 57.5654L33.3552 57.5655C33.5124 57.5785 33.6756 57.5851 33.8408 57.5851M27.1918 52.3735C28.1207 51.972 29.0879 51.6599 30.0796 51.4419L30.0805 51.4417C30.9135 51.2564 31.8648 51.0726 32.7757 51.0726V51.0727L32.7839 51.0725C33.6715 51.0517 34.5466 51.2755 35.3092 51.7178C35.8901 52.0681 36.4113 52.5045 36.8545 53.0111C36.8771 53.0375 36.9118 53.0743 36.9521 53.1151C36.9693 53.1326 36.9912 53.1552 37.016 53.1811C36.4394 53.6997 36.0063 54.3568 35.7621 55.0911C35.5177 55.8261 35.4724 56.6085 35.6276 57.3621C35.5879 57.3697 35.5527 57.3762 35.5247 57.3814L35.524 57.3815L35.4048 57.4037L35.3977 57.405L35.3905 57.4067C34.8826 57.5235 34.3626 57.5833 33.8408 57.5851M33.8408 57.5851C33.8406 57.5851 33.8404 57.5851 33.8402 57.5851L33.8414 57.9351M33.8408 57.5851C33.841 57.5851 33.8412 57.5851 33.8414 57.5851V57.9351" fill="#171717" stroke="#171717" stroke-width="0.7"/>
<path d="M31.5767 68.5549L31.5881 68.555L31.5995 68.5543L31.6449 68.5515L31.6625 68.5504L31.6799 68.5476C32.9992 68.332 34.2866 67.9588 35.5132 67.4364C37.2439 66.7097 39.3048 65.7204 40.2386 63.5658L40.2386 63.5658L40.24 63.5625C40.5486 62.8299 40.7394 62.0548 40.8057 61.2649L40.8057 61.2646L40.809 61.2477C40.8129 61.2272 40.8176 61.1981 40.8197 61.1628C40.8718 60.8631 40.8877 60.5585 40.8668 60.2551L40.8657 60.2384L40.863 60.2219C40.8377 60.0696 40.7561 59.9336 40.6361 59.8391L40.4196 60.1141L40.6361 59.8391C40.5193 59.7472 40.3738 59.7004 40.2264 59.7056H40.2097H40.0926C39.3713 59.7032 38.671 59.4721 38.0968 59.0481C37.5225 58.6241 37.1057 58.0305 36.9072 57.3572L36.9071 57.3568C36.8641 57.2117 36.7695 57.0887 36.643 57.0089C36.5167 56.9292 36.3662 56.8974 36.219 56.9181L36.2004 56.9208L36.1823 56.9253C35.8785 57.0019 35.5846 57.1127 35.3067 57.2555C35.2929 57.262 35.2809 57.268 35.2713 57.2729L35.2707 57.2732L35.239 57.2861C34.4892 57.5916 33.792 58.0089 33.1722 58.5234L33.1722 58.5234L33.1703 58.525C31.356 60.053 31.028 62.2766 30.8579 64.1197C30.7326 65.4223 30.7677 66.7349 30.9624 68.0294L30.9624 68.0294L30.9626 68.0311C30.9856 68.1787 31.0615 68.3119 31.1745 68.4073L31.1745 68.4073C31.2874 68.5026 31.4301 68.5543 31.5767 68.5549ZM40.8039 61.2734L40.804 61.2732C40.8035 61.2756 40.8034 61.276 40.8039 61.2734ZM39.583 60.9043C39.5793 60.9334 39.5758 60.96 39.5728 60.983C39.5562 61.0567 39.5537 61.1159 39.5533 61.1492C39.4979 61.8103 39.3384 62.4593 39.0803 63.0732C38.8864 63.5239 38.633 64.0006 38.063 64.5241C37.485 65.055 36.5667 65.6473 35.0231 66.293L35.0213 66.2938C34.085 66.6917 33.1107 66.9971 32.1128 67.2057C32.0089 66.216 32.004 65.2185 32.0982 64.2272L32.0984 64.2258C32.2563 62.4881 32.5566 60.6614 33.9765 59.4665C34.4972 59.0341 35.0838 58.6835 35.7154 58.4273L35.7155 58.4275L35.7279 58.422L35.8386 58.372L35.8386 58.3721L35.8463 58.3684C35.8725 58.3558 35.9076 58.3393 35.9478 58.3208C36.276 59.0211 36.7836 59.628 37.4228 60.0816C38.0609 60.5343 38.8053 60.8165 39.583 60.9043Z" fill="#171717" stroke="#171717" stroke-width="0.7"/>
<path d="M48.0816 67.2098C47.0823 67.0005 46.1062 66.696 45.1674 66.3003L45.1665 66.2999C43.5171 65.6097 41.8313 64.7675 41.1081 63.0777C40.849 62.4607 40.69 61.8081 40.6367 61.1434L40.6359 61.1338L40.6346 61.1242C40.633 61.1127 40.6312 61.1028 40.63 61.0968L40.6269 61.081L40.6235 61.0642C40.6222 61.0571 40.6222 61.0543 40.6222 61.0535V61.0306L40.6192 61.0079C40.6187 61.0038 40.6181 60.9995 40.6175 60.9952C40.6143 60.9709 40.6106 60.9425 40.6066 60.9114C41.3855 60.8235 42.131 60.5409 42.77 60.0874C43.4094 59.6337 43.9171 59.0266 44.2455 58.3262C44.2854 58.3443 44.3204 58.3606 44.3473 58.3731L44.3478 58.3733L44.4584 58.4246L44.466 58.4281L44.4738 58.4313C45.1062 58.6888 45.6941 59.0401 46.2166 59.4725C46.5958 59.79 46.9809 60.1723 47.3133 60.863C47.6502 61.563 47.9418 62.5986 48.0927 64.2319L48.0929 64.2339C48.1903 65.2241 48.1864 66.221 48.0816 67.2098ZM48.4559 68.5395L48.4765 68.5596L48.6179 68.5605C48.7647 68.5614 48.9081 68.5107 49.0218 68.4159L48.7976 68.1471L49.0218 68.4159C49.1356 68.321 49.2122 68.1879 49.2354 68.04L49.2357 68.0384C49.4333 66.7408 49.4661 65.4242 49.3331 64.1187C49.1629 62.2759 48.8348 60.0542 47.0221 58.5278L47.0221 58.5278L47.0203 58.5263C46.4018 58.0123 45.7062 57.5949 44.9581 57.2886L44.8832 57.2549C44.6056 57.1112 44.3117 57.0005 44.0075 56.925L43.9923 56.9212L43.9767 56.9188C43.828 56.8958 43.6752 56.9271 43.5473 57.0077C43.4199 57.0881 43.3252 57.2125 43.2834 57.3589C43.0845 58.0319 42.6675 58.6252 42.0932 59.0489C41.5185 59.4729 40.8176 59.7038 40.0957 59.7056H39.9799H39.971C39.8233 59.6999 39.6774 59.7466 39.5603 59.8388L39.7756 60.1122L39.5603 59.8388C39.4398 59.9336 39.3581 60.0704 39.3335 60.2235L39.331 60.2392L39.3299 60.2551C39.3085 60.567 39.3258 60.8802 39.3815 61.188L39.3837 61.2002L39.3868 61.2123C39.387 61.2134 39.3872 61.214 39.3872 61.2142C39.3872 61.2142 39.3872 61.2142 39.3872 61.2142C39.3872 61.2143 39.3872 61.2144 39.3872 61.2146L39.3872 61.22V61.2344L39.3884 61.2486C39.4536 62.043 39.6443 62.8225 39.9537 63.5594L39.9537 63.5594L39.955 63.5624C40.8859 65.722 42.9446 66.7126 44.6819 67.4397C45.8915 67.95 47.1583 68.3191 48.4559 68.5395Z" fill="#171717" stroke="#171717" stroke-width="0.7"/>
<path d="M43.5516 58.3621C43.5488 58.3611 43.5461 58.36 43.5434 58.359L43.5271 58.3527L43.5115 58.3448C43.3777 58.2772 43.2716 58.1633 43.2151 58.0225C43.1585 57.8816 43.1563 57.7249 43.2089 57.5823L43.2094 57.5809C43.4628 56.9031 43.4765 56.1622 43.2484 55.476C43.0202 54.7897 42.5627 54.1965 41.9474 53.7923L41.947 53.792C41.8213 53.7092 41.729 53.583 41.6899 53.4358C41.6507 53.2885 41.668 53.1324 41.738 52.9974L41.7455 52.9828L41.7544 52.969C41.9225 52.7077 42.1221 52.4674 42.3487 52.2532L42.404 52.1956C42.933 51.5939 43.5534 51.0756 44.2432 50.659L44.248 50.6561L44.248 50.6562C45.2073 50.0977 46.3071 49.8146 47.422 49.8384C48.4671 49.8389 49.517 50.0431 50.3851 50.2365C51.69 50.5185 52.9547 50.9566 54.1505 51.5408C54.2238 51.5754 54.2899 51.624 54.3449 51.6843L54.0864 51.9202L54.3449 51.6843C54.4009 51.7456 54.4442 51.8177 54.4717 51.8965L54.4738 51.9024L54.4737 51.9024C54.4997 51.9814 54.5094 52.0649 54.5019 52.1478L54.5019 52.1478C54.4945 52.2305 54.4703 52.3106 54.431 52.3834L43.5516 58.3621ZM43.5516 58.3621L43.4149 58.822L43.7979 58.4474C44.0118 58.514 44.2312 58.563 44.4538 58.5937L44.5355 58.6067C45.132 58.7409 45.742 58.8086 46.3539 58.8084L43.5516 58.3621ZM44.5627 57.359C44.6022 57.3666 44.6373 57.3731 44.6653 57.3782C44.6821 57.381 44.6973 57.3828 44.7164 57.385L44.7183 57.3852C44.7268 57.3861 44.7395 57.3876 44.7515 57.3892C44.7621 57.3907 44.7816 57.3935 44.8039 57.3989C45.3122 57.5134 45.8322 57.5713 46.3539 57.5713L44.5627 57.359ZM44.5627 57.359C44.7171 56.6064 44.6716 55.8252 44.4275 55.0912C44.1833 54.357 43.7504 53.7 43.174 53.1815M44.5627 57.359L43.174 53.1815M43.174 53.1815C43.198 53.1563 43.2196 53.1339 43.2373 53.1155L43.2403 53.1124L43.2409 53.1117L43.3246 53.0243L43.3299 53.0188L43.3348 53.0132C43.78 52.5062 44.3032 52.0697 44.8859 51.7194C45.6481 51.2771 46.5229 51.0533 47.41 51.074L47.41 51.0741H47.4182C48.3279 51.0741 49.2794 51.2566 50.112 51.4418L50.114 51.4423C51.1075 51.6572 52.0762 51.9685 53.0057 52.3713C52.4958 53.2291 51.9013 54.0367 51.2305 54.7825C50.0436 56.0994 48.7086 57.4098 46.837 57.5586L46.8359 57.5587C46.6853 57.5711 46.5283 57.5713 46.354 57.5713L43.174 53.1815Z" fill="#171717" stroke="#171717" stroke-width="0.7"/>
<path d="M39.6316 46.9187L39.6312 46.9187V46.9297V52.6281C39.6312 52.7397 39.6766 52.846 39.7561 52.9238C39.8356 53.0015 39.9427 53.0446 40.0537 53.0446C40.1646 53.0446 40.2718 53.0017 40.3514 52.9241C40.4312 52.8465 40.4769 52.7405 40.4775 52.6289V52.6281V46.9297H40.4779L40.4771 46.9187C40.4693 46.8124 40.4206 46.7136 40.3419 46.642C40.2633 46.5704 40.1605 46.5312 40.0544 46.5312C39.9482 46.5312 39.8455 46.5704 39.7669 46.642C39.6882 46.7136 39.6395 46.8124 39.6316 46.9187Z" fill="#171717" stroke="#171717" stroke-width="0.3"/>
<path d="M36.2124 55.6826L36.2124 55.6827L36.2151 55.6835C36.2565 55.6958 36.2995 55.7021 36.3427 55.7022L36.343 55.5522L36.3423 55.7022C36.4424 55.7026 36.5398 55.6681 36.6168 55.604C36.6939 55.5398 36.7456 55.4502 36.7616 55.351C36.7775 55.2517 36.7565 55.1504 36.7029 55.0655C36.6493 54.9808 36.5672 54.9184 36.4718 54.8887C36.4716 54.8886 36.4714 54.8886 36.4712 54.8885L30.9013 53.1179C30.9013 53.1179 30.9013 53.1179 30.9013 53.1179C30.8488 53.1012 30.7935 53.0948 30.7386 53.0991C30.6836 53.1033 30.63 53.118 30.5806 53.1426C30.5313 53.1672 30.4871 53.2011 30.4508 53.2427C30.4145 53.2842 30.3868 53.3326 30.3694 53.385C30.352 53.4374 30.3453 53.4927 30.3497 53.5478C30.3541 53.6028 30.3695 53.6564 30.395 53.7053C30.4205 53.7543 30.4555 53.7976 30.4978 53.833L30.4978 53.833C30.5402 53.8684 30.589 53.8951 30.6415 53.9118L30.6415 53.9118L36.2124 55.6826Z" fill="#171717" stroke="#171717" stroke-width="0.3"/>
<path d="M34.3334 64.6537C34.4002 64.654 34.4662 64.6387 34.5261 64.6091C34.5862 64.5794 34.6384 64.5359 34.6784 64.4821L34.6784 64.482L38.118 59.8468C38.118 59.8468 38.118 59.8467 38.118 59.8467C38.1509 59.8025 38.1747 59.7521 38.1878 59.6986C38.201 59.645 38.2032 59.5893 38.1944 59.5348C38.1856 59.4804 38.1659 59.4283 38.1366 59.3815C38.1073 59.3348 38.0691 59.2944 38.0242 59.2624L37.9376 59.3842L38.0242 59.2624C37.9792 59.2305 37.9285 59.2077 37.8749 59.1951C37.8213 59.1825 37.7657 59.1804 37.7113 59.1888C37.6569 59.1972 37.6046 59.2161 37.5573 59.2444C37.5101 59.2727 37.4687 59.31 37.4359 59.3542L37.4359 59.3542L33.992 63.9896L33.9917 63.99C33.9255 64.0797 33.898 64.192 33.916 64.3022C33.934 64.4123 33.9958 64.51 34.0865 64.5746L34.1734 64.4523M34.3334 64.6537C34.2447 64.6536 34.1581 64.6259 34.086 64.5742L34.1734 64.4523M34.3334 64.6537C34.3332 64.6537 34.3331 64.6537 34.333 64.6537L34.3338 64.5037M34.3334 64.6537C34.3335 64.6537 34.3336 64.6537 34.3338 64.6537L34.3338 64.5037M34.1734 64.4523C34.2199 64.4857 34.2761 64.5037 34.3338 64.5037M34.1734 64.4523C34.1148 64.4107 34.0755 64.348 34.0641 64.278C34.0526 64.208 34.07 64.1365 34.1124 64.079L34.3338 64.5037" fill="#171717" stroke="#171717" stroke-width="0.3"/>
<path d="M46.0205 64.4509L46.1083 64.5725C46.0362 64.6247 45.9491 64.6525 45.8602 64.6523M46.0205 64.4509L46.1072 64.5734C46.1979 64.5091 46.2597 64.4116 46.2777 64.3016C46.2958 64.1916 46.2683 64.0794 46.2021 63.9898L46.2019 63.9896L42.7608 59.3566C42.73 59.31 42.6902 59.27 42.6438 59.2389C42.5959 59.2068 42.5418 59.1848 42.4851 59.1741C42.4284 59.1634 42.3701 59.1642 42.3137 59.1766C42.2573 59.1889 42.2039 59.2125 42.1569 59.2461C42.1099 59.2796 42.0703 59.3225 42.0406 59.3721C42.0108 59.4217 41.9918 59.4769 41.9848 59.5343C41.9777 59.5917 41.9828 59.6499 41.9998 59.7052C42.0161 59.7586 42.043 59.808 42.0788 59.8507L45.5194 64.4816C45.5194 64.4817 45.5195 64.4818 45.5196 64.4818C45.5589 64.5352 45.6104 64.5783 45.6696 64.6078L45.7366 64.4735L45.6696 64.6078C45.7288 64.6373 45.7941 64.6525 45.8602 64.6523M46.0205 64.4509C45.9741 64.4845 45.9178 64.5025 45.8601 64.5023M46.0205 64.4509L45.8601 64.5023M45.8602 64.6523C45.86 64.6523 45.8598 64.6523 45.8596 64.6523L45.8601 64.5023M45.8602 64.6523C45.8604 64.6523 45.8605 64.6523 45.8607 64.6523L45.8601 64.5023" fill="#171717" stroke="#171717" stroke-width="0.3"/>
<path d="M43.85 55.701C43.8931 55.7008 43.936 55.6945 43.9774 55.6822L43.9774 55.6823L43.98 55.6814L49.5509 53.9106L49.551 53.9106C49.6035 53.8939 49.6523 53.8671 49.6946 53.8318L49.5992 53.7175L49.6946 53.8318C49.737 53.7964 49.7719 53.7531 49.7974 53.7041C49.8229 53.6551 49.8384 53.6016 49.8428 53.5465C49.8472 53.4915 49.8405 53.4362 49.8231 53.3837C49.8057 53.3314 49.7779 53.283 49.7416 53.2415L49.7416 53.2415C49.7053 53.1999 49.6612 53.166 49.6119 53.1414C49.5625 53.1168 49.5089 53.1021 49.4539 53.0978C49.399 53.0936 49.3437 53.1 49.2912 53.1167C49.2912 53.1167 49.2912 53.1167 49.2912 53.1167L43.7213 54.8873C43.7211 54.8873 43.7209 54.8874 43.7207 54.8874C43.6253 54.9172 43.5431 54.9796 43.4896 55.0642C43.436 55.1491 43.415 55.2505 43.4309 55.3497C43.4469 55.449 43.4986 55.5386 43.5757 55.6027C43.6526 55.6668 43.75 55.7014 43.85 55.701ZM43.85 55.701C43.8499 55.701 43.8499 55.701 43.8498 55.701L43.8495 55.551L43.8502 55.701C43.8501 55.701 43.85 55.701 43.85 55.701Z" fill="#171717" stroke="#171717" stroke-width="0.3"/>
<path d="M40.1395 59.7442C39.4266 59.7442 38.7297 59.554 38.1369 59.1975C37.5441 58.841 37.0821 58.3343 36.8093 57.7415C36.5364 57.1487 36.4651 56.4964 36.6041 55.8671C36.7432 55.2378 37.0865 54.6598 37.5907 54.2061C38.0948 53.7524 38.7371 53.4434 39.4363 53.3182C40.1355 53.193 40.8603 53.2573 41.519 53.5028C42.1776 53.7484 42.7406 54.1642 43.1367 54.6977C43.5328 55.2312 43.7442 55.8584 43.7442 56.5C43.7429 57.3601 43.3627 58.1846 42.687 58.7928C42.0113 59.4009 41.0952 59.7431 40.1395 59.7442Z" fill="#171717"/>
<path d="M13.4084 38.395C13.0051 37.9922 12.4584 37.7659 11.8884 37.7659C11.3185 37.7659 10.7718 37.9922 10.3685 38.395L9.44361 39.3162C9.64543 38.6747 10.0259 38.1039 10.5406 37.6708C10.841 37.37 11.0455 36.9869 11.1284 36.57C11.2112 36.153 11.1686 35.7208 11.006 35.328C10.8433 34.9352 10.5679 34.5995 10.2146 34.3631C9.86121 34.1267 9.44573 34.0004 9.0206 34V34C8.59547 34.0004 8.17999 34.1267 7.82663 34.3631C7.47327 34.5995 7.19788 34.9352 7.03524 35.328C6.8726 35.7208 6.83001 36.153 6.91284 36.57C6.99568 36.9869 7.20023 37.37 7.50065 37.6708C8.01526 38.1039 8.39577 38.6747 8.5976 39.3162L7.67272 38.395C7.37202 38.0939 6.98878 37.8888 6.57148 37.8056C6.15417 37.7223 5.72157 37.7648 5.32839 37.9275C4.93521 38.0902 4.59913 38.3659 4.36267 38.7197C4.12621 39.0734 4 39.4894 4 39.9149C4 40.3404 4.12621 40.7564 4.36267 41.1101C4.59913 41.4639 4.93521 41.7396 5.32839 41.9023C5.72157 42.065 6.15417 42.1075 6.57148 42.0243C6.98878 41.9411 7.37202 41.7359 7.67272 41.4349L8.74816 40.3594C8.74816 40.3809 8.74816 40.3953 8.74816 40.4168C8.74816 41.3488 8.61911 42.8186 7.59386 43.8438V44.2023H10.4617V43.8438C9.44361 42.8258 9.29663 41.3667 9.30739 40.4347C9.30739 40.406 9.30739 40.3845 9.30739 40.3594L10.3828 41.4349C10.7906 41.8148 11.3298 42.0216 11.8871 42.0118C12.4443 42.002 12.9759 41.7762 13.37 41.3822C13.7641 40.9881 13.9898 40.4564 13.9997 39.8992C14.0095 39.342 13.8027 38.8027 13.4227 38.395H13.4084Z" fill="#171717"/>
<path d="M75.4084 73.8074C75.0051 74.2102 74.4584 74.4365 73.8884 74.4365C73.3185 74.4365 72.7718 74.2102 72.3685 73.8074L71.4436 72.8861C71.6454 73.5277 72.0259 74.0985 72.5406 74.5316C72.841 74.8324 73.0455 75.2154 73.1284 75.6324C73.2112 76.0494 73.1686 76.4816 73.006 76.8744C72.8433 77.2672 72.5679 77.6029 72.2146 77.8393C71.8612 78.0757 71.4457 78.202 71.0206 78.2024V78.2024C70.5955 78.202 70.18 78.0757 69.8266 77.8393C69.4733 77.6029 69.1979 77.2672 69.0352 76.8744C68.8726 76.4816 68.83 76.0494 68.9128 75.6324C68.9957 75.2154 69.2002 74.8324 69.5007 74.5316C70.0153 74.0985 70.3958 73.5277 70.5976 72.8861L69.6727 73.8074C69.372 74.1085 68.9888 74.3136 68.5715 74.3968C68.1542 74.48 67.7216 74.4376 67.3284 74.2749C66.9352 74.1122 66.5991 73.8365 66.3627 73.4827C66.1262 73.129 66 72.713 66 72.2875C66 71.862 66.1262 71.446 66.3627 71.0922C66.5991 70.7385 66.9352 70.4628 67.3284 70.3001C67.7216 70.1374 68.1542 70.0949 68.5715 70.1781C68.9888 70.2613 69.372 70.4665 69.6727 70.7675L70.7482 71.843C70.7482 71.8215 70.7482 71.8071 70.7482 71.7856C70.7482 70.8536 70.6191 69.3838 69.5939 68.3586V68.0001H72.4617V68.3586C71.4436 69.3766 71.2966 70.8356 71.3074 71.7677C71.3074 71.7964 71.3074 71.8179 71.3074 71.843L72.3828 70.7675C72.7906 70.3876 73.3298 70.1808 73.8871 70.1906C74.4443 70.2004 74.9759 70.4262 75.37 70.8202C75.7641 71.2143 75.9898 71.746 75.9997 72.3032C76.0095 72.8604 75.8027 73.3997 75.4227 73.8074H75.4084Z" fill="#171717"/>
<path d="M74.5214 23.1848C73.7704 22.4347 72.7523 22.0134 71.6908 22.0134C70.6293 22.0134 69.6112 22.4347 68.8602 23.1848L67.1377 24.9006C67.5136 23.7057 68.2223 22.6428 69.1806 21.8363C69.7401 21.2761 70.121 20.5627 70.2753 19.7861C70.4296 19.0096 70.3502 18.2047 70.0474 17.4732C69.7445 16.7417 69.2316 16.1164 68.5735 15.6762C67.9155 15.236 67.1417 15.0007 66.35 15V15C65.5583 15.0007 64.7845 15.236 64.1264 15.6762C63.4683 16.1164 62.9555 16.7417 62.6526 17.4732C62.3497 18.2047 62.2704 19.0096 62.4247 19.7861C62.5789 20.5627 62.9599 21.2761 63.5193 21.8363C64.4777 22.6428 65.1863 23.7057 65.5622 24.9006L63.8398 23.1848C63.2798 22.6241 62.5661 22.2421 61.7889 22.0872C61.0118 21.9322 60.2061 22.0112 59.4739 22.3143C58.7417 22.6173 58.1158 23.1307 57.6754 23.7895C57.2351 24.4484 57 25.223 57 26.0155C57 26.8079 57.2351 27.5826 57.6754 28.2414C58.1158 28.9002 58.7417 29.4136 59.4739 29.7166C60.2061 30.0197 61.0118 30.0987 61.7889 29.9438C62.5661 29.7888 63.2798 29.4068 63.8398 28.8461L65.8426 26.8433C65.8426 26.8833 65.8426 26.91 65.8426 26.9501C65.8426 28.6859 65.6023 31.423 63.6929 33.3324V34H69.0337V33.3324C67.1377 31.4364 66.864 28.7193 66.8841 26.9835C66.8841 26.9301 66.8841 26.89 66.8841 26.8433L68.8869 28.8461C69.6462 29.5537 70.6505 29.9389 71.6883 29.9205C72.726 29.9022 73.7161 29.4818 74.45 28.7479C75.1839 28.014 75.6043 27.0239 75.6226 25.9862C75.6409 24.9485 75.2557 23.9442 74.5481 23.1848H74.5214Z" fill="#171717"/>
<path d="M21.5214 87.8152C20.7704 88.5653 19.7523 88.9866 18.6908 88.9866C17.6293 88.9866 16.6112 88.5653 15.8602 87.8152L14.1377 86.0994C14.5136 87.2943 15.2223 88.3572 16.1806 89.1637C16.7401 89.7239 17.121 90.4373 17.2753 91.2139C17.4296 91.9904 17.3502 92.7953 17.0474 93.5268C16.7445 94.2583 16.2316 94.8836 15.5735 95.3238C14.9155 95.764 14.1417 95.9993 13.35 96V96C12.5583 95.9993 11.7845 95.764 11.1264 95.3238C10.4683 94.8836 9.95548 94.2583 9.65259 93.5268C9.3497 92.7953 9.27039 91.9904 9.42465 91.2139C9.57892 90.4373 9.95985 89.7239 10.5193 89.1637C11.4777 88.3572 12.1863 87.2943 12.5622 86.0994L10.8398 87.8152C10.2798 88.3759 9.56606 88.7579 8.78891 88.9128C8.01176 89.0678 7.20611 88.9888 6.47389 88.6857C5.74167 88.3827 5.11578 87.8693 4.67542 87.2105C4.23505 86.5516 4 85.777 4 84.9845C4 84.1921 4.23505 83.4174 4.67542 82.7586C5.11578 82.0998 5.74167 81.5864 6.47389 81.2834C7.20611 80.9803 8.01176 80.9013 8.78891 81.0562C9.56606 81.2112 10.2798 81.5932 10.8398 82.1539L12.8426 84.1567C12.8426 84.1167 12.8426 84.09 12.8426 84.0499C12.8426 82.3141 12.6023 79.577 10.6929 77.6676V77H16.0337V77.6676C14.1377 79.5636 13.864 82.2807 13.8841 84.0165C13.8841 84.0699 13.8841 84.11 13.8841 84.1567L15.8869 82.1539C16.6462 81.4463 17.6505 81.0611 18.6883 81.0795C19.726 81.0978 20.7161 81.5182 21.45 82.2521C22.1839 82.986 22.6043 83.9761 22.6226 85.0138C22.6409 86.0515 22.2557 87.0558 21.5481 87.8152H21.5214Z" fill="#171717"/>
</g>
<rect x="0.5" y="0.5" width="79" height="111" rx="4.5" stroke="#DADADA"/>
<defs>
<clipPath id="clip0_276_2048">
<rect width="80" height="112" rx="5" fill="white"/>
</clipPath>
</defs>
</svg>
