<svg width="80" height="112" viewBox="0 0 80 112" fill="none" xmlns="http://www.w3.org/2000/svg">
<g clip-path="url(#clip0_276_1148)">
<path d="M75 0H5C2.23858 0 0 2.23858 0 5V107C0 109.761 2.23858 112 5 112H75C77.7614 112 80 109.761 80 107V5C80 2.23858 77.7614 0 75 0Z" fill="white"/>
<path d="M17.0099 7.87077H12.3738C11.5782 7.87077 10.8376 7.87077 10.1792 7.87077C9.63462 7.90015 9.09333 7.974 8.56066 8.0916C8.31343 8.12718 8.07826 8.22183 7.87485 8.36763C7.68238 8.52591 7.53948 8.7368 7.46336 8.97491L6.3112 12.6462H4.06173C3.97942 11.3317 3.97942 10.0133 4.06173 8.69887C4.13391 7.45947 4.27127 6.22478 4.47322 5H18.9301L20 7.3463C17.9828 9.98962 16.3138 12.8844 15.0347 15.9586C13.6201 19.4793 12.7861 23.2089 12.5658 27H8.78012L8.03944 26.4479C8.18799 24.6746 8.53774 22.9242 9.08188 21.2309C9.60644 19.5199 10.2764 17.8575 11.0844 16.2622C11.8816 14.6932 12.7988 13.1889 13.8277 11.7629C14.7693 10.3714 15.8344 9.0687 17.0099 7.87077Z" fill="#171717"/>
<path d="M62.9679 104.046H67.6784C68.468 104.046 69.2032 104.046 69.8567 104.046C70.3884 104.019 70.9168 103.946 71.4359 103.826C71.6908 103.794 71.934 103.7 72.1439 103.55C72.3343 103.396 72.4685 103.182 72.525 102.942L73.6959 99.3538H75.9286C76.0238 100.668 76.0238 101.987 75.9286 103.301C75.9286 104.626 75.7108 105.868 75.5474 107H61.0347L60 104.654C61.9927 102.009 63.64 99.1141 64.9011 96.0414C66.3052 92.5207 67.133 88.7911 67.3517 85H71.1364L71.7899 85.8005C71.6292 87.5719 71.2823 89.3209 70.7552 91.0176C70.237 92.7335 69.5625 94.3969 68.7403 95.9862C67.9496 97.5556 67.0392 99.0599 66.0175 100.486C65.0949 101.752 64.0752 102.943 62.9679 104.046Z" fill="#171717"/>
<path d="M13.4084 38.395C13.0051 37.9922 12.4584 37.7659 11.8884 37.7659C11.3185 37.7659 10.7718 37.9922 10.3685 38.395L9.44361 39.3162C9.64543 38.6747 10.0259 38.1039 10.5406 37.6708C10.841 37.37 11.0455 36.9869 11.1284 36.57C11.2112 36.153 11.1686 35.7208 11.006 35.328C10.8433 34.9352 10.5679 34.5995 10.2146 34.3631C9.86121 34.1267 9.44573 34.0004 9.0206 34V34C8.59547 34.0004 8.17999 34.1267 7.82663 34.3631C7.47327 34.5995 7.19788 34.9352 7.03524 35.328C6.8726 35.7208 6.83001 36.153 6.91284 36.57C6.99568 36.9869 7.20023 37.37 7.50065 37.6708C8.01526 38.1039 8.39577 38.6747 8.5976 39.3162L7.67272 38.395C7.37202 38.0939 6.98878 37.8888 6.57148 37.8056C6.15417 37.7223 5.72157 37.7648 5.32839 37.9275C4.93521 38.0902 4.59913 38.3659 4.36267 38.7197C4.12621 39.0734 4 39.4894 4 39.9149C4 40.3404 4.12621 40.7564 4.36267 41.1101C4.59913 41.4639 4.93521 41.7396 5.32839 41.9023C5.72157 42.065 6.15417 42.1075 6.57148 42.0243C6.98878 41.9411 7.37202 41.7359 7.67272 41.4349L8.74816 40.3594C8.74816 40.3809 8.74816 40.3953 8.74816 40.4168C8.74816 41.3488 8.61911 42.8186 7.59386 43.8438V44.2023H10.4617V43.8438C9.44361 42.8258 9.29663 41.3667 9.30739 40.4347C9.30739 40.406 9.30739 40.3845 9.30739 40.3594L10.3828 41.4349C10.7906 41.8148 11.3298 42.0216 11.8871 42.0118C12.4443 42.002 12.9759 41.7762 13.37 41.3822C13.7641 40.9881 13.9898 40.4564 13.9997 39.8992C14.0095 39.342 13.8027 38.8027 13.4227 38.395H13.4084Z" fill="#171717"/>
<path d="M75.4084 73.8074C75.0051 74.2102 74.4584 74.4365 73.8884 74.4365C73.3185 74.4365 72.7718 74.2102 72.3685 73.8074L71.4436 72.8861C71.6454 73.5277 72.0259 74.0985 72.5406 74.5316C72.841 74.8324 73.0455 75.2154 73.1284 75.6324C73.2112 76.0494 73.1686 76.4816 73.006 76.8744C72.8433 77.2672 72.5679 77.6029 72.2146 77.8393C71.8612 78.0757 71.4457 78.202 71.0206 78.2024V78.2024C70.5955 78.202 70.18 78.0757 69.8266 77.8393C69.4733 77.6029 69.1979 77.2672 69.0352 76.8744C68.8726 76.4816 68.83 76.0494 68.9128 75.6324C68.9957 75.2154 69.2002 74.8324 69.5007 74.5316C70.0153 74.0985 70.3958 73.5277 70.5976 72.8861L69.6727 73.8074C69.372 74.1085 68.9888 74.3136 68.5715 74.3968C68.1542 74.48 67.7216 74.4376 67.3284 74.2749C66.9352 74.1122 66.5991 73.8365 66.3627 73.4827C66.1262 73.129 66 72.713 66 72.2875C66 71.862 66.1262 71.446 66.3627 71.0922C66.5991 70.7385 66.9352 70.4628 67.3284 70.3001C67.7216 70.1374 68.1542 70.0949 68.5715 70.1781C68.9888 70.2613 69.372 70.4665 69.6727 70.7675L70.7482 71.843C70.7482 71.8215 70.7482 71.8071 70.7482 71.7856C70.7482 70.8536 70.6191 69.3838 69.5939 68.3586V68.0001H72.4617V68.3586C71.4436 69.3766 71.2966 70.8356 71.3074 71.7677C71.3074 71.7964 71.3074 71.8179 71.3074 71.843L72.3828 70.7675C72.7906 70.3876 73.3298 70.1808 73.8871 70.1906C74.4443 70.2004 74.9759 70.4262 75.37 70.8202C75.7641 71.2143 75.9898 71.746 75.9997 72.3032C76.0095 72.8604 75.8027 73.3997 75.4227 73.8074H75.4084Z" fill="#171717"/>
<rect opacity="0.5" x="25.25" y="31.25" width="29.2297" height="49.5" stroke="#171717" stroke-width="0.5"/>
<path d="M36.426 39.1289C36.0521 38.7554 35.5452 38.5457 35.0168 38.5457C34.4883 38.5457 33.9814 38.7554 33.6075 39.1289L32.7499 39.9831C32.9371 39.3882 33.2899 38.859 33.767 38.4575C34.0456 38.1786 34.2352 37.8234 34.312 37.4368C34.3888 37.0502 34.3493 36.6495 34.1985 36.2853C34.0477 35.9211 33.7924 35.6098 33.4648 35.3906C33.1371 35.1715 32.7519 35.0543 32.3577 35.054V35.054C31.9636 35.0543 31.5783 35.1715 31.2507 35.3906C30.9231 35.6098 30.6677 35.9211 30.5169 36.2853C30.3661 36.6495 30.3266 37.0502 30.4034 37.4368C30.4803 37.8234 30.6699 38.1786 30.9485 38.4575C31.4256 38.859 31.7784 39.3882 31.9655 39.9831L31.108 39.1289C30.8292 38.8498 30.4739 38.6596 30.0869 38.5824C29.7 38.5053 29.2989 38.5446 28.9344 38.6955C28.5698 38.8464 28.2582 39.102 28.039 39.43C27.8197 39.758 27.7027 40.1436 27.7027 40.5382C27.7027 40.9327 27.8197 41.3184 28.039 41.6464C28.2582 41.9744 28.5698 42.23 28.9344 42.3809C29.2989 42.5317 29.7 42.5711 30.0869 42.4939C30.4739 42.4168 30.8292 42.2266 31.108 41.9475L32.1051 40.9503C32.1051 40.9703 32.1051 40.9836 32.1051 41.0035C32.1051 41.8677 31.9855 43.2304 31.0349 44.181V44.5134H33.6939V44.181C32.7499 43.2371 32.6137 41.8843 32.6236 41.0201C32.6236 40.9935 32.6236 40.9736 32.6236 40.9503L33.6208 41.9475C33.9988 42.2997 34.4988 42.4915 35.0155 42.4824C35.5321 42.4733 36.0251 42.264 36.3905 41.8986C36.7558 41.5332 36.9651 41.0403 36.9743 40.5236C36.9834 40.007 36.7916 39.5069 36.4393 39.1289H36.426Z" fill="#171717"/>
<path d="M36.426 55.3452C36.0521 54.9717 35.5452 54.762 35.0168 54.762C34.4883 54.762 33.9814 54.9717 33.6075 55.3452L32.7499 56.1994C32.9371 55.6045 33.2899 55.0753 33.767 54.6738C34.0456 54.3949 34.2352 54.0397 34.312 53.6531C34.3888 53.2665 34.3493 52.8658 34.1985 52.5016C34.0477 52.1374 33.7924 51.8261 33.4648 51.6069C33.1371 51.3878 32.7519 51.2706 32.3577 51.2703V51.2703C31.9636 51.2706 31.5783 51.3878 31.2507 51.6069C30.9231 51.8261 30.6677 52.1374 30.5169 52.5016C30.3661 52.8658 30.3266 53.2665 30.4034 53.6531C30.4803 54.0397 30.6699 54.3949 30.9485 54.6738C31.4256 55.0753 31.7784 55.6045 31.9655 56.1994L31.108 55.3452C30.8292 55.0661 30.4739 54.8759 30.0869 54.7987C29.7 54.7216 29.2989 54.7609 28.9344 54.9118C28.5698 55.0627 28.2582 55.3183 28.039 55.6463C27.8197 55.9743 27.7027 56.36 27.7027 56.7545C27.7027 57.149 27.8197 57.5347 28.039 57.8627C28.2582 58.1907 28.5698 58.4463 28.9344 58.5972C29.2989 58.7481 29.7 58.7874 30.0869 58.7103C30.4739 58.6331 30.8292 58.4429 31.108 58.1638L32.1051 57.1666C32.1051 57.1866 32.1051 57.1999 32.1051 57.2198C32.1051 58.084 31.9855 59.4467 31.0349 60.3973V60.7297H33.6939V60.3973C32.7499 59.4534 32.6137 58.1006 32.6236 57.2364C32.6236 57.2098 32.6236 57.1899 32.6236 57.1666L33.6208 58.1638C33.9988 58.516 34.4988 58.7078 35.0155 58.6987C35.5321 58.6896 36.0251 58.4803 36.3905 58.1149C36.7558 57.7495 36.9651 57.2566 36.9743 56.7399C36.9834 56.2233 36.7916 55.7233 36.4393 55.3452H36.426Z" fill="#171717"/>
<path d="M36.426 72.8711C36.0521 73.2446 35.5452 73.4543 35.0168 73.4543C34.4883 73.4543 33.9814 73.2446 33.6075 72.8711L32.7499 72.0169C32.9371 72.6118 33.2899 73.141 33.767 73.5425C34.0456 73.8214 34.2352 74.1766 34.312 74.5632C34.3888 74.9498 34.3493 75.3505 34.1985 75.7147C34.0477 76.0789 33.7924 76.3902 33.4648 76.6094C33.1371 76.8285 32.7519 76.9457 32.3577 76.946V76.946C31.9636 76.9457 31.5783 76.8285 31.2507 76.6094C30.9231 76.3902 30.6677 76.0789 30.5169 75.7147C30.3661 75.3505 30.3266 74.9498 30.4034 74.5632C30.4803 74.1766 30.6699 73.8214 30.9485 73.5425C31.4256 73.141 31.7784 72.6118 31.9655 72.0169L31.108 72.8711C30.8292 73.1502 30.4739 73.3404 30.0869 73.4176C29.7 73.4947 29.2989 73.4554 28.9344 73.3045C28.5698 73.1536 28.2582 72.898 28.039 72.57C27.8197 72.242 27.7027 71.8564 27.7027 71.4618C27.7027 71.0673 27.8197 70.6816 28.039 70.3536C28.2582 70.0256 28.5698 69.77 28.9344 69.6191C29.2989 69.4683 29.7 69.4289 30.0869 69.5061C30.4739 69.5832 30.8292 69.7734 31.108 70.0525L32.1051 71.0497C32.1051 71.0297 32.1051 71.0164 32.1051 70.9965C32.1051 70.1323 31.9855 68.7696 31.0349 67.819V67.4866H33.6939V67.819C32.7499 68.7629 32.6137 70.1157 32.6236 70.9799C32.6236 71.0065 32.6236 71.0264 32.6236 71.0497L33.6208 70.0525C33.9988 69.7003 34.4988 69.5085 35.0155 69.5176C35.5321 69.5267 36.0251 69.736 36.3905 70.1014C36.7558 70.4668 36.9651 70.9597 36.9743 71.4764C36.9834 71.993 36.7916 72.4931 36.4393 72.8711H36.426Z" fill="#171717"/>
<path d="M51.2909 39.1289C50.917 38.7554 50.4101 38.5457 49.8816 38.5457C49.3531 38.5457 48.8463 38.7554 48.4723 39.1289L47.6148 39.9831C47.8019 39.3882 48.1547 38.859 48.6319 38.4575C48.9104 38.1786 49.1001 37.8234 49.1769 37.4368C49.2537 37.0502 49.2142 36.6495 49.0634 36.2853C48.9126 35.9211 48.6573 35.6098 48.3296 35.3906C48.002 35.1715 47.6168 35.0543 47.2226 35.054V35.054C46.8284 35.0543 46.4432 35.1715 46.1156 35.3906C45.7879 35.6098 45.5326 35.9211 45.3818 36.2853C45.231 36.6495 45.1915 37.0502 45.2683 37.4368C45.3451 37.8234 45.5348 38.1786 45.8133 38.4575C46.2905 38.859 46.6433 39.3882 46.8304 39.9831L45.9729 39.1289C45.6941 38.8498 45.3387 38.6596 44.9518 38.5824C44.5649 38.5053 44.1638 38.5446 43.7992 38.6955C43.4347 38.8464 43.1231 39.102 42.9038 39.43C42.6846 39.758 42.5676 40.1436 42.5676 40.5382C42.5676 40.9327 42.6846 41.3184 42.9038 41.6464C43.1231 41.9744 43.4347 42.23 43.7992 42.3809C44.1638 42.5317 44.5649 42.5711 44.9518 42.4939C45.3387 42.4168 45.6941 42.2266 45.9729 41.9475L46.97 40.9503C46.97 40.9703 46.97 40.9836 46.97 41.0035C46.97 41.8677 46.8503 43.2304 45.8997 44.181V44.5134H48.5588V44.181C47.6148 43.2371 47.4785 41.8843 47.4885 41.0201C47.4885 40.9935 47.4885 40.9736 47.4885 40.9503L48.4856 41.9475C48.8637 42.2997 49.3637 42.4915 49.8804 42.4824C50.397 42.4733 50.8899 42.264 51.2553 41.8986C51.6207 41.5332 51.83 41.0403 51.8391 40.5236C51.8482 40.007 51.6565 39.5069 51.3042 39.1289H51.2909Z" fill="#171717"/>
<path d="M51.2909 55.3452C50.917 54.9717 50.4101 54.762 49.8816 54.762C49.3531 54.762 48.8463 54.9717 48.4723 55.3452L47.6148 56.1994C47.8019 55.6045 48.1547 55.0753 48.6319 54.6738C48.9104 54.3949 49.1001 54.0397 49.1769 53.6531C49.2537 53.2665 49.2142 52.8658 49.0634 52.5016C48.9126 52.1374 48.6573 51.8261 48.3296 51.6069C48.002 51.3878 47.6168 51.2706 47.2226 51.2703V51.2703C46.8284 51.2706 46.4432 51.3878 46.1156 51.6069C45.7879 51.8261 45.5326 52.1374 45.3818 52.5016C45.231 52.8658 45.1915 53.2665 45.2683 53.6531C45.3451 54.0397 45.5348 54.3949 45.8133 54.6738C46.2905 55.0753 46.6433 55.6045 46.8304 56.1994L45.9729 55.3452C45.6941 55.0661 45.3387 54.8759 44.9518 54.7987C44.5649 54.7216 44.1638 54.7609 43.7992 54.9118C43.4347 55.0627 43.1231 55.3183 42.9038 55.6463C42.6846 55.9743 42.5676 56.36 42.5676 56.7545C42.5676 57.149 42.6846 57.5347 42.9038 57.8627C43.1231 58.1907 43.4347 58.4463 43.7992 58.5972C44.1638 58.7481 44.5649 58.7874 44.9518 58.7103C45.3387 58.6331 45.6941 58.4429 45.9729 58.1638L46.97 57.1666C46.97 57.1866 46.97 57.1999 46.97 57.2198C46.97 58.084 46.8503 59.4467 45.8997 60.3973V60.7297H48.5588V60.3973C47.6148 59.4534 47.4785 58.1006 47.4885 57.2364C47.4885 57.2098 47.4885 57.1899 47.4885 57.1666L48.4856 58.1638C48.8637 58.516 49.3637 58.7078 49.8804 58.6987C50.397 58.6896 50.8899 58.4803 51.2553 58.1149C51.6207 57.7495 51.83 57.2566 51.8391 56.7399C51.8482 56.2233 51.6565 55.7233 51.3042 55.3452H51.2909Z" fill="#171717"/>
<path d="M43.8585 48.5884C43.4845 48.2149 42.9777 48.0051 42.4492 48.0051C41.9207 48.0051 41.4138 48.2149 41.0399 48.5884L40.1824 49.4426C40.3695 48.8477 40.7223 48.3185 41.1994 47.917C41.478 47.6381 41.6677 47.2829 41.7445 46.8963C41.8213 46.5097 41.7818 46.1089 41.631 45.7448C41.4802 45.3806 41.2248 45.0692 40.8972 44.8501C40.5696 44.6309 40.1843 44.5138 39.7902 44.5134V44.5134C39.396 44.5138 39.0108 44.6309 38.6831 44.8501C38.3555 45.0692 38.1002 45.3806 37.9494 45.7448C37.7986 46.1089 37.7591 46.5097 37.8359 46.8963C37.9127 47.2829 38.1023 47.6381 38.3809 47.917C38.858 48.3185 39.2108 48.8477 39.398 49.4426L38.5404 48.5884C38.2616 48.3092 37.9063 48.119 37.5194 48.0419C37.1325 47.9647 36.7313 48.0041 36.3668 48.155C36.0022 48.3058 35.6906 48.5614 35.4714 48.8894C35.2522 49.2175 35.1351 49.6031 35.1351 49.9977C35.1351 50.3922 35.2522 50.7779 35.4714 51.1059C35.6906 51.4339 36.0022 51.6895 36.3668 51.8404C36.7313 51.9912 37.1325 52.0306 37.5194 51.9534C37.9063 51.8763 38.2616 51.6861 38.5404 51.4069L39.5376 50.4098C39.5376 50.4297 39.5376 50.443 39.5376 50.463C39.5376 51.3272 39.4179 52.6899 38.4673 53.6405V53.9729H41.1263V53.6405C40.1824 52.6966 40.0461 51.3438 40.0561 50.4796C40.0561 50.453 40.0561 50.4331 40.0561 50.4098L41.0532 51.4069C41.4312 51.7592 41.9313 51.951 42.4479 51.9419C42.9646 51.9327 43.4575 51.7234 43.8229 51.3581C44.1883 50.9927 44.3976 50.4997 44.4067 49.9831C44.4158 49.4664 44.224 48.9664 43.8718 48.5884H43.8585Z" fill="#171717"/>
<path d="M51.1033 72.8711C50.7294 73.2446 50.2225 73.4543 49.694 73.4543C49.1655 73.4543 48.6587 73.2446 48.2848 72.8711L47.4272 72.0169C47.6143 72.6118 47.9672 73.141 48.4443 73.5425C48.7228 73.8214 48.9125 74.1766 48.9893 74.5632C49.0661 74.9498 49.0266 75.3505 48.8758 75.7147C48.725 76.0789 48.4697 76.3902 48.142 76.6094C47.8144 76.8285 47.4292 76.9457 47.035 76.946V76.946C46.6408 76.9457 46.2556 76.8285 45.928 76.6094C45.6003 76.3902 45.345 76.0789 45.1942 75.7147C45.0434 75.3505 45.0039 74.9498 45.0807 74.5632C45.1575 74.1766 45.3472 73.8214 45.6257 73.5425C46.1029 73.141 46.4557 72.6118 46.6428 72.0169L45.7853 72.8711C45.5065 73.1502 45.1511 73.3404 44.7642 73.4176C44.3773 73.4947 43.9762 73.4554 43.6116 73.3045C43.2471 73.1536 42.9355 72.898 42.7162 72.57C42.497 72.242 42.38 71.8564 42.38 71.4618C42.38 71.0673 42.497 70.6816 42.7162 70.3536C42.9355 70.0256 43.2471 69.77 43.6116 69.6191C43.9762 69.4683 44.3773 69.4289 44.7642 69.5061C45.1511 69.5832 45.5065 69.7734 45.7853 70.0525L46.7824 71.0497C46.7824 71.0297 46.7824 71.0164 46.7824 70.9965C46.7824 70.1323 46.6627 68.7696 45.7122 67.819V67.4866H48.3712V67.819C47.4272 68.7629 47.2909 70.1157 47.3009 70.9799C47.3009 71.0065 47.3009 71.0264 47.3009 71.0497L48.298 70.0525C48.6761 69.7003 49.1761 69.5085 49.6928 69.5176C50.2094 69.5267 50.7024 69.736 51.0677 70.1014C51.4331 70.4668 51.6424 70.9597 51.6515 71.4764C51.6606 71.993 51.4689 72.4931 51.1166 72.8711H51.1033Z" fill="#171717"/>
</g>
<rect x="0.5" y="0.5" width="79" height="111" rx="4.5" stroke="#DADADA"/>
<defs>
<clipPath id="clip0_276_1148">
<rect width="80" height="112" rx="5" fill="white"/>
</clipPath>
</defs>
</svg>
