<svg width="80" height="112" viewBox="0 0 80 112" fill="none" xmlns="http://www.w3.org/2000/svg">
<g clip-path="url(#clip0_276_986)">
<path d="M75 0H5C2.23858 0 0 2.23858 0 5V107C0 109.761 2.23858 112 5 112H75C77.7614 112 80 109.761 80 107V5C80 2.23858 77.7614 0 75 0Z" fill="white"/>
<path d="M19.9987 19.4037C20.0113 20.4326 19.824 21.454 19.4473 22.4108C19.0978 23.308 18.5708 24.1246 17.8981 24.8113C17.1883 25.5112 16.3378 26.0509 15.4037 26.394C13.2714 27.202 10.9191 27.202 8.78678 26.394C7.77441 25.9908 6.87371 25.3483 6.16103 24.5211C5.40943 23.628 4.85461 22.5852 4.53307 21.4612C4.13635 20.0912 3.95908 18.6666 4.00792 17.2407C3.99445 15.5572 4.25158 13.8826 4.76939 12.2815C5.21413 10.8704 5.91767 9.55522 6.84373 8.40392C7.73154 7.34832 8.83238 6.49417 10.0734 5.89797C11.3796 5.28573 12.8071 4.97908 14.2483 5.00111C15.088 5.00346 15.9248 5.1008 16.7428 5.29127C17.4971 5.47998 18.2217 5.77293 18.8959 6.16176L18.2657 8.00824C17.7578 7.79711 17.23 7.63803 16.6903 7.53343C16.2139 7.44732 15.7299 7.41196 15.2461 7.42792C14.381 7.40527 13.5215 7.57298 12.7277 7.91929C11.9339 8.2656 11.2251 8.78213 10.6511 9.43267C9.41046 10.9321 8.6426 12.7687 8.44543 14.7084C9.07096 14.0424 9.85823 13.5515 10.7298 13.2839C11.6648 12.9472 12.6512 12.7776 13.6444 12.7827C14.5416 12.7733 15.4325 12.9344 16.2702 13.2575C17.0213 13.5737 17.7003 14.0404 18.2657 14.6292C18.8293 15.2253 19.2591 15.936 19.5261 16.7131C19.8556 17.5707 20.0162 18.4845 19.9987 19.4037ZM12.3841 24.9432C12.9005 24.9682 13.4144 24.8572 13.875 24.6212C14.3355 24.3853 14.7267 24.0325 15.0098 23.5979C15.6575 22.5466 15.9776 21.3249 15.9288 20.0895C16.0071 18.8316 15.6345 17.5871 14.8785 16.5812C14.5445 16.1691 14.1183 15.842 13.6346 15.6265C13.151 15.4111 12.6235 15.3134 12.0952 15.3414C11.4467 15.3569 10.8027 15.4543 10.1784 15.6316C9.51713 15.7908 8.8929 16.0774 8.3404 16.4757V17.9793C8.34247 18.9611 8.43033 19.9409 8.60298 20.9073C8.75685 21.6888 9.02215 22.444 9.3907 23.1494C9.69567 23.7157 10.1271 24.2032 10.6511 24.5739C11.1784 24.8698 11.7825 24.9985 12.3841 24.9432Z" fill="#171717"/>
<path d="M60.0135 92.5712C60.0165 91.5438 60.2029 90.5252 60.5638 89.5642C60.912 88.6605 61.448 87.8422 62.1358 87.1639C62.8398 86.4648 63.6778 85.9174 64.5988 85.5549C65.6482 85.1723 66.7579 84.9846 67.8739 85.001C69.0222 84.9891 70.1617 85.2042 71.2277 85.634C72.2341 86.0443 73.1313 86.6856 73.8478 87.5068C74.5884 88.4062 75.1409 89.4469 75.4723 90.5665C75.8515 91.8858 76.0282 93.2556 75.9963 94.6286C76.0182 96.3105 75.7705 97.985 75.2627 99.5874C74.8189 100.999 74.1169 102.314 73.1928 103.465C72.3285 104.576 71.2271 105.478 69.97 106.103C68.6624 106.702 67.2409 107.008 65.804 106.999C64.9223 107.009 64.0425 106.912 63.1839 106.709C62.4312 106.521 61.7081 106.228 61.0354 105.839L61.6642 104.019C62.1704 104.225 62.6976 104.376 63.2363 104.467C63.6926 104.568 64.1579 104.621 64.625 104.625C65.4921 104.648 66.3538 104.481 67.1501 104.135C67.9465 103.789 68.6584 103.272 69.2364 102.621C70.4747 101.124 71.233 99.2848 71.4111 97.3454C70.7998 98.0142 70.0217 98.506 69.1578 98.7697C68.2248 99.1064 67.2405 99.2761 66.2495 99.2709C65.3539 99.283 64.4645 99.1218 63.6293 98.7961C62.8798 98.48 62.2022 98.0133 61.638 97.4245C61.0765 96.8229 60.64 96.1145 60.3542 95.3408C60.0735 94.4463 59.958 93.5076 60.0135 92.5712ZM67.6381 87.032C67.1224 87.0043 66.6086 87.1141 66.1486 87.3503C65.6885 87.5865 65.2985 87.9408 65.018 88.3773C64.3716 89.4284 64.0523 90.6501 64.1009 91.8854C64.066 93.0808 64.4355 94.2527 65.149 95.2089C65.4659 95.6014 65.8652 95.9185 66.3182 96.1374C66.7712 96.3563 67.2667 96.4715 67.7691 96.475C68.4249 96.4601 69.0763 96.3626 69.708 96.1848C70.3587 96.0225 70.9725 95.7359 71.5159 95.3408V93.9428C71.523 92.9617 71.4441 91.982 71.2801 91.0149C71.1266 90.2334 70.8618 89.4783 70.4941 88.7729C70.1898 88.2067 69.7593 87.7192 69.2364 87.3485C68.7496 87.0693 68.1984 86.9237 67.6381 86.9265V87.032Z" fill="#171717"/>
<path d="M13.4084 38.395C13.0051 37.9922 12.4584 37.7659 11.8884 37.7659C11.3185 37.7659 10.7718 37.9922 10.3685 38.395L9.44361 39.3162C9.64543 38.6747 10.0259 38.1039 10.5406 37.6708C10.841 37.37 11.0455 36.9869 11.1284 36.57C11.2112 36.153 11.1686 35.7208 11.006 35.328C10.8433 34.9352 10.5679 34.5995 10.2146 34.3631C9.86121 34.1267 9.44573 34.0004 9.0206 34V34C8.59547 34.0004 8.17999 34.1267 7.82663 34.3631C7.47327 34.5995 7.19788 34.9352 7.03524 35.328C6.8726 35.7208 6.83001 36.153 6.91284 36.57C6.99568 36.9869 7.20023 37.37 7.50065 37.6708C8.01526 38.1039 8.39577 38.6747 8.5976 39.3162L7.67272 38.395C7.37202 38.0939 6.98878 37.8888 6.57148 37.8056C6.15417 37.7223 5.72157 37.7648 5.32839 37.9275C4.93521 38.0902 4.59913 38.3659 4.36267 38.7197C4.12621 39.0734 4 39.4894 4 39.9149C4 40.3404 4.12621 40.7564 4.36267 41.1101C4.59913 41.4639 4.93521 41.7396 5.32839 41.9023C5.72157 42.065 6.15417 42.1075 6.57148 42.0243C6.98878 41.9411 7.37202 41.7359 7.67272 41.4349L8.74816 40.3594C8.74816 40.3809 8.74816 40.3953 8.74816 40.4168C8.74816 41.3488 8.61911 42.8186 7.59386 43.8438V44.2023H10.4617V43.8438C9.44361 42.8258 9.29663 41.3667 9.30739 40.4347C9.30739 40.406 9.30739 40.3845 9.30739 40.3594L10.3828 41.4349C10.7906 41.8148 11.3298 42.0216 11.8871 42.0118C12.4443 42.002 12.9759 41.7762 13.37 41.3822C13.7641 40.9881 13.9898 40.4564 13.9997 39.8992C14.0095 39.342 13.8027 38.8027 13.4227 38.395H13.4084Z" fill="#171717"/>
<path d="M75.4084 73.8074C75.0051 74.2102 74.4584 74.4365 73.8884 74.4365C73.3185 74.4365 72.7718 74.2102 72.3685 73.8074L71.4436 72.8861C71.6454 73.5277 72.0259 74.0985 72.5406 74.5316C72.841 74.8324 73.0455 75.2154 73.1284 75.6324C73.2112 76.0494 73.1686 76.4816 73.006 76.8744C72.8433 77.2672 72.5679 77.6029 72.2146 77.8393C71.8612 78.0757 71.4457 78.202 71.0206 78.2024V78.2024C70.5955 78.202 70.18 78.0757 69.8266 77.8393C69.4733 77.6029 69.1979 77.2672 69.0352 76.8744C68.8726 76.4816 68.83 76.0494 68.9128 75.6324C68.9957 75.2154 69.2002 74.8324 69.5007 74.5316C70.0153 74.0985 70.3958 73.5277 70.5976 72.8861L69.6727 73.8074C69.372 74.1085 68.9888 74.3136 68.5715 74.3968C68.1542 74.48 67.7216 74.4376 67.3284 74.2749C66.9352 74.1122 66.5991 73.8365 66.3627 73.4827C66.1262 73.129 66 72.713 66 72.2875C66 71.862 66.1262 71.446 66.3627 71.0922C66.5991 70.7385 66.9352 70.4628 67.3284 70.3001C67.7216 70.1374 68.1542 70.0949 68.5715 70.1781C68.9888 70.2613 69.372 70.4665 69.6727 70.7675L70.7482 71.843C70.7482 71.8215 70.7482 71.8071 70.7482 71.7856C70.7482 70.8536 70.6191 69.3838 69.5939 68.3586V68.0001H72.4617V68.3586C71.4436 69.3766 71.2966 70.8356 71.3074 71.7677C71.3074 71.7964 71.3074 71.8179 71.3074 71.843L72.3828 70.7675C72.7906 70.3876 73.3298 70.1808 73.8871 70.1906C74.4443 70.2004 74.9759 70.4262 75.37 70.8202C75.7641 71.2143 75.9898 71.746 75.9997 72.3032C76.0095 72.8604 75.8027 73.3997 75.4227 73.8074H75.4084Z" fill="#171717"/>
<rect opacity="0.5" x="25.25" y="31.25" width="29.2297" height="49.5" stroke="#171717" stroke-width="0.5"/>
<path d="M37.1017 41.8318C36.7278 41.4583 36.2209 41.2486 35.6924 41.2486C35.164 41.2486 34.6571 41.4583 34.2832 41.8318L33.4256 42.686C33.6128 42.0911 33.9656 41.5619 34.4427 41.1604C34.7213 40.8815 34.9109 40.5263 34.9877 40.1397C35.0645 39.7531 35.025 39.3524 34.8742 38.9882C34.7234 38.624 34.4681 38.3126 34.1405 38.0935C33.8128 37.8743 33.4276 37.7572 33.0334 37.7568V37.7568C32.6393 37.7572 32.254 37.8743 31.9264 38.0935C31.5988 38.3126 31.3434 38.624 31.1926 38.9882C31.0418 39.3524 31.0023 39.7531 31.0791 40.1397C31.1559 40.5263 31.3456 40.8815 31.6241 41.1604C32.1013 41.5619 32.4541 42.0911 32.6412 42.686L31.7837 41.8318C31.5049 41.5526 31.1495 41.3624 30.7626 41.2853C30.3757 41.2081 29.9746 41.2475 29.6101 41.3984C29.2455 41.5492 28.9339 41.8048 28.7147 42.1329C28.4954 42.4609 28.3784 42.8465 28.3784 43.2411C28.3784 43.6356 28.4954 44.0213 28.7147 44.3493C28.9339 44.6773 29.2455 44.9329 29.6101 45.0838C29.9746 45.2346 30.3757 45.274 30.7626 45.1968C31.1495 45.1197 31.5049 44.9295 31.7837 44.6503L32.7808 43.6532C32.7808 43.6732 32.7808 43.6864 32.7808 43.7064C32.7808 44.5706 32.6612 45.9333 31.7106 46.8839V47.2163H34.3696V46.8839C33.4256 45.94 33.2894 44.5872 33.2993 43.723C33.2993 43.6964 33.2993 43.6765 33.2993 43.6532L34.2965 44.6503C34.6745 45.0026 35.1745 45.1944 35.6912 45.1853C36.2078 45.1762 36.7008 44.9669 37.0662 44.6015C37.4315 44.2361 37.6408 43.7431 37.6499 43.2265C37.6591 42.7098 37.4673 42.2098 37.115 41.8318H37.1017Z" fill="#171717"/>
<path d="M37.1017 55.3452C36.7278 54.9717 36.2209 54.762 35.6924 54.762C35.164 54.762 34.6571 54.9717 34.2832 55.3452L33.4256 56.1994C33.6128 55.6045 33.9656 55.0753 34.4427 54.6738C34.7213 54.3949 34.9109 54.0397 34.9877 53.6531C35.0645 53.2665 35.025 52.8658 34.8742 52.5016C34.7234 52.1374 34.4681 51.8261 34.1405 51.6069C33.8128 51.3878 33.4276 51.2706 33.0334 51.2703V51.2703C32.6393 51.2706 32.254 51.3878 31.9264 51.6069C31.5988 51.8261 31.3434 52.1374 31.1926 52.5016C31.0418 52.8658 31.0023 53.2665 31.0791 53.6531C31.1559 54.0397 31.3456 54.3949 31.6241 54.6738C32.1013 55.0753 32.4541 55.6045 32.6412 56.1994L31.7837 55.3452C31.5049 55.0661 31.1495 54.8759 30.7626 54.7987C30.3757 54.7216 29.9746 54.7609 29.6101 54.9118C29.2455 55.0627 28.9339 55.3183 28.7147 55.6463C28.4954 55.9743 28.3784 56.36 28.3784 56.7545C28.3784 57.149 28.4954 57.5347 28.7147 57.8627C28.9339 58.1907 29.2455 58.4463 29.6101 58.5972C29.9746 58.7481 30.3757 58.7874 30.7626 58.7103C31.1495 58.6331 31.5049 58.4429 31.7837 58.1638L32.7808 57.1666C32.7808 57.1866 32.7808 57.1999 32.7808 57.2198C32.7808 58.084 32.6612 59.4467 31.7106 60.3973V60.7297H34.3696V60.3973C33.4256 59.4534 33.2894 58.1006 33.2993 57.2364C33.2993 57.2098 33.2993 57.1899 33.2993 57.1666L34.2965 58.1638C34.6745 58.516 35.1745 58.7078 35.6912 58.6987C36.2078 58.6896 36.7008 58.4803 37.0662 58.1149C37.4315 57.7495 37.6408 57.2566 37.6499 56.7399C37.6591 56.2233 37.4673 55.7233 37.115 55.3452H37.1017Z" fill="#171717"/>
<path d="M37.1017 70.1682C36.7278 70.5417 36.2209 70.7514 35.6924 70.7514C35.164 70.7514 34.6571 70.5417 34.2832 70.1682L33.4256 69.314C33.6128 69.9089 33.9656 70.4381 34.4427 70.8396C34.7213 71.1185 34.9109 71.4737 34.9877 71.8603C35.0645 72.2469 35.025 72.6476 34.8742 73.0118C34.7234 73.376 34.4681 73.6874 34.1405 73.9065C33.8128 74.1257 33.4276 74.2428 33.0334 74.2432V74.2432C32.6393 74.2428 32.254 74.1257 31.9264 73.9065C31.5988 73.6874 31.3434 73.376 31.1926 73.0118C31.0418 72.6476 31.0023 72.2469 31.0791 71.8603C31.1559 71.4737 31.3456 71.1185 31.6241 70.8396C32.1013 70.4381 32.4541 69.9089 32.6412 69.314L31.7837 70.1682C31.5049 70.4474 31.1495 70.6376 30.7626 70.7147C30.3757 70.7919 29.9746 70.7525 29.6101 70.6016C29.2455 70.4508 28.9339 70.1952 28.7147 69.8671C28.4954 69.5391 28.3784 69.1535 28.3784 68.7589C28.3784 68.3644 28.4954 67.9787 28.7147 67.6507C28.9339 67.3227 29.2455 67.0671 29.6101 66.9162C29.9746 66.7654 30.3757 66.726 30.7626 66.8032C31.1495 66.8803 31.5049 67.0705 31.7837 67.3497L32.7808 68.3468C32.7808 68.3268 32.7808 68.3136 32.7808 68.2936C32.7808 67.4294 32.6612 66.0667 31.7106 65.1161V64.7837H34.3696V65.1161C33.4256 66.06 33.2894 67.4128 33.2993 68.277C33.2993 68.3036 33.2993 68.3235 33.2993 68.3468L34.2965 67.3497C34.6745 66.9974 35.1745 66.8056 35.6912 66.8147C36.2078 66.8238 36.7008 67.0331 37.0662 67.3985C37.4315 67.7639 37.6408 68.2569 37.6499 68.7735C37.6591 69.2902 37.4673 69.7902 37.115 70.1682H37.1017Z" fill="#171717"/>
<path d="M50.6152 41.8318C50.2413 41.4583 49.7344 41.2486 49.206 41.2486C48.6775 41.2486 48.1706 41.4583 47.7967 41.8318L46.9391 42.686C47.1263 42.0911 47.4791 41.5619 47.9562 41.1604C48.2348 40.8815 48.4244 40.5263 48.5012 40.1397C48.578 39.7531 48.5385 39.3524 48.3877 38.9882C48.237 38.624 47.9816 38.3126 47.654 38.0935C47.3263 37.8743 46.9411 37.7572 46.5469 37.7568V37.7568C46.1528 37.7572 45.7675 37.8743 45.4399 38.0935C45.1123 38.3126 44.8569 38.624 44.7061 38.9882C44.5553 39.3524 44.5159 39.7531 44.5927 40.1397C44.6695 40.5263 44.8591 40.8815 45.1377 41.1604C45.6148 41.5619 45.9676 42.0911 46.1547 42.686L45.2972 41.8318C45.0184 41.5526 44.6631 41.3624 44.2761 41.2853C43.8892 41.2081 43.4881 41.2475 43.1236 41.3984C42.759 41.5492 42.4474 41.8048 42.2282 42.1329C42.0089 42.4609 41.8919 42.8465 41.8919 43.2411C41.8919 43.6356 42.0089 44.0213 42.2282 44.3493C42.4474 44.6773 42.759 44.9329 43.1236 45.0838C43.4881 45.2346 43.8892 45.274 44.2761 45.1968C44.6631 45.1197 45.0184 44.9295 45.2972 44.6503L46.2943 43.6532C46.2943 43.6732 46.2943 43.6864 46.2943 43.7064C46.2943 44.5706 46.1747 45.9333 45.2241 46.8839V47.2163H47.8831V46.8839C46.9391 45.94 46.8029 44.5872 46.8128 43.723C46.8128 43.6964 46.8128 43.6765 46.8128 43.6532L47.81 44.6503C48.188 45.0026 48.688 45.1944 49.2047 45.1853C49.7213 45.1762 50.2143 44.9669 50.5797 44.6015C50.9451 44.2361 51.1544 43.7431 51.1635 43.2265C51.1726 42.7098 50.9808 42.2098 50.6285 41.8318H50.6152Z" fill="#171717"/>
<path d="M50.6152 55.3452C50.2413 54.9717 49.7344 54.762 49.206 54.762C48.6775 54.762 48.1706 54.9717 47.7967 55.3452L46.9391 56.1994C47.1263 55.6045 47.4791 55.0753 47.9562 54.6738C48.2348 54.3949 48.4244 54.0397 48.5012 53.6531C48.578 53.2665 48.5385 52.8658 48.3877 52.5016C48.237 52.1374 47.9816 51.8261 47.654 51.6069C47.3263 51.3878 46.9411 51.2706 46.5469 51.2703V51.2703C46.1528 51.2706 45.7675 51.3878 45.4399 51.6069C45.1123 51.8261 44.8569 52.1374 44.7061 52.5016C44.5553 52.8658 44.5159 53.2665 44.5927 53.6531C44.6695 54.0397 44.8591 54.3949 45.1377 54.6738C45.6148 55.0753 45.9676 55.6045 46.1547 56.1994L45.2972 55.3452C45.0184 55.0661 44.6631 54.8759 44.2761 54.7987C43.8892 54.7216 43.4881 54.7609 43.1236 54.9118C42.759 55.0627 42.4474 55.3183 42.2282 55.6463C42.0089 55.9743 41.8919 56.36 41.8919 56.7545C41.8919 57.149 42.0089 57.5347 42.2282 57.8627C42.4474 58.1907 42.759 58.4463 43.1236 58.5972C43.4881 58.7481 43.8892 58.7874 44.2761 58.7103C44.6631 58.6331 45.0184 58.4429 45.2972 58.1638L46.2943 57.1666C46.2943 57.1866 46.2943 57.1999 46.2943 57.2198C46.2943 58.084 46.1747 59.4467 45.2241 60.3973V60.7297H47.8831V60.3973C46.9391 59.4534 46.8029 58.1006 46.8128 57.2364C46.8128 57.2098 46.8128 57.1899 46.8128 57.1666L47.81 58.1638C48.188 58.516 48.688 58.7078 49.2047 58.6987C49.7213 58.6896 50.2143 58.4803 50.5797 58.1149C50.9451 57.7495 51.1544 57.2566 51.1635 56.7399C51.1726 56.2233 50.9808 55.7233 50.6285 55.3452H50.6152Z" fill="#171717"/>
<path d="M50.6152 70.1682C50.2413 70.5417 49.7344 70.7514 49.206 70.7514C48.6775 70.7514 48.1706 70.5417 47.7967 70.1682L46.9391 69.314C47.1263 69.9089 47.4791 70.4381 47.9562 70.8396C48.2348 71.1185 48.4244 71.4737 48.5012 71.8603C48.578 72.2469 48.5385 72.6476 48.3877 73.0118C48.237 73.376 47.9816 73.6874 47.654 73.9065C47.3263 74.1257 46.9411 74.2428 46.5469 74.2432V74.2432C46.1528 74.2428 45.7675 74.1257 45.4399 73.9065C45.1123 73.6874 44.8569 73.376 44.7061 73.0118C44.5553 72.6476 44.5159 72.2469 44.5927 71.8603C44.6695 71.4737 44.8591 71.1185 45.1377 70.8396C45.6148 70.4381 45.9676 69.9089 46.1547 69.314L45.2972 70.1682C45.0184 70.4474 44.6631 70.6376 44.2761 70.7147C43.8892 70.7919 43.4881 70.7525 43.1236 70.6016C42.759 70.4508 42.4474 70.1952 42.2282 69.8671C42.0089 69.5391 41.8919 69.1535 41.8919 68.7589C41.8919 68.3644 42.0089 67.9787 42.2282 67.6507C42.4474 67.3227 42.759 67.0671 43.1236 66.9162C43.4881 66.7654 43.8892 66.726 44.2761 66.8032C44.6631 66.8803 45.0184 67.0705 45.2972 67.3497L46.2943 68.3468C46.2943 68.3268 46.2943 68.3136 46.2943 68.2936C46.2943 67.4294 46.1747 66.0667 45.2241 65.1161V64.7837H47.8831V65.1161C46.9391 66.06 46.8029 67.4128 46.8128 68.277C46.8128 68.3036 46.8128 68.3235 46.8128 68.3468L47.81 67.3497C48.188 66.9974 48.688 66.8056 49.2047 66.8147C49.7213 66.8238 50.2143 67.0331 50.5797 67.3985C50.9451 67.7639 51.1544 68.2569 51.1635 68.7735C51.1726 69.2902 50.9808 69.7902 50.6285 70.1682H50.6152Z" fill="#171717"/>
</g>
<rect x="0.5" y="0.5" width="79" height="111" rx="4.5" stroke="#DADADA"/>
<defs>
<clipPath id="clip0_276_986">
<rect width="80" height="112" rx="5" fill="white"/>
</clipPath>
</defs>
</svg>
