<svg width="80" height="112" viewBox="0 0 80 112" fill="none" xmlns="http://www.w3.org/2000/svg">
<g clip-path="url(#clip0_276_1725)">
<path d="M75 0H5C2.23858 0 0 2.23858 0 5V107C0 109.761 2.23858 112 5 112H75C77.7614 112 80 109.761 80 107V5C80 2.23858 77.7614 0 75 0Z" fill="white"/>
<path d="M8.50959 5.54406V25.1304C8.50159 25.3716 8.55064 25.6083 8.64605 25.789C8.74523 25.9647 8.87808 26.0762 9.02132 26.104L11.0341 26.6481V28.5666H3.10235V26.6481L5.40511 26.104C5.55727 26.0701 5.69986 25.9604 5.8145 25.789C5.87147 25.7091 5.91655 25.6079 5.94617 25.4936C5.97578 25.3792 5.9891 25.2549 5.98507 25.1304V9.69614L5.42217 9.95386L4.6887 10.2402L3.92111 10.4693H3.23881L3 8.4362C3.38309 8.27968 3.75926 8.07875 4.1258 7.83487C4.51812 7.60579 4.89339 7.31943 5.26865 7.03308C5.64392 6.74673 5.98507 6.40312 6.30916 6.0595C6.60822 5.74111 6.89325 5.38703 7.16204 5L8.50959 5.54406Z" fill="#171717"/>
<path d="M17.9424 28.9961C17.0781 29.0395 16.2212 28.7143 15.452 28.0512C14.763 27.4866 14.1747 26.6273 13.7463 25.5599C13.3319 24.4115 13.0377 23.1525 12.8763 21.8374C12.7019 20.3472 12.6162 18.8317 12.6205 17.3131C12.6069 15.5066 12.7389 13.7054 13.0128 11.9583C13.2409 10.5893 13.6231 9.30629 14.1386 8.17849C14.5933 7.20985 15.1777 6.43484 15.8443 5.91632C16.5686 5.41208 17.346 5.15883 18.13 5.17181C18.9923 5.13053 19.8475 5.44517 20.6204 6.08813C21.2734 6.67393 21.8255 7.53184 22.2239 8.57938C22.6527 9.71565 22.948 10.9792 23.0938 12.3019C23.3438 13.779 23.5039 15.2949 23.5714 16.8263C23.5622 18.6211 23.4014 20.4047 23.0938 22.1237C22.8799 23.5019 22.4964 24.7895 21.968 25.9036C21.5146 26.8745 20.9299 27.65 20.2622 28.1657C19.5311 28.7071 18.7415 28.9898 17.9424 28.9961ZM17.9424 7.34807C17.5305 7.334 17.1269 7.54388 16.7918 7.94641C16.4567 8.34893 16.2081 8.92251 16.0831 9.5816C15.6831 11.7873 15.5213 14.0954 15.6055 16.3967C15.5545 18.9865 15.7386 21.5741 16.1514 24.0709C16.2355 24.8724 16.485 25.5986 16.8562 26.1222C17.2273 26.6458 17.6964 26.9333 18.1812 26.9344C18.5953 26.9466 19.0006 26.7326 19.3359 26.3246C19.6712 25.9166 19.9185 25.3367 20.0405 24.6723C20.4807 22.4798 20.6717 20.168 20.6034 17.8571C20.6602 15.2745 20.4701 12.6933 20.0405 10.2116C19.9628 9.40505 19.7151 8.67221 19.3425 8.1466C18.97 7.62099 18.4973 7.3376 18.0106 7.34807H17.9424Z" fill="#171717"/>
<path d="M71.4612 106.455V86.8479C71.4716 86.6019 71.4292 86.3579 71.3419 86.1599C71.23 86.0038 71.0941 85.9044 70.9499 85.8732L68.9559 85.3286V83.408H76.8807V85.3286L74.58 85.8732C74.428 85.9072 74.2855 86.017 74.171 86.1886C74.119 86.2738 74.0785 86.3768 74.052 86.4904C74.0256 86.6041 74.0138 86.7259 74.0176 86.8479V102.299L74.58 102.041L75.2958 101.754L76.0797 101.525H76.7614L77 103.56C76.611 103.712 76.2293 103.914 75.8582 104.162C75.4832 104.391 75.0912 104.678 74.7333 104.965C74.3774 105.26 74.0304 105.586 73.6938 105.939C73.3699 106.312 73.0802 106.656 72.8246 107L71.4612 106.455Z" fill="#171717"/>
<path d="M62.0367 83.0066C62.9046 82.9495 63.7668 83.2652 64.542 83.9239C65.1943 84.5104 65.746 85.3692 66.1439 86.4179C66.5724 87.5554 66.8675 88.8203 67.0131 90.1444C67.1874 91.6362 67.273 93.1534 67.2688 94.6737C67.2924 96.483 67.1603 98.2885 66.8768 100.034C66.6631 101.414 66.2799 102.703 65.752 103.818C65.299 104.79 64.7148 105.566 64.0477 106.083C63.3237 106.585 62.5472 106.839 61.764 106.828C60.9023 106.873 60.0474 106.558 59.2758 105.911C58.6186 105.325 58.0613 104.467 57.6568 103.417C57.2283 102.279 56.9333 101.014 56.7876 99.6902C56.5781 98.2046 56.4582 96.6871 56.4297 95.161C56.4146 93.343 56.5465 91.53 56.8217 89.7718C57.0497 88.4013 57.4315 87.1169 57.9465 85.9879C58.3971 85.0119 58.982 84.2347 59.6508 83.7233C60.4064 83.1999 61.2201 82.9555 62.0367 83.0066ZM62.0367 104.649C62.4489 104.668 62.8535 104.46 63.1888 104.056C63.5242 103.653 63.7719 103.076 63.8943 102.413C64.333 100.218 64.5238 97.9042 64.4567 95.591C64.5121 92.9962 64.3223 90.4032 63.8943 87.9085C63.7958 87.13 63.5398 86.4331 63.17 85.9365C62.8002 85.4399 62.3394 85.1744 61.8663 85.1853C61.4541 85.1698 61.0505 85.3833 60.7177 85.7927C60.385 86.2021 60.1418 86.7845 60.0257 87.4499C59.5711 89.6011 59.3573 91.8754 59.3951 94.1577C59.3427 96.7409 59.5267 99.3223 59.9405 101.811C60.025 102.611 60.2749 103.335 60.6461 103.854C61.0173 104.373 61.4857 104.655 61.9685 104.649H62.0367Z" fill="#171717"/>
<path d="M13.4084 38.395C13.0051 37.9922 12.4584 37.7659 11.8884 37.7659C11.3185 37.7659 10.7718 37.9922 10.3685 38.395L9.44361 39.3162C9.64543 38.6747 10.0259 38.1039 10.5406 37.6708C10.841 37.37 11.0455 36.9869 11.1284 36.57C11.2112 36.153 11.1686 35.7208 11.006 35.328C10.8433 34.9352 10.5679 34.5995 10.2146 34.3631C9.86121 34.1267 9.44573 34.0004 9.0206 34V34C8.59547 34.0004 8.17999 34.1267 7.82663 34.3631C7.47327 34.5995 7.19788 34.9352 7.03524 35.328C6.8726 35.7208 6.83001 36.153 6.91284 36.57C6.99568 36.9869 7.20023 37.37 7.50065 37.6708C8.01526 38.1039 8.39577 38.6747 8.5976 39.3162L7.67272 38.395C7.37202 38.0939 6.98878 37.8888 6.57148 37.8056C6.15417 37.7223 5.72157 37.7648 5.32839 37.9275C4.93521 38.0902 4.59913 38.3659 4.36267 38.7197C4.12621 39.0734 4 39.4894 4 39.9149C4 40.3404 4.12621 40.7564 4.36267 41.1101C4.59913 41.4639 4.93521 41.7396 5.32839 41.9023C5.72157 42.065 6.15417 42.1075 6.57148 42.0243C6.98878 41.9411 7.37202 41.7359 7.67272 41.4349L8.74816 40.3594C8.74816 40.3809 8.74816 40.3953 8.74816 40.4168C8.74816 41.3488 8.61911 42.8186 7.59386 43.8438V44.2023H10.4617V43.8438C9.44361 42.8258 9.29663 41.3667 9.30739 40.4347C9.30739 40.406 9.30739 40.3845 9.30739 40.3594L10.3828 41.4349C10.7906 41.8148 11.3298 42.0216 11.8871 42.0118C12.4443 42.002 12.9759 41.7762 13.37 41.3822C13.7641 40.9881 13.9898 40.4564 13.9997 39.8992C14.0095 39.342 13.8027 38.8027 13.4227 38.395H13.4084Z" fill="#171717"/>
<path d="M75.4084 73.8074C75.0051 74.2102 74.4584 74.4365 73.8884 74.4365C73.3185 74.4365 72.7718 74.2102 72.3685 73.8074L71.4436 72.8861C71.6454 73.5277 72.0259 74.0985 72.5406 74.5316C72.841 74.8324 73.0455 75.2154 73.1284 75.6324C73.2112 76.0494 73.1686 76.4816 73.006 76.8744C72.8433 77.2672 72.5679 77.6029 72.2146 77.8393C71.8612 78.0757 71.4457 78.202 71.0206 78.2024V78.2024C70.5955 78.202 70.18 78.0757 69.8266 77.8393C69.4733 77.6029 69.1979 77.2672 69.0352 76.8744C68.8726 76.4816 68.83 76.0494 68.9128 75.6324C68.9957 75.2154 69.2002 74.8324 69.5007 74.5316C70.0153 74.0985 70.3958 73.5277 70.5976 72.8861L69.6727 73.8074C69.372 74.1085 68.9888 74.3136 68.5715 74.3968C68.1542 74.48 67.7216 74.4376 67.3284 74.2749C66.9352 74.1122 66.5991 73.8365 66.3627 73.4827C66.1262 73.129 66 72.713 66 72.2875C66 71.862 66.1262 71.446 66.3627 71.0922C66.5991 70.7385 66.9352 70.4628 67.3284 70.3001C67.7216 70.1374 68.1542 70.0949 68.5715 70.1781C68.9888 70.2613 69.372 70.4665 69.6727 70.7675L70.7482 71.843C70.7482 71.8215 70.7482 71.8071 70.7482 71.7856C70.7482 70.8536 70.6191 69.3838 69.5939 68.3586V68.0001H72.4617V68.3586C71.4436 69.3766 71.2966 70.8356 71.3074 71.7677C71.3074 71.7964 71.3074 71.8179 71.3074 71.843L72.3828 70.7675C72.7906 70.3876 73.3298 70.1808 73.8871 70.1906C74.4443 70.2004 74.9759 70.4262 75.37 70.8202C75.7641 71.2143 75.9898 71.746 75.9997 72.3032C76.0095 72.8604 75.8027 73.3997 75.4227 73.8074H75.4084Z" fill="#171717"/>
<rect opacity="0.5" x="25.25" y="31.25" width="29.2297" height="49.5" stroke="#171717" stroke-width="0.5"/>
<path d="M36.0468 36.9692C35.747 36.6698 35.3407 36.5016 34.9171 36.5016C34.4934 36.5016 34.0871 36.6698 33.7874 36.9692L33.1 37.6539C33.25 37.177 33.5328 36.7528 33.9153 36.431C34.1386 36.2074 34.2906 35.9227 34.3522 35.6127C34.4137 35.3028 34.3821 34.9816 34.2612 34.6897C34.1403 34.3977 33.9356 34.1482 33.673 33.9725C33.4104 33.7968 33.1015 33.7029 32.7856 33.7026V33.7026C32.4696 33.7029 32.1608 33.7968 31.8982 33.9725C31.6355 34.1482 31.4308 34.3977 31.31 34.6897C31.1891 34.9816 31.1574 35.3028 31.219 35.6127C31.2806 35.9227 31.4326 36.2074 31.6559 36.431C32.0384 36.7528 32.3212 37.177 32.4712 37.6539L31.7838 36.9692C31.5603 36.7454 31.2754 36.5929 30.9653 36.5311C30.6551 36.4692 30.3336 36.5008 30.0414 36.6217C29.7491 36.7427 29.4993 36.9476 29.3236 37.2105C29.1479 37.4734 29.054 37.7826 29.054 38.0989C29.054 38.4151 29.1479 38.7243 29.3236 38.9872C29.4993 39.2501 29.7491 39.455 30.0414 39.576C30.3336 39.6969 30.6551 39.7285 30.9653 39.6666C31.2754 39.6048 31.5603 39.4523 31.7838 39.2285L32.5831 38.4292C32.5831 38.4452 32.5831 38.4559 32.5831 38.4719C32.5831 39.1646 32.4872 40.257 31.7252 41.019V41.2854H33.8567V41.019C33.1 40.2623 32.9907 39.1779 32.9987 38.4852C32.9987 38.4639 32.9987 38.4479 32.9987 38.4292L33.798 39.2285C34.1011 39.5109 34.5019 39.6647 34.9161 39.6574C35.3302 39.65 35.7254 39.4823 36.0183 39.1894C36.3111 38.8965 36.4789 38.5013 36.4862 38.0872C36.4935 37.673 36.3398 37.2722 36.0574 36.9692H36.0468Z" fill="#171717"/>
<path d="M50.9116 36.9692C50.6119 36.6698 50.2056 36.5016 49.7819 36.5016C49.3583 36.5016 48.952 36.6698 48.6522 36.9692L47.9648 37.6539C48.1148 37.177 48.3977 36.7528 48.7801 36.431C49.0034 36.2074 49.1555 35.9227 49.217 35.6127C49.2786 35.3028 49.2469 34.9816 49.1261 34.6897C49.0052 34.3977 48.8005 34.1482 48.5379 33.9725C48.2752 33.7968 47.9664 33.7029 47.6504 33.7026V33.7026C47.3345 33.7029 47.0257 33.7968 46.763 33.9725C46.5004 34.1482 46.2957 34.3977 46.1748 34.6897C46.054 34.9816 46.0223 35.3028 46.0839 35.6127C46.1454 35.9227 46.2975 36.2074 46.5207 36.431C46.9032 36.7528 47.186 37.177 47.336 37.6539L46.6486 36.9692C46.4251 36.7454 46.1403 36.5929 45.8301 36.5311C45.52 36.4692 45.1985 36.5008 44.9062 36.6217C44.614 36.7427 44.3642 36.9476 44.1885 37.2105C44.0127 37.4734 43.9189 37.7826 43.9189 38.0989C43.9189 38.4151 44.0127 38.7243 44.1885 38.9872C44.3642 39.2501 44.614 39.455 44.9062 39.576C45.1985 39.6969 45.52 39.7285 45.8301 39.6666C46.1403 39.6048 46.4251 39.4523 46.6486 39.2285L47.448 38.4292C47.448 38.4452 47.448 38.4559 47.448 38.4719C47.448 39.1646 47.352 40.257 46.59 41.019V41.2854H48.7215V41.019C47.9648 40.2623 47.8556 39.1779 47.8636 38.4852C47.8636 38.4639 47.8636 38.4479 47.8636 38.4292L48.6629 39.2285C48.966 39.5109 49.3668 39.6647 49.7809 39.6574C50.1951 39.65 50.5902 39.4823 50.8831 39.1894C51.176 38.8965 51.3438 38.5013 51.3511 38.0872C51.3584 37.673 51.2047 37.2722 50.9223 36.9692H50.9116Z" fill="#171717"/>
<path d="M36.0468 62.6439C35.747 62.9432 35.3407 63.1114 34.9171 63.1114C34.4934 63.1114 34.0871 62.9432 33.7874 62.6439L33.1 61.9591C33.25 62.436 33.5328 62.8602 33.9153 63.1821C34.1386 63.4056 34.2906 63.6904 34.3522 64.0003C34.4137 64.3102 34.3821 64.6314 34.2612 64.9234C34.1403 65.2153 33.9356 65.4649 33.673 65.6405C33.4104 65.8162 33.1015 65.9101 32.7856 65.9104V65.9104C32.4696 65.9101 32.1608 65.8162 31.8982 65.6405C31.6355 65.4649 31.4308 65.2153 31.31 64.9234C31.1891 64.6314 31.1574 64.3102 31.219 64.0003C31.2806 63.6904 31.4326 63.4056 31.6559 63.1821C32.0384 62.8602 32.3212 62.436 32.4712 61.9591L31.7838 62.6439C31.5603 62.8676 31.2754 63.0201 30.9653 63.0819C30.6551 63.1438 30.3336 63.1122 30.0414 62.9913C29.7491 62.8704 29.4993 62.6655 29.3236 62.4025C29.1479 62.1396 29.054 61.8304 29.054 61.5142C29.054 61.1979 29.1479 60.8888 29.3236 60.6258C29.4993 60.3629 29.7491 60.158 30.0414 60.0371C30.3336 59.9161 30.6551 59.8846 30.9653 59.9464C31.2754 60.0083 31.5603 60.1607 31.7838 60.3845L32.5831 61.1838C32.5831 61.1678 32.5831 61.1572 32.5831 61.1412C32.5831 60.4484 32.4872 59.356 31.7252 58.594V58.3276H33.8567V58.594C33.1 59.3507 32.9907 60.4351 32.9987 61.1279C32.9987 61.1492 32.9987 61.1652 32.9987 61.1838L33.798 60.3845C34.1011 60.1021 34.5019 59.9484 34.9161 59.9557C35.3302 59.963 35.7254 60.1308 36.0183 60.4237C36.3111 60.7166 36.4789 61.1117 36.4862 61.5259C36.4935 61.94 36.3398 62.3408 36.0574 62.6439H36.0468Z" fill="#171717"/>
<path d="M50.9116 62.6439C50.6119 62.9432 50.2056 63.1114 49.7819 63.1114C49.3583 63.1114 48.952 62.9432 48.6522 62.6439L47.9648 61.9591C48.1148 62.436 48.3977 62.8602 48.7801 63.1821C49.0034 63.4056 49.1555 63.6904 49.217 64.0003C49.2786 64.3102 49.2469 64.6314 49.1261 64.9234C49.0052 65.2153 48.8005 65.4649 48.5379 65.6405C48.2752 65.8162 47.9664 65.9101 47.6504 65.9104V65.9104C47.3345 65.9101 47.0257 65.8162 46.763 65.6405C46.5004 65.4649 46.2957 65.2153 46.1748 64.9234C46.054 64.6314 46.0223 64.3102 46.0839 64.0003C46.1454 63.6904 46.2975 63.4056 46.5207 63.1821C46.9032 62.8602 47.186 62.436 47.336 61.9591L46.6486 62.6439C46.4251 62.8676 46.1403 63.0201 45.8301 63.0819C45.52 63.1438 45.1985 63.1122 44.9062 62.9913C44.614 62.8704 44.3642 62.6655 44.1885 62.4025C44.0127 62.1396 43.9189 61.8304 43.9189 61.5142C43.9189 61.1979 44.0127 60.8888 44.1885 60.6258C44.3642 60.3629 44.614 60.158 44.9062 60.0371C45.1985 59.9161 45.52 59.8846 45.8301 59.9464C46.1403 60.0083 46.4251 60.1607 46.6486 60.3845L47.448 61.1838C47.448 61.1678 47.448 61.1572 47.448 61.1412C47.448 60.4484 47.352 59.356 46.59 58.594V58.3276H48.7215V58.594C47.9648 59.3507 47.8556 60.4351 47.8636 61.1279C47.8636 61.1492 47.8636 61.1652 47.8636 61.1838L48.6629 60.3845C48.966 60.1021 49.3668 59.9484 49.7809 59.9557C50.1951 59.963 50.5902 60.1308 50.8831 60.4237C51.176 60.7166 51.3438 61.1117 51.3511 61.5259C51.3584 61.94 51.2047 62.3408 50.9223 62.6439H50.9116Z" fill="#171717"/>
<path d="M36.0468 74.9566C35.747 75.256 35.3407 75.4241 34.9171 75.4241C34.4934 75.4241 34.0871 75.256 33.7874 74.9566L33.1 74.2719C33.25 74.7487 33.5328 75.173 33.9153 75.4948C34.1386 75.7184 34.2906 76.0031 34.3522 76.313C34.4137 76.6229 34.3821 76.9442 34.2612 77.2361C34.1403 77.528 33.9356 77.7776 33.673 77.9533C33.4104 78.129 33.1015 78.2229 32.7856 78.2231V78.2231C32.4696 78.2229 32.1608 78.129 31.8982 77.9533C31.6355 77.7776 31.4308 77.528 31.31 77.2361C31.1891 76.9442 31.1574 76.6229 31.219 76.313C31.2806 76.0031 31.4326 75.7184 31.6559 75.4948C32.0384 75.173 32.3212 74.7487 32.4712 74.2719L31.7838 74.9566C31.5603 75.1804 31.2754 75.3328 30.9653 75.3947C30.6551 75.4565 30.3336 75.425 30.0414 75.3041C29.7491 75.1831 29.4993 74.9782 29.3236 74.7153C29.1479 74.4523 29.054 74.1432 29.054 73.8269C29.054 73.5107 29.1479 73.2015 29.3236 72.9386C29.4993 72.6756 29.7491 72.4707 30.0414 72.3498C30.3336 72.2289 30.6551 72.1973 30.9653 72.2592C31.2754 72.321 31.5603 72.4735 31.7838 72.6972L32.5831 73.4965C32.5831 73.4806 32.5831 73.4699 32.5831 73.4539C32.5831 72.7612 32.4872 71.6688 31.7252 70.9068V70.6403H33.8567V70.9068C33.1 71.6635 32.9907 72.7479 32.9987 73.4406C32.9987 73.4619 32.9987 73.4779 32.9987 73.4965L33.798 72.6972C34.1011 72.4149 34.5019 72.2611 34.9161 72.2684C35.3302 72.2757 35.7254 72.4435 36.0183 72.7364C36.3111 73.0293 36.4789 73.4245 36.4862 73.8386C36.4935 74.2528 36.3398 74.6536 36.0574 74.9566H36.0468Z" fill="#171717"/>
<path d="M50.9116 74.9566C50.6119 75.256 50.2056 75.4241 49.7819 75.4241C49.3583 75.4241 48.952 75.256 48.6522 74.9566L47.9648 74.2719C48.1148 74.7487 48.3977 75.173 48.7801 75.4948C49.0034 75.7184 49.1555 76.0031 49.217 76.313C49.2786 76.6229 49.2469 76.9442 49.1261 77.2361C49.0052 77.528 48.8005 77.7776 48.5379 77.9533C48.2752 78.129 47.9664 78.2229 47.6504 78.2231V78.2231C47.3345 78.2229 47.0257 78.129 46.763 77.9533C46.5004 77.7776 46.2957 77.528 46.1748 77.2361C46.054 76.9442 46.0223 76.6229 46.0839 76.313C46.1454 76.0031 46.2975 75.7184 46.5207 75.4948C46.9032 75.173 47.186 74.7487 47.336 74.2719L46.6486 74.9566C46.4251 75.1804 46.1403 75.3328 45.8301 75.3947C45.52 75.4565 45.1985 75.425 44.9062 75.3041C44.614 75.1831 44.3642 74.9782 44.1885 74.7153C44.0127 74.4523 43.9189 74.1432 43.9189 73.8269C43.9189 73.5107 44.0127 73.2015 44.1885 72.9386C44.3642 72.6756 44.614 72.4707 44.9062 72.3498C45.1985 72.2289 45.52 72.1973 45.8301 72.2592C46.1403 72.321 46.4251 72.4735 46.6486 72.6972L47.448 73.4965C47.448 73.4806 47.448 73.4699 47.448 73.4539C47.448 72.7612 47.352 71.6688 46.59 70.9068V70.6403H48.7215V70.9068C47.9648 71.6635 47.8556 72.7479 47.8636 73.4406C47.8636 73.4619 47.8636 73.4779 47.8636 73.4965L48.6629 72.6972C48.966 72.4149 49.3668 72.2611 49.7809 72.2684C50.1951 72.2757 50.5902 72.4435 50.8831 72.7364C51.176 73.0293 51.3438 73.4245 51.3511 73.8386C51.3584 74.2528 51.2047 74.6536 50.9223 74.9566H50.9116Z" fill="#171717"/>
<path d="M36.0468 49.2819C35.747 48.9825 35.3407 48.8144 34.9171 48.8144C34.4934 48.8144 34.0871 48.9825 33.7874 49.2819L33.1 49.9666C33.25 49.4898 33.5328 49.0656 33.9153 48.7437C34.1386 48.5201 34.2906 48.2354 34.3522 47.9255C34.4137 47.6156 34.3821 47.2944 34.2612 47.0024C34.1403 46.7105 33.9356 46.4609 33.673 46.2852C33.4104 46.1096 33.1015 46.0157 32.7856 46.0154V46.0154C32.4696 46.0157 32.1608 46.1096 31.8982 46.2852C31.6355 46.4609 31.4308 46.7105 31.31 47.0024C31.1891 47.2944 31.1574 47.6156 31.219 47.9255C31.2806 48.2354 31.4326 48.5201 31.6559 48.7437C32.0384 49.0656 32.3212 49.4898 32.4712 49.9666L31.7838 49.2819C31.5603 49.0581 31.2754 48.9057 30.9653 48.8438C30.6551 48.782 30.3336 48.8135 30.0414 48.9345C29.7491 49.0554 29.4993 49.2603 29.3236 49.5232C29.1479 49.7862 29.054 50.0953 29.054 50.4116C29.054 50.7279 29.1479 51.037 29.3236 51.3C29.4993 51.5629 29.7491 51.7678 30.0414 51.8887C30.3336 52.0097 30.6551 52.0412 30.9653 51.9794C31.2754 51.9175 31.5603 51.7651 31.7838 51.5413L32.5831 50.742C32.5831 50.758 32.5831 50.7686 32.5831 50.7846C32.5831 51.4773 32.4872 52.5697 31.7252 53.3317V53.5982H33.8567V53.3317C33.1 52.5751 32.9907 51.4907 32.9987 50.7979C32.9987 50.7766 32.9987 50.7606 32.9987 50.742L33.798 51.5413C34.1011 51.8237 34.5019 51.9774 34.9161 51.9701C35.3302 51.9628 35.7254 51.795 36.0183 51.5021C36.3111 51.2092 36.4789 50.8141 36.4862 50.3999C36.4935 49.9858 36.3398 49.5849 36.0574 49.2819H36.0468Z" fill="#171717"/>
<path d="M50.9116 49.2819C50.6119 48.9825 50.2056 48.8144 49.7819 48.8144C49.3583 48.8144 48.952 48.9825 48.6522 49.2819L47.9648 49.9666C48.1148 49.4898 48.3977 49.0656 48.7801 48.7437C49.0034 48.5201 49.1555 48.2354 49.217 47.9255C49.2786 47.6156 49.2469 47.2944 49.1261 47.0024C49.0052 46.7105 48.8005 46.4609 48.5379 46.2852C48.2752 46.1096 47.9664 46.0157 47.6504 46.0154V46.0154C47.3345 46.0157 47.0257 46.1096 46.763 46.2852C46.5004 46.4609 46.2957 46.7105 46.1748 47.0024C46.054 47.2944 46.0223 47.6156 46.0839 47.9255C46.1454 48.2354 46.2975 48.5201 46.5207 48.7437C46.9032 49.0656 47.186 49.4898 47.336 49.9666L46.6486 49.2819C46.4251 49.0581 46.1403 48.9057 45.8301 48.8438C45.52 48.782 45.1985 48.8135 44.9062 48.9345C44.614 49.0554 44.3642 49.2603 44.1885 49.5232C44.0127 49.7862 43.9189 50.0953 43.9189 50.4116C43.9189 50.7279 44.0127 51.037 44.1885 51.3C44.3642 51.5629 44.614 51.7678 44.9062 51.8887C45.1985 52.0097 45.52 52.0412 45.8301 51.9794C46.1403 51.9175 46.4251 51.7651 46.6486 51.5413L47.448 50.742C47.448 50.758 47.448 50.7686 47.448 50.7846C47.448 51.4773 47.352 52.5697 46.59 53.3317V53.5982H48.7215V53.3317C47.9648 52.5751 47.8556 51.4907 47.8636 50.7979C47.8636 50.7766 47.8636 50.7606 47.8636 50.742L48.6629 51.5413C48.966 51.8237 49.3668 51.9774 49.7809 51.9701C50.1951 51.9628 50.5902 51.795 50.8831 51.5021C51.176 51.2092 51.3438 50.8141 51.3511 50.3999C51.3584 49.9858 51.2047 49.5849 50.9223 49.2819H50.9116Z" fill="#171717"/>
<path d="M43.4792 43.726C43.1795 43.4266 42.7731 43.2585 42.3495 43.2585C41.9259 43.2585 41.5196 43.4266 41.2198 43.726L40.5324 44.4107C40.6824 43.9339 40.9652 43.5097 41.3477 43.1878C41.571 42.9642 41.723 42.6795 41.7846 42.3696C41.8462 42.0597 41.8145 41.7385 41.6936 41.4465C41.5727 41.1546 41.3681 40.905 41.1054 40.7293C40.8428 40.5537 40.534 40.4598 40.218 40.4595V40.4595C39.902 40.4598 39.5932 40.5537 39.3306 40.7293C39.068 40.905 38.8633 41.1546 38.7424 41.4465C38.6215 41.7385 38.5899 42.0597 38.6514 42.3696C38.713 42.6795 38.865 42.9642 39.0883 43.1878C39.4708 43.5097 39.7536 43.9339 39.9036 44.4107L39.2162 43.726C38.9927 43.5022 38.7079 43.3498 38.3977 43.2879C38.0876 43.2261 37.766 43.2576 37.4738 43.3786C37.1816 43.4995 36.9318 43.7044 36.756 43.9673C36.5803 44.2303 36.4865 44.5394 36.4865 44.8557C36.4865 45.172 36.5803 45.4811 36.756 45.744C36.9318 46.007 37.1816 46.2119 37.4738 46.3328C37.766 46.4538 38.0876 46.4853 38.3977 46.4234C38.7079 46.3616 38.9927 46.2092 39.2162 45.9854L40.0155 45.1861C40.0155 45.2021 40.0155 45.2127 40.0155 45.2287C40.0155 45.9214 39.9196 47.0138 39.1576 47.7758V48.0423H41.2891V47.7758C40.5324 47.0192 40.4232 45.9348 40.4312 45.242C40.4312 45.2207 40.4312 45.2047 40.4312 45.1861L41.2305 45.9854C41.5335 46.2678 41.9343 46.4215 42.3485 46.4142C42.7626 46.4069 43.1578 46.2391 43.4507 45.9462C43.7436 45.6533 43.9114 45.2582 43.9187 44.844C43.926 44.4299 43.7722 44.029 43.4899 43.726H43.4792Z" fill="#171717"/>
<path d="M43.4792 68.5006C43.1795 68.7999 42.7731 68.9681 42.3495 68.9681C41.9259 68.9681 41.5196 68.7999 41.2198 68.5006L40.5324 67.8158C40.6824 68.2927 40.9652 68.7169 41.3477 69.0388C41.571 69.2623 41.723 69.5471 41.7846 69.857C41.8462 70.1669 41.8145 70.4881 41.6936 70.78C41.5727 71.072 41.3681 71.3215 41.1054 71.4972C40.8428 71.6729 40.534 71.7668 40.218 71.7671V71.7671C39.902 71.7668 39.5932 71.6729 39.3306 71.4972C39.068 71.3215 38.8633 71.072 38.7424 70.78C38.6215 70.4881 38.5899 70.1669 38.6514 69.857C38.713 69.5471 38.865 69.2623 39.0883 69.0388C39.4708 68.7169 39.7536 68.2927 39.9036 67.8158L39.2162 68.5006C38.9927 68.7243 38.7079 68.8768 38.3977 68.9386C38.0876 69.0005 37.766 68.9689 37.4738 68.848C37.1816 68.7271 36.9318 68.5222 36.756 68.2592C36.5803 67.9963 36.4865 67.6871 36.4865 67.3709C36.4865 67.0546 36.5803 66.7455 36.756 66.4825C36.9318 66.2196 37.1816 66.0147 37.4738 65.8937C37.766 65.7728 38.0876 65.7413 38.3977 65.8031C38.7079 65.865 38.9927 66.0174 39.2162 66.2412L40.0155 67.0405C40.0155 67.0245 40.0155 67.0138 40.0155 66.9979C40.0155 66.3051 39.9196 65.2127 39.1576 64.4507V64.1843H41.2891V64.4507C40.5324 65.2074 40.4232 66.2918 40.4312 66.9845C40.4312 67.0059 40.4312 67.0218 40.4312 67.0405L41.2305 66.2412C41.5335 65.9588 41.9343 65.8051 42.3485 65.8124C42.7626 65.8197 43.1578 65.9875 43.4507 66.2804C43.7436 66.5732 43.9114 66.9684 43.9187 67.3825C43.926 67.7967 43.7722 68.1975 43.4899 68.5006H43.4792Z" fill="#171717"/>
</g>
<rect x="0.5" y="0.5" width="79" height="111" rx="4.5" stroke="#DADADA"/>
<defs>
<clipPath id="clip0_276_1725">
<rect width="80" height="112" rx="5" fill="white"/>
</clipPath>
</defs>
</svg>
