<svg width="80" height="112" viewBox="0 0 80 112" fill="none" xmlns="http://www.w3.org/2000/svg">
<g clip-path="url(#clip0_276_586)">
<path d="M75 0H5C2.23858 0 0 2.23858 0 5V107C0 109.761 2.23858 112 5 112H75C77.7614 112 80 109.761 80 107V5C80 2.23858 77.7614 0 75 0Z" fill="white"/>
<path d="M19.9999 20.4448C20.0064 21.371 19.7654 22.2837 19.2994 23.098C18.8427 23.9028 18.2126 24.6078 17.45 25.1675C16.611 25.7768 15.6613 26.2354 14.6479 26.5206C13.5606 26.8463 12.4258 27.0074 11.2854 26.9982C9.80375 27.0248 8.33299 26.7535 6.9702 26.2023C5.88883 25.7364 4.88758 25.1193 4 24.3715L5.12083 22.8592C5.85856 23.3298 6.65963 23.7046 7.5026 23.9736C8.40282 24.2734 9.35038 24.426 10.3047 24.4246C10.9206 24.4254 11.5335 24.345 12.126 24.1858C12.6783 24.0653 13.1952 23.8296 13.6392 23.496C14.0878 23.1714 14.452 22.754 14.7039 22.2755C14.9991 21.7067 15.1433 21.0783 15.1243 20.4448C15.1558 19.4665 14.7839 18.5149 14.0875 17.7916C13.3467 17.0604 12.3513 16.608 11.2854 16.5181L10.0525 16.7834L8.81958 17.0222L8.25916 15.0853C9.0463 14.9366 9.81596 14.7144 10.5569 14.422C11.2132 14.1783 11.8345 13.8574 12.4062 13.4669C12.9114 13.1148 13.3396 12.6733 13.6672 12.1668C13.9758 11.6495 14.1307 11.0627 14.1155 10.4687C14.1177 10.1132 14.0444 9.76094 13.9 9.43278C13.7556 9.10461 13.543 8.80728 13.2749 8.55843C12.9668 8.28808 12.605 8.07847 12.2105 7.94182C11.816 7.80517 11.3968 7.7442 10.9772 7.76246C10.0493 7.76123 9.13858 7.99974 8.34322 8.4523C7.58125 8.86282 6.88337 9.37182 6.26968 9.96463L4.95271 8.74415C5.63258 7.64802 6.59715 6.7347 7.75479 6.09095C9.11229 5.33827 10.6656 4.96138 12.2381 5.00313C13.0624 5.00095 13.883 5.10812 14.6759 5.32151C15.4006 5.517 16.0834 5.8313 16.6934 6.25014C17.2722 6.64309 17.743 7.16169 18.0664 7.76246C18.4224 8.40937 18.6052 9.1291 18.5988 9.8585C18.5902 10.5177 18.4376 11.1682 18.1505 11.7688C17.8599 12.3542 17.472 12.8917 17.0016 13.3607C16.528 13.832 15.991 14.2424 15.4045 14.5812C14.8493 14.8944 14.2567 15.1438 13.6392 15.3241C14.3589 15.3128 15.0765 15.4022 15.7687 15.5894C16.4849 15.7847 17.1585 16.0991 17.7582 16.5181C18.3605 16.9707 18.8648 17.5292 19.2433 18.163C19.6958 18.8506 19.9561 19.6358 19.9999 20.4448Z" fill="#171717"/>
<path d="M60.0001 91.5638C59.9936 90.6364 60.2346 89.7225 60.7006 88.9071C61.1573 88.1013 61.7874 87.3953 62.55 86.8349C63.389 86.2248 64.3387 85.7656 65.3521 85.48C66.4394 85.1539 67.5742 84.9926 68.7146 85.0018C70.1963 84.9752 71.667 85.2468 73.0298 85.7988C74.1112 86.2652 75.1124 86.8832 76 87.6319L74.8792 89.1462C74.1415 88.675 73.3404 88.2997 72.4974 88.0304C71.596 87.7345 70.6492 87.5819 69.6953 87.5788C69.0793 87.5763 68.4661 87.6568 67.874 87.8179C67.3151 87.9437 66.7901 88.179 66.3328 88.5086C65.893 88.8352 65.5382 89.2533 65.2961 89.7307C65.0009 90.3003 64.8567 90.9295 64.8758 91.5638C64.8442 92.5434 65.2161 93.4962 65.9125 94.2205C66.6533 94.9527 67.6487 95.4057 68.7146 95.4957L69.9475 95.2035L71.1804 94.9909L71.7408 96.9303C70.9537 97.0793 70.1841 97.3017 69.4431 97.5945C68.7868 97.8385 68.1655 98.1598 67.5938 98.5509C67.0886 98.9034 66.6604 99.3455 66.3328 99.8527C66.0242 100.371 65.8693 100.958 65.8845 101.553C65.8823 101.909 65.9556 102.262 66.1 102.59C66.2444 102.919 66.457 103.217 66.7251 103.466C67.0332 103.736 67.395 103.946 67.7895 104.083C68.184 104.22 68.6032 104.281 69.0228 104.263C69.9507 104.264 70.8614 104.025 71.6568 103.572C72.4152 103.168 73.1049 102.657 73.7023 102.058L75.0473 103.28C74.3499 104.364 73.3892 105.275 72.2452 105.936C70.1259 107.022 67.6459 107.289 65.3241 106.68C64.5973 106.49 63.9134 106.175 63.3066 105.751C62.7278 105.357 62.257 104.838 61.9336 104.236C61.5649 103.593 61.3813 102.869 61.4012 102.137C61.4098 101.477 61.5624 100.826 61.8495 100.225C62.1401 99.6384 62.528 99.1003 62.9984 98.6306C63.472 98.1587 64.009 97.7478 64.5955 97.4085C65.1507 97.0949 65.7433 96.8452 66.3609 96.6646C65.641 96.6775 64.9231 96.588 64.2313 96.399C63.5091 96.2052 62.8334 95.8804 62.2418 95.4426C61.6356 95.0038 61.1303 94.4524 60.7567 93.822C60.3087 93.1413 60.0485 92.3648 60.0001 91.5638Z" fill="#171717"/>
<path d="M13.4084 38.395C13.0051 37.9922 12.4584 37.7659 11.8884 37.7659C11.3185 37.7659 10.7718 37.9922 10.3685 38.395L9.44361 39.3162C9.64543 38.6747 10.0259 38.1039 10.5406 37.6708C10.841 37.37 11.0455 36.9869 11.1284 36.57C11.2112 36.153 11.1686 35.7208 11.006 35.328C10.8433 34.9352 10.5679 34.5995 10.2146 34.3631C9.86121 34.1267 9.44573 34.0004 9.0206 34V34C8.59547 34.0004 8.17999 34.1267 7.82663 34.3631C7.47327 34.5995 7.19788 34.9352 7.03524 35.328C6.8726 35.7208 6.83001 36.153 6.91284 36.57C6.99568 36.9869 7.20023 37.37 7.50065 37.6708C8.01526 38.1039 8.39577 38.6747 8.5976 39.3162L7.67272 38.395C7.37202 38.0939 6.98878 37.8888 6.57148 37.8056C6.15417 37.7223 5.72157 37.7648 5.32839 37.9275C4.93521 38.0902 4.59913 38.3659 4.36267 38.7197C4.12621 39.0734 4 39.4894 4 39.9149C4 40.3404 4.12621 40.7564 4.36267 41.1101C4.59913 41.4639 4.93521 41.7396 5.32839 41.9023C5.72157 42.065 6.15417 42.1075 6.57148 42.0243C6.98878 41.9411 7.37202 41.7359 7.67272 41.4349L8.74816 40.3594C8.74816 40.3809 8.74816 40.3953 8.74816 40.4168C8.74816 41.3488 8.61911 42.8186 7.59386 43.8438V44.2023H10.4617V43.8438C9.44361 42.8258 9.29663 41.3667 9.30739 40.4347C9.30739 40.406 9.30739 40.3845 9.30739 40.3594L10.3828 41.4349C10.7906 41.8148 11.3298 42.0216 11.8871 42.0118C12.4443 42.002 12.9759 41.7762 13.37 41.3822C13.7641 40.9881 13.9898 40.4564 13.9997 39.8992C14.0095 39.342 13.8027 38.8027 13.4227 38.395H13.4084Z" fill="#171717"/>
<path d="M75.4084 73.8074C75.0051 74.2102 74.4584 74.4365 73.8884 74.4365C73.3185 74.4365 72.7718 74.2102 72.3685 73.8074L71.4436 72.8861C71.6454 73.5277 72.0259 74.0985 72.5406 74.5316C72.841 74.8324 73.0455 75.2154 73.1284 75.6324C73.2112 76.0494 73.1686 76.4816 73.006 76.8744C72.8433 77.2672 72.5679 77.6029 72.2146 77.8393C71.8612 78.0757 71.4457 78.202 71.0206 78.2024V78.2024C70.5955 78.202 70.18 78.0757 69.8266 77.8393C69.4733 77.6029 69.1979 77.2672 69.0352 76.8744C68.8726 76.4816 68.83 76.0494 68.9128 75.6324C68.9957 75.2154 69.2002 74.8324 69.5007 74.5316C70.0153 74.0985 70.3958 73.5277 70.5976 72.8861L69.6727 73.8074C69.372 74.1085 68.9888 74.3136 68.5715 74.3968C68.1542 74.48 67.7216 74.4376 67.3284 74.2749C66.9352 74.1122 66.5991 73.8365 66.3627 73.4827C66.1262 73.129 66 72.713 66 72.2875C66 71.862 66.1262 71.446 66.3627 71.0922C66.5991 70.7385 66.9352 70.4628 67.3284 70.3001C67.7216 70.1374 68.1542 70.0949 68.5715 70.1781C68.9888 70.2613 69.372 70.4665 69.6727 70.7675L70.7482 71.843C70.7482 71.8215 70.7482 71.8071 70.7482 71.7856C70.7482 70.8536 70.6191 69.3838 69.5939 68.3586V68.0001H72.4617V68.3586C71.4436 69.3766 71.2966 70.8356 71.3074 71.7677C71.3074 71.7964 71.3074 71.8179 71.3074 71.843L72.3828 70.7675C72.7906 70.3876 73.3298 70.1808 73.8871 70.1906C74.4443 70.2004 74.9759 70.4262 75.37 70.8202C75.7641 71.2143 75.9898 71.746 75.9997 72.3032C76.0095 72.8604 75.8027 73.3997 75.4227 73.8074H75.4084Z" fill="#171717"/>
<rect opacity="0.5" x="25.25" y="31.25" width="29.2297" height="49.5" stroke="#171717" stroke-width="0.5"/>
<path d="M43.8585 43.1831C43.4845 42.8096 42.9777 42.5999 42.4492 42.5999C41.9207 42.5999 41.4138 42.8096 41.0399 43.1831L40.1824 44.0373C40.3695 43.4424 40.7223 42.9132 41.1994 42.5117C41.478 42.2328 41.6677 41.8776 41.7445 41.491C41.8213 41.1044 41.7818 40.7037 41.631 40.3395C41.4802 39.9753 41.2248 39.664 40.8972 39.4448C40.5696 39.2257 40.1843 39.1085 39.7902 39.1082V39.1082C39.396 39.1085 39.0108 39.2257 38.6831 39.4448C38.3555 39.664 38.1002 39.9753 37.9494 40.3395C37.7986 40.7037 37.7591 41.1044 37.8359 41.491C37.9127 41.8776 38.1023 42.2328 38.3809 42.5117C38.858 42.9132 39.2108 43.4424 39.398 44.0373L38.5404 43.1831C38.2616 42.9039 37.9063 42.7138 37.5194 42.6366C37.1325 42.5595 36.7313 42.5988 36.3668 42.7497C36.0022 42.9006 35.6906 43.1562 35.4714 43.4842C35.2522 43.8122 35.1351 44.1978 35.1351 44.5924C35.1351 44.9869 35.2522 45.3726 35.4714 45.7006C35.6906 46.0286 36.0022 46.2842 36.3668 46.4351C36.7313 46.5859 37.1325 46.6253 37.5194 46.5481C37.9063 46.471 38.2616 46.2808 38.5404 46.0017L39.5376 45.0045C39.5376 45.0245 39.5376 45.0378 39.5376 45.0577C39.5376 45.9219 39.4179 47.2846 38.4673 48.2352V48.5676H41.1263V48.2352C40.1824 47.2913 40.0461 45.9385 40.0561 45.0743C40.0561 45.0477 40.0561 45.0278 40.0561 45.0045L41.0532 46.0017C41.4312 46.3539 41.9313 46.5457 42.4479 46.5366C42.9646 46.5275 43.4575 46.3182 43.8229 45.9528C44.1883 45.5874 44.3976 45.0945 44.4067 44.5778C44.4158 44.0612 44.224 43.5611 43.8718 43.1831H43.8585Z" fill="#171717"/>
<path d="M43.8585 68.8169C43.4845 69.1904 42.9777 69.4001 42.4492 69.4001C41.9207 69.4001 41.4138 69.1904 41.0399 68.8169L40.1824 67.9627C40.3695 68.5576 40.7223 69.0868 41.1994 69.4883C41.478 69.7672 41.6677 70.1224 41.7445 70.509C41.8213 70.8956 41.7818 71.2963 41.631 71.6605C41.4802 72.0247 41.2248 72.336 40.8972 72.5552C40.5696 72.7743 40.1843 72.8915 39.7902 72.8918V72.8918C39.396 72.8915 39.0108 72.7743 38.6831 72.5552C38.3555 72.336 38.1002 72.0247 37.9494 71.6605C37.7986 71.2963 37.7591 70.8956 37.8359 70.509C37.9127 70.1224 38.1023 69.7672 38.3809 69.4883C38.858 69.0868 39.2108 68.5576 39.398 67.9627L38.5404 68.8169C38.2616 69.0961 37.9063 69.2862 37.5194 69.3634C37.1325 69.4405 36.7313 69.4012 36.3668 69.2503C36.0022 69.0994 35.6906 68.8438 35.4714 68.5158C35.2522 68.1878 35.1351 67.8022 35.1351 67.4076C35.1351 67.0131 35.2522 66.6274 35.4714 66.2994C35.6906 65.9714 36.0022 65.7158 36.3668 65.5649C36.7313 65.4141 37.1325 65.3747 37.5194 65.4519C37.9063 65.529 38.2616 65.7192 38.5404 65.9983L39.5376 66.9955C39.5376 66.9755 39.5376 66.9622 39.5376 66.9423C39.5376 66.0781 39.4179 64.7154 38.4673 63.7648V63.4324H41.1263V63.7648C40.1824 64.7087 40.0461 66.0615 40.0561 66.9257C40.0561 66.9523 40.0561 66.9722 40.0561 66.9955L41.0532 65.9983C41.4312 65.6461 41.9313 65.4543 42.4479 65.4634C42.9646 65.4725 43.4575 65.6818 43.8229 66.0472C44.1883 66.4126 44.3976 66.9055 44.4067 67.4222C44.4158 67.9388 44.224 68.4389 43.8718 68.8169H43.8585Z" fill="#171717"/>
<path d="M43.8585 55.3452C43.4845 54.9717 42.9777 54.762 42.4492 54.762C41.9207 54.762 41.4138 54.9717 41.0399 55.3452L40.1824 56.1994C40.3695 55.6045 40.7223 55.0753 41.1994 54.6738C41.478 54.3949 41.6677 54.0397 41.7445 53.6531C41.8213 53.2665 41.7818 52.8658 41.631 52.5016C41.4802 52.1374 41.2248 51.8261 40.8972 51.6069C40.5696 51.3878 40.1843 51.2706 39.7902 51.2703V51.2703C39.396 51.2706 39.0108 51.3878 38.6831 51.6069C38.3555 51.8261 38.1002 52.1374 37.9494 52.5016C37.7986 52.8658 37.7591 53.2665 37.8359 53.6531C37.9127 54.0397 38.1023 54.3949 38.3809 54.6738C38.858 55.0753 39.2108 55.6045 39.398 56.1994L38.5404 55.3452C38.2616 55.0661 37.9063 54.8759 37.5194 54.7987C37.1325 54.7216 36.7313 54.7609 36.3668 54.9118C36.0022 55.0627 35.6906 55.3183 35.4714 55.6463C35.2522 55.9743 35.1351 56.36 35.1351 56.7545C35.1351 57.149 35.2522 57.5347 35.4714 57.8627C35.6906 58.1907 36.0022 58.4463 36.3668 58.5972C36.7313 58.7481 37.1325 58.7874 37.5194 58.7103C37.9063 58.6331 38.2616 58.4429 38.5404 58.1638L39.5376 57.1666C39.5376 57.1866 39.5376 57.1999 39.5376 57.2198C39.5376 58.084 39.4179 59.4467 38.4673 60.3973V60.7297H41.1263V60.3973C40.1824 59.4534 40.0461 58.1006 40.0561 57.2364C40.0561 57.2098 40.0561 57.1899 40.0561 57.1666L41.0532 58.1638C41.4312 58.516 41.9313 58.7078 42.4479 58.6987C42.9646 58.6896 43.4575 58.4803 43.8229 58.1149C44.1883 57.7495 44.3976 57.2566 44.4067 56.7399C44.4158 56.2233 44.224 55.7233 43.8718 55.3452H43.8585Z" fill="#171717"/>
</g>
<rect x="0.5" y="0.5" width="79" height="111" rx="4.5" stroke="#DADADA"/>
<defs>
<clipPath id="clip0_276_586">
<rect width="80" height="112" rx="5" fill="white"/>
</clipPath>
</defs>
</svg>
