<svg width="80" height="112" viewBox="0 0 80 112" fill="none" xmlns="http://www.w3.org/2000/svg">
<g clip-path="url(#clip0_276_483)">
<path d="M75 0H5C2.23858 0 0 2.23858 0 5V107C0 109.761 2.23858 112 5 112H75C77.7614 112 80 109.761 80 107V5C80 2.23858 77.7614 0 75 0Z" fill="white"/>
<path d="M19.302 27H4.83222L4 24.6603C5.93289 22.9391 7.57047 21.46 8.88591 20.196C10.0588 19.1688 11.1704 18.0732 12.2148 16.9151C12.9025 16.0979 13.4802 15.1937 13.9329 14.2258C14.2727 13.5014 14.4557 12.7132 14.4698 11.913C14.4896 11.4118 14.4016 10.9123 14.2117 10.4483C14.0218 9.98427 13.7344 9.56661 13.3691 9.22366C12.6196 8.59103 11.6643 8.25608 10.6846 8.2824C9.8077 8.2742 8.94814 8.52691 8.21477 9.00851C7.42228 9.58205 6.74776 10.3034 6.22819 11.1331L4.83222 9.97666C5.0569 9.31189 5.3829 8.68594 5.79866 8.12104C6.2261 7.50918 6.75232 6.97294 7.3557 6.53435C8.00312 6.04606 8.72961 5.67307 9.50336 5.43173C10.3662 5.13221 11.2748 4.98658 12.1879 5.00144C13.1012 4.98375 14.0103 5.12946 14.8725 5.43173C15.6607 5.70288 16.3897 6.12281 17.0201 6.66881C17.6198 7.21607 18.0958 7.88542 18.4161 8.63201C18.7869 9.47905 18.9701 10.3965 18.953 11.3213C18.9489 12.3909 18.7106 13.4466 18.255 14.414C17.7356 15.5183 17.0472 16.5346 16.2148 17.4261C15.1493 18.5676 14.0008 19.6283 12.7785 20.5994C11.3826 21.7021 9.74497 22.9122 7.89262 24.2031H11.8926C12.6443 24.2031 13.3423 24.2031 13.9866 24.2031L15.4631 24.0418C15.7527 23.9976 16.0283 23.8872 16.2685 23.719C16.4385 23.5592 16.5753 23.3672 16.6711 23.1543L17.8524 20.465L20 20.7339C20 21.729 20 22.8316 19.8389 23.988C19.6779 25.1444 19.4899 26.005 19.302 27Z" fill="#171717"/>
<path d="M60.6206 85H75.1636L76 87.3397C74.0573 89.0609 72.4115 90.54 71.0894 91.804C69.9105 92.8312 68.7934 93.9268 67.7437 95.0849C67.063 95.9098 66.4833 96.8126 66.0169 97.7742C65.6754 98.4986 65.4915 99.2868 65.4773 100.087C65.4573 100.588 65.5458 101.088 65.7367 101.552C65.9276 102.016 66.2164 102.433 66.5835 102.776C67.3368 103.409 68.2969 103.744 69.2816 103.718C70.1629 103.726 71.0268 103.473 71.7639 102.991C72.567 102.425 73.2463 101.703 73.7606 100.867L75.1636 102.023C74.9378 102.688 74.6101 103.314 74.1922 103.879C73.7563 104.493 73.2286 105.037 72.6273 105.493C71.9675 105.966 71.2398 106.338 70.4688 106.595C69.5968 106.872 68.6859 107.008 67.7707 106.999C66.8528 107.016 65.9391 106.871 65.0725 106.568C64.2803 106.297 63.5476 105.877 62.914 105.331C62.3033 104.791 61.8236 104.12 61.511 103.368C61.1383 102.521 60.9541 101.603 60.9713 100.679C60.9755 99.6091 61.215 98.5534 61.6729 97.586C62.1949 96.4817 62.8868 95.4654 63.7235 94.5739C64.7973 93.4258 65.9612 92.3646 67.2041 91.4006C68.5801 90.2979 70.226 89.0878 72.0877 87.7969H68.1484C67.3929 87.7969 66.6914 87.7969 66.0439 87.7969L64.5599 87.9582C64.2688 88.0024 63.9918 88.1128 63.7504 88.281C63.5795 88.4408 63.442 88.6328 63.3457 88.8457L62.1585 91.6695L60 91.4006C60 90.4055 60 89.3029 60.1619 88.1465C60.3238 86.9901 60.4317 85.995 60.6206 85Z" fill="#171717"/>
<path d="M13.4084 38.395C13.0051 37.9922 12.4584 37.7659 11.8884 37.7659C11.3185 37.7659 10.7718 37.9922 10.3685 38.395L9.44361 39.3162C9.64543 38.6747 10.0259 38.1039 10.5406 37.6708C10.841 37.37 11.0455 36.9869 11.1284 36.57C11.2112 36.153 11.1686 35.7208 11.006 35.328C10.8433 34.9352 10.5679 34.5995 10.2146 34.3631C9.86121 34.1267 9.44573 34.0004 9.0206 34V34C8.59547 34.0004 8.17999 34.1267 7.82663 34.3631C7.47327 34.5995 7.19788 34.9352 7.03524 35.328C6.8726 35.7208 6.83001 36.153 6.91284 36.57C6.99568 36.9869 7.20023 37.37 7.50065 37.6708C8.01526 38.1039 8.39577 38.6747 8.5976 39.3162L7.67272 38.395C7.37202 38.0939 6.98878 37.8888 6.57148 37.8056C6.15417 37.7223 5.72157 37.7648 5.32839 37.9275C4.93521 38.0902 4.59913 38.3659 4.36267 38.7197C4.12621 39.0734 4 39.4894 4 39.9149C4 40.3404 4.12621 40.7564 4.36267 41.1101C4.59913 41.4639 4.93521 41.7396 5.32839 41.9023C5.72157 42.065 6.15417 42.1075 6.57148 42.0243C6.98878 41.9411 7.37202 41.7359 7.67272 41.4349L8.74816 40.3594C8.74816 40.3809 8.74816 40.3953 8.74816 40.4168C8.74816 41.3488 8.61911 42.8186 7.59386 43.8438V44.2023H10.4617V43.8438C9.44361 42.8258 9.29663 41.3667 9.30739 40.4347C9.30739 40.406 9.30739 40.3845 9.30739 40.3594L10.3828 41.4349C10.7906 41.8148 11.3298 42.0216 11.8871 42.0118C12.4443 42.002 12.9759 41.7762 13.37 41.3822C13.7641 40.9881 13.9898 40.4564 13.9997 39.8992C14.0095 39.342 13.8027 38.8027 13.4227 38.395H13.4084Z" fill="#171717"/>
<path d="M75.4084 73.8074C75.0051 74.2102 74.4584 74.4365 73.8884 74.4365C73.3185 74.4365 72.7718 74.2102 72.3685 73.8074L71.4436 72.8861C71.6454 73.5277 72.0259 74.0985 72.5406 74.5316C72.841 74.8324 73.0455 75.2154 73.1284 75.6324C73.2112 76.0494 73.1686 76.4816 73.006 76.8744C72.8433 77.2672 72.5679 77.6029 72.2146 77.8393C71.8612 78.0757 71.4457 78.202 71.0206 78.2024V78.2024C70.5955 78.202 70.18 78.0757 69.8266 77.8393C69.4733 77.6029 69.1979 77.2672 69.0352 76.8744C68.8726 76.4816 68.83 76.0494 68.9128 75.6324C68.9957 75.2154 69.2002 74.8324 69.5007 74.5316C70.0153 74.0985 70.3958 73.5277 70.5976 72.8861L69.6727 73.8074C69.372 74.1085 68.9888 74.3136 68.5715 74.3968C68.1542 74.48 67.7216 74.4376 67.3284 74.2749C66.9352 74.1122 66.5991 73.8365 66.3627 73.4827C66.1262 73.129 66 72.713 66 72.2875C66 71.862 66.1262 71.446 66.3627 71.0922C66.5991 70.7385 66.9352 70.4628 67.3284 70.3001C67.7216 70.1374 68.1542 70.0949 68.5715 70.1781C68.9888 70.2613 69.372 70.4665 69.6727 70.7675L70.7482 71.843C70.7482 71.8215 70.7482 71.8071 70.7482 71.7856C70.7482 70.8536 70.6191 69.3838 69.5939 68.3586V68.0001H72.4617V68.3586C71.4436 69.3766 71.2966 70.8356 71.3074 71.7677C71.3074 71.7964 71.3074 71.8179 71.3074 71.843L72.3828 70.7675C72.7906 70.3876 73.3298 70.1808 73.8871 70.1906C74.4443 70.2004 74.9759 70.4262 75.37 70.8202C75.7641 71.2143 75.9898 71.746 75.9997 72.3032C76.0095 72.8604 75.8027 73.3997 75.4227 73.8074H75.4084Z" fill="#171717"/>
<rect opacity="0.5" x="25.25" y="31.25" width="29.2297" height="49.5" stroke="#171717" stroke-width="0.5"/>
<path d="M45.8221 47.0744C45.2771 46.5301 44.5384 46.2243 43.7681 46.2243C42.9979 46.2243 42.2591 46.5301 41.7142 47.0744L40.4643 48.3194C40.7371 47.4524 41.2513 46.6811 41.9467 46.0958C42.3527 45.6893 42.6291 45.1717 42.741 44.6082C42.853 44.0447 42.7954 43.4607 42.5756 42.9299C42.3558 42.3991 41.9837 41.9453 41.5062 41.6259C41.0287 41.3065 40.4672 41.1358 39.8927 41.1353V41.1353C39.3182 41.1358 38.7567 41.3065 38.2792 41.6259C37.8017 41.9453 37.4295 42.3991 37.2098 42.9299C36.99 43.4607 36.9324 44.0447 37.0444 44.6082C37.1563 45.1717 37.4327 45.6893 37.8387 46.0958C38.5341 46.6811 39.0483 47.4524 39.3211 48.3194L38.0712 47.0744C37.6649 46.6675 37.147 46.3903 36.5831 46.2779C36.0191 46.1655 35.4345 46.2228 34.9032 46.4427C34.3719 46.6626 33.9177 47.0351 33.5982 47.5132C33.2787 47.9912 33.1081 48.5533 33.1081 49.1284C33.1081 49.7034 33.2787 50.2655 33.5982 50.7436C33.9177 51.2216 34.3719 51.5942 34.9032 51.8141C35.4345 52.0339 36.0191 52.0913 36.5831 51.9788C37.147 51.8664 37.6649 51.5892 38.0712 51.1824L39.5245 49.7291C39.5245 49.7581 39.5245 49.7775 39.5245 49.8066C39.5245 51.0661 39.3501 53.0523 37.9647 54.4377V54.9222H41.8401V54.4377C40.4643 53.062 40.2657 51.0903 40.2802 49.8308C40.2802 49.792 40.2802 49.763 40.2802 49.7291L41.7335 51.1824C42.2845 51.6958 43.0133 51.9753 43.7663 51.962C44.5193 51.9487 45.2377 51.6437 45.7703 51.1111C46.3028 50.5786 46.6079 49.8601 46.6212 49.1071C46.6344 48.3541 46.3549 47.6254 45.8415 47.0744H45.8221Z" fill="#171717"/>
<path d="M45.8221 63.2904C45.2771 62.7461 44.5384 62.4404 43.7681 62.4404C42.9979 62.4404 42.2591 62.7461 41.7142 63.2904L40.4643 64.5354C40.7371 63.6684 41.2513 62.8971 41.9467 62.3119C42.3527 61.9054 42.6291 61.3877 42.741 60.8243C42.853 60.2608 42.7954 59.6767 42.5756 59.1459C42.3558 58.6152 41.9837 58.1614 41.5062 57.842C41.0287 57.5226 40.4672 57.3518 39.8927 57.3513V57.3513C39.3182 57.3518 38.7567 57.5226 38.2792 57.842C37.8017 58.1614 37.4295 58.6152 37.2098 59.1459C36.99 59.6767 36.9324 60.2608 37.0444 60.8243C37.1563 61.3877 37.4327 61.9054 37.8387 62.3119C38.5341 62.8971 39.0483 63.6684 39.3211 64.5354L38.0712 63.2904C37.6649 62.8836 37.147 62.6064 36.5831 62.494C36.0191 62.3815 35.4345 62.4389 34.9032 62.6588C34.3719 62.8786 33.9177 63.2512 33.5982 63.7292C33.2787 64.2073 33.1081 64.7694 33.1081 65.3444C33.1081 65.9195 33.2787 66.4816 33.5982 66.9596C33.9177 67.4377 34.3719 67.8102 34.9032 68.0301C35.4345 68.25 36.0191 68.3074 36.5831 68.1949C37.147 68.0825 37.6649 67.8053 38.0712 67.3984L39.5245 65.9451C39.5245 65.9742 39.5245 65.9936 39.5245 66.0226C39.5245 67.2822 39.3501 69.2683 37.9647 70.6538V71.1382H41.8401V70.6538C40.4643 69.278 40.2657 67.3064 40.2802 66.0469C40.2802 66.0081 40.2802 65.979 40.2802 65.9451L41.7335 67.3984C42.2845 67.9118 43.0133 68.1914 43.7663 68.1781C44.5193 68.1648 45.2377 67.8597 45.7703 67.3272C46.3028 66.7947 46.6079 66.0762 46.6212 65.3232C46.6344 64.5702 46.3549 63.8414 45.8415 63.2904H45.8221Z" fill="#171717"/>
</g>
<rect x="0.5" y="0.5" width="79" height="111" rx="4.5" stroke="#DADADA"/>
<defs>
<clipPath id="clip0_276_483">
<rect width="80" height="112" rx="5" fill="white"/>
</clipPath>
</defs>
</svg>
