<svg width="23" height="24" viewBox="0 0 23 24" fill="none" xmlns="http://www.w3.org/2000/svg">
<g clip-path="url(#clip0_405_328)">
<path d="M21.2386 2.22614L12.7131 0.722879C11.7543 0.5538 10.8398 1.19409 10.6708 2.15297L10.5901 2.61057C11.823 2.76248 12.8646 3.65066 13.1926 4.87449L13.7136 6.81897C13.9895 6.69935 14.3022 6.65625 14.6205 6.71237C15.2244 6.81888 15.6878 7.25352 15.8604 7.8005C16.2097 7.34555 16.7937 7.09557 17.3977 7.20208C18.2621 7.35451 18.8393 8.1788 18.6868 9.04319C18.3556 10.9214 16.3402 12.431 15.3837 13.0519L16.844 18.502C16.9223 18.7941 16.9549 19.0878 16.9477 19.3758L18.1764 19.5925C19.1352 19.7616 20.0497 19.1213 20.2187 18.1624L22.6686 4.2686C22.8377 3.30963 22.1974 2.39522 21.2386 2.22614Z" fill="#050043"/>
<path d="M11.9153 5.21682C11.7042 4.42914 10.9919 3.90962 10.2135 3.90967C10.0624 3.90967 9.90886 3.92923 9.75603 3.97016L1.39408 6.21072C0.453568 6.46273 -0.104584 7.42947 0.147424 8.36998L3.79886 21.9974C4.00993 22.7851 4.72224 23.3046 5.50069 23.3046C5.65171 23.3046 5.80529 23.285 5.95808 23.2441L14.32 21.0035C15.2605 20.7515 15.8187 19.7847 15.5667 18.8442L11.9153 5.21682ZM5.40836 14.5319C5.26657 14.4072 5.21363 14.2095 5.27403 14.0306L6.55266 10.2446C6.65961 9.92791 7.05447 9.82211 7.30546 10.0429L10.3058 12.6824C10.4476 12.8071 10.5005 13.0048 10.4401 13.1837L9.16149 16.9697C9.05454 17.2864 8.65969 17.3922 8.40869 17.1714L5.40836 14.5319Z" fill="#050043"/>
</g>
<defs>
<clipPath id="clip0_405_328">
<rect width="22.6087" height="22.6087" fill="white" transform="translate(0.0869141 0.695801)"/>
</clipPath>
</defs>
</svg>
